<?xml version="1.0" standalone="no"?>
<!DOCTYPE svg PUBLIC "-//W3C//DTD SVG 1.1//EN" "http://www.w3.org/Graphics/SVG/1.1/DTD/svg11.dtd" >
<svg xmlns="http://www.w3.org/2000/svg">
<metadata></metadata>
<defs>
<font id="FreeMonoRegular" horiz-adv-x="1228" >
<font-face units-per-em="2048" ascent="1638" descent="-410" />
<missing-glyph horiz-adv-x="500" />
<glyph horiz-adv-x="0" />
<glyph horiz-adv-x="2048" />
<glyph unicode=" " />
<glyph unicode="!" d="M492 72q0 43 31.5 72.5t76.5 29.5h27q47 0 78.5 -29.5t31.5 -72.5t-31.5 -73t-78.5 -30h-27q-45 0 -76.5 30t-31.5 73zM532 1186q0 35 24 57.5t58 22.5q33 0 56.5 -22.5t23.5 -57.5v-6t-1 -12.5t-1 -14.5l-37 -668q-4 -57 -43 -57q-37 0 -41 57l-36 668q0 4 -1.5 16.5 t-1.5 16.5z" />
<glyph unicode="&#x22;" d="M299 1237h262l-69 -518q-8 -74 -61.5 -74t-61.5 74zM668 1237h262l-70 -518q-8 -74 -61.5 -74t-61.5 74z" />
<glyph unicode="#" d="M188 430q0 41 56 41h182l18 258h-159q-55 0 -56 43q0 41 56 41h166l32 461q4 51 43 51t39 -51v-6l-30 -455h186l33 461q2 51 41 51q41 0 41 -51v-6l-33 -455h182q55 0 55 -41q0 -43 -55 -43h-186l-19 -258h164q55 0 55 -41q0 -43 -55 -43h-170l-33 -461q-2 -53 -43 -53 q-14 0 -27.5 12.5t-13.5 24.5v16l33 461h-186l-31 -461q-6 -53 -43 -53q-16 0 -28.5 12.5t-12.5 30.5v16l33 455h-178q-55 0 -56 43zM510 471h186l19 258h-187z" />
<glyph unicode="$" d="M231 188v162q0 55 43 56q35 0 41 -52q6 -66 95.5 -115t201.5 -49q131 0 216 63t85 159q0 74 -47 118.5t-117.5 60t-152.5 35t-152.5 41t-117.5 78t-47 146.5q0 111 82.5 192.5t211.5 96.5v106q0 55 43 55q41 0 41 -55v-106q68 -6 113 -24.5t100 -61.5q4 59 43 59 q41 0 41 -55v-123q0 -55 -41 -55q-37 0 -43 45q-8 55 -82.5 96t-169.5 41q-106 0 -181 -62.5t-75 -150.5q0 -68 47.5 -110t118 -55t152.5 -32.5t152.5 -41t117.5 -83t47 -155.5q0 -121 -92 -203t-248 -98v-244q0 -55 -41 -55q-43 0 -43 55v244q-72 4 -145.5 34.5 t-112.5 75.5v-33q0 -55 -41 -55q-43 0 -43 55z" />
<glyph unicode="%" d="M178 487q0 29 37 41l776 250q16 4 25 4q14 0 24.5 -11t10.5 -28q0 -26 -37 -38l-776 -250q-16 -6 -25 -6q-12 0 -23.5 12t-11.5 26zM236 997.5q0 104.5 73.5 179t175.5 74.5q106 0 179 -73.5t73 -182.5q0 -102 -73.5 -177t-176.5 -75q-104 0 -177.5 75t-73.5 179.5z M313 997.5q0 -71.5 51.5 -124t122.5 -52.5q70 0 121 52.5t51 121.5q0 76 -50 127.5t-124 51.5q-70 0 -121 -52.5t-51 -124zM489 229.5q0 104.5 74 179t176 74.5q106 0 179 -74.5t73 -183.5q0 -102 -73.5 -176t-176.5 -74q-104 0 -178 75t-74 179.5zM567 229q0 -72 51.5 -124 t122.5 -52q70 0 121 51.5t51 122.5q0 76 -50 127.5t-124 51.5q-72 0 -122 -51.5t-50 -125.5z" />
<glyph unicode="&#x26;" d="M215 291q0 106 60.5 185t166.5 112q-70 113 -86 149.5t-16 81.5q0 100 74.5 172t177.5 72q68 0 135 -41q39 23 53.5 22.5t26.5 -13.5t12 -30q0 -25 -33 -43l-65 -32q-61 53 -129 53q-66 0 -117 -50t-51 -113.5t90 -205.5l227 -362q63 119 95 262h88q55 0 55 -41 q0 -43 -55 -43h-25q-45 -170 -108 -258l55 -84h78q55 0 55 -41q0 -43 -55 -43h-119l-64 98q-92 -131 -229 -131q-121 0 -209 96.5t-88 227.5zM299 291q0 -96 63.5 -168t147.5 -72q112 0 182 125l-215 338q-82 -18 -130 -78.5t-48 -144.5z" />
<glyph unicode="'" d="M483 1237h262l-69 -518q-10 -74 -61.5 -74t-61.5 74z" />
<glyph unicode="(" d="M602 498q0 152 62.5 333t132 293.5t100.5 112.5q16 0 28.5 -12.5t12.5 -28.5q0 -23 -33 -83t-72.5 -133t-72.5 -206t-33 -282q0 -313 205 -682q6 -14 6 -23q0 -16 -13.5 -28.5t-29.5 -12.5q-33 0 -101.5 111.5t-130 296t-61.5 344.5z" />
<glyph unicode=")" d="M301 -213q0 23 33 83t72.5 133t72.5 206t33 283q0 315 -205 682q-6 14 -6 22q0 16 13.5 28.5t29.5 12.5q33 0 101.5 -111.5t130 -296t61.5 -344.5q0 -152 -62.5 -333t-132 -293.5t-100.5 -112.5q-16 0 -28.5 12.5t-12.5 28.5z" />
<glyph unicode="*" d="M231 948q0 16 12.5 28.5t28.5 12.5q6 0 27 -6l272 -86v285q0 55 43 55q41 0 41 -55v-285l273 88q14 6 30 6q14 0 26.5 -12t12.5 -29q0 -31 -43 -45l-272 -86l166 -229q14 -25 14 -37q0 -16 -12 -28.5t-29 -12.5q-20 0 -41 29l-168 229l-166 -229q-23 -29 -43 -29 q-16 0 -28.5 12.5t-12.5 30.5q0 12 17 35l166 229l-273 86q-41 10 -41 43z" />
<glyph unicode="+" d="M147 578q0 41 56 40h368v412q0 55 43 55q41 0 41 -55v-412h369q57 0 57 -40q0 -43 -57 -43h-369v-414q0 -55 -41 -55q-43 0 -43 55v414h-368q-55 0 -56 43z" />
<glyph unicode="," d="M276 -238q0 6 5 23l143 512h272l-297 -543q-27 -51 -63 -51q-25 0 -42.5 17.5t-17.5 41.5z" />
<glyph unicode="-" d="M147 571q0 41 56 41h823q55 0 55 -41q0 -43 -55 -43h-823q-55 0 -56 43z" />
<glyph unicode="." d="M463 104.5q0 57.5 41 95.5t100 38h21q59 0 100 -38t41 -95.5t-41 -96.5t-100 -39h-21q-59 0 -100 39t-41 96.5z" />
<glyph unicode="/" d="M231 -127q0 10 11 33l669 1425q16 37 45 37q16 0 28.5 -12.5t12.5 -26.5q0 -13 -10 -33l-670 -1425q-18 -37 -45 -37q-16 0 -28.5 12.5t-12.5 26.5z" />
<glyph unicode="0" d="M231 514v205q0 244 106.5 395.5t276.5 151.5t276.5 -151.5t106.5 -395.5v-205q0 -242 -106.5 -393.5t-276.5 -151.5t-276.5 151.5t-106.5 393.5zM315 526q0 -201 83 -337t216 -136q139 0 219 140.5t80 332.5v183q0 201 -83 337t-216 136q-139 0 -219 -140.5t-80 -332.5 v-183z" />
<glyph unicode="1" d="M231 43q0 41 58 41h284v1059l-231 -232q-16 -16 -43 -16q-16 0 -27.5 13.5t-11.5 33.5q0 18 23 41l270 270h104v-1169h285q55 0 55 -41q0 -43 -55 -43h-653q-57 0 -58 43z" />
<glyph unicode="2" d="M172 0v123l483 455q143 141 187.5 204.5t44.5 132.5q0 106 -88 186.5t-205 80.5q-104 0 -189.5 -61.5t-109.5 -153.5q-12 -41 -43 -41q-14 0 -26.5 11.5t-12.5 25.5q0 92 111.5 197.5t269.5 105.5q150 0 263.5 -106.5t113.5 -246.5q0 -92 -54.5 -173t-240.5 -255 l-424 -395v-6h643v74q0 55 43 55q41 0 41 -55v-158h-807z" />
<glyph unicode="3" d="M197 141q0 14 12 26.5t26.5 12.5t57.5 -31.5t123 -63.5t180 -32q139 0 240.5 86t101.5 205q0 121 -108.5 208t-258.5 87q-55 0 -55 43q0 41 55 41q322 0 322 225q0 100 -80 167t-199 67q-86 0 -146 -21.5t-84 -48.5t-46.5 -48.5t-40.5 -21.5q-16 0 -28.5 11.5t-12.5 27.5 q0 23 40 64t128 81t192 40q154 0 257.5 -91.5t103.5 -224.5q0 -119 -66.5 -188.5t-144.5 -89.5q121 -49 188.5 -136t67.5 -192q0 -156 -126 -265.5t-302 -109.5q-121 0 -259 60.5t-138 111.5z" />
<glyph unicode="4" d="M215 346v96l467 795h172v-807h70q55 0 55 -43q0 -41 -55 -41h-70v-262h70q55 0 55 -41q0 -43 -55 -43h-310q-55 0 -55 43q0 41 55 41h156v262h-555zM295 430h475v723h-49z" />
<glyph unicode="5" d="M197 168q0 16 12 28.5t29 12.5q14 0 57 -39t123 -78t182 -39q150 0 244 100.5t94 262.5q0 137 -81 223t-210 86q-80 0 -143.5 -20.5t-102.5 -42t-57 -21.5q-39 0 -39 45v551h578q57 0 57 -41q0 -43 -57 -43h-494v-405q150 61 270 61q158 0 260.5 -112.5t102.5 -284.5 q0 -195 -118 -319t-300 -124q-80 0 -158.5 24.5t-131 58.5t-85 67t-32.5 49z" />
<glyph unicode="6" d="M279 578q0 305 173 496.5t425 191.5q66 0 113.5 -21.5t47.5 -50.5q0 -16 -11.5 -28.5t-27.5 -12.5q-6 0 -39.5 14.5t-91.5 14.5q-82 0 -168 -38t-163.5 -107.5t-128 -188.5t-50.5 -264q0 -10 4 -88q125 250 340 249q139 0 240.5 -112.5t101.5 -267.5q0 -166 -102 -281 t-252 -115q-182 0 -296.5 170t-114.5 439zM375 385q43 -166 118.5 -249t198.5 -83q115 0 192 90t77 222q0 121 -77 209t-184 88q-51 0 -101 -25t-81 -50.5t-66.5 -75.5t-44.5 -66.5t-32 -59.5z" />
<glyph unicode="7" d="M215 1081v156h764v-133l-334 -1063q-14 -43 -41 -43q-16 0 -28.5 12.5t-12.5 28.5q0 10 4 27l328 1050v37h-596v-72q0 -57 -41 -57q-43 0 -43 57z" />
<glyph unicode="8" d="M231 330q0 205 230 311q-209 106 -209 287q0 137 107.5 237.5t255 100.5t255 -100.5t107.5 -237.5q0 -181 -209 -287q229 -104 229 -311q0 -150 -112.5 -255.5t-270 -105.5t-270.5 105.5t-113 255.5zM315 329.5q0 -114.5 87 -195.5t212 -81q123 0 211 81t88 194 q0 117 -86 194.5t-213 77.5q-125 0 -212 -78t-87 -192.5zM336 924q0 -100 81 -171t197 -71q115 0 197 69.5t82 170.5q0 109 -81 184.5t-197.5 75.5t-197.5 -75t-81 -183z" />
<glyph unicode="9" d="M279 870q0 166 102 281t252 115q182 0 296.5 -170t114.5 -439q0 -305 -173 -496.5t-425 -191.5q-66 0 -113.5 21.5t-47.5 50.5q0 16 11.5 28.5t27.5 12.5q6 0 39.5 -14.5t91.5 -14.5q82 0 168 38t163.5 107.5t128 188.5t50.5 264q0 10 -4 88q-125 -250 -340 -250 q-139 0 -240.5 113t-101.5 268zM362 870q0 -121 77 -209t184 -88q51 0 101 25t81 50.5t66.5 75.5t44.5 66.5t32 59.5q-43 166 -118.5 249t-198.5 83q-115 0 -192 -90.5t-77 -221.5z" />
<glyph unicode=":" d="M463 104.5q0 57.5 41 95.5t100 38h21q59 0 100 -38t41 -95.5t-41 -96.5t-100 -39h-21q-59 0 -100 39t-41 96.5zM463 719q0 57 41 96t100 39h21q59 0 100 -39t41 -96t-41 -96t-100 -39h-21q-59 0 -100 39t-41 96z" />
<glyph unicode=";" d="M285 -238q0 6 4 23l143 512h273l-297 -543q-27 -51 -64 -51q-25 0 -42 17.5t-17 41.5zM414 719q0 57 41 96t100 39h20q59 0 100.5 -39t41.5 -96t-41 -96t-101 -39h-20q-59 0 -100 39t-41 96z" />
<glyph unicode="&#x3c;" d="M147 575l857 476q16 10 24 10q14 0 27.5 -14.5t13.5 -30.5q0 -23 -27 -37l-727 -404l727 -403q27 -15 27 -35q0 -14 -12.5 -30.5t-28.5 -16.5q-10 0 -27 10z" />
<glyph unicode="=" d="M104 432q0 41 56 41h909q55 0 55 -41q0 -43 -55 -43h-909q-55 0 -56 43zM104 727q0 41 56 41h909q55 0 55 -41q0 -43 -55 -43h-909q-55 0 -56 43z" />
<glyph unicode="&#x3e;" d="M160 137q0 20 26 35l727 403l-727 404q-26 14 -26 37q0 10 11 27.5t30 17.5q10 0 26 -10l854 -476l-856 -475q-16 -10 -24 -10q-16 0 -28.5 14.5t-12.5 32.5z" />
<glyph unicode="?" d="M274 944v139q20 6 84 36t128.5 46.5t146.5 16.5q164 0 264 -87t100 -229q0 -115 -72.5 -192.5t-265.5 -167.5v-84q0 -55 -41 -55q-43 0 -43 55v139q180 76 259 146.5t79 158.5q0 102 -81.5 167t-208.5 65q-125 0 -265 -70v-84q0 -55 -41 -55q-43 0 -43 55zM471 72 q0 45 32 73.5t85 28.5h55q53 0 85 -28.5t32 -73.5t-33 -74t-84 -29h-55q-53 0 -85 29t-32 74z" />
<glyph unicode="@" d="M215 406v333q0 233 112.5 386t286.5 153q139 0 232.5 -94t93.5 -236v-567q39 -6 39 -41q0 -43 -55 -43h-68v10q-61 -6 -82 -6q-119 0 -198.5 74t-79.5 182q0 125 99 210t261 85v96q0 106 -67.5 176t-172.5 70q-139 0 -228 -129t-89 -332v-327q0 -190 88 -319.5 t238 -129.5q86 0 140 21.5t77.5 42t36.5 20.5q16 0 28.5 -11.5t12.5 -27.5q0 -47 -97.5 -88t-210.5 -41q-178 0 -287.5 152.5t-109.5 380.5zM580 559q0 -78 56 -126t144 -48q43 0 76 8v377q-121 0 -198.5 -59.5t-77.5 -151.5z" />
<glyph unicode="A" d="M18 43q0 41 56 41h63l367 985h-246q-55 0 -55 43q0 41 55 41h418l403 -1069h76q55 0 55 -41q0 -43 -55 -43h-319q-55 0 -56 43q0 41 56 41h155l-114 301h-545l-111 -301h162q55 0 55 -41q0 -43 -55 -43h-309q-55 0 -56 43zM365 469h481l-230 600h-30z" />
<glyph unicode="B" d="M88 43q0 41 55 41h111v985h-111q-55 0 -55 43q0 41 55 41h529q150 0 250 -85t100 -212q0 -152 -174 -246q260 -92 260 -297q0 -129 -99.5 -221t-238.5 -92h-627q-55 0 -55 43zM338 84h426q109 0 184.5 66.5t75.5 162.5q0 43 -17.5 82t-56.5 77t-117.5 61.5t-189.5 23.5 h-305v-473zM338 641h301q131 0 215 61.5t84 155.5q0 90 -76 150.5t-188 60.5h-336v-428z" />
<glyph unicode="C" d="M129 496v170q0 39 11.5 95t46 132t86 137.5t143.5 105.5t209 44q207 0 354 -142v60q0 55 43 55q41 0 41 -55v-230q0 -55 -43 -55q-37 0 -41 49q-6 94 -111.5 164t-242.5 70q-170 0 -291 -130t-121 -313v-145q0 -184 133 -320.5t313 -136.5q106 0 190.5 43t166.5 142 q18 20 37 20q41 0 41 -39q0 -18 -33 -57t-86 -83t-139 -77t-177 -33q-209 0 -369.5 161t-160.5 368z" />
<glyph unicode="D" d="M88 43q0 41 55 41h70v985h-70q-55 0 -55 43q0 41 55 41h451q199 0 335 -150.5t136 -367.5v-115q0 -219 -136 -369.5t-335 -150.5h-451q-55 0 -55 43zM297 84h307q147 0 262 127t115 291v149q0 41 -18.5 102.5t-58.5 136.5t-123 127t-191 52h-293v-985z" />
<glyph unicode="E" d="M88 43q0 41 55 41h111v985h-111q-55 0 -55 43q0 41 55 41h879v-285q0 -55 -43 -55q-41 0 -41 55v201h-600v-428h297v92q0 55 43 55q41 0 41 -55v-268q0 -55 -41 -55q-43 0 -43 55v92h-297v-473h643v244q0 55 43 55q41 0 41 -55v-328h-922q-55 0 -55 43z" />
<glyph unicode="F" d="M88 43q0 41 55 41h111v985h-111q-55 0 -55 43q0 41 55 41h922v-285q0 -55 -43 -55q-41 0 -41 55v201h-643v-428h297v92q0 55 41 55q43 0 43 -55v-268q0 -55 -43 -55q-41 0 -41 55v92h-297v-473h283q57 0 57 -41q0 -43 -57 -43h-478q-55 0 -55 43z" />
<glyph unicode="G" d="M129 500v151q0 215 144.5 372t367.5 157q203 0 340 -111v29q0 55 43 55q41 0 41 -55v-187q0 -55 -41 -55q-39 0 -41 51q-6 78 -104.5 133.5t-233.5 55.5q-127 0 -219 -55.5t-134 -135.5t-60.5 -145.5t-18.5 -110.5v-149q0 -209 127 -329t348 -120q143 0 293 70v307h-285 q-55 0 -55 43q0 41 55 41h398q57 0 57 -41q0 -43 -57 -43h-29v-354q-184 -106 -383 -107q-252 0 -402.5 145.5t-150.5 387.5z" />
<glyph unicode="H" d="M109 43q0 41 57 41h92v985h-51q-55 0 -55 43q0 41 55 41h246q55 0 55 -41q0 -43 -55 -43h-111v-428h553v428h-111q-55 0 -55 43q0 41 55 41h246q55 0 55 -41q0 -43 -55 -43h-51v-985h94q55 0 55 -41q0 -43 -55 -43h-289q-55 0 -55 43q0 41 55 41h111v473h-553v-473h111 q55 0 55 -41q0 -43 -55 -43h-287q-57 0 -57 43z" />
<glyph unicode="I" d="M231 43q0 41 56 41h284v985h-284q-55 0 -56 43q0 41 56 41h653q57 0 57 -41q0 -43 -57 -43h-285v-985h285q57 0 57 -41q0 -43 -57 -43h-653q-55 0 -56 43z" />
<glyph unicode="J" d="M172 152v305q0 55 43 55q41 0 41 -55v-267q154 -139 303 -139q125 0 212 84t87 203v731h-326q-55 0 -55 43q0 41 55 41h607q55 0 55 -41q0 -43 -55 -43h-197v-731q0 -152 -113.5 -261.5t-271.5 -109.5q-98 0 -186 42t-199 143z" />
<glyph unicode="K" d="M88 43q0 41 55 41h111v985h-111q-55 0 -55 43q0 41 55 41h349q55 0 55 -41q0 -43 -55 -43h-154v-510l573 510h-92q-57 0 -57 43q0 41 57 41h242q57 0 57 -41q0 -43 -57 -43h-33l-455 -405q150 -61 232 -173t196 -407h115q55 0 55 -41q0 -43 -55 -43h-178 q-113 311 -201 433t-233 169l-166 -149v-369h154q55 0 55 -41q0 -43 -55 -43h-349q-55 0 -55 43z" />
<glyph unicode="L" d="M129 43q0 41 55 41h197v985h-197q-55 0 -55 43q0 41 55 41h478q55 0 55 -41q0 -43 -55 -43h-197v-985h559v328q0 55 43 55q41 0 41 -55v-412h-924q-55 0 -55 43z" />
<glyph unicode="M" d="M23 43q0 41 55 41h69v985h-51q-55 0 -55 43q0 41 55 41h203l322 -713l315 713h205q55 0 55 -41q0 -43 -55 -43h-51v-985h69q55 0 55 -41q0 -43 -55 -43h-305q-55 0 -55 43q0 41 55 41h152v985h-17l-321 -723h-95l-325 723h-17v-985h152q57 0 57 -41q0 -43 -57 -43h-305 q-55 0 -55 43z" />
<glyph unicode="N" d="M45 1112q0 41 55 41h217l625 -1032v948h-151q-57 0 -58 43q0 41 58 41h305q55 0 55 -41q0 -43 -55 -43h-70v-1069h-106l-625 1032v-948h154q55 0 55 -41q0 -43 -55 -43h-308q-55 0 -55 43q0 41 55 41h70v985h-111q-55 0 -55 43z" />
<glyph unicode="O" d="M104 573q0 254 148.5 430.5t361.5 176.5q217 0 363.5 -177.5t146.5 -437.5q0 -248 -149.5 -423t-360.5 -175q-213 0 -361.5 176t-148.5 430zM188 573q0 -215 125 -368.5t301 -153.5q174 0 300 152.5t126 363.5q0 221 -124 375t-302 154q-176 0 -301 -154t-125 -369z" />
<glyph unicode="P" d="M88 43q0 41 55 41h111v985h-111q-55 0 -55 43q0 41 55 41h492q164 0 275.5 -97.5t111.5 -240.5t-121 -242.5t-295 -99.5h-268v-389h283q57 0 57 -41q0 -43 -57 -43h-478q-55 0 -55 43zM338 557h274q133 0 229.5 76t96.5 182q0 104 -87 179t-208 75h-305v-512z" />
<glyph unicode="Q" d="M104 573q0 254 148.5 430.5t361.5 176.5t361.5 -176.5t148.5 -430.5q0 -252 -143 -426t-356 -180l-111 -82q82 16 137 17q86 0 159 -27t101 -27q49 0 103.5 32t62.5 32q16 0 28.5 -12.5t12.5 -30.5q0 -31 -74.5 -68t-138.5 -37q-43 0 -113.5 27t-140.5 27 q-98 0 -195.5 -25.5t-111.5 -25.5q-16 0 -28.5 12t-12.5 31q0 20 23 36l184 134q-174 39 -290 207.5t-116 385.5zM188 573q0 -215 125 -368.5t301 -153.5q174 0 300 152.5t126 363.5q0 221 -124 375t-302 154q-176 0 -301 -154t-125 -369z" />
<glyph unicode="R" d="M88 43q0 41 55 41h111v985h-111q-55 0 -55 43q0 41 55 41h508q150 0 259.5 -95t109.5 -224q0 -199 -285 -297q96 -66 162 -150t190 -303h64q55 0 55 -41q0 -43 -55 -43h-117q-135 250 -222 355.5t-204 158.5h-270v-430h154q55 0 55 -41q0 -43 -55 -43h-349q-55 0 -55 43z M338 598h233q152 0 258.5 69.5t106.5 168.5q0 92 -87 162.5t-198 70.5h-313v-471z" />
<glyph unicode="S" d="M188 55v230q0 55 43 55q39 0 41 -49q4 -100 104.5 -170t239.5 -70q143 0 238.5 74.5t95.5 187.5q0 86 -53 139.5t-132 71t-172 39t-172 45t-132 88t-53 166.5q0 135 107.5 226.5t268.5 91.5q176 0 299 -121v39q0 55 43 55q41 0 41 -55v-211q0 -55 -41 -56q-41 0 -43 50 q-6 92 -90 153.5t-203 61.5q-127 0 -209.5 -67.5t-82.5 -168.5q0 -80 53 -129t132 -66.5t172 -41t172 -48t132 -93t53 -173.5q0 -150 -118.5 -246t-303.5 -96q-217 0 -346 148v-60q0 -55 -43 -55q-41 0 -41 55z" />
<glyph unicode="T" d="M147 920v233h934v-233q0 -55 -41 -56q-18 0 -30.5 15.5t-12.5 40.5v149h-340v-985h215q55 0 56 -41q0 -43 -56 -43h-514q-55 0 -55 43q0 41 55 41h215v985h-342v-149q0 -55 -43 -56q-41 0 -41 56z" />
<glyph unicode="U" d="M82 1112q0 41 55 41h305q55 0 56 -41q0 -43 -56 -43h-151v-690q0 -139 93 -233.5t230 -94.5q135 0 229.5 95.5t94.5 232.5v690h-152q-55 0 -55 43q0 41 55 41h306q55 0 55 -41q0 -43 -55 -43h-70v-690q0 -174 -118 -293t-290 -119q-174 0 -290.5 118t-116.5 294v690h-70 q-55 0 -55 43z" />
<glyph unicode="V" d="M18 1112q0 41 56 41h309q55 0 55 -41q0 -43 -55 -43h-158l381 -985h6l396 985h-160q-55 0 -55 43q0 41 55 41h307q55 0 55 -41q0 -43 -55 -43h-63l-428 -1069h-117l-410 1069h-63q-55 0 -56 43z" />
<glyph unicode="W" d="M41 1112q0 41 55 41h305q57 0 58 -41q0 -43 -58 -43h-190l115 -975l229 803h127l223 -803l117 975h-197q-55 0 -55 43q0 41 55 41h308q55 0 55 -41q0 -43 -55 -43h-31l-127 -1069h-131l-230 819l-235 -819h-129l-123 1069h-31q-55 0 -55 43z" />
<glyph unicode="X" d="M82 43q0 41 55 41h35l385 506l-367 479h-30q-55 0 -56 43q0 41 56 41h225q55 0 55 -41q0 -43 -55 -43h-88l317 -412l314 412h-92q-55 0 -56 43q0 41 56 41h227q55 0 55 -41q0 -43 -55 -43h-31l-366 -479l391 -506h35q55 0 55 -41q0 -43 -55 -43h-271q-55 0 -55 43 q0 41 55 41h127l-338 438l-336 -438h132q55 0 55 -41q0 -43 -55 -43h-269q-55 0 -55 43z" />
<glyph unicode="Y" d="M104 1112q0 41 56 41h227q55 0 55 -41q0 -43 -55 -43h-78l312 -465l305 465h-82q-57 0 -58 43q0 41 58 41h225q55 0 55 -41q0 -43 -55 -43h-49l-361 -549v-436h215q55 0 56 -41q0 -43 -56 -43h-514q-55 0 -55 43q0 41 55 41h215v436l-366 549h-49q-55 0 -56 43z" />
<glyph unicode="Z" d="M211 0v121l672 942v6h-551v-242q0 -57 -41 -57q-43 0 -43 57v326h715v-119l-672 -942v-8h643v289q0 55 41 55q43 0 43 -55v-373h-807z" />
<glyph unicode="[" d="M573 -254v1491h283q55 0 55 -41q0 -43 -55 -43h-199v-1323h199q55 0 55 -41q0 -43 -55 -43h-283z" />
<glyph unicode="\" d="M231 1329q0 14 13.5 26.5t29.5 12.5q25 0 43 -37l670 -1425q10 -18 10 -32.5t-12 -27t-29 -12.5q-27 0 -45 37l-669 1425q-10 20 -11 33z" />
<glyph unicode="]" d="M317 -213q0 43 56 43h198v1323h-198q-55 0 -56 41q0 43 56 43h282v-1491h-282q-55 0 -56 41z" />
<glyph unicode="^" d="M231 766q0 16 19 37l364 457l365 -457q18 -20 18 -37q0 -16 -12 -28.5t-29 -12.5q-20 0 -41 27l-301 378l-301 -378q-18 -27 -41 -27q-16 0 -28.5 12.5t-12.5 28.5z" />
<glyph unicode="_" d="M0 -154h1229v-102h-1229v102z" />
<glyph unicode="`" d="M317 1268q0 16 12.5 28.5t28.5 12.5q14 -1 39 -19l234 -205q25 -23 24 -38q0 -18 -12 -30.5t-31 -12.5q-14 0 -37 18l-233 205q-25 23 -25 41z" />
<glyph unicode="a" d="M147 229q0 133 120 216t313 83q121 0 278 -43v146q0 76 -69.5 122t-182.5 46q-94 0 -194.5 -33t-116.5 -33t-27.5 12.5t-11.5 28.5q0 45 139.5 77t216.5 32q143 0 236.5 -72t93.5 -180v-547h111q55 0 55 -41q0 -43 -55 -43h-195v137q-182 -170 -391 -170 q-143 0 -231.5 73t-88.5 189zM231 227q0 -80 63.5 -128t170.5 -48q109 0 200 41t193 137v185q-119 30 -253 30h-9q-162 0 -263.5 -60t-101.5 -157z" />
<glyph unicode="b" d="M45 43q0 41 55 41h111v1069h-111q-55 0 -55 43q0 41 55 41h195v-565q150 211 369 211q186 0 315 -131t129 -322q0 -193 -130 -328t-314 -135q-225 0 -369 213v-180h-195q-55 0 -55 43zM295 426q0 -156 106.5 -265.5t257.5 -109.5q150 0 257.5 108.5t107.5 260.5 q0 160 -105.5 269.5t-259.5 109.5q-152 0 -258 -108.5t-106 -264.5z" />
<glyph unicode="c" d="M172 418q0 203 133 334t338 131q190 0 320 -113v27q0 57 43 57q41 0 41 -57v-187q0 -55 -41 -55q-37 0 -43 49q-6 82 -101.5 138.5t-224.5 56.5q-170 0 -275.5 -105.5t-105.5 -273.5q0 -162 106.5 -265.5t274.5 -103.5q223 0 383 148q20 20 36.5 20t28 -11.5t11.5 -27.5 q0 -18 -35 -52t-91.5 -71t-148.5 -63.5t-188 -26.5q-201 0 -331 127t-130 324z" />
<glyph unicode="d" d="M129 426q0 188 130 322.5t312 134.5q225 0 373 -213v483h-110q-55 0 -56 43q0 41 56 41h194v-1153h111q55 0 55 -41q0 -43 -55 -43h-195v182q-145 -215 -373 -215q-182 0 -312 135.5t-130 323.5zM213 426q0 -158 106.5 -266.5t260.5 -108.5q152 0 258 108.5t106 262.5 q0 160 -105 268.5t-261 108.5q-152 0 -258.5 -108.5t-106.5 -264.5z" />
<glyph unicode="e" d="M129 444q0 186 135 312.5t332 126.5q207 0 338 -130t131 -345h-852q23 -162 135.5 -259.5t278.5 -97.5q96 0 196.5 31t161.5 80q20 14 33 14q16 0 27.5 -12t11.5 -29q0 -53 -146.5 -110.5t-285.5 -57.5q-207 0 -351.5 139.5t-144.5 337.5zM213 492h766 q-25 139 -129.5 223t-254 84t-251.5 -83t-131 -224z" />
<glyph unicode="f" d="M215 43q0 41 55 41h201v686h-180q-55 0 -55 43q0 41 55 41h180v125q0 113 89 185.5t226 72.5q143 0 285 -27q37 -10 37 -41q0 -41 -43 -41q-4 0 -51 6.5t-113.5 12.5t-118.5 6q-100 0 -163.5 -48t-63.5 -126v-125h387q55 0 55 -41q0 -43 -55 -43h-387v-686h365 q55 0 55 -41q0 -43 -55 -43h-650q-55 0 -55 43z" />
<glyph unicode="g" d="M129 452.5q0 178.5 124 304.5t298 126q217 0 350 -199v170h195q55 0 55 -41q0 -43 -55 -43h-111v-827q0 -131 -98.5 -227.5t-239.5 -96.5h-233q-55 0 -56 43q0 41 56 41h237q104 0 177 73.5t73 178.5v264q-135 -199 -350 -199q-174 0 -298 127t-124 305.5zM213 452.5 q0 -145.5 100.5 -247t243.5 -101.5t243.5 100.5t100.5 244.5q0 150 -99.5 250t-244.5 100q-143 0 -243.5 -100.5t-100.5 -246z" />
<glyph unicode="h" d="M88 1196q0 41 55 41h195v-526q78 94 149.5 133t165.5 39q143 0 234.5 -81t91.5 -206v-512h92q57 0 57 -41q0 -43 -57 -43h-268q-55 0 -55 43q0 41 55 41h92v506q0 92 -69.5 150.5t-182.5 58.5q-86 0 -142.5 -34t-140.5 -132l-22 -27v-522h92q57 0 57 -41q0 -43 -57 -43 h-270q-55 0 -56 43q0 41 56 41h94v1069h-111q-55 0 -55 43z" />
<glyph unicode="i" d="M188 43q0 41 56 41h327v686h-241q-55 0 -56 43q0 41 56 41h325v-770h328q57 0 57 -41q0 -43 -57 -43h-739q-55 0 -56 43zM530 1065v213h121v-213h-121z" />
<glyph unicode="j" d="M240 -338q0 41 55 41h262q102 0 169 67.5t67 172.5v827h-494q-55 0 -55 43q0 41 55 41h578v-911q0 -143 -89.5 -233.5t-228.5 -90.5h-264q-55 0 -55 43zM666 1065v213h120v-213h-120z" />
<glyph unicode="k" d="M129 43q0 41 55 41h111v1069h-111q-55 0 -55 43q0 41 55 41h195v-768l354 301h-45q-55 0 -55 43q0 41 55 41h266q55 0 56 -41q0 -43 -56 -43h-96l-321 -268l424 -418h92q55 0 55 -41q0 -43 -55 -43h-269q-55 0 -55 43q0 41 55 41h58l-369 365l-94 -80v-369h-195 q-55 0 -55 43z" />
<glyph unicode="l" d="M188 43q0 41 56 41h327v1069h-239q-55 0 -56 43q0 41 56 41h323v-1153h328q57 0 57 -41q0 -43 -57 -43h-739q-55 0 -56 43z" />
<glyph unicode="m" d="M23 43q0 41 55 41h69v686h-69q-55 0 -55 43q0 41 55 41h151v-106q51 74 100.5 104.5t114.5 30.5q131 0 199 -146q113 145 231 146q88 0 152 -65.5t64 -155.5v-578h69q55 0 55 -41q0 -43 -55 -43h-151v653q0 57 -41 101.5t-95 44.5q-102 0 -213 -168v-547h70q55 0 55 -41 q0 -43 -55 -43h-151v647q0 59 -40 105.5t-94 46.5q-102 0 -215 -168v-547h70q55 0 55 -41q0 -43 -55 -43h-223q-53 0 -53 43z" />
<glyph unicode="n" d="M109 43q0 41 57 41h92v686h-70q-55 0 -55 43q0 41 55 41h154v-141q88 98 155.5 134t164.5 36q137 0 229 -80t92 -199v-520h70q55 0 55 -41q0 -43 -55 -43h-224q-55 0 -55 43q0 41 55 41h70v506q0 88 -66.5 148.5t-179.5 60.5q-37 0 -70.5 -7.5t-63.5 -22.5t-50 -28.5 t-44 -38t-33 -36t-28.5 -37t-21.5 -27.5v-518h92q55 0 55 -41q0 -43 -55 -43h-268q-57 0 -57 43z" />
<glyph unicode="o" d="M147 426q0 188 136 322.5t331 134.5q197 0 332 -134.5t135 -328.5q0 -188 -137 -320.5t-330 -132.5q-195 0 -331 133t-136 326zM231 426q0 -156 112 -265.5t271 -109.5q158 0 270.5 108.5t112.5 260.5q0 162 -110.5 270.5t-272.5 108.5q-160 0 -271.5 -108.5 t-111.5 -264.5z" />
<glyph unicode="p" d="M45 -338q0 41 55 41h111v1067h-111q-55 0 -55 43q0 41 55 41h195v-168q82 106 166 151.5t201 45.5q190 0 318 -124t128 -306.5t-129 -307.5t-317 -125q-229 0 -367 197v-514h201q55 0 55 -41q0 -43 -55 -43h-396q-55 0 -55 43zM295 453q0 -145 106.5 -247t258 -102 t258 100.5t106.5 244.5q0 150 -104.5 250t-260.5 100q-152 0 -258 -101.5t-106 -244.5z" />
<glyph unicode="q" d="M129 452.5q0 182.5 129 306.5t320 124q227 0 366 -197v168h195q55 0 55 -41q0 -43 -55 -43h-111v-1067h111q55 0 55 -41q0 -43 -55 -43h-396q-55 0 -55 43q0 41 55 41h201v514q-137 -197 -369 -197q-188 0 -317 125t-129 307.5zM213 452.5q0 -145.5 105.5 -247 t259.5 -101.5q152 0 259 100.5t107 244.5q0 150 -105 250t-261 100q-154 0 -259.5 -100.5t-105.5 -246z" />
<glyph unicode="r" d="M172 43q0 41 55 41h197v686h-154q-55 0 -55 43q0 41 55 41h238v-209q141 129 229 179t166 50q82 0 143.5 -49t61.5 -77q0 -18 -12.5 -30.5t-30.5 -12.5q-10 0 -63.5 43t-104.5 43q-70 0 -144.5 -49.5t-244.5 -204.5v-453h366q55 0 56 -43q0 -41 -56 -41h-647 q-55 0 -55 43z" />
<glyph unicode="s" d="M211 55v170q0 55 43 56q41 0 41 -45v-15q0 -70 92 -120t223 -50q135 0 225.5 53.5t90.5 135.5q0 76 -70 116.5t-168 55t-196.5 31t-168 67.5t-69.5 141q0 100 99.5 166t250.5 66q174 0 281 -95v9q0 57 43 57q41 0 41 -57v-142q0 -55 -41 -55q-37 0 -43 47q-8 70 -82 111 t-191 41q-115 0 -190.5 -44t-75.5 -110q0 -61 69.5 -94t168 -46t197 -32.5t168 -78t69.5 -156.5q0 -117 -113.5 -194t-288.5 -77q-197 0 -321 111v-23q0 -55 -41 -55q-43 0 -43 55z" />
<glyph unicode="t" d="M88 813q0 41 57 41h152v244q0 55 43 55q41 0 41 -55v-244h450q55 0 56 -41q0 -43 -56 -43h-450v-547q0 -78 61.5 -125t167.5 -47q86 0 183.5 23.5t156.5 58.5q20 12 33 12q14 0 26.5 -12t12.5 -29q0 -45 -138.5 -91t-269.5 -46q-145 0 -231 68.5t-86 183.5v551h-152 q-57 0 -57 43z" />
<glyph unicode="u" d="M88 813q0 41 55 41h195v-618q0 -78 54 -131.5t132 -53.5q205 0 375 185v534h-151q-57 0 -58 43q0 41 58 41h235v-770h70q55 0 55 -41q0 -43 -55 -43h-154v135q-172 -168 -373 -168q-123 0 -197.5 74t-74.5 195v534h-111q-55 0 -55 43z" />
<glyph unicode="v" d="M61 813q0 41 56 41h309q57 0 57 -41q0 -43 -57 -43h-133l307 -686h39l301 686h-139q-55 0 -56 43q0 41 56 41h311q55 0 55 -41q0 -43 -55 -43h-84l-340 -770h-143l-344 770h-84q-55 0 -56 43z" />
<glyph unicode="w" d="M61 813q0 41 56 41h227q55 0 55 -41q0 -43 -55 -43h-108l147 -655l176 522h105l182 -522l141 655h-102q-55 0 -56 43q0 41 56 41h227q55 0 55 -41q0 -43 -55 -43h-39l-170 -770h-102l-187 530l-182 -530h-104l-172 770h-39q-55 0 -56 43z" />
<glyph unicode="x" d="M104 43q0 41 56 41h18l377 365l-334 321h-14q-55 0 -55 43q0 41 55 41h227q55 0 55 -41q0 -43 -55 -43h-94l274 -266l281 266h-98q-55 0 -56 43q0 41 56 41h225q55 0 55 -41q0 -43 -55 -43h-14l-334 -321l377 -365h18q55 0 55 -41q0 -43 -55 -43h-270q-55 0 -56 43 q0 41 56 41h133l-318 305l-321 -305h139q55 0 55 -41q0 -43 -55 -43h-272q-55 0 -56 43z" />
<glyph unicode="y" d="M104 813q0 41 56 41h235q55 0 56 -41q0 -43 -56 -43h-106l336 -678l329 678h-110q-55 0 -56 43q0 41 56 41h225q55 0 55 -41q0 -43 -55 -43h-29l-524 -1067h133q55 0 56 -41q0 -43 -56 -43h-477q-55 0 -55 43q0 41 55 41h260l146 297l-385 770h-33q-55 0 -56 43z" />
<glyph unicode="z" d="M236 0v74l616 696h-514v-113q0 -55 -41 -55q-43 0 -43 55v197h717v-74l-621 -696h568v115q0 55 43 55q41 0 40 -55v-199h-765z" />
<glyph unicode="{" d="M322 492q0 43 43 43q74 0 142 44t68 130v301q0 106 57.5 166.5t164.5 60.5q18 0 30.5 -11.5t12.5 -29.5q0 -16 -13.5 -28.5t-31.5 -12.5q-51 0 -93.5 -34t-42.5 -111v-301q0 -156 -159 -217q160 -49 159 -218v-303q0 -76 42 -109.5t96 -33.5q18 0 30.5 -12.5t12.5 -28.5 q0 -41 -43 -41q-106 0 -164 60.5t-58 164.5v303q0 88 -68.5 133.5t-141.5 45.5q-43 0 -43 39z" />
<glyph unicode="|" d="M573 -199v1381q0 55 41 55t41 -55v-1381q0 -55 -41 -55t-41 55z" />
<glyph unicode="}" d="M389 -213q0 16 12.5 28.5t30.5 12.5q53 0 95 34t42 109v303q0 168 160 218q-160 61 -160 217v301q0 78 -42 111.5t-93 33.5q-18 0 -31.5 12.5t-13.5 28.5q0 18 12.5 29.5t30.5 11.5q106 0 163.5 -60.5t57.5 -166.5v-301q0 -86 69 -130t142 -44q43 0 43 -43q0 -39 -43 -39 q-74 0 -142.5 -45.5t-68.5 -133.5v-303q0 -104 -57 -164.5t-164 -60.5q-43 0 -43 41z" />
<glyph unicode="~" d="M188 510q0 35 78 119t168 84q61 0 132 -49.5t131.5 -97.5t93.5 -48q45 0 88 40t73.5 79t47 39t28.5 -11.5t12 -27.5q0 -39 -84 -121t-159 -82q-61 0 -129 49t-128.5 97.5t-105.5 48.5q-39 0 -71.5 -24.5t-51 -54.5t-41 -54.5t-43.5 -24.5q-14 0 -26.5 12.5t-12.5 26.5z " />
<glyph unicode="&#xa0;" />
<glyph unicode="&#xa1;" d="M492 856q0 43 31.5 72.5t78.5 29.5h27q45 0 76.5 -29.5t31.5 -72.5t-31.5 -72.5t-76.5 -29.5h-27q-47 0 -78.5 29.5t-31.5 72.5zM535 -258l2 12v21l36 667q2 57 43 58q39 0 41 -58l37 -667q2 -14 2 -33q0 -35 -23.5 -57.5t-58.5 -22.5q-33 0 -56 23.5t-23 56.5z" />
<glyph unicode="&#xa2;" d="M231 637q0 39 12.5 84t44 107.5t105.5 113.5t180 74v219q0 55 43 55q41 0 41 -55v-217q129 0 213 -74q10 35 41 35q43 0 43 -51v-125q0 -57 -41 -58q-35 0 -41 48q-10 66 -73.5 105.5t-161.5 39.5q-139 0 -230.5 -85t-91.5 -216q0 -129 89.5 -214t224.5 -85 q90 0 150.5 25.5t92 51t50.5 25.5q39 0 39 -41t-100.5 -88t-203.5 -51v-231q0 -55 -41 -56q-43 0 -43 56v231q-150 16 -246 124t-96 253z" />
<glyph unicode="&#xa3;" d="M129 602q0 41 55 41h193q-55 174 -55 248q0 121 85 207t203 86q104 0 184 -65.5t80 -104.5q0 -14 -13 -26.5t-27.5 -12.5t-41 30.5t-72.5 62.5t-108 32q-84 0 -145 -62.5t-61 -146.5q0 -51 55 -248h203q55 0 55 -43q0 -41 -55 -41h-185q10 -72 10 -117q0 -213 -116 -358 h516q39 0 60.5 23.5t26.5 52t16.5 52.5t31.5 24q41 0 41 -46q0 -78 -50 -134t-122 -56h-662q-55 0 -55 43q0 39 45 39q72 4 128.5 115.5t56.5 253.5q0 55 -9 108h-213q-55 0 -55 43z" />
<glyph unicode="&#xa4;" d="M211 236q0 18 22 40l115 115q-72 96 -72 207q0 121 70 209l-113 115q-23 20 -22 39q0 16 12.5 28t28.5 12t39 -22l115 -113q90 72 208 72q117 0 209 -72l113 113q23 23 41 22q16 0 28.5 -12t12.5 -31q0 -16 -21 -36l-112 -115q70 -96 69 -207q0 -119 -71 -209l112 -115 q20 -20 21 -40q0 -16 -12.5 -28.5t-28.5 -12.5q-18 0 -39 22l-115 115q-96 -72 -207 -72q-112 0 -206 72l-117 -115q-20 -23 -37 -22q-18 0 -30.5 12t-12.5 29zM360 600q0 -106 75 -181t179 -75q102 0 178 75t76 177q0 109 -74 183.5t-180 74.5q-104 0 -179 -74.5 t-75 -179.5z" />
<glyph unicode="&#xa5;" d="M104 1112q0 41 56 41h225q55 0 55 -41q0 -43 -55 -43h-80l309 -465l310 465h-80q-55 0 -56 43q0 41 56 41h225q55 0 55 -41q0 -43 -55 -43h-49l-336 -506h242q43 0 43 -37q0 -39 -43 -39h-269v-122h269q43 0 43 -37q0 -39 -43 -39h-269v-205h177q55 0 55 -41 q0 -43 -55 -43h-437q-55 0 -55 43q0 41 55 41h176v205h-266q-45 0 -45 39q0 37 45 37h266v122h-266q-45 0 -45 39q0 37 45 37h238l-336 506h-49q-55 0 -56 43z" />
<glyph unicode="&#xa6;" d="M573 -199v547q0 55 41 55t41 -55v-547q0 -55 -41 -55t-41 55zM573 635v547q0 55 41 55t41 -55v-547q0 -55 -41 -55t-41 55z" />
<glyph unicode="&#xa7;" d="M135 733q0 70 57.5 116t153.5 54q-27 45 -27 94q0 96 78 167t185 71h434v-223q0 -49 -41 -49q-43 0 -43 49v141h-344q-76 0 -131.5 -46t-55.5 -110q0 -57 61.5 -110t244.5 -154l114 -63q143 -78 208 -146.5t65 -144.5q0 -147 -209 -172q27 -45 26 -101 q0 -100 -77.5 -166.5t-194.5 -66.5h-424v227q0 49 43 50q41 0 41 -50v-145h338q82 0 136 44t54 110q0 53 -60 110t-208 139l-133 74q-291 164 -291 301zM223 731q0 -88 256 -233l127 -72q164 -92 213 -141q8 4 60.5 11t89.5 24.5t37 56.5q0 45 -59.5 104.5t-160.5 112.5 l-131 74q-172 94 -243 157q-12 -2 -37 -2q-66 0 -109 -26.5t-43 -65.5z" />
<glyph unicode="&#xa8;" d="M287 1149q0 41 30.5 71.5t71.5 30.5q43 0 73 -30.5t30 -73.5q0 -41 -31 -70.5t-72 -29.5t-71.5 30.5t-30.5 71.5zM739 1149q0 41 31 71.5t72 30.5q43 0 72.5 -30.5t29.5 -73.5q0 -41 -30.5 -70.5t-71.5 -29.5t-72 30.5t-31 71.5z" />
<glyph unicode="&#xa9;" d="M6 577.5q0 249.5 178 428t430 178.5q250 0 428.5 -178.5t178.5 -427.5q0 -256 -178.5 -432.5t-436.5 -176.5q-246 0 -423 179.5t-177 429zM90 578q0 -215 152.5 -370t363.5 -155q223 0 377 152.5t154 372.5q0 215 -154 368.5t-369 153.5q-217 0 -370.5 -152.5 t-153.5 -369.5zM313 532v93q0 123 84 210t201 87q88 0 182 -60q0 45 37 45t37 -41v-133q0 -41 -37 -41q-31 0 -37 39q-4 47 -57 82t-123 35q-88 0 -150.5 -66.5t-62.5 -163.5v-79q0 -96 68.5 -167t162.5 -71q51 0 90.5 17.5t57.5 39t36.5 39t33 17.5t24.5 -10.5t10 -24.5 q0 -18 -29.5 -53t-91 -67t-131.5 -32q-121 0 -213 92.5t-92 212.5z" />
<glyph unicode="&#xaa;" d="M315 428q0 41 56 41h489q55 0 55 -41q0 -43 -55 -43h-489q-55 0 -56 43zM317 733q0 88 77 143.5t196 55.5q57 0 149 -19v91q0 43 -36.5 69.5t-96.5 26.5q-43 0 -111.5 -23.5t-72.5 -23.5q-14 0 -24.5 11.5t-10.5 27.5q0 37 87 60.5t136 23.5q90 0 147.5 -48.5 t57.5 -123.5v-351h53q47 0 47 -39q0 -37 -47 -36h-129v53q-111 -59 -219 -60q-90 0 -146.5 45.5t-56.5 116.5zM393 729q0 -37 35 -59.5t92 -22.5q113 0 219 70v121q-59 23 -145 22q-88 0 -144.5 -37t-56.5 -94z" />
<glyph unicode="&#xab;" d="M129 428l426 403q23 23 43 23q16 0 28.5 -12.5t12.5 -28.5t-23 -41l-292 -344l292 -346q23 -25 23 -41t-12.5 -28.5t-28.5 -12.5t-43 23zM598 428l426 403q23 23 43 23q16 0 28.5 -12.5t12.5 -28.5t-23 -41l-292 -344l292 -346q23 -25 23 -41t-12.5 -28.5t-28.5 -12.5 t-43 23z" />
<glyph unicode="&#xac;" d="M147 856q0 41 56 41h878v-498q0 -55 -43 -55q-41 0 -41 55v414h-794q-55 0 -56 43z" />
<glyph unicode="&#xad;" d="M147 571q0 41 56 41h823q55 0 55 -41q0 -43 -55 -43h-823q-55 0 -56 43z" />
<glyph unicode="&#xae;" d="M6 577.5q0 249.5 178 428t430 178.5q250 0 428.5 -178.5t178.5 -427.5q0 -256 -178.5 -432.5t-436.5 -176.5q-246 0 -423 179.5t-177 429zM90 578q0 -215 152.5 -370t363.5 -155q223 0 377 152.5t154 372.5q0 215 -154 368.5t-369 153.5q-217 0 -370.5 -152.5 t-153.5 -369.5zM311 282.5q0 36.5 43 36.5h49v515h-49q-43 0 -43 36.5t43 36.5h283q94 0 154.5 -53t60.5 -137q0 -57 -39 -102.5t-104 -63.5q51 -39 80.5 -80t93.5 -152h30q41 0 41 -36.5t-41 -36.5h-79q-117 244 -228 282h-129v-209h74q41 0 41 -36.5t-41 -36.5h-197 q-43 0 -43 36.5zM477 602h115q86 0 136 32t50 87q0 49 -40 81t-103 32h-158v-232z" />
<glyph unicode="&#xaf;" d="M317.5 1139q-0.5 41 55.5 41h483q55 0 55 -41t-55 -41h-483q-55 0 -55.5 41z" />
<glyph unicode="&#xb0;" d="M317 1010q0 119 88 206t209 87q123 0 210 -87.5t87 -210t-87 -209.5t-210 -87q-125 0 -211 87t-86 214zM401 1008q0 -90 62.5 -152.5t150.5 -62.5t150.5 62.5t62.5 150.5t-62.5 150.5t-150.5 62.5t-150.5 -62.5t-62.5 -148.5z" />
<glyph unicode="&#xb1;" d="M147.5 657q-0.5 41 55.5 41h368v330q0 55 43 55q41 0 41 -55v-330h369q57 0 57 -41t-57 -41h-369v-331q0 -55 -41 -56q-43 0 -43 56v331h-368q-55 0 -55.5 41zM148 41q0 41 55 41h823q55 0 55 -41t-55 -41h-823q-55 0 -55 41z" />
<glyph unicode="&#xb2;" d="M358 776v88l271 252q78 78 100.5 111t22.5 65q0 53 -44 93t-104 40q-53 0 -95 -29.5t-56 -76.5q-8 -33 -37 -33q-14 0 -24.5 10.5t-10.5 24.5q0 53 65.5 115.5t157.5 62.5q88 0 154.5 -61.5t66.5 -145.5q0 -66 -60 -136.5t-316 -305.5h307v6q0 41 36.5 41t36.5 -41v-80 h-471z" />
<glyph unicode="&#xb3;" d="M371 868q0 14 10 24.5t25 10.5q6 0 65 -34.5t133 -34.5q70 0 122 43t52 102q0 61 -53 104t-135 45q-43 4 -43 37q0 23 16.5 30t59.5 7q57 0 94 31t37 78q0 49 -40.5 81.5t-99.5 32.5q-43 0 -75.5 -12t-46 -25.5t-26.5 -25.5t-26 -12q-14 0 -25.5 10t-11.5 24q0 39 71 77 t140 38q90 0 151.5 -54t61.5 -134q0 -88 -94 -152q119 -74 119 -180q0 -90 -72.5 -154.5t-175.5 -64.5q-76 0 -154.5 37t-78.5 71z" />
<glyph unicode="&#xb4;" d="M573 1047q0 16 25 38l233 205q25 18 39 19q16 0 28.5 -12.5t12.5 -30.5q1 -16 -24 -39l-234 -205q-25 -18 -39 -18q-16 0 -28.5 12t-12.5 31z" />
<glyph unicode="&#xb5;" d="M88 813q0 41 55 41h195v-618q0 -84 52 -135.5t134 -51.5q207 0 375 187v536h-151q-57 0 -57.5 41t57.5 41h235v-772h70q55 0 55 -41t-55 -41h-154v121q-164 -154 -371 -154q-116 0 -190 66v-387q0 -55 -43 -56q-41 0 -41 56v1126h-111q-55 0 -55 41z" />
<glyph unicode="&#xb6;" d="M162 831v97q0 137 124 223t324 86h410q51 0 51 -41q0 -43 -51 -43h-125v-1196h127q53 0 53 -41q0 -43 -53 -43h-201q-51 0 -51 43q0 37 43 41v1196h-147v-1196q43 -4 43 -41q0 -43 -52 -43h-274q-53 0 -53 43q0 41 53 41h199v575q-188 12 -304 94.5t-116 204.5zM305 848 q0 -82 79 -144.5t198 -74.5v514q-119 -12 -198 -74.5t-79 -144.5v-76z" />
<glyph unicode="&#xb7;" d="M512 471q0 41 30.5 71.5t71.5 30.5q43 0 73 -30.5t30 -73.5q0 -41 -31 -70.5t-72 -29.5t-71.5 30.5t-30.5 71.5z" />
<glyph unicode="&#xb8;" d="M430 -272q0 16 12.5 27.5t28.5 11.5q8 0 53 -21.5t82 -21.5q39 0 64.5 16t25.5 43q0 51 -94 51h-41v166h78v-96q133 -4 133 -125q0 -59 -45 -96t-117 -37q-53 0 -116.5 23.5t-63.5 58.5z" />
<glyph unicode="&#xb9;" d="M391 805q0 39 64 39q80 0 125 -2v549l-134 -43q-16 -4 -18 -5q-12 0 -23.5 11.5t-11.5 25.5q0 23 32.5 37.5t227.5 73.5v-649h146q41 0 41 -37t-41 -37h-365q-43 0 -43 37z" />
<glyph unicode="&#xba;" d="M315 428q0 41 56 41h489q55 0 55 -41q0 -43 -55 -43h-489q-55 0 -56 43zM315 883q0 123 88 211t213 88q127 0 214.5 -88t87.5 -215q0 -121 -89.5 -209t-212.5 -88q-125 0 -213 88t-88 213zM391 883q0 -94 66.5 -160t159 -66t159 65.5t66.5 156.5q0 96 -65.5 161.5 t-160 65.5t-160 -65.5t-65.5 -157.5z" />
<glyph unicode="&#xbb;" d="M129 41q0 16 23 41l290 344l-290 346q-23 25 -23 41t12.5 28.5t28.5 12.5t43 -23l424 -405l-424 -403q-23 -23 -43 -23q-16 0 -28.5 12.5t-12.5 28.5zM600 41q0 16 23 41l290 344l-290 346q-23 25 -23 41t12.5 28.5t28.5 12.5t43 -23l424 -405l-424 -403q-23 -23 -43 -23 q-16 0 -28.5 12.5t-12.5 28.5z" />
<glyph unicode="&#xbc;" d="M33 567q0 39 63 39q80 0 125 -2v549l-133 -43q-16 -4 -18 -4q-12 0 -23.5 11t-11.5 26q0 23 32.5 37t227.5 73v-649h145q43 0 43 -37t-43 -37h-364q-43 0 -43 37zM211 145q0 14 18 35l717 848q23 25 37 25q16 0 28.5 -12.5t12.5 -28.5q0 -15 -16 -35l-719 -848 q-20 -25 -36.5 -25t-29 12.5t-12.5 28.5zM739 190v70l262 447h117v-443h27q43 0 43 -37t-51 -37h-19v-116h27q43 0 43 -37t-43 -37h-174q-43 0 -43 37q0 25 18.5 31t75.5 6h22v116h-305zM821 264h223v369h-4z" />
<glyph unicode="&#xbd;" d="M47 567q0 39 64 39q80 0 125 -2v549l-134 -43q-16 -4 -18 -4q-12 0 -23.5 11t-11.5 26q0 23 32.5 37t227.5 73v-649h146q41 0 41 -37t-41 -37h-365q-43 0 -43 37zM197 145q0 14 18 35l717 848q23 25 37 25q16 0 28.5 -12.5t12.5 -28.5q-1 -15 -17 -35l-719 -848 q-20 -25 -36.5 -25t-28.5 12.5t-12 28.5zM702 0v88l271 252q78 78 100.5 110.5t22.5 65.5q0 53 -44 93t-104 40q-53 0 -95 -29.5t-56 -76.5q-8 -33 -37 -33q-14 0 -24.5 10.5t-10.5 24.5q0 53 65.5 115.5t157.5 62.5q88 0 154.5 -61.5t66.5 -145.5q0 -66 -60 -136.5 t-316 -305.5h307v6q0 41 37 41t37 -41v-80h-472z" />
<glyph unicode="&#xbe;" d="M12 623q0 14 10.5 24t24.5 10q6 0 65.5 -34.5t133.5 -34.5q70 0 122 43t52 102q0 61 -53.5 104.5t-135.5 45.5q-43 4 -43 37q0 23 16.5 29.5t59.5 6.5q57 0 94 31t37 78q0 49 -40 82t-99 33q-43 0 -76 -12.5t-46 -26t-26.5 -25.5t-25.5 -12q-14 0 -25.5 10t-11.5 25 q0 39 70.5 76.5t140.5 37.5q90 0 151.5 -54t61.5 -134q0 -88 -94 -152q119 -74 119 -180q0 -90 -73 -154.5t-175 -64.5q-76 0 -155 37t-79 72zM209 145q0 14 18 35l717 848q23 25 37 25q16 0 28.5 -12.5t12.5 -28.5q0 -15 -16 -35l-719 -848q-20 -25 -37 -25t-29 12.5 t-12 28.5zM739 190v70l262 447h117v-443h27q43 0 43 -37t-51 -37h-19v-116h27q43 0 43 -37t-43 -37h-174q-43 0 -43 37q0 25 18.5 31t75.5 6h22v116h-305zM821 264h223v369h-4z" />
<glyph unicode="&#xbf;" d="M231 -43q0 115 73 192.5t265 167.5v84q0 55 41 56q43 0 43 -56v-139q-178 -74 -258 -145.5t-80 -159.5q0 -102 82 -166.5t209 -64.5q123 0 264 69v84q0 55 41 55q43 0 43 -55v-137q-203 -100 -358 -100q-164 0 -264.5 87t-100.5 228zM469 752q0 45 33 73.5t84 28.5h55 q53 0 85 -28.5t32 -73.5t-32 -74t-85 -29h-55q-51 0 -84 29t-33 74z" />
<glyph unicode="&#xc0;" d="M18 43q0 41 56 41h63l367 985h-246q-55 0 -55 43q0 41 55 41h418l403 -1069h76q55 0 55 -41q0 -43 -55 -43h-319q-55 0 -56 43q0 41 56 41h155l-114 301h-545l-111 -301h162q55 0 55 -41q0 -43 -55 -43h-309q-55 0 -56 43zM344 1547q0 16 12.5 28.5t28.5 12.5 q14 -1 39 -19l234 -205q25 -23 24 -38q0 -18 -12 -30.5t-31 -12.5q-14 0 -37 18l-233 205q-25 23 -25 41zM365 469h481l-230 600h-30z" />
<glyph unicode="&#xc1;" d="M18 43q0 41 56 41h63l367 985h-246q-55 0 -55 43q0 41 55 41h418l403 -1069h76q55 0 55 -41q0 -43 -55 -43h-319q-55 0 -56 43q0 41 56 41h155l-114 301h-545l-111 -301h162q55 0 55 -41q0 -43 -55 -43h-309q-55 0 -56 43zM365 469h481l-230 600h-30zM496 1319 q0 16 25 38l233 205q25 18 39 19q16 0 28.5 -12.5t12.5 -30.5q1 -16 -24 -39l-234 -205q-25 -18 -39 -18q-16 0 -28.5 12t-12.5 31z" />
<glyph unicode="&#xc2;" d="M18 43q0 41 56 41h63l367 985h-246q-55 0 -55 43q0 41 55 41h418l403 -1069h76q55 0 55 -41q0 -43 -55 -43h-319q-55 0 -56 43q0 41 56 41h155l-114 301h-545l-111 -301h162q55 0 55 -41q0 -43 -55 -43h-309q-55 0 -56 43zM313 1290.5q0 16.5 27 40.5l270 224l271 -222 q27 -23 26 -43q0 -16 -12 -28t-29 -12q-14 0 -36 16l-220 180l-219 -180q-23 -16 -37 -16q-16 0 -28.5 12t-12.5 28.5zM365 469h481l-230 600h-30z" />
<glyph unicode="&#xc3;" d="M18 43q0 41 56 41h63l367 985h-246q-55 0 -55 43q0 41 55 41h418l403 -1069h76q55 0 55 -41q0 -43 -55 -43h-319q-55 0 -56 43q0 41 56 41h155l-114 301h-545l-111 -301h162q55 0 55 -41q0 -43 -55 -43h-309q-55 0 -56 43zM301 1303q0 37 66.5 87t125.5 50q47 0 136 -49 t116 -49q37 0 86.5 47t63.5 47q16 0 28.5 -12.5t12.5 -28.5q0 -31 -64.5 -84t-122.5 -53q-53 0 -141 49t-112 49q-51 0 -90.5 -46t-63.5 -46q-16 0 -28.5 11t-12.5 28zM365 469h481l-230 600h-30z" />
<glyph unicode="&#xc4;" d="M18 43q0 41 56 41h63l367 985h-246q-55 0 -55 43q0 41 55 41h418l403 -1069h76q55 0 55 -41q0 -43 -55 -43h-319q-55 0 -56 43q0 41 56 41h155l-114 301h-545l-111 -301h162q55 0 55 -41q0 -43 -55 -43h-309q-55 0 -56 43zM281 1350q0 41 30.5 71.5t71.5 30.5 q43 0 73 -30.5t30 -73.5q0 -41 -31 -70.5t-72 -29.5t-71.5 30.5t-30.5 71.5zM365 469h481l-230 600h-30zM733 1350q0 41 31 71.5t72 30.5q43 0 72.5 -30.5t29.5 -73.5q0 -41 -30.5 -70.5t-71.5 -29.5t-72 30.5t-31 71.5z" />
<glyph unicode="&#xc5;" d="M18 43q0 41 56 41h63l367 985h-246q-55 0 -55 43q0 41 55 41h418l403 -1069h76q55 0 55 -41q0 -43 -55 -43h-319q-55 0 -56 43q0 41 56 41h155l-114 301h-545l-111 -301h162q55 0 55 -41q0 -43 -55 -43h-309q-55 0 -56 43zM365 469h481l-230 600h-30zM416 1441.5 q0 75.5 56 130t134 54.5q80 0 135.5 -54.5t55.5 -134.5q0 -74 -56.5 -128t-134 -54t-134 55.5t-56.5 131zM484 1441q0 -49 35.5 -83.5t87 -34.5t87 34.5t35.5 81.5q0 49 -35.5 84t-87 35t-87 -34.5t-35.5 -82.5z" />
<glyph unicode="&#xc6;" d="M20 43q0 41 56 41h76l272 985h-129q-55 0 -55 43q0 41 55 41h872v-311q0 -55 -43 -56q-41 0 -41 56v227h-391v-426h160v57q0 55 41 55.5t41 -55.5v-196q0 -55 -41 -55t-41 55v55h-160v-475h432v190q0 53 41 54q43 0 43 -54v-274h-706q-55 0 -56 43q0 41 56 41h106v303 h-289l-83 -303h53q55 0 55 -41q0 -43 -55 -43h-213q-55 0 -56 43zM342 471h266v598h-102z" />
<glyph unicode="&#xc7;" d="M129 496v170q0 39 11.5 95t46 132t86 137.5t143.5 105.5t209 44q207 0 354 -142v60q0 55 43 55q41 0 41 -55v-230q0 -55 -43 -55q-37 0 -41 49q-6 94 -111.5 164t-242.5 70q-170 0 -291 -130t-121 -313v-145q0 -184 133 -320.5t313 -136.5q106 0 190.5 43t166.5 142 q18 20 37 20q41 0 41 -39q0 -33 -78 -104q-72 -66 -164 -106t-176 -40h-27v-63q133 -4 133 -125q0 -59 -45 -96t-116 -37q-53 0 -117 23.5t-64 58.5q0 16 12.5 27.5t28.5 11.5q8 0 53.5 -21.5t81.5 -21.5q39 0 65 16t26 43q0 51 -95 51h-41v141q-221 55 -331.5 209 t-110.5 312z" />
<glyph unicode="&#xc8;" d="M88 43q0 41 55 41h111v985h-111q-55 0 -55 43q0 41 55 41h879v-285q0 -55 -43 -55q-41 0 -41 55v201h-600v-428h297v92q0 55 43 55q41 0 41 -55v-268q0 -55 -41 -55q-43 0 -43 55v92h-297v-473h643v244q0 55 43 55q41 0 41 -55v-328h-922q-55 0 -55 43zM366 1551 q0 16 12.5 28.5t28.5 12.5q14 -1 39 -19l234 -205q25 -23 24 -38q0 -18 -12 -30.5t-31 -12.5q-14 0 -37 18l-233 205q-25 23 -25 41z" />
<glyph unicode="&#xc9;" d="M88 43q0 41 55 41h111v985h-111q-55 0 -55 43q0 41 55 41h879v-285q0 -55 -43 -55q-41 0 -41 55v201h-600v-428h297v92q0 55 43 55q41 0 41 -55v-268q0 -55 -41 -55q-43 0 -43 55v92h-297v-473h643v244q0 55 43 55q41 0 41 -55v-328h-922q-55 0 -55 43zM459 1326 q0 16 25 38l233 205q25 18 39 19q16 0 28.5 -12.5t12.5 -30.5q1 -16 -24 -39l-234 -205q-25 -18 -39 -18q-16 0 -28.5 12t-12.5 31z" />
<glyph unicode="&#xca;" d="M88 43q0 41 55 41h111v985h-111q-55 0 -55 43q0 41 55 41h879v-285q0 -55 -43 -55q-41 0 -41 55v201h-600v-428h297v92q0 55 43 55q41 0 41 -55v-268q0 -55 -41 -55q-43 0 -43 55v92h-297v-473h643v244q0 55 43 55q41 0 41 -55v-328h-922q-55 0 -55 43zM292 1282.5 q0 16.5 27 40.5l270 224l271 -222q27 -23 26 -43q0 -16 -12 -28t-29 -12q-14 0 -36 16l-220 180l-219 -180q-23 -16 -37 -16q-16 0 -28.5 12t-12.5 28.5z" />
<glyph unicode="&#xcb;" d="M88 43q0 41 55 41h111v985h-111q-55 0 -55 43q0 41 55 41h879v-285q0 -55 -43 -55q-41 0 -41 55v201h-600v-428h297v92q0 55 43 55q41 0 41 -55v-268q0 -55 -41 -55q-43 0 -43 55v92h-297v-473h643v244q0 55 43 55q41 0 41 -55v-328h-922q-55 0 -55 43zM267 1344 q0 41 30.5 71.5t71.5 30.5q43 0 73 -30.5t30 -73.5q0 -41 -31 -70.5t-72 -29.5t-71.5 30.5t-30.5 71.5zM719 1344q0 41 31 71.5t72 30.5q43 0 72.5 -30.5t29.5 -73.5q0 -41 -30.5 -70.5t-71.5 -29.5t-72 30.5t-31 71.5z" />
<glyph unicode="&#xcc;" d="M231 43q0 41 56 41h284v985h-284q-55 0 -56 43q0 41 56 41h653q57 0 57 -41q0 -43 -57 -43h-285v-985h285q57 0 57 -41q0 -43 -57 -43h-653q-55 0 -56 43zM399 1551q0 16 12.5 28.5t28.5 12.5q14 -1 39 -19l234 -205q25 -23 24 -38q0 -18 -12 -30.5t-31 -12.5 q-14 0 -37 18l-233 205q-25 23 -25 41z" />
<glyph unicode="&#xcd;" d="M231 43q0 41 56 41h284v985h-284q-55 0 -56 43q0 41 56 41h653q57 0 57 -41q0 -43 -57 -43h-285v-985h285q57 0 57 -41q0 -43 -57 -43h-653q-55 0 -56 43zM553 1323q0 16 25 38l233 205q25 18 39 19q16 0 28.5 -12.5t12.5 -30.5q1 -16 -24 -39l-234 -205q-25 -18 -39 -18 q-16 0 -28.5 12t-12.5 31z" />
<glyph unicode="&#xce;" d="M231 43q0 41 56 41h284v985h-284q-55 0 -56 43q0 41 56 41h653q57 0 57 -41q0 -43 -57 -43h-285v-985h285q57 0 57 -41q0 -43 -57 -43h-653q-55 0 -56 43zM317 1292.5q0 16.5 27 40.5l270 224l271 -222q27 -23 26 -43q0 -16 -12 -28t-29 -12q-14 0 -36 16l-220 180 l-219 -180q-23 -16 -37 -16q-16 0 -28.5 12t-12.5 28.5z" />
<glyph unicode="&#xcf;" d="M231 43q0 41 56 41h284v985h-284q-55 0 -56 43q0 41 56 41h653q57 0 57 -41q0 -43 -57 -43h-285v-985h285q57 0 57 -41q0 -43 -57 -43h-653q-55 0 -56 43zM285 1348q0 41 30.5 71.5t71.5 30.5q43 0 73 -30.5t30 -73.5q0 -41 -31 -70.5t-72 -29.5t-71.5 30.5t-30.5 71.5z M737 1348q0 41 31 71.5t72 30.5q43 0 72.5 -30.5t29.5 -73.5q0 -41 -30.5 -70.5t-71.5 -29.5t-72 30.5t-31 71.5z" />
<glyph unicode="&#xd0;" d="M0 600q0 41 55 41h158v428h-70q-55 0 -55 43q0 41 55 41h451q193 0 332 -152.5t139 -365.5v-115q0 -213 -139.5 -366.5t-331.5 -153.5h-451q-55 0 -55 43q0 41 55 41h70v473h-158q-55 0 -55 43zM297 84h307q145 0 261 128t116 290v151q0 31 -10 76t-38 106.5t-70 111.5 t-113.5 86t-159.5 36h-293v-428h332q55 0 55 -41q0 -43 -55 -43h-332v-473z" />
<glyph unicode="&#xd1;" d="M45 1112q0 41 55 41h217l625 -1032v948h-151q-57 0 -58 43q0 41 58 41h305q55 0 55 -41q0 -43 -55 -43h-70v-1069h-106l-625 1032v-948h154q55 0 55 -41q0 -43 -55 -43h-308q-55 0 -55 43q0 41 55 41h70v985h-111q-55 0 -55 43zM281 1307q0 37 66.5 87t125.5 50 q47 0 136 -49t116 -49q37 0 86.5 47t63.5 47q16 0 28.5 -12.5t12.5 -28.5q0 -31 -64.5 -84t-122.5 -53q-53 0 -141 49t-112 49q-51 0 -90.5 -46t-63.5 -46q-16 0 -28.5 11t-12.5 28z" />
<glyph unicode="&#xd2;" d="M104 573q0 254 148.5 430.5t361.5 176.5q217 0 363.5 -177.5t146.5 -437.5q0 -248 -149.5 -423t-360.5 -175q-213 0 -361.5 176t-148.5 430zM188 573q0 -215 125 -368.5t301 -153.5q174 0 300 152.5t126 363.5q0 221 -124 375t-302 154q-176 0 -301 -154t-125 -369z M380 1551q0 16 12.5 28.5t28.5 12.5q14 -1 39 -19l234 -205q25 -23 24 -38q0 -18 -12 -30.5t-31 -12.5q-14 0 -37 18l-233 205q-25 23 -25 41z" />
<glyph unicode="&#xd3;" d="M104 573q0 254 148.5 430.5t361.5 176.5q217 0 363.5 -177.5t146.5 -437.5q0 -248 -149.5 -423t-360.5 -175q-213 0 -361.5 176t-148.5 430zM188 573q0 -215 125 -368.5t301 -153.5q174 0 300 152.5t126 363.5q0 221 -124 375t-302 154q-176 0 -301 -154t-125 -369z M492 1332q0 16 25 38l233 205q25 18 39 19q16 0 28.5 -12.5t12.5 -30.5q1 -16 -24 -39l-234 -205q-25 -18 -39 -18q-16 0 -28.5 12t-12.5 31z" />
<glyph unicode="&#xd4;" d="M104 573q0 254 148.5 430.5t361.5 176.5q217 0 363.5 -177.5t146.5 -437.5q0 -248 -149.5 -423t-360.5 -175q-213 0 -361.5 176t-148.5 430zM188 573q0 -215 125 -368.5t301 -153.5q174 0 300 152.5t126 363.5q0 221 -124 375t-302 154q-176 0 -301 -154t-125 -369z M317 1290.5q0 16.5 27 40.5l270 224l271 -222q27 -23 26 -43q0 -16 -12 -28t-29 -12q-14 0 -36 16l-220 180l-219 -180q-23 -16 -37 -16q-16 0 -28.5 12t-12.5 28.5z" />
<glyph unicode="&#xd5;" d="M104 573q0 254 148.5 430.5t361.5 176.5q217 0 363.5 -177.5t146.5 -437.5q0 -248 -149.5 -423t-360.5 -175q-213 0 -361.5 176t-148.5 430zM188 573q0 -215 125 -368.5t301 -153.5q174 0 300 152.5t126 363.5q0 221 -124 375t-302 154q-176 0 -301 -154t-125 -369z M297 1303q0 37 66.5 87t125.5 50q47 0 136 -49t116 -49q37 0 86.5 47t63.5 47q16 0 28.5 -12.5t12.5 -28.5q0 -31 -64.5 -84t-122.5 -53q-53 0 -141 49t-112 49q-51 0 -90.5 -46t-63.5 -46q-16 0 -28.5 11t-12.5 28z" />
<glyph unicode="&#xd6;" d="M104 573q0 254 148.5 430.5t361.5 176.5q217 0 363.5 -177.5t146.5 -437.5q0 -248 -149.5 -423t-360.5 -175q-213 0 -361.5 176t-148.5 430zM188 573q0 -215 125 -368.5t301 -153.5q174 0 300 152.5t126 363.5q0 221 -124 375t-302 154q-176 0 -301 -154t-125 -369z M287 1346q0 41 30.5 71.5t71.5 30.5q43 0 73 -30.5t30 -73.5q0 -41 -31 -70.5t-72 -29.5t-71.5 30.5t-30.5 71.5zM739 1346q0 41 31 71.5t72 30.5q43 0 72.5 -30.5t29.5 -73.5q0 -41 -30.5 -70.5t-71.5 -29.5t-72 30.5t-31 71.5z" />
<glyph unicode="&#xd7;" d="M242 246q0 18 20 39l293 293l-293 290q-20 23 -20 39q0 18 12 30.5t31 12.5q14 0 37 -22l292 -291l291 291q23 23 39.5 22.5t29.5 -12.5t13 -31q0 -16 -22 -39l-291 -290l291 -293q23 -20 22 -39q0 -16 -12 -28.5t-30.5 -12.5t-39.5 20l-291 293l-290 -293 q-23 -20 -39 -20q-18 0 -30.5 12t-12.5 29z" />
<glyph unicode="&#xd8;" d="M82 -51q0 12 16 33l142 178q-135 180 -136 413q0 254 148.5 430.5t361.5 176.5q176 0 324 -136l135 170q18 25 37 25q16 0 26.5 -11t10.5 -26q0 -10 -17 -33l-143 -180q137 -170 137 -416q0 -254 -148.5 -430t-361.5 -176q-184 0 -325 137l-133 -167q-18 -25 -37 -25 q-16 0 -26.5 11t-10.5 26zM188 573q1 -186 107 -344l590 746q-121 121 -271 121q-176 0 -301 -154t-125 -369zM342 172q121 -121 272 -121q176 0 301 153.5t125 368.5q0 193 -106 347z" />
<glyph unicode="&#xd9;" d="M82 1112q0 41 55 41h305q55 0 56 -41q0 -43 -56 -43h-151v-690q0 -139 93 -233.5t230 -94.5q135 0 229.5 95.5t94.5 232.5v690h-152q-55 0 -55 43q0 41 55 41h306q55 0 55 -41q0 -43 -55 -43h-70v-690q0 -174 -118 -293t-290 -119q-174 0 -290.5 118t-116.5 294v690h-70 q-55 0 -55 43zM380 1551q0 16 12.5 28.5t28.5 12.5q14 -1 39 -19l234 -205q25 -23 24 -38q0 -18 -12 -30.5t-31 -12.5q-14 0 -37 18l-233 205q-25 23 -25 41z" />
<glyph unicode="&#xda;" d="M82 1112q0 41 55 41h305q55 0 56 -41q0 -43 -56 -43h-151v-690q0 -139 93 -233.5t230 -94.5q135 0 229.5 95.5t94.5 232.5v690h-152q-55 0 -55 43q0 41 55 41h306q55 0 55 -41q0 -43 -55 -43h-70v-690q0 -174 -118 -293t-290 -119q-174 0 -290.5 118t-116.5 294v690h-70 q-55 0 -55 43zM492 1326q0 16 25 38l233 205q25 18 39 19q16 0 28.5 -12.5t12.5 -30.5q1 -16 -24 -39l-234 -205q-25 -18 -39 -18q-16 0 -28.5 12t-12.5 31z" />
<glyph unicode="&#xdb;" d="M82 1112q0 41 55 41h305q55 0 56 -41q0 -43 -56 -43h-151v-690q0 -139 93 -233.5t230 -94.5q135 0 229.5 95.5t94.5 232.5v690h-152q-55 0 -55 43q0 41 55 41h306q55 0 55 -41q0 -43 -55 -43h-70v-690q0 -174 -118 -293t-290 -119q-174 0 -290.5 118t-116.5 294v690h-70 q-55 0 -55 43zM317 1290.5q0 16.5 27 40.5l270 224l271 -222q27 -23 26 -43q0 -16 -12 -28t-29 -12q-14 0 -36 16l-220 180l-219 -180q-23 -16 -37 -16q-16 0 -28.5 12t-12.5 28.5z" />
<glyph unicode="&#xdc;" d="M82 1112q0 41 55 41h305q55 0 56 -41q0 -43 -56 -43h-151v-690q0 -139 93 -233.5t230 -94.5q135 0 229.5 95.5t94.5 232.5v690h-152q-55 0 -55 43q0 41 55 41h306q55 0 55 -41q0 -43 -55 -43h-70v-690q0 -174 -118 -293t-290 -119q-174 0 -290.5 118t-116.5 294v690h-70 q-55 0 -55 43zM287 1346q0 41 30.5 71.5t71.5 30.5q43 0 73 -30.5t30 -73.5q0 -41 -31 -70.5t-72 -29.5t-71.5 30.5t-30.5 71.5zM739 1346q0 41 31 71.5t72 30.5q43 0 72.5 -30.5t29.5 -73.5q0 -41 -30.5 -70.5t-71.5 -29.5t-72 30.5t-31 71.5z" />
<glyph unicode="&#xdd;" d="M104 1112q0 41 56 41h227q55 0 55 -41q0 -43 -55 -43h-78l312 -465l305 465h-82q-57 0 -58 43q0 41 58 41h225q55 0 55 -41q0 -43 -55 -43h-49l-361 -549v-436h215q55 0 56 -41q0 -43 -56 -43h-514q-55 0 -55 43q0 41 55 41h215v436l-366 549h-49q-55 0 -56 43zM492 1332 q0 16 25 38l233 205q25 18 39 19q16 0 28.5 -12.5t12.5 -30.5q1 -16 -24 -39l-234 -205q-25 -18 -39 -18q-16 0 -28.5 12t-12.5 31z" />
<glyph unicode="&#xde;" d="M88 43q0 41 55 41h111v985h-111q-55 0 -55 43q0 41 55 41h478q57 0 57 -41q0 -43 -57 -43h-283v-162h297q164 0 275.5 -97t111.5 -240.5t-121 -243t-295 -99.5h-268v-143h283q57 0 57 -41q0 -43 -57 -43h-478q-55 0 -55 43zM338 311h274q133 0 229.5 76t96.5 182 q0 104 -87 179t-208 75h-305v-512z" />
<glyph unicode="&#xdf;" d="M47 43q0 41 55 41h111v879q0 109 91 191.5t210 82.5q131 0 220 -85t89 -214q0 -123 -118 -203q313 -94 313 -405q0 -172 -74 -267.5t-207 -95.5q-104 0 -176 69.5t-72 170.5q0 47 41 47q23 0 38.5 -32t25.5 -69.5t47 -69.5t96 -32q94 0 145.5 72t51.5 209q0 98 -45 172 t-111.5 110.5t-125 53t-101.5 16.5h-10q-55 0 -56 43q0 41 47 41h11q78 0 137 52t59 120q0 86 -67.5 149.5t-157.5 63.5q-86 0 -151.5 -57.5t-65.5 -132.5v-879h31q55 0 55 -41q0 -43 -55 -43h-226q-55 0 -55 43z" />
<glyph unicode="&#xe0;" d="M147 229q0 133 120 216t313 83q121 0 278 -43v146q0 76 -69.5 122t-182.5 46q-94 0 -194.5 -33t-116.5 -33t-27.5 12.5t-11.5 28.5q0 45 139.5 77t216.5 32q143 0 236.5 -72t93.5 -180v-547h111q55 0 55 -41q0 -43 -55 -43h-195v137q-182 -170 -391 -170 q-143 0 -231.5 73t-88.5 189zM231 227q0 -80 63.5 -128t170.5 -48q109 0 200 41t193 137v185q-123 31 -262 30q-162 0 -263.5 -60t-101.5 -157zM358 1270q0 16 12.5 28.5t28.5 12.5q14 -1 39 -19l234 -205q25 -23 24 -38q0 -18 -12 -30.5t-31 -12.5q-14 0 -37 18l-233 205 q-25 23 -25 41z" />
<glyph unicode="&#xe1;" d="M147 229q0 133 120 216t313 83q121 0 278 -43v146q0 76 -69.5 122t-182.5 46q-94 0 -194.5 -33t-116.5 -33t-27.5 12.5t-11.5 28.5q0 45 139.5 77t216.5 32q143 0 236.5 -72t93.5 -180v-547h111q55 0 55 -41q0 -43 -55 -43h-195v137q-182 -170 -391 -170 q-143 0 -231.5 73t-88.5 189zM231 227q0 -80 63.5 -128t170.5 -48q109 0 200 41t193 137v185q-123 31 -262 30q-162 0 -263.5 -60t-101.5 -157zM469 1049q0 16 25 38l233 205q25 18 39 19q16 0 28.5 -12.5t12.5 -30.5q1 -16 -24 -39l-234 -205q-25 -18 -39 -18 q-16 0 -28.5 12t-12.5 31z" />
<glyph unicode="&#xe2;" d="M147 229q0 133 120 216t313 83q121 0 278 -43v146q0 76 -69.5 122t-182.5 46q-94 0 -194.5 -33t-116.5 -33t-27.5 12.5t-11.5 28.5q0 45 139.5 77t216.5 32q143 0 236.5 -72t93.5 -180v-547h111q55 0 55 -41q0 -43 -55 -43h-195v137q-182 -170 -391 -170 q-143 0 -231.5 73t-88.5 189zM231 227q0 -80 63.5 -128t170.5 -48q109 0 200 41t193 137v185q-123 31 -262 30q-162 0 -263.5 -60t-101.5 -157zM294 1017.5q0 16.5 27 40.5l270 224l271 -222q27 -23 26 -43q0 -16 -12 -28t-29 -12q-14 0 -36 16l-220 180l-219 -180 q-23 -16 -37 -16q-16 0 -28.5 12t-12.5 28.5z" />
<glyph unicode="&#xe3;" d="M147 229q0 133 120 216t313 83q121 0 278 -43v146q0 76 -69.5 122t-182.5 46q-94 0 -194.5 -33t-116.5 -33t-27.5 12.5t-11.5 28.5q0 45 139.5 77t216.5 32q143 0 236.5 -72t93.5 -180v-547h111q55 0 55 -41q0 -43 -55 -43h-195v137q-182 -170 -391 -170 q-143 0 -231.5 73t-88.5 189zM231 227q0 -80 63.5 -128t170.5 -48q109 0 200 41t193 137v185q-123 31 -262 30q-162 0 -263.5 -60t-101.5 -157zM295 1051q0 37 66.5 87t125.5 50q47 0 136 -49t116 -49q37 0 86.5 47t63.5 47q16 0 28.5 -12.5t12.5 -28.5q0 -31 -64.5 -84 t-122.5 -53q-53 0 -141 49t-112 49q-51 0 -90.5 -46t-63.5 -46q-16 0 -28.5 11t-12.5 28z" />
<glyph unicode="&#xe4;" d="M147 229q0 133 120 216t313 83q121 0 278 -43v146q0 76 -69.5 122t-182.5 46q-94 0 -194.5 -33t-116.5 -33t-27.5 12.5t-11.5 28.5q0 45 139.5 77t216.5 32q143 0 236.5 -72t93.5 -180v-547h111q55 0 55 -41q0 -43 -55 -43h-195v137q-182 -170 -391 -170 q-143 0 -231.5 73t-88.5 189zM231 227q0 -80 63.5 -128t170.5 -48q109 0 200 41t193 137v185q-123 31 -262 30q-162 0 -263.5 -60t-101.5 -157zM262 1108q0 41 30.5 71.5t71.5 30.5q43 0 73 -30.5t30 -73.5q0 -41 -31 -70.5t-72 -29.5t-71.5 30.5t-30.5 71.5zM714 1108 q0 41 31 71.5t72 30.5q43 0 72.5 -30.5t29.5 -73.5q0 -41 -30.5 -70.5t-71.5 -29.5t-72 30.5t-31 71.5z" />
<glyph unicode="&#xe5;" d="M147 229q0 133 120 216t313 83q121 0 278 -43v146q0 76 -69.5 122t-182.5 46q-94 0 -194.5 -33t-116.5 -33t-27.5 12.5t-11.5 28.5q0 45 139.5 77t216.5 32q143 0 236.5 -72t93.5 -180v-547h111q55 0 55 -41q0 -43 -55 -43h-195v137q-182 -170 -391 -170 q-143 0 -231.5 73t-88.5 189zM231 227q0 -80 63.5 -128t170.5 -48q109 0 200 41t193 137v185q-123 31 -262 30q-162 0 -263.5 -60t-101.5 -157zM422 1192.5q0 75.5 56 130t134 54.5q80 0 135.5 -54.5t55.5 -134.5q0 -74 -56.5 -128t-134 -54t-134 55.5t-56.5 131zM490 1192 q0 -49 35.5 -83.5t87 -34.5t87 34.5t35.5 81.5q0 49 -35.5 84t-87 35t-87 -34.5t-35.5 -82.5z" />
<glyph unicode="&#xe6;" d="M25 270q0 111 109.5 183.5t264.5 72.5q84 0 174 -24v123q0 72 -52 123t-128 51q-74 0 -137 -33t-72 -33q-14 0 -26.5 13.5t-12.5 27.5q0 43 100.5 76t162.5 33q76 0 139 -47.5t92 -124.5q37 80 102.5 126t139.5 46q150 0 223.5 -128t77.5 -347h-529q10 -156 84 -256.5 t176 -100.5q51 0 98.5 32t81 63.5t50 31.5t29 -12t12.5 -29q0 -35 -95.5 -102.5t-179.5 -67.5q-152 0 -254 158v-70q0 -55 -41 -55t-41 55v51q-115 -139 -245.5 -139t-216.5 86t-86 217zM117 248q0 -86 60.5 -141.5t154.5 -55.5q104 0 241 174v191q-90 27 -161 26 q-66 0 -141.5 -24.5t-110.5 -57.5q-43 -43 -43 -112zM655 492h441q-8 59 -16.5 99t-31 94t-65.5 84t-104 30q-182 0 -224 -307z" />
<glyph unicode="&#xe7;" d="M172 418q0 203 133 334t338 131q190 0 320 -113v27q0 57 43 57q41 0 41 -57v-187q0 -55 -41 -55t-43 49q-8 82 -102.5 138.5t-223.5 56.5q-170 0 -275.5 -105.5t-105.5 -273.5q0 -162 106.5 -265.5t274.5 -103.5q223 0 383 148q20 20 36.5 20t28 -11.5t11.5 -27.5 q0 -14 -16.5 -36.5t-54.5 -51.5t-88 -55.5t-127 -46t-165 -23.5v-63q133 -4 133 -125q0 -59 -45 -96t-117 -37q-53 0 -116.5 24.5t-63.5 55.5q0 16 12.5 28.5t28.5 12.5q8 0 53 -21.5t82 -21.5q39 0 64.5 16t25.5 43q0 51 -92 51h-43v137q-102 14 -179 57.5t-117 93.5 t-63.5 113.5t-29.5 104.5t-6 78z" />
<glyph unicode="&#xe8;" d="M129 444q0 186 135 312.5t332 126.5q207 0 338 -130t131 -345h-852q23 -162 135.5 -259.5t278.5 -97.5q96 0 196.5 31t161.5 80q20 14 33 14q16 0 27.5 -12t11.5 -29q0 -53 -146.5 -110.5t-285.5 -57.5q-207 0 -351.5 139.5t-144.5 337.5zM213 492h766 q-25 139 -129.5 223t-254 84t-251.5 -83t-131 -224zM383 1270q0 16 12.5 28.5t28.5 12.5q14 -1 39 -19l234 -205q25 -23 24 -38q0 -18 -12 -30.5t-31 -12.5q-14 0 -37 18l-233 205q-25 23 -25 41z" />
<glyph unicode="&#xe9;" d="M129 444q0 186 135 312.5t332 126.5q207 0 338 -130t131 -345h-852q23 -162 135.5 -259.5t278.5 -97.5q96 0 196.5 31t161.5 80q20 14 33 14q16 0 27.5 -12t11.5 -29q0 -53 -146.5 -110.5t-285.5 -57.5q-207 0 -351.5 139.5t-144.5 337.5zM213 492h766 q-25 139 -129.5 223t-254 84t-251.5 -83t-131 -224zM494 1049q0 16 25 38l233 205q25 18 39 19q16 0 28.5 -12.5t12.5 -30.5q1 -16 -24 -39l-234 -205q-25 -18 -39 -18q-16 0 -28.5 12t-12.5 31z" />
<glyph unicode="&#xea;" d="M129 444q0 186 135 312.5t332 126.5q207 0 338 -130t131 -345h-852q23 -162 135.5 -259.5t278.5 -97.5q96 0 196.5 31t161.5 80q20 14 33 14q16 0 27.5 -12t11.5 -29q0 -53 -146.5 -110.5t-285.5 -57.5q-207 0 -351.5 139.5t-144.5 337.5zM213 492h766 q-25 139 -129.5 223t-254 84t-251.5 -83t-131 -224zM323 1013.5q0 16.5 27 40.5l270 224l271 -222q27 -23 26 -43q0 -16 -12 -28t-29 -12q-14 0 -36 16l-220 180l-219 -180q-23 -16 -37 -16q-16 0 -28.5 12t-12.5 28.5z" />
<glyph unicode="&#xeb;" d="M129 444q0 186 135 312.5t332 126.5q207 0 338 -130t131 -345h-852q23 -162 135.5 -259.5t278.5 -97.5q96 0 196.5 31t161.5 80q20 14 33 14q16 0 27.5 -12t11.5 -29q0 -53 -146.5 -110.5t-285.5 -57.5q-207 0 -351.5 139.5t-144.5 337.5zM213 492h766 q-25 139 -129.5 223t-254 84t-251.5 -83t-131 -224zM295 1108q0 41 30.5 71.5t71.5 30.5q43 0 73 -30.5t30 -73.5q0 -41 -31 -70.5t-72 -29.5t-71.5 30.5t-30.5 71.5zM747 1108q0 41 31 71.5t72 30.5q43 0 72.5 -30.5t29.5 -73.5q0 -41 -30.5 -70.5t-71.5 -29.5t-72 30.5 t-31 71.5z" />
<glyph unicode="&#xec;" d="M188 43q0 41 56 41h327v686h-241q-55 0 -56 43q0 41 56 41h325v-770h328q57 0 57 -41q0 -43 -57 -43h-739q-55 0 -56 43zM360 1270q0 16 12.5 28.5t28.5 12.5q14 -1 39 -19l234 -205q25 -23 24 -38q0 -18 -12 -30.5t-31 -12.5q-14 0 -37 18l-233 205q-25 23 -25 41z" />
<glyph unicode="&#xed;" d="M188 43q0 41 56 41h327v686h-241q-55 0 -56 43q0 41 56 41h325v-770h328q57 0 57 -41q0 -43 -57 -43h-739q-55 0 -56 43zM469 1049q0 16 25 38l233 205q25 18 39 19q16 0 28.5 -12.5t12.5 -30.5q1 -16 -24 -39l-234 -205q-25 -18 -39 -18q-16 0 -28.5 12t-12.5 31z" />
<glyph unicode="&#xee;" d="M188 43q0 41 56 41h327v686h-241q-55 0 -56 43q0 41 56 41h325v-770h328q57 0 57 -41q0 -43 -57 -43h-739q-55 0 -56 43zM278 1021.5q0 16.5 27 40.5l270 224l271 -222q27 -23 26 -43q0 -16 -12 -28t-29 -12q-14 0 -36 16l-220 180l-219 -180q-23 -16 -37 -16 q-16 0 -28.5 12t-12.5 28.5z" />
<glyph unicode="&#xef;" d="M188 43q0 41 56 41h327v686h-241q-55 0 -56 43q0 41 56 41h325v-770h328q57 0 57 -41q0 -43 -57 -43h-739q-55 0 -56 43zM258 1108q0 41 30.5 71.5t71.5 30.5q43 0 73 -30.5t30 -73.5q0 -41 -31 -70.5t-72 -29.5t-71.5 30.5t-30.5 71.5zM710 1108q0 41 31 71.5t72 30.5 q43 0 72.5 -30.5t29.5 -73.5q0 -41 -30.5 -70.5t-71.5 -29.5t-72 30.5t-31 71.5z" />
<glyph unicode="&#xf0;" d="M147 424q0 188 135.5 322.5t327.5 134.5q84 0 149.5 -25t149.5 -84q-109 203 -247 303l-187 -86q-4 -2 -14 -2q-16 0 -28.5 14.5t-12.5 32.5q0 27 18 33l129 57q-51 23 -98 38.5t-70.5 20.5t-42 10t-24.5 11t-6 21q0 20 12 32.5t31 12.5q96 0 303 -99l194 86l15 3 q16 0 27.5 -12.5t11.5 -30.5q0 -27 -19 -35l-153 -70q154 -131 243.5 -310t89.5 -349q0 -221 -135 -354.5t-332 -133.5q-195 0 -331 133t-136 326zM233 426q0 -156 112 -265.5t271 -109.5q158 0 270.5 108.5t112.5 260.5q0 162 -110.5 270.5t-272.5 108.5 q-160 0 -271.5 -108.5t-111.5 -264.5z" />
<glyph unicode="&#xf1;" d="M109 43q0 41 57 41h92v686h-70q-55 0 -55 43q0 41 55 41h154v-141q88 98 155.5 134t164.5 36q137 0 229 -80t92 -199v-520h70q55 0 55 -41q0 -43 -55 -43h-224q-55 0 -55 43q0 41 55 41h70v506q0 88 -66.5 148.5t-179.5 60.5q-37 0 -70.5 -7.5t-63.5 -22.5t-50 -28.5 t-44 -38t-33 -36t-28.5 -37t-21.5 -27.5v-518h92q55 0 55 -41q0 -43 -55 -43h-268q-57 0 -57 43zM277 1051q0 37 66.5 87t125.5 50q47 0 136 -49t116 -49q37 0 86.5 47t63.5 47q16 0 28.5 -12.5t12.5 -28.5q0 -31 -64.5 -84t-122.5 -53q-53 0 -141 49t-112 49 q-51 0 -90.5 -46t-63.5 -46q-16 0 -28.5 11t-12.5 28z" />
<glyph unicode="&#xf2;" d="M147 426q0 188 136 322.5t331 134.5q197 0 332 -134.5t135 -328.5q0 -188 -137 -320.5t-330 -132.5q-195 0 -331 133t-136 326zM231 426q0 -156 112 -265.5t271 -109.5q158 0 270.5 108.5t112.5 260.5q0 162 -110.5 270.5t-272.5 108.5q-160 0 -271.5 -108.5 t-111.5 -264.5zM387 1270q0 16 12.5 28.5t28.5 12.5q14 -1 39 -19l234 -205q25 -23 24 -38q0 -18 -12 -30.5t-31 -12.5q-14 0 -37 18l-233 205q-25 23 -25 41z" />
<glyph unicode="&#xf3;" d="M147 426q0 188 136 322.5t331 134.5q197 0 332 -134.5t135 -328.5q0 -188 -137 -320.5t-330 -132.5q-195 0 -331 133t-136 326zM231 426q0 -156 112 -265.5t271 -109.5q158 0 270.5 108.5t112.5 260.5q0 162 -110.5 270.5t-272.5 108.5q-160 0 -271.5 -108.5 t-111.5 -264.5zM481 1049q0 16 25 38l233 205q25 18 39 19q16 0 28.5 -12.5t12.5 -30.5q1 -16 -24 -39l-234 -205q-25 -18 -39 -18q-16 0 -28.5 12t-12.5 31z" />
<glyph unicode="&#xf4;" d="M147 426q0 188 136 322.5t331 134.5q197 0 332 -134.5t135 -328.5q0 -188 -137 -320.5t-330 -132.5q-195 0 -331 133t-136 326zM231 426q0 -156 112 -265.5t271 -109.5q158 0 270.5 108.5t112.5 260.5q0 162 -110.5 270.5t-272.5 108.5q-160 0 -271.5 -108.5 t-111.5 -264.5zM317 1026.5q0 16.5 27 40.5l270 224l271 -222q27 -23 26 -43q0 -16 -12 -28t-29 -12q-14 0 -36 16l-220 180l-219 -180q-23 -16 -37 -16q-16 0 -28.5 12t-12.5 28.5z" />
<glyph unicode="&#xf5;" d="M147 426q0 188 136 322.5t331 134.5q197 0 332 -134.5t135 -328.5q0 -188 -137 -320.5t-330 -132.5q-195 0 -331 133t-136 326zM231 426q0 -156 112 -265.5t271 -109.5q158 0 270.5 108.5t112.5 260.5q0 162 -110.5 270.5t-272.5 108.5q-160 0 -271.5 -108.5 t-111.5 -264.5zM297 1051q0 37 66.5 87t125.5 50q47 0 136 -49t116 -49q37 0 86.5 47t63.5 47q16 0 28.5 -12.5t12.5 -28.5q0 -31 -64.5 -84t-122.5 -53q-53 0 -141 49t-112 49q-51 0 -90.5 -46t-63.5 -46q-16 0 -28.5 11t-12.5 28z" />
<glyph unicode="&#xf6;" d="M147 426q0 188 136 322.5t331 134.5q197 0 332 -134.5t135 -328.5q0 -188 -137 -320.5t-330 -132.5q-195 0 -331 133t-136 326zM231 426q0 -156 112 -265.5t271 -109.5q158 0 270.5 108.5t112.5 260.5q0 162 -110.5 270.5t-272.5 108.5q-160 0 -271.5 -108.5 t-111.5 -264.5zM287 1108q0 41 30.5 71.5t71.5 30.5q43 0 73 -30.5t30 -73.5q0 -41 -31 -70.5t-72 -29.5t-71.5 30.5t-30.5 71.5zM739 1108q0 41 31 71.5t72 30.5q43 0 72.5 -30.5t29.5 -73.5q0 -41 -30.5 -70.5t-71.5 -29.5t-72 30.5t-31 71.5z" />
<glyph unicode="&#xf7;" d="M147.5 577.5q-0.5 40.5 55.5 40.5h823q55 0 55 -40.5t-55 -40.5h-823q-55 0 -55.5 40.5zM514 154q0 41 29.5 70.5t70.5 29.5q43 0 73 -29.5t30 -72.5q0 -41 -31 -71t-72 -30t-70.5 30t-29.5 73zM514 1006q0 41 29.5 70.5t70.5 29.5q43 0 73 -29.5t30 -72.5q0 -41 -31 -71 t-72 -30t-70.5 30t-29.5 73z" />
<glyph unicode="&#xf8;" d="M109 -51.5q0 14.5 20 35.5l135 137q-117 135 -117 305q0 190 136.5 323.5t330.5 133.5q168 0 295 -101l131 136q23 20 37.5 20t24.5 -11.5t10 -25.5t-20 -35l-131 -133q121 -133 120 -309q0 -190 -136 -323.5t-331 -133.5q-164 1 -299 105l-135 -140q-20 -20 -34.5 -20 t-25.5 11t-11 25.5zM231 426q1 -140 93 -244l526 539q-102 78 -236 78q-160 0 -271.5 -108.5t-111.5 -264.5zM375 133q104 -82 239 -82q160 0 271.5 108.5t111.5 264.5q0 139 -94 250z" />
<glyph unicode="&#xf9;" d="M88 813q0 41 55 41h195v-618q0 -78 54 -131.5t132 -53.5q205 0 375 185v534h-151q-57 0 -58 43q0 41 58 41h235v-770h70q55 0 55 -41q0 -43 -55 -43h-154v135q-172 -168 -373 -168q-123 0 -197.5 74t-74.5 195v534h-111q-55 0 -55 43zM370 1270q0 16 12.5 28.5t28.5 12.5 q14 -1 39 -19l234 -205q25 -23 24 -38q0 -18 -12 -30.5t-31 -12.5q-14 0 -37 18l-233 205q-25 23 -25 41z" />
<glyph unicode="&#xfa;" d="M88 813q0 41 55 41h195v-618q0 -78 54 -131.5t132 -53.5q205 0 375 185v534h-151q-57 0 -58 43q0 41 58 41h235v-770h70q55 0 55 -41q0 -43 -55 -43h-154v135q-172 -168 -373 -168q-123 0 -197.5 74t-74.5 195v534h-111q-55 0 -55 43zM451 1049q0 16 25 38l233 205 q25 18 39 19q16 0 28.5 -12.5t12.5 -30.5q1 -16 -24 -39l-234 -205q-25 -18 -39 -18q-16 0 -28.5 12t-12.5 31z" />
<glyph unicode="&#xfb;" d="M88 813q0 41 55 41h195v-618q0 -78 54 -131.5t132 -53.5q205 0 375 185v534h-151q-57 0 -58 43q0 41 58 41h235v-770h70q55 0 55 -41q0 -43 -55 -43h-154v135q-172 -168 -373 -168q-123 0 -197.5 74t-74.5 195v534h-111q-55 0 -55 43zM305 1017.5q0 16.5 27 40.5l270 224 l271 -222q27 -23 26 -43q0 -16 -12 -28t-29 -12q-14 0 -36 16l-220 180l-219 -180q-23 -16 -37 -16q-16 0 -28.5 12t-12.5 28.5z" />
<glyph unicode="&#xfc;" d="M88 813q0 41 55 41h195v-618q0 -78 54 -131.5t132 -53.5q205 0 375 185v534h-151q-57 0 -58 43q0 41 58 41h235v-770h70q55 0 55 -41q0 -43 -55 -43h-154v135q-172 -168 -373 -168q-123 0 -197.5 74t-74.5 195v534h-111q-55 0 -55 43zM271 1108q0 41 30.5 71.5t71.5 30.5 q43 0 73 -30.5t30 -73.5q0 -41 -31 -70.5t-72 -29.5t-71.5 30.5t-30.5 71.5zM723 1108q0 41 31 71.5t72 30.5q43 0 72.5 -30.5t29.5 -73.5q0 -41 -30.5 -70.5t-71.5 -29.5t-72 30.5t-31 71.5z" />
<glyph unicode="&#xfd;" d="M104 813q0 41 56 41h235q55 0 56 -41q0 -43 -56 -43h-106l336 -678l329 678h-110q-55 0 -56 43q0 41 56 41h225q55 0 55 -41q0 -43 -55 -43h-29l-524 -1067h133q55 0 56 -41q0 -43 -56 -43h-477q-55 0 -55 43q0 41 55 41h260l146 297l-385 770h-33q-55 0 -56 43z M553 1049q0 16 25 38l233 205q25 18 39 19q16 0 28.5 -12.5t12.5 -30.5q1 -16 -24 -39l-234 -205q-25 -18 -39 -18q-16 0 -28.5 12t-12.5 31z" />
<glyph unicode="&#xfe;" d="M45 -338q0 41 55 41h111v1421h-111q-55 0 -55 43q0 41 55 41h195v-522q82 106 166 151.5t201 45.5q190 0 318 -124t128 -306.5t-129 -307.5t-317 -125q-229 0 -367 197v-514h201q55 0 55 -41q0 -43 -55 -43h-396q-55 0 -55 43zM295 453q0 -145 106.5 -247t258 -102 t258 100.5t106.5 244.5q0 150 -104.5 250t-260.5 100q-152 0 -258 -101.5t-106 -244.5z" />
<glyph unicode="&#xff;" d="M104 813q0 41 56 41h235q55 0 56 -41q0 -43 -56 -43h-106l336 -678l329 678h-110q-55 0 -56 43q0 41 56 41h225q55 0 55 -41q0 -43 -55 -43h-29l-524 -1067h133q55 0 56 -41q0 -43 -56 -43h-477q-55 0 -55 43q0 41 55 41h260l146 297l-385 770h-33q-55 0 -56 43z M287 1108q0 41 30.5 71.5t71.5 30.5q43 0 73 -30.5t30 -73.5q0 -41 -31 -70.5t-72 -29.5t-71.5 30.5t-30.5 71.5zM739 1108q0 41 31 71.5t72 30.5q43 0 72.5 -30.5t29.5 -73.5q0 -41 -30.5 -70.5t-71.5 -29.5t-72 30.5t-31 71.5z" />
<glyph unicode="&#x152;" d="M20 578q0 256 139.5 415.5t362.5 159.5h645v-315q0 -55 -41 -56q-43 0 -43 56v231h-391v-428h160v55q0 55 43 56q41 0 41 -56v-196q0 -55 -41 -56q-43 0 -43 56v57h-160v-473h432v188q0 55 41 56q43 0 43 -56v-272h-669q-233 0 -376 158.5t-143 419.5zM104 575 q0 -84 20.5 -163.5t67 -156.5t136.5 -124t215 -47h65v985h-65q-125 0 -215 -47t-136.5 -124t-67 -157t-20.5 -166z" />
<glyph unicode="&#x153;" d="M25 434q0 182 93 315.5t220 133.5q84 0 157.5 -64t116.5 -170q92 233 271 234q49 0 97 -21.5t96 -72t77 -148.5t29 -233h-529q12 -152 87 -254.5t173 -102.5q51 0 98.5 32t81 63.5t50 31.5t29 -13t12.5 -28q0 -35 -95.5 -102.5t-179.5 -67.5q-92 0 -171 65.5t-126 178.5 q-45 -117 -115.5 -180.5t-156.5 -63.5q-127 0 -221 139.5t-94 327.5zM109 425.5q0 -149.5 69.5 -262t163.5 -112.5q90 0 160.5 112.5t70.5 258.5q0 152 -69.5 264.5t-163.5 112.5q-92 0 -161.5 -112t-69.5 -261.5zM655 492h443q-8 59 -17.5 98t-31 94t-65.5 85t-105 30 q-182 0 -224 -307z" />
<glyph unicode="&#x178;" d="M104 1112q0 41 56 41h227q55 0 55 -41q0 -43 -55 -43h-78l312 -465l305 465h-82q-57 0 -58 43q0 41 58 41h225q55 0 55 -41q0 -43 -55 -43h-49l-361 -549v-436h215q55 0 56 -41q0 -43 -56 -43h-514q-55 0 -55 43q0 41 55 41h215v436l-366 549h-49q-55 0 -56 43zM287 1376 q0 41 30.5 71.5t71.5 30.5q43 0 73 -30.5t30 -73.5q0 -41 -31 -70.5t-72 -29.5t-71.5 30.5t-30.5 71.5zM739 1376q0 41 31 71.5t72 30.5q43 0 72.5 -30.5t29.5 -73.5q0 -41 -30.5 -70.5t-71.5 -29.5t-72 30.5t-31 71.5z" />
<glyph unicode="&#x2c6;" d="M317 1044.5q0 16.5 27 40.5l270 224l271 -222q27 -23 26 -43q0 -16 -12 -28t-29 -12q-14 0 -36 16l-220 180l-219 -180q-23 -16 -37 -16q-16 0 -28.5 12t-12.5 28.5z" />
<glyph unicode="&#x2dc;" d="M297 1102q0 37 66.5 87t125.5 50q47 0 136 -49t116 -49q37 0 86.5 47t63.5 47q16 0 28.5 -12.5t12.5 -28.5q0 -31 -64.5 -84t-122.5 -53q-53 0 -141 49t-112 49q-51 0 -90.5 -46t-63.5 -46q-16 0 -28.5 11t-12.5 28z" />
<glyph unicode="&#x2000;" horiz-adv-x="819" />
<glyph unicode="&#x2001;" horiz-adv-x="1639" />
<glyph unicode="&#x2002;" horiz-adv-x="819" />
<glyph unicode="&#x2003;" horiz-adv-x="1639" />
<glyph unicode="&#x2004;" horiz-adv-x="546" />
<glyph unicode="&#x2005;" horiz-adv-x="409" />
<glyph unicode="&#x2006;" horiz-adv-x="273" />
<glyph unicode="&#x2007;" horiz-adv-x="273" />
<glyph unicode="&#x2008;" horiz-adv-x="204" />
<glyph unicode="&#x2009;" horiz-adv-x="327" />
<glyph unicode="&#x200a;" horiz-adv-x="91" />
<glyph unicode="&#x2010;" d="M147 571q0 41 56 41h823q55 0 55 -41q0 -43 -55 -43h-823q-55 0 -56 43z" />
<glyph unicode="&#x2011;" d="M147 571q0 41 56 41h823q55 0 55 -41q0 -43 -55 -43h-823q-55 0 -56 43z" />
<glyph unicode="&#x2012;" d="M147 571q0 41 56 41h823q55 0 55 -41q0 -43 -55 -43h-823q-55 0 -56 43z" />
<glyph unicode="&#x2013;" d="M147 578q0 41 56 40h823q55 0 55 -40q0 -43 -55 -43h-823q-55 0 -56 43z" />
<glyph unicode="&#x2014;" d="M2 578q0 41 55 40h1114q55 0 56 -40q-1 -43 -56 -43h-1114q-55 0 -55 43z" />
<glyph unicode="&#x2018;" d="M492 756v162l198 327q27 45 64 45q10 0 18 -2q41 -10 41 -51q0 -8 -4 -20l-92 -299l16 -162h-241z" />
<glyph unicode="&#x2019;" d="M414 756q0 8 4 20l92 299l-16 162h241v-162l-198 -327q-27 -45 -64 -46q-10 0 -18 3q-41 10 -41 51z" />
<glyph unicode="&#x201a;" d="M279 -254q0 8 4 21l92 299l-17 161h242v-161l-199 -328q-27 -45 -63 -45q-10 0 -19 2q-41 10 -40 51z" />
<glyph unicode="&#x201c;" d="M136 756v162l198 327q27 45 64 45q10 0 18 -2q41 -10 41 -51q0 -8 -4 -20l-92 -299l16 -162h-241zM586 756v162l198 327q27 45 64 45q10 0 18 -2q41 -10 41 -51q0 -8 -4 -20l-92 -299l16 -162h-241z" />
<glyph unicode="&#x201d;" d="M193 756q0 8 4 20l92 299l-16 162h241v-162l-198 -327q-27 -45 -64 -46q-10 0 -18 3q-41 10 -41 51zM629 756q0 8 4 20l92 299l-16 162h241v-162l-198 -327q-27 -45 -64 -46q-10 0 -18 3q-41 10 -41 51z" />
<glyph unicode="&#x201e;" d="M179 -219q0 8 4 21l92 299l-17 161h242v-161l-199 -328q-27 -45 -63 -45q-10 0 -19 2q-41 10 -40 51zM635 -219q0 8 4 21l92 299l-17 161h242v-161l-199 -328q-27 -45 -63 -45q-10 0 -19 2q-41 10 -40 51z" />
<glyph unicode="&#x2022;" d="M414 491.5q0 83.5 59 141t145 57.5q80 0 138.5 -59.5t58.5 -141.5q0 -84 -59.5 -142t-141.5 -58q-84 0 -142 59.5t-58 143z" />
<glyph unicode="&#x2026;" d="M104 70q0 43 30 72.5t71 29.5q43 0 72.5 -29.5t29.5 -72.5q0 -41 -29.5 -71t-70.5 -30q-43 0 -73 30t-30 71zM512 70q0 41 29.5 71.5t70.5 30.5q43 0 73 -29.5t30 -72.5q0 -41 -31 -71t-72 -30t-70.5 30t-29.5 71zM922 72q0 41 30.5 70.5t71.5 29.5t70.5 -29.5 t29.5 -72.5q0 -41 -29.5 -71t-70.5 -30q-43 0 -72.5 30t-29.5 73z" />
<glyph unicode="&#x202f;" horiz-adv-x="327" />
<glyph unicode="&#x2039;" d="M129 428l426 403q23 23 43 23q16 0 28.5 -12.5t12.5 -28.5t-23 -41l-292 -344l292 -346q23 -25 23 -41t-12.5 -28.5t-28.5 -12.5t-43 23z" />
<glyph unicode="&#x203a;" d="M600 41q0 16 23 41l290 344l-290 346q-23 25 -23 41t12.5 28.5t28.5 12.5t43 -23l424 -405l-424 -403q-23 -23 -43 -23q-16 0 -28.5 12.5t-12.5 28.5z" />
<glyph unicode="&#x205f;" horiz-adv-x="409" />
<glyph unicode="&#x20ac;" d="M66 483q0 37 45 37h61v123h-61q-45 0 -45 39q0 37 45 37h65q23 199 163 330t329 131q106 0 203.5 -32t132.5 -87l10 43q10 45 41 45q43 0 43 -43q0 -10 -2 -23l-47 -192q-12 -45 -43 -45q-16 0 -29.5 10t-13.5 33q0 6 2 19.5t2 23.5q0 74 -85 119t-214 45 q-154 0 -266.5 -104.5t-141.5 -272.5h614q43 0 44 -37q0 -39 -44 -39h-618v-123h559q43 0 43 -37q0 -39 -43 -39h-555q35 -168 158.5 -280.5t283.5 -112.5q90 0 159 25.5t97.5 57.5t55 57.5t45.5 25.5q41 0 41 -39q0 -18 -26.5 -51t-74 -70t-127 -63.5t-170.5 -26.5 q-195 0 -349 140.5t-177 336.5h-65q-45 0 -45 39z" />
<glyph unicode="&#x2122;" d="M8 936v217h496v-217q0 -39 -35 -39q-14 0 -24.5 11.5t-10.5 27.5v149h-145v-520h110q39 0 39 -33q0 -35 -39 -34h-286q-41 0 -41 34q0 33 41 33h108v520h-145v-149q0 -39 -33 -39q-35 0 -35 39zM549 532q0 33 39 33h28v520h-20q-39 0 -39 35q0 33 39 33h121l170 -377 l166 377h123q39 0 38 -33q0 -35 -38 -35h-21v-520h31q39 0 39 -33q0 -35 -41 -34h-174q-37 0 -37 34q0 33 39 33h75v500l-167 -377h-66l-170 377v-500h76q39 0 39 -33q0 -35 -39 -34h-174q-37 0 -37 34z" />
<glyph unicode="&#x2190;" d="M84 575l403 224q16 10 25 10q14 0 27.5 -14.5t13.5 -30.5q0 -23 -27 -37l-196 -109h696q55 0 55 -40q0 -43 -55 -43h-700l200 -111q27 -15 27 -35q0 -14 -12.5 -30.5t-28.5 -16.5q-10 0 -27 10z" />
<glyph unicode="&#x2191;" d="M381 647q0 12 12 25l221 401l226 -401q2 -4 4 -10.5t3 -9.5t1 -5q0 -12 -13.5 -26.5t-32 -14.5t-36.5 25l-107 196v-696q0 -53 -41 -53q-45 0 -45 53v700l-110 -200q-12 -25 -33 -25q-25 0 -37 15.5t-12 25.5z" />
<glyph unicode="&#x2192;" d="M111 578q0 41 55 40h696l-196 109q-27 14 -27 37q0 14 13.5 29.5t27.5 15.5q8 0 25 -10l403 -224l-401 -223q-17 -10 -27 -10q-16 0 -28.5 16.5t-12.5 30.5q0 20 27 35l200 111h-700q-55 0 -55 43z" />
<glyph unicode="&#x2193;" d="M381 504q0 10 12.5 25.5t36.5 15.5q20 0 33 -25l110 -201v701q0 53 45 53q41 0 41 -53v-696l107 196q18 25 36.5 25t32 -13.5t13.5 -27.5l-8 -25l-226 -401l-221 401q-12 13 -12 25z" />
<glyph unicode="&#x2194;" d="M51 575l404 224q16 10 24 10q14 0 27.5 -14.5t13.5 -30.5q0 -23 -26 -37l-197 -109h635l-197 109q-27 14 -26 37q0 14 13 29.5t28 15.5q8 0 24 -10l404 -224l-402 -223q-16 -10 -26 -10q-16 0 -28.5 16.5t-12.5 30.5q0 20 26 35l201 111h-643l201 -111q27 -14 26 -35 q0 -14 -12 -30.5t-29 -16.5q-10 0 -26 10z" />
<glyph unicode="&#x2195;" d="M381 440q0 16 16.5 28.5t30.5 12.5q20 0 35 -26l110 -201v643l-110 -201q-14 -27 -35 -26q-14 0 -30.5 12t-16.5 29q0 10 10 26l223 402l224 -404q10 -16 10 -24q0 -14 -14.5 -27.5t-30.5 -13.5q-23 0 -37 26l-109 197v-635l109 197q14 27 37 26q14 0 29.5 -13t15.5 -28 q0 -8 -10 -24l-224 -404l-223 402q-10 16 -10 26z" />
<glyph unicode="&#x2196;" d="M229 928l445 -127q35 -6 35 -39q0 -43 -39 -43q-4 0 -21 4l-215 61l492 -491q22 -23 22 -41q0 -14 -13 -27.5t-28 -13.5q-18 0 -41 22l-493 494l63 -219q4 -16 4 -19q0 -20 -18.5 -29t-28.5 -9q-31 0 -37 36z" />
<glyph unicode="&#x2197;" d="M252 252q0 18 18 39l496 495l-219 -65q-6 -2 -15 -2q-18 0 -28 9t-10 17q-2 6 -2 19q0 37 34 37l441 127l-125 -445q-2 -4 -6.5 -10t-6.5 -9t-5 -7t-7 -5t-10 -1q-8 0 -14 2h-7q-27 6 -26 47v8l65 213l-493 -492q-21 -20 -39 -20q-14 0 -27.5 14.5t-13.5 28.5z" />
<glyph unicode="&#x2198;" d="M246 901q0 14 11 27.5t28 13.5q18 0 41 -22l493 -492l-63 215q-2 6 -2 16q0 18 12 29.5t31 11.5q33 0 37 -34l129 -443l-443 125q-35 12 -35 33q0 10 2 16v6q8 29 35 29q8 0 21 -4l219 -63l-496 495q-20 21 -20 41z" />
<glyph unicode="&#x2199;" d="M262 223l127 441q0 37 35 36q4 0 20 -4q8 0 17.5 -10t9.5 -29q0 -8 -2 -14l-66 -219l496 496q23 18 39 18q14 0 28.5 -12.5t14.5 -28.5q0 -18 -20 -39l-492 -493l213 65h10q39 0 45 -27v-22q0 -14 -30 -33z" />
<glyph unicode="&#x219a;" d="M82 575l403 224q16 10 25 10q16 0 28.5 -15.5t12.5 -29.5q0 -23 -27 -37l-196 -109h458l95 187q12 23 37 22q6 0 14 -3t17 -13t9 -25q0 -6 -4 -18l-75 -150h213q55 0 55 -40q0 -43 -55 -43h-256l-93 -185q-11 -22 -36 -22q-6 0 -14.5 3t-17.5 13t-9 25q0 6 4 18l73 148 h-419l200 -111q27 -14 27 -35q0 -14 -12.5 -30.5t-28.5 -16.5q-10 0 -27 10z" />
<glyph unicode="&#x219b;" d="M82 578q0 41 55 40h289l94 187q12 22 37 22q6 0 14.5 -3t17.5 -13t9 -25q0 -6 -4 -18l-76 -150h383l-196 109q-27 14 -27 37q0 14 13.5 29.5t27.5 15.5q8 0 24 -10l404 -224l-402 -223q-16 -10 -26 -10q-16 0 -28.5 16.5t-12.5 30.5q0 20 27 35l200 111h-430l-92 -185 q-12 -23 -37 -22q-6 0 -14 3t-17.5 13t-9.5 25q0 6 4 18l74 148h-246q-55 0 -55 43z" />
<glyph unicode="&#x219c;" d="M158 766q84 -14 170 -22.5t133 -11.5t87 -8t55 -16.5t15 -31.5q0 -41 -53 -41l-182 24l82 -90q39 -39 64.5 -48t80.5 -15q41 6 73 40t51.5 70.5t59.5 66.5t93 30q47 0 115.5 -48.5t68.5 -86.5q0 -43 -55 -43q-6 2 -47 48t-82 46q-37 0 -68 -33t-50 -71t-59 -70.5 t-96 -32.5q-127 0 -198 84l-84 88l100 -207q8 -10 8 -22q0 -18 -14 -29.5t-32.5 -11.5t-45 48t-85 174t-105.5 220z" />
<glyph unicode="&#x219d;" d="M158 578q0 41 68.5 88t115.5 47q53 0 93 -30t59.5 -66.5t52.5 -70.5t71 -40q43 4 57.5 7t38 15.5t50.5 40.5l82 90l-182 -24q-51 0 -52 39q0 23 13.5 33t50.5 15t82 8t134 12.5t179 23.5l-201 -414l-16 -22q-10 -6 -20 -6q-16 0 -31 11t-15 30q0 12 9 22l100 207l-84 -88 q-72 -84 -199 -84q-55 0 -95 32.5t-59.5 70.5t-50 71t-67.5 33q-41 0 -81 -46t-48 -48q-55 0 -55 43z" />
<glyph unicode="&#x219e;" d="M82 575l403 224q16 10 25 10q14 0 27.5 -14.5t13.5 -30.5q0 -23 -27 -37l-196 -109h159l326 181q16 10 25 10q14 0 27.5 -14.5t13.5 -30.5q0 -23 -27 -37l-197 -109h437q55 0 55 -40q0 -43 -55 -43h-441l201 -111q27 -15 27 -35q0 -14 -12.5 -30.5t-28.5 -16.5 q-10 0 -27 10l-328 183h-159l200 -111q27 -14 27 -35q0 -14 -12.5 -30.5t-28.5 -16.5q-10 0 -27 10z" />
<glyph unicode="&#x219f;" d="M381 352q0 10 10 27l182 328v159l-110 -200q-14 -27 -35 -27q-14 0 -30.5 12.5t-16.5 28.5q0 10 10 27l223 401l224 -403q10 -16 10 -25q0 -14 -14.5 -27.5t-30.5 -13.5q-23 0 -37 27l-109 196v-160l181 -325q10 -16 10 -25q0 -14 -14.5 -27.5t-30.5 -13.5q-23 0 -37 27 l-109 197v-437q0 -55 -41 -55q-43 0 -43 55v441l-110 -201q-15 -27 -35 -27q-14 0 -30.5 12.5t-16.5 28.5z" />
<glyph unicode="&#x21a0;" d="M82 573q0 43 55 43h441l-201 111q-27 15 -27 35q0 14 12.5 30.5t28.5 16.5q10 0 27 -10l328 -183h159l-200 111q-27 14 -27 35q0 14 12.5 30.5t28.5 16.5q10 0 27 -10l401 -223l-403 -224q-16 -10 -25 -10q-14 0 -27.5 14.5t-13.5 30.5q0 23 27 37l196 109h-159 l-326 -181q-16 -10 -25 -10q-14 0 -27.5 14.5t-13.5 30.5q0 23 27 37l197 109h-437q-55 0 -55 40z" />
<glyph unicode="&#x21a1;" d="M381 471q0 14 14.5 27.5t30.5 13.5q23 0 37 -27l109 -196v160l-181 325q-10 16 -10 25q0 14 14.5 27.5t30.5 13.5q23 0 37 -27l109 -197v437q0 55 41 55q43 0 43 -55v-441l110 201q15 27 35 27q14 0 30.5 -12.5t16.5 -28.5q0 -10 -10 -27l-182 -328v-159l110 200 q14 27 35 27q14 0 30.5 -12.5t16.5 -28.5q0 -10 -10 -27l-223 -401l-224 403q-10 16 -10 25z" />
<glyph unicode="&#x21a2;" d="M84 575l403 224q16 10 25 10q14 0 27.5 -14.5t13.5 -30.5q0 -23 -27 -37l-196 -109h381l325 181q16 10 25 10q14 0 27.5 -14.5t13.5 -30.5q0 -23 -27 -37l-274 -152l274 -151q27 -15 27 -35q0 -14 -12.5 -30.5t-28.5 -16.5q-10 0 -27 10l-327 183h-381l200 -111 q27 -14 27 -35q0 -14 -12.5 -30.5t-28.5 -16.5q-10 0 -27 10z" />
<glyph unicode="&#x21a3;" d="M127 389q0 20 27 35l274 151l-274 152q-27 14 -27 37q0 16 13.5 30.5t27.5 14.5q8 0 25 -10l325 -181h381l-197 109q-27 14 -26 37q0 16 13 30.5t28 14.5q8 0 24 -10l404 -224l-402 -223q-16 -10 -26 -10q-16 0 -28.5 16.5t-12.5 30.5q0 20 26 35l201 111h-381l-327 -183 q-16 -10 -27 -10q-16 0 -28.5 16.5t-12.5 30.5z" />
<glyph unicode="&#x21a4;" d="M86 575l401 226q4 2 10.5 4t9.5 3t5 1q12 0 26.5 -13.5t14.5 -32t-25 -36.5l-196 -106h741v198q0 55 41 55q45 0 45 -55v-487q0 -55 -45 -56q-41 0 -41 56v203h-745l200 -111q25 -12 25 -33q0 -25 -15.5 -37t-25.5 -12q-12 0 -25 12z" />
<glyph unicode="&#x21a5;" d="M315 43q0 41 56 41h202v747l-110 -200q-12 -25 -33 -25q-25 0 -37 15.5t-12 25.5q0 12 12 25l221 401l226 -401q2 -4 4 -10.5t3 -9.5t1 -5q0 -12 -13.5 -26.5t-32 -14.5t-36.5 25l-107 196v-743h199q55 0 55 -41q0 -43 -55 -43h-487q-55 0 -56 43z" />
<glyph unicode="&#x21a6;" d="M86 332v487q0 55 45 55q41 0 41 -55v-198h741l-196 106q-25 18 -25 36.5t13.5 32t27.5 13.5l25 -8l401 -226l-401 -221q-13 -12 -25 -12q-10 0 -25.5 12.5t-15.5 36.5q0 20 25 33l201 111h-746v-203q0 -55 -41 -56q-45 0 -45 56z" />
<glyph unicode="&#x21a7;" d="M315 1108q0 43 56 43h487q55 0 55 -43q0 -41 -55 -41h-203v-748l111 201q12 25 33 25q25 0 37 -15.5t12 -25.5q0 -12 -12 -25l-222 -401l-225 401q-2 4 -4 10.5t-3 9.5t-1 5q0 12 13.5 26.5t31.5 14.5t37 -25l106 -196v743h-198q-55 0 -56 41z" />
<glyph unicode="&#x21a8;" d="M315 -61q1 41 56 41h487q55 0 55 -41q0 -43 -55 -43h-487q-55 0 -56 43zM381 440q0 16 16.5 28.5t30.5 12.5q20 0 35 -26l110 -201v643l-110 -201q-14 -27 -35 -26q-14 0 -30.5 12t-16.5 29q0 10 10 26l223 402l224 -404q10 -16 10 -24q0 -14 -14.5 -27.5t-30.5 -13.5 q-23 0 -37 26l-109 197v-635l109 197q14 27 37 26q14 0 29.5 -13t15.5 -28q0 -8 -10 -24l-224 -404l-223 402q-10 16 -10 26z" />
<glyph unicode="&#x21a9;" d="M84 575l403 224q16 10 25 10q12 0 26.5 -15.5t14.5 -29.5q0 -23 -27 -37l-196 -109h551q78 0 106.5 26t32.5 77q-6 100 -139 100h-78q-16 0 -28.5 12.5t-12.5 30.5q0 16 12 28.5t29 12.5h78q100 0 160.5 -51t60.5 -127v-14q0 -78 -57.5 -128t-163.5 -50h-555l200 -111 q27 -14 27 -35q0 -14 -12.5 -30.5t-28.5 -16.5q-10 0 -27 10z" />
<glyph unicode="&#x21aa;" d="M143 713v14q0 76 60.5 127t161.5 51h77q16 0 28.5 -12t12.5 -29q0 -18 -12 -30.5t-29 -12.5h-77q-133 0 -140 -100q4 -51 33 -77t107 -26h550l-196 109q-27 14 -27 37q0 14 14.5 29.5t26.5 15.5q8 0 25 -10l403 -224l-401 -223q-16 -10 -27 -10q-16 0 -28.5 16.5 t-12.5 30.5q0 20 27 35l201 111h-555q-106 0 -164 50t-58 128z" />
<glyph unicode="&#x21ab;" d="M84 575l403 224q16 10 25 10q16 0 28.5 -15.5t12.5 -29.5q0 -23 -27 -37l-196 -109h366v74q0 92 55.5 152.5t141.5 60.5h16q86 0 139.5 -51t53.5 -125v-20q0 -72 -55.5 -123t-149.5 -51h-117v-142q0 -16 -13 -28.5t-29.5 -12.5t-29 12.5t-12.5 28.5v142h-370l200 -111 q27 -14 27 -35q0 -14 -12.5 -30.5t-28.5 -16.5q-10 0 -27 10zM780 618h117q76 0 96.5 23t26.5 80q-4 49 -29.5 73.5t-93.5 26.5q-59 -4 -88 -33.5t-29 -95.5v-74z" />
<glyph unicode="&#x21ac;" d="M143 709v20q0 74 53.5 125t139.5 51h16q86 0 141.5 -60.5t55.5 -152.5v-74h366l-196 109q-27 14 -27 37q0 14 12.5 29.5t28.5 15.5q8 0 25 -10l403 -224l-401 -223q-16 -10 -27 -10q-16 0 -28.5 16.5t-12.5 30.5q0 20 27 35l201 111h-371v-142q0 -16 -12.5 -28.5 t-28.5 -12.5t-29.5 12.5t-13.5 28.5v142h-117q-94 0 -149.5 51t-55.5 123zM225 721q2 -31 6.5 -46.5t16.5 -29.5t36.5 -20.5t63.5 -6.5h117v74q0 66 -28.5 95.5t-88.5 33.5q-68 -2 -93.5 -26.5t-29.5 -73.5z" />
<glyph unicode="&#x21ad;" d="M51 575l404 224l24 10q12 0 26.5 -14.5t14.5 -30.5q0 -23 -26 -37l-197 -109q47 -47 104 -47q35 0 60.5 33t60.5 67t92 38q43 -2 76 -22.5t48.5 -45.5t39 -45.5t49.5 -20.5q45 0 105 43l-197 109q-23 14 -26 37q0 18 13 31.5t28 13.5q84 -41 231 -124t197 -110l-402 -223 l-26 -10q-29 0 -41 47q0 20 26 35l201 111q-10 -2 -53 -21.5t-72 -19.5q-37 0 -63.5 20.5t-39 45t-37 45t-57.5 20.5q-49 0 -76.5 -34t-53 -66.5t-66.5 -32.5q-29 0 -75 20t-50 23l201 -111q27 -18 26.5 -30.5t-10.5 -32t-31 -19.5q-84 39 -229.5 123t-198.5 110z" />
<glyph unicode="&#x21ae;" d="M0 575l403 224q16 10 25 10q16 0 28.5 -15.5t12.5 -29.5q0 -23 -27 -37l-196 -109h342l94 187q12 22 37 22q6 0 14 -3t17.5 -13t9.5 -25q0 -6 -4 -18l-76 -150h303l-197 109q-27 14 -26 37q0 16 13 30.5t28 14.5q8 0 24 -10l404 -224l-402 -223q-16 -10 -26 -10 q-16 0 -28.5 16.5t-12.5 30.5q0 20 26 35l201 111h-350l-92 -185q-12 -23 -37 -22q-6 0 -14.5 3t-17.5 13t-9 25q0 6 4 18l74 148h-303l200 -111q27 -14 27 -35q0 -14 -12.5 -30.5t-28.5 -16.5q-10 0 -27 10z" />
<glyph unicode="&#x21af;" d="M270 782l265 713q14 37 43 37q18 0 31.5 -11.5t13.5 -27.5q0 -14 -7 -29l-206 -559l417 103l-256 -686l166 149q18 12 31 12q18 0 30.5 -14t12.5 -30.5t-27.5 -42t-130 -108.5t-211.5 -182l-69 453q-4 7 -4 19q0 18 16 26t29 8q31 0 39 -37l34 -227l205 541z" />
<glyph unicode="&#x21b0;" d="M215 811l403 223q16 10 25 10q16 0 28.5 -15t12.5 -30q0 -23 -27 -36l-196 -109h481v-752q0 -16 -12 -28.5t-28.5 -12.5t-29 12.5t-12.5 28.5v668h-403l200 -111q27 -14 27 -34q0 -14 -12.5 -30.5t-28.5 -16.5q-10 0 -27 10z" />
<glyph unicode="&#x21b1;" d="M287 102v752h481l-197 109q-27 14 -26 36q0 14 12 29.5t29 15.5q8 0 24 -10l404 -223l-402 -223q-16 -10 -26 -10q-16 0 -28.5 16.5t-12.5 30.5q0 20 26 34l201 111h-403v-668q0 -16 -12.5 -28.5t-29 -12.5t-28.5 12.5t-12 28.5z" />
<glyph unicode="&#x21b2;" d="M215 295l401 223q16 10 27 10q16 0 28.5 -16.5t12.5 -30.5q0 -20 -27 -35l-200 -110h403v668q0 16 12.5 28t29 12t28.5 -12t12 -28v-752h-481l196 -109q27 -14 27 -37q0 -14 -12.5 -29.5t-28.5 -15.5q-8 0 -25 11z" />
<glyph unicode="&#x21b3;" d="M287 252v752q0 16 12 28.5t28.5 12.5t29 -12.5t12.5 -28.5v-668h403l-200 111q-27 14 -27 34q0 14 12.5 30.5t28.5 16.5q10 0 27 -10l401 -223l-403 -223q-16 -10 -25 -10q-16 0 -28.5 15t-12.5 30q0 23 27 36l196 109h-481z" />
<glyph unicode="&#x21b4;" d="M86 1008q0 16 12.5 28.5t28.5 12.5h754v-746l106 197q16 29 37 28q12 0 28.5 -13t16.5 -28q0 -8 -8 -24l-225 -406l-222 402q-12 18 -12 28q0 16 19.5 28.5t29.5 12.5q20 0 33 -28l111 -201v668h-668q-16 0 -28.5 11t-12.5 30z" />
<glyph unicode="&#x21b5;" d="M84 295l401 223q17 10 27 10q16 0 28.5 -16t12.5 -31q0 -20 -27 -35l-200 -110h665v668q0 16 12.5 28t29 12t28.5 -12t12 -28v-752h-743l196 -109q27 -14 27 -37q0 -14 -12.5 -29.5t-28.5 -15.5q-8 0 -25 11z" />
<glyph unicode="&#x21b6;" d="M82 1014q0 23 45 41q20 0 37 -29l106 -197q0 59 9.5 121t37 132.5t70.5 124t118 89t171 35.5q115 0 196.5 -46t121.5 -122t57.5 -150.5t17.5 -154.5v-22q0 -41 -41 -41q-35 0 -41 41q0 184 -82 296.5t-217 112.5q-84 0 -147.5 -33.5t-97 -82t-54 -111t-27 -107.5 t-6.5 -86l111 201q12 29 33 29q12 0 29.5 -11.5t19.5 -29.5q0 -4 -12 -29l-222 -401l-225 405z" />
<glyph unicode="&#x21b7;" d="M82 836v24q0 63 10 122.5t37 125.5t70 114t113.5 78.5t162.5 30.5q102 0 180 -35.5t119 -87t66.5 -124t33 -131t7.5 -124.5l106 197q16 29 37 29q45 -18 45 -41q-39 -86 -124 -233.5t-109 -196.5l-222 401q-12 18 -12 29q2 18 19.5 29.5t29.5 11.5q16 0 33 -29l111 -201 q0 188 -78 304t-234 116q-92 0 -157.5 -37t-99 -100.5t-48 -130t-14.5 -141.5q-6 -41 -41 -41q-41 0 -41 41z" />
<glyph unicode="&#x21b8;" d="M88 1124q0 45 55 45h949q55 0 55 -43q0 -41 -55 -41l-949 -2q-55 0 -55 41zM229 928l445 -127l24 -10q8 -8 9 -23q0 -47 -39 -47q-12 0 -19 2l-215 61l492 -491q22 -23 22 -41q0 -14 -13 -27.5t-28 -13.5q-18 0 -41 22l-493 494l63 -219q4 -16 4 -21q0 -14 -14 -25 t-33 -11q-16 0 -26.5 12t-21.5 50t-21.5 85t-36 139t-58.5 191z" />
<glyph unicode="&#x21b9;" d="M78 35v487q0 55 45 56q41 0 41 -56v-198h741l-196 106q-25 18 -25 39q0 18 15.5 30.5t25.5 12.5q86 -39 231.5 -124t194.5 -109l-401 -222q-12 -12 -25 -12q-29 0 -41 49q0 20 25 33l200 111h-745v-203q0 -55 -41 -55q-45 0 -45 55zM86 866l401 226l25 8q12 0 37 -25 l4 -20q0 -23 -25 -37l-196 -107h741v199q0 55 41 55q45 0 45 -55v-487q0 -55 -45 -56q-41 0 -41 56v202h-745l200 -110q27 -14 27 -35q0 -16 -16.5 -31.5t-26.5 -15.5q-12 0 -25 12z" />
<glyph unicode="&#x21ba;" d="M121 553q0 41 41 41t41 -41q0 -170 121.5 -288t283.5 -118t255 116t93 294q0 63 -17 114.5t-52 88.5t-54.5 53t-54.5 39l64 -219q6 -12 6 -23q0 -31 -29 -30q-16 -4 -22 -5q-20 0 -33 37l-127 441l446 -127l23 -13q10 -10 10 -22q0 -47 -37 -47q-6 0 -22 4l-215 63 q84 -47 142 -139t58 -215q0 -223 -112.5 -359.5t-321.5 -136.5q-213 0 -350 146.5t-137 345.5z" />
<glyph unicode="&#x21bb;" d="M117 891q0 16 13 26.5t53 21.5t87 22.5t139.5 36t186.5 55.5l-127 -441q-10 -39 -33 -39q-10 0 -22 7q-29 0 -29 30q0 4 3 12.5t3 10.5l64 219q-35 -23 -54.5 -39t-54.5 -53t-52.5 -88.5t-17.5 -114.5q0 -178 93.5 -294t255 -116t283.5 118t122 288q0 41 41 41t41 -41 q0 -199 -137 -345.5t-350 -146.5q-209 0 -322 136.5t-113 359.5q0 123 58.5 215t142.5 139l-215 -63q-16 -4 -22 -4q-37 0 -37 47z" />
<glyph unicode="&#x21bc;" d="M68 553q0 12 16 22l403 224q16 10 25 10q14 0 27.5 -14.5t13.5 -30.5q0 -23 -27 -37l-196 -109h696q55 0 55 -40q0 -43 -55 -43h-930q-29 0 -28 18z" />
<glyph unicode="&#x21bd;" d="M68 602q0 18 28 19h930q55 0 55 -43q0 -41 -55 -41h-696l196 -109q27 -14 27 -37q0 -14 -13.5 -29.5t-27.5 -15.5q-8 0 -25 10l-403 224q-16 10 -16 22z" />
<glyph unicode="&#x21be;" d="M573 135v930q0 27 19 27q14 -1 22 -15l222 -405q12 -12 12 -25q0 -18 -21 -33q-6 0 -13 -4t-11 -4q-25 0 -37 29l-111 196v-696q0 -57 -41 -57t-41 57z" />
<glyph unicode="&#x21bf;" d="M383 647q0 8 10 25l223 403q10 16 23 17q18 0 18 -29v-930q0 -55 -43 -55q-41 0 -41 55v696l-108 -196q-14 -27 -37 -27q-14 0 -29.5 13.5t-15.5 27.5z" />
<glyph unicode="&#x21c0;" d="M68 578q0 41 55 40h696l-196 109q-27 14 -27 37q0 16 13.5 30.5t27.5 14.5q8 0 25 -10l403 -224q16 -10 16 -22q0 -18 -28 -18h-930q-55 0 -55 43z" />
<glyph unicode="&#x21c1;" d="M100 578q0 43 56 43h929q29 0 29 -19q0 -12 -16 -22l-404 -224q-16 -10 -24 -10q-14 0 -27.5 15.5t-13.5 29.5q0 23 26 37l197 109h-696q-55 0 -56 41z" />
<glyph unicode="&#x21c2;" d="M573 104v930q0 57 41 57.5t41 -57.5v-696l111 197q12 29 37 28q4 0 11 -4t13 -4q20 -14 21 -33q0 -12 -12 -24l-222 -406q-8 -14 -22 -14q-18 0 -19 26z" />
<glyph unicode="&#x21c3;" d="M383 522q0 14 15.5 27.5t29.5 13.5q23 0 37 -26l108 -197v696q0 55 41 56q43 0 43 -56v-930q0 -29 -18 -28q-13 0 -23 16l-223 404q-10 16 -10 24z" />
<glyph unicode="&#x21c4;" d="M84 281l403 223q16 10 25 10q14 0 27.5 -14.5t13.5 -30.5q0 -23 -27 -37l-196 -108h696q55 0 55 -41q0 -43 -55 -43h-700l200 -111q27 -15 27 -35q0 -14 -12.5 -30.5t-28.5 -16.5q-10 0 -27 10zM152 868q0 43 55 43h700l-200 111q-27 15 -27 35q0 14 12.5 30.5t28.5 16.5 q10 0 27 -10l401 -224l-404 -223q-16 -10 -24 -10q-14 0 -27.5 14.5t-13.5 30.5q0 23 27 37l196 108h-696q-55 0 -55 41z" />
<glyph unicode="&#x21c5;" d="M88 680q0 10 10 27l224 401l223 -403q10 -16 10 -25q0 -14 -14.5 -27.5t-30.5 -13.5q-23 0 -37 27l-108 196v-696q0 -55 -41 -55q-43 0 -43 55v700l-111 -200q-15 -27 -35 -27q-14 0 -30.5 12.5t-16.5 28.5zM678 471q0 14 14.5 27.5t30.5 13.5q23 0 37 -27l108 -196v696 q0 55 41 55q43 0 43 -55v-700l111 200q15 27 35 27q14 0 30.5 -12.5t16.5 -28.5q0 -10 -10 -27l-224 -401l-223 404q-10 16 -10 24z" />
<glyph unicode="&#x21c6;" d="M84 870l401 224q16 10 27 10q16 0 28.5 -16.5t12.5 -30.5q0 -20 -27 -35l-200 -111h700q55 0 55 -43q0 -41 -55 -41h-696l196 -108q27 -14 27 -37q0 -16 -13.5 -30.5t-27.5 -14.5q-8 0 -25 10zM152 283q0 41 55 41h696l-196 108q-27 14 -27 37q0 16 13.5 30.5t27.5 14.5 q8 0 24 -10l404 -223l-401 -224q-16 -10 -27 -10q-16 0 -28.5 16.5t-12.5 30.5q0 20 27 35l200 111h-700q-55 0 -55 43z" />
<glyph unicode="&#x21c7;" d="M84 281l403 223q16 10 25 10q14 0 27.5 -14.5t13.5 -30.5q0 -23 -27 -37l-196 -108h696q55 0 55 -41q0 -43 -55 -43h-700l200 -111q27 -15 27 -35q0 -14 -12.5 -30.5t-28.5 -16.5q-10 0 -27 10zM84 870l403 224q16 10 25 10q14 0 27.5 -14.5t13.5 -30.5q0 -23 -27 -37 l-196 -109h696q55 0 55 -41q0 -43 -55 -43h-700l200 -110q27 -15 27 -35q0 -14 -12.5 -30.5t-28.5 -16.5q-10 0 -27 10z" />
<glyph unicode="&#x21c8;" d="M86 647q0 12 12 25l221 401l226 -401q2 -4 4 -10.5t3 -9.5t1 -5q0 -12 -13.5 -26.5t-32 -14.5t-36.5 25l-106 196v-696q0 -53 -41 -53q-45 0 -45 53v700l-111 -200q-12 -25 -33 -25q-25 0 -37 15.5t-12 25.5zM676 647q0 12 12 25l221 401l226 -401q2 -4 4 -10.5t3 -9.5 t1 -5q0 -12 -13.5 -26.5t-32 -14.5t-36.5 25l-107 196v-696q0 -53 -41 -53q-45 0 -45 53v700l-110 -200q-12 -25 -33 -25q-25 0 -37 15.5t-12 25.5z" />
<glyph unicode="&#x21c9;" d="M152 283q0 41 55 41h696l-196 108q-27 14 -27 37q0 16 13.5 30.5t27.5 14.5q8 0 24 -10l404 -223l-401 -224q-16 -10 -27 -10q-16 0 -28.5 16.5t-12.5 30.5q0 20 27 35l200 111h-700q-55 0 -55 43zM152 872q0 41 55 41h696l-196 109q-27 14 -27 37q0 16 13.5 30.5 t27.5 14.5q8 0 24 -10l404 -224l-401 -223q-16 -10 -27 -10q-16 0 -28.5 16.5t-12.5 30.5q0 20 27 35l200 110h-700q-55 0 -55 43z" />
<glyph unicode="&#x21ca;" d="M86 504q0 10 12.5 25.5t36.5 15.5q20 0 33 -25l111 -201v701q0 53 45 53q41 0 41 -53v-696l106 196q18 25 36.5 25t32 -14.5t13.5 -26.5l-8 -25l-226 -401l-221 401q-12 12 -12 25zM676 504q0 10 12 25.5t37 15.5q20 0 33 -25l110 -201v701q0 53 45 53q41 0 41 -53v-696 l107 196q18 25 36.5 25t32 -14.5t13.5 -26.5l-8 -25l-226 -401l-221 401q-12 12 -12 25z" />
<glyph unicode="&#x21cb;" d="M68 700q0 13 16 23l403 223q16 10 25 10q14 0 27.5 -14t13.5 -31q0 -23 -27 -37l-196 -108h696q55 0 55 -41q0 -43 -55 -43h-930q-29 0 -28 18zM100 430q0 43 56 43h929q29 0 29 -18q0 -13 -16 -23l-404 -223q-16 -10 -24 -10q-14 0 -27.5 14t-13.5 31q0 23 26 37 l197 108h-696q-55 0 -56 41z" />
<glyph unicode="&#x21cc;" d="M68 455q0 18 28 18h930q55 0 55 -43q0 -41 -55 -41h-696l196 -108q27 -14 27 -37q0 -16 -13.5 -30.5t-27.5 -14.5q-8 0 -25 10l-403 223q-16 10 -16 23zM100 725q0 41 56 41h696l-197 108q-27 14 -26 37q0 16 13 30.5t28 14.5q8 0 24 -10l404 -223q16 -10 16 -23 q0 -18 -29 -18h-929q-55 0 -56 43z" />
<glyph unicode="&#x21cd;" d="M115 575l282 265l25 10q12 0 26.5 -14.5t14.5 -30.5q-2 -12 -29 -37l-61 -55h360l291 483h82l-287 -483h238q57 0 57 -41q0 -45 -57 -45h-281l-61 -105h342q57 0 57 -41q0 -43 -57 -43h-387l-269 -438h-94l273 438h-211l65 -55q29 -25 29 -35l-8 -20q-18 -27 -33 -27 l-29 10zM246 578l45 -56h336l61 105h-393z" />
<glyph unicode="&#x21ce;" d="M33 575l282 265l25 10q12 0 26.5 -14.5t14.5 -30.5q-2 -12 -29 -37l-61 -55h364l291 483h82l-287 -483h193l-57 55q-27 27 -29 37q0 18 14.5 31.5t26.5 13.5q68 -43 170 -144.5t137 -130.5l-278 -264l-29 -10q-25 0 -41 47q0 10 29 35l65 57h-346l-272 -440h-95l277 440 h-219l65 -57q29 -25 29 -35l-8 -20q-18 -27 -33 -27l-29 10zM164 578l45 -54h340l67 103h-403zM637 524h383l45 54l-49 49h-311z" />
<glyph unicode="&#x21cf;" d="M115 481q0 41 57 41h285l61 107h-346q-57 0 -57 45q0 41 57 41h393l299 481h82l-295 -481h205l-61 53q-27 23 -29 37q0 18 14.5 31.5t26.5 13.5l24 -10l279 -267l-274 -262l-29 -10q-25 0 -41 47q0 10 29 35l65 55h-360l-258 -438h-95l263 438h-238q-57 0 -57 43z M547 522h387l49 56l-49 51h-328z" />
<glyph unicode="&#x21d0;" d="M115 575l282 265q10 10 26.5 10t28 -14.5t11.5 -30.5q-2 -12 -29 -37l-61 -55h696q57 0 57 -41q0 -45 -57 -45h-774l-49 -49l45 -54h778q57 0 57 -41q0 -43 -57 -43h-700l65 -57q27 -23 27 -41q0 -16 -12.5 -28.5t-32.5 -12.5q-12 0 -23 10z" />
<glyph unicode="&#x21d1;" d="M340 1251q45 66 145.5 169.5t128.5 135.5l267 -278l8 -27q0 -27 -45 -41q-14 0 -37 27l-45 53v-1159q0 -53 -43 -53q-39 0 -39 53v1237l-66 59l-61 -61v-1235q-2 -53 -47 -53q-39 0 -39 53v1155l-45 -49q-23 -25 -37 -27q-16 0 -30.5 13.5t-14.5 27.5z" />
<glyph unicode="&#x21d2;" d="M102 479q0 45 58 45h774l49 49l-45 54h-778q-57 0 -58 41q0 43 58 43h700l-65 57q-29 25 -29 35l8 20q18 27 33 27l29 -10l278 -265l-283 -264l-24 -10q-12 0 -26.5 14.5t-14.5 30.5q2 12 29 37l61 55h-696q-57 0 -58 41z" />
<glyph unicode="&#x21d3;" d="M340 371q0 27 45 41q14 0 37 -27l45 -53v1159q0 53 43 53q39 0 39 -53v-1237l65 -59l64 61v1235q2 53 47 53q39 0 39 -53v-1155l43 49q23 25 37 27q16 0 30.5 -13.5t14.5 -27.5q-45 -66 -145.5 -169.5t-129.5 -135.5l-266 278z" />
<glyph unicode="&#x21d4;" d="M33 575l282 265l25 10q12 0 26.5 -14.5t14.5 -30.5q-2 -12 -29 -37l-61 -55h641l-55 55q-27 27 -29 37q0 18 14.5 31.5t26.5 13.5q68 -43 170 -144.5t137 -130.5l-278 -264l-29 -10q-25 0 -41 47q0 6 3 11.5t12 12.5t14 11l57 57h-647l65 -57q29 -25 29 -35l-8 -20 q-18 -27 -33 -27l-29 10zM164 578l45 -54h803l53 54l-51 49h-801z" />
<glyph unicode="&#x21d5;" d="M340 299q0 14 14.5 27.5t30.5 13.5q14 0 37 -25l43 -47v1098l-43 -47q-23 -25 -37 -25q-18 0 -31.5 13.5t-13.5 27.5l10 25l264 278l265 -278l10 -25q0 -29 -47 -41q-14 0 -35 25l-43 53v-1102l43 45q23 23 43 23q16 0 27.5 -10.5t11.5 -28.5q0 -14 -19 -37l-256 -266 l-264 278zM551 186l61 -63l68 70v1257l-68 61l-61 -61v-1264z" />
<glyph unicode="&#x21dc;" d="M90 576l402 223q16 10 26 10q16 0 28.5 -16.5t12.5 -30.5q0 -20 -26 -35l-201 -111l145 3l197 -113l203 203q12 8 24 8q16 0 25 -8l86 -93h70q55 0 55 -43q0 -41 -55 -40h-91l-90 90l-200 -201q-4 -6 -19 -6q-16 0 -26 6l-193 111h-127l197 -109q27 -14 26 -37 q0 -14 -13 -29.5t-28 -15.5q-8 0 -24 10z" />
<glyph unicode="&#x21dd;" d="M90 578q0 41 55 40h91l90 -90l200 201q4 6 19 6q16 0 26 -6l193 -111h127l-197 109q-27 14 -26 37q0 14 13 29.5t28 15.5q8 0 24 -10l404 -224l-402 -223q-16 -10 -26 -10q-16 0 -28.5 16.5t-12.5 30.5q0 20 26 35l201 111l-145 -3l-197 113l-203 -203q-12 -8 -24 -8 q-16 0 -25 8l-86 93h-70q-55 0 -55 43z" />
<glyph unicode="&#x21e6;" d="M86 575l283 265q10 10 24 10q41 0 41 -45v-47h668q41 0 41 -41v-277q0 -43 -41 -43h-668v-49q0 -14 -12 -30.5t-29 -16.5q-18 0 -28 10zM217 578l152 -142v45h690v191h-694v43z" />
<glyph unicode="&#x21e7;" d="M340 797q0 18 10 28l264 279l265 -283q10 -10 10 -24q0 -41 -45 -41h-47v-668q0 -41 -41 -41h-277q-43 0 -43 41v668h-49q-14 0 -30.5 12t-16.5 29zM475 821h45v-690h191v694h43l-137 148z" />
<glyph unicode="&#x21e8;" d="M86 434v277q0 43 41 43h668v49q0 14 12 30.5t29 16.5q18 0 28 -10l279 -264l-283 -265q-10 -10 -24 -10q-41 0 -41 45v47h-668q-41 0 -41 41zM170 479h694v-43l148 137l-152 142v-45h-690v-191z" />
<glyph unicode="&#x21e9;" d="M340 354q0 41 45 41h47v668q0 41 41 41h277q43 0 43 -41v-668h49q14 0 30.5 -12t16.5 -29q0 -18 -10 -28l-264 -279l-265 283q-10 10 -10 24zM475 326l137 -148l142 152h-45v690h-191v-694h-43z" />
<glyph unicode="&#x21f3;" d="M338 850q0 18 10 29l264 278l265 -283q10 -10 10 -24q0 -41 -45 -41h-47v-463h49q12 0 29.5 -12t17.5 -29q0 -18 -10 -29l-265 -278l-264 283q-10 10 -10 24q0 41 45 41h47v463h-49q-12 0 -29.5 12.5t-17.5 28.5zM473 874h45l2 -598h-43l137 -147l142 152h-45l-2 598h43 l-138 147z" />
<glyph unicode="&#x2500;" d="M0 573v82h1229v-82h-1229z" />
<glyph unicode="&#x2501;" d="M0 532v164h1229v-164h-1229z" />
<glyph unicode="&#x2502;" d="M573 -410v2048h82v-2048h-82z" />
<glyph unicode="&#x2503;" d="M532 -410v2048h164v-2048h-164z" />
<glyph unicode="&#x2504;" d="M0 573v82h205v-82h-205zM410 573v82h409v-82h-409zM1024 573v82h205v-82h-205z" />
<glyph unicode="&#x2505;" d="M0 532v164h205v-164h-205zM410 532v164h409v-164h-409zM1024 532v164h205v-164h-205z" />
<glyph unicode="&#x2506;" d="M573 0h82v-410h-82v410zM573 205v819h82v-819h-82zM573 1229v409h82v-409h-82z" />
<glyph unicode="&#x2507;" d="M532 0h164v-410h-164v410zM532 205v819h164v-819h-164zM532 1229v409h164v-409h-164z" />
<glyph unicode="&#x2508;" d="M0 573v82h133v-82h-133zM276 573v82h267v-82h-267zM686 573v82h266v-82h-266zM1096 573v82h133v-82h-133z" />
<glyph unicode="&#x2509;" d="M0 532v164h133v-164h-133zM276 532v164h267v-164h-267zM686 532v164h266v-164h-266zM1096 532v164h133v-164h-133z" />
<glyph unicode="&#x250a;" d="M573 61v424h82v-424h-82zM573 -199h82v-211h-82v211zM573 745v424h82v-424h-82zM573 1427v211h82v-211h-82z" />
<glyph unicode="&#x250b;" d="M532 61v424h164v-424h-164zM532 -199h164v-211h-164v211zM532 745v424h164v-424h-164zM532 1427v211h164v-211h-164z" />
<glyph unicode="&#x250c;" d="M573 -410v1065h656v-82h-574v-983h-82z" />
<glyph unicode="&#x250d;" d="M573 -410v1106h656v-164h-574v-942h-82z" />
<glyph unicode="&#x250e;" d="M532 -410v1065h697v-82h-533v-983h-164z" />
<glyph unicode="&#x250f;" d="M532 -410v1106h697v-164h-533v-942h-164z" />
<glyph unicode="&#x2510;" d="M0 573v82h655v-1065h-82v983h-573z" />
<glyph unicode="&#x2511;" d="M0 532v164h655v-1106h-82v942h-573z" />
<glyph unicode="&#x2512;" d="M0 573v82h696v-1065h-164v983h-532z" />
<glyph unicode="&#x2513;" d="M0 532v164h696v-1106h-164v942h-532z" />
<glyph unicode="&#x2514;" d="M573 573v1065h82v-983h574v-82h-656z" />
<glyph unicode="&#x2515;" d="M573 532v1106h82v-942h574v-164h-656z" />
<glyph unicode="&#x2516;" d="M532 573v1065h164v-983h533v-82h-697z" />
<glyph unicode="&#x2517;" d="M532 532v1106h164v-942h533v-164h-697z" />
<glyph unicode="&#x2518;" d="M0 573v82h573v983h82v-1065h-655z" />
<glyph unicode="&#x2519;" d="M0 532v164h573v942h82v-1106h-655z" />
<glyph unicode="&#x251a;" d="M0 573v82h532v983h164v-1065h-696z" />
<glyph unicode="&#x251b;" d="M0 532v164h532v942h164v-1106h-696z" />
<glyph unicode="&#x251c;" d="M573 -410v2048h82v-983h574v-82h-574v-983h-82z" />
<glyph unicode="&#x251d;" d="M573 -410v2048h82v-942h574v-164h-574v-942h-82z" />
<glyph unicode="&#x251e;" d="M532 573v1065h164v-983h533v-82h-574v-983h-82v983h-41z" />
<glyph unicode="&#x251f;" d="M532 -410v1065h41v983h82v-983h574v-82h-533v-983h-164z" />
<glyph unicode="&#x2520;" d="M532 -410v2048h164v-983h533v-82h-533v-983h-164z" />
<glyph unicode="&#x2521;" d="M532 532v1106h164v-942h533v-164h-574v-942h-82v942h-41z" />
<glyph unicode="&#x2522;" d="M532 -410v1106h41v942h82v-942h574v-164h-533v-942h-164z" />
<glyph unicode="&#x2523;" d="M532 -410v2048h164v-942h533v-164h-533v-942h-164z" />
<glyph unicode="&#x2524;" d="M0 573v82h573v983h82v-2048h-82v983h-573z" />
<glyph unicode="&#x2525;" d="M0 532v164h573v942h82v-2048h-82v942h-573z" />
<glyph unicode="&#x2526;" d="M0 573v82h532v983h164v-1065h-41v-983h-82v983h-573z" />
<glyph unicode="&#x2527;" d="M0 573v82h573v983h82v-983h41v-1065h-164v983h-532z" />
<glyph unicode="&#x2528;" d="M0 573v82h532v983h164v-2048h-164v983h-532z" />
<glyph unicode="&#x2529;" d="M0 532v164h532v942h164v-1106h-41v-942h-82v942h-573z" />
<glyph unicode="&#x252a;" d="M0 532v164h573v942h82v-942h41v-1106h-164v942h-532z" />
<glyph unicode="&#x252b;" d="M0 532v164h532v942h164v-2048h-164v942h-532z" />
<glyph unicode="&#x252c;" d="M0 573v82h1229v-82h-574v-983h-82v983h-573z" />
<glyph unicode="&#x252d;" d="M0 532v164h655v-41h574v-82h-574v-983h-82v942h-573z" />
<glyph unicode="&#x252e;" d="M0 573v82h573v41h656v-164h-574v-942h-82v983h-573z" />
<glyph unicode="&#x252f;" d="M0 532v164h1229v-164h-574v-942h-82v942h-573z" />
<glyph unicode="&#x2530;" d="M0 573v82h1229v-82h-533v-983h-164v983h-532z" />
<glyph unicode="&#x2531;" d="M0 532v164h696v-41h533v-82h-533v-983h-164v942h-532z" />
<glyph unicode="&#x2532;" d="M0 573v82h532v41h697v-164h-533v-942h-164v983h-532z" />
<glyph unicode="&#x2533;" d="M0 532v164h1229v-164h-533v-942h-164v942h-532z" />
<glyph unicode="&#x2534;" d="M0 573v82h573v983h82v-983h574v-82h-1229z" />
<glyph unicode="&#x2535;" d="M0 532v164h573v942h82v-983h574v-82h-574v-41h-655z" />
<glyph unicode="&#x2536;" d="M0 573v82h573v983h82v-942h574v-164h-656v41h-573z" />
<glyph unicode="&#x2537;" d="M0 532v164h573v942h82v-942h574v-164h-1229z" />
<glyph unicode="&#x2538;" d="M0 573v82h532v983h164v-983h533v-82h-1229z" />
<glyph unicode="&#x2539;" d="M0 532v164h532v942h164v-983h533v-82h-533v-41h-696z" />
<glyph unicode="&#x253a;" d="M0 573v82h532v983h164v-942h533v-164h-697v41h-532z" />
<glyph unicode="&#x253b;" d="M0 532v164h532v942h164v-942h533v-164h-1229z" />
<glyph unicode="&#x253c;" d="M0 573v82h573v983h82v-983h574v-82h-574v-983h-82v983h-573z" />
<glyph unicode="&#x253d;" d="M0 532v164h573v942h82v-983h574v-82h-574v-983h-82v942h-573z" />
<glyph unicode="&#x253e;" d="M0 573v82h573v983h82v-942h574v-164h-574v-942h-82v983h-573z" />
<glyph unicode="&#x253f;" d="M0 532v164h573v942h82v-942h574v-164h-574v-942h-82v942h-573z" />
<glyph unicode="&#x2540;" d="M0 573v82h532v983h164v-983h533v-82h-574v-983h-82v983h-573z" />
<glyph unicode="&#x2541;" d="M0 573v82h573v983h82v-983h574v-82h-533v-983h-164v983h-532z" />
<glyph unicode="&#x2542;" d="M0 573v82h532v983h164v-983h533v-82h-533v-983h-164v983h-532z" />
<glyph unicode="&#x2543;" d="M0 532v164h532v942h164v-983h533v-82h-533v-41h-41v-942h-82v942h-573z" />
<glyph unicode="&#x2544;" d="M0 573v82h532v983h164v-942h533v-164h-574v-942h-82v942h-41v41h-532z" />
<glyph unicode="&#x2545;" d="M0 532v164h573v942h82v-942h41v-41h533v-82h-533v-983h-164v942h-532z" />
<glyph unicode="&#x2546;" d="M0 573v82h532v41h41v942h82v-942h574v-164h-533v-942h-164v983h-532z" />
<glyph unicode="&#x2547;" d="M0 532v164h532v942h164v-942h533v-164h-574v-942h-82v942h-573z" />
<glyph unicode="&#x2548;" d="M0 532v164h573v942h82v-942h574v-164h-533v-942h-164v942h-532z" />
<glyph unicode="&#x2549;" d="M0 532v164h532v942h164v-983h533v-82h-533v-983h-164v942h-532z" />
<glyph unicode="&#x254a;" d="M0 573v82h532v983h164v-942h533v-164h-533v-942h-164v983h-532z" />
<glyph unicode="&#x254b;" d="M0 532v164h532v942h164v-942h533v-164h-533v-942h-164v942h-532z" />
<glyph unicode="&#x254c;" d="M0 573v82h512v-82h-512zM717 573v82h512v-82h-512z" />
<glyph unicode="&#x254d;" d="M0 532v164h512v-164h-512zM717 532v164h512v-164h-512z" />
<glyph unicode="&#x254e;" d="M573 -410v922h82v-922h-82zM573 717v921h82v-921h-82z" />
<glyph unicode="&#x254f;" d="M492 -410v922h245v-922h-245zM492 717v921h245v-921h-245z" />
<glyph unicode="&#x2550;" d="M0 451v81h1229v-81h-1229zM0 696v82h1229v-82h-1229z" />
<glyph unicode="&#x2551;" d="M451 -410v2048h81v-2048h-81zM696 -410v2048h82v-2048h-82z" />
<glyph unicode="&#x2552;" d="M573 -410v1188h656v-82h-574v-164h574v-81h-574v-861h-82z" />
<glyph unicode="&#x2553;" d="M451 -410v1065h778v-82h-451v-983h-82v983h-164v-983h-81z" />
<glyph unicode="&#x2554;" d="M451 -410v1188h778v-82h-697v-1106h-81zM696 -410v942h533v-81h-451v-861h-82z" />
<glyph unicode="&#x2555;" d="M0 451v81h573v164h-573v82h655v-1188h-82v861h-573z" />
<glyph unicode="&#x2556;" d="M0 573v82h778v-1065h-82v983h-164v-983h-81v983h-451z" />
<glyph unicode="&#x2557;" d="M0 451v81h532v-942h-81v861h-451zM0 696v82h778v-1188h-82v1106h-696z" />
<glyph unicode="&#x2558;" d="M573 451v1187h82v-860h574v-82h-574v-164h574v-81h-656z" />
<glyph unicode="&#x2559;" d="M451 573v1065h81v-983h164v983h82v-983h451v-82h-778z" />
<glyph unicode="&#x255a;" d="M451 451v1187h81v-1106h697v-81h-778zM696 696v942h82v-860h451v-82h-533z" />
<glyph unicode="&#x255b;" d="M0 451v81h573v164h-573v82h573v860h82v-1187h-655z" />
<glyph unicode="&#x255c;" d="M0 573v82h451v983h81v-983h164v983h82v-1065h-778z" />
<glyph unicode="&#x255d;" d="M0 451v81h696v1106h82v-1187h-778zM0 696v82h451v860h81v-942h-532z" />
<glyph unicode="&#x255e;" d="M573 -410v2048h82v-860h574v-82h-574v-164h574v-81h-574v-861h-82z" />
<glyph unicode="&#x255f;" d="M451 -410v2048h81v-2048h-81zM696 -410v2048h82v-983h451v-82h-451v-983h-82z" />
<glyph unicode="&#x2560;" d="M451 -410v2048h81v-2048h-81zM696 -410v942q0 2 138 3q0 -1 395 -3v-81h-451v-861h-82zM696 696v942h82v-860h451v-82h-533z" />
<glyph unicode="&#x2561;" d="M0 451v81h573v164h-573v82h573v860h82v-2048h-82v861h-573z" />
<glyph unicode="&#x2562;" d="M0 573v82h451v983h81v-2048h-81v983h-451zM696 -410v2048h82v-2048h-82z" />
<glyph unicode="&#x2563;" d="M0 451v81q238 2 395 3q137 0 137 -3v-942h-81v861h-451zM0 696v82h451v860h81v-942h-532zM696 -410v2048h82v-2048h-82z" />
<glyph unicode="&#x2564;" d="M0 451v81h1229v-81h-574v-861h-82v861h-573zM0 696v82h1229v-82h-1229z" />
<glyph unicode="&#x2565;" d="M0 573v82h1229v-82h-451v-983h-82v983h-164v-983h-81v983h-451z" />
<glyph unicode="&#x2566;" d="M0 451v81h532q-2 0 -2 -243q0 -1 2 -699h-81v861h-451zM0 696v82h1229v-82h-1229zM696 -410q2 418 2 697q0 244 -2 245q0 2 138 3q0 -1 395 -3v-81h-451v-861h-82z" />
<glyph unicode="&#x2567;" d="M0 451v81h1229v-81h-1229zM0 696v82h573v860h82v-860h574v-82h-1229z" />
<glyph unicode="&#x2568;" d="M0 573v82h451v983h81v-983h164v983h82v-983h451v-82h-1229z" />
<glyph unicode="&#x2569;" d="M0 451v81h1229v-81h-1229zM0 696v82h451v860h81q-2 -418 -2 -698q0 -244 2 -244h-532zM696 696q2 2 2 246l-2 696h82v-860h451v-82q-238 -2 -395 -2q-137 0 -138 2z" />
<glyph unicode="&#x256a;" d="M0 451v81h573v164h-573v82h573v860h82v-860h574v-82h-574v-164h574v-81h-574v-861h-82v861h-573z" />
<glyph unicode="&#x256b;" d="M0 573v82h451v983h81v-983h164v983h82v-983h451v-82h-451v-983h-82v983h-164v-983h-81v983h-451z" />
<glyph unicode="&#x256c;" d="M0 451v81h532v-942h-81v861h-451zM0 696v82h451v860h81v-942h-532zM696 -410v942h533v-81h-451v-861h-82zM696 696v942h82v-860h451v-82h-533z" />
<glyph unicode="&#x256d;" d="M573 205q0 240 105.5 345t345.5 105h205v-82h-205q-203 0 -286 -82.5t-83 -285.5v-615h-82v615z" />
<glyph unicode="&#x256e;" d="M0 573v82h205q240 0 345 -105.5t105 -344.5v-615h-82v615q0 203 -82.5 285.5t-285.5 82.5h-205z" />
<glyph unicode="&#x256f;" d="M0 574v82h205q203 0 286 82.5t83 285.5v615h82v-615q0 -240 -105.5 -345t-345.5 -105h-205z" />
<glyph unicode="&#x2570;" d="M573 1024v614h82v-614q0 -203 83 -286t286 -83h205v-82h-205q-240 0 -345.5 105.5t-105.5 345.5z" />
<glyph unicode="&#x2571;" d="M0 -369l1159 2007l70 -41l-1159 -2007z" />
<glyph unicode="&#x2572;" d="M-10 1597l69 41l1170 -2007l-70 -41z" />
<glyph unicode="&#x2573;" d="M-35 -369l602 983l-602 983l70 41l579 -946l580 946l70 -41l-602 -983l602 -983l-70 -41l-580 947l-579 -947z" />
<glyph unicode="&#x2574;" d="M0 573v82h614v-82h-614z" />
<glyph unicode="&#x2575;" d="M573 614v1024h82v-1024h-82z" />
<glyph unicode="&#x2576;" d="M614 573v82h614v-82h-614z" />
<glyph unicode="&#x2577;" d="M573 -410v1024h82v-1024h-82z" />
<glyph unicode="&#x2578;" d="M0 532v164h614v-164h-614z" />
<glyph unicode="&#x2579;" d="M532 614v1024h164v-1024h-164z" />
<glyph unicode="&#x257a;" d="M614 532v164h614v-164h-614z" />
<glyph unicode="&#x257b;" d="M532 -410v1024h164v-1024h-164z" />
<glyph unicode="&#x257c;" d="M0 573v82h614v41h615v-164h-615v41h-614z" />
<glyph unicode="&#x257d;" d="M532 -410v1024h41v1024h82v-1024h41v-1024h-164z" />
<glyph unicode="&#x257e;" d="M0 532v164h614v-41h615v-82h-615v-41h-614z" />
<glyph unicode="&#x257f;" d="M532 614v1024h164v-1024h-41v-1024h-82v1024h-41z" />
<glyph unicode="&#x2580;" d="M0 614v1024h1229v-1024h-1229z" />
<glyph unicode="&#x2581;" d="M0 -154h1229v-256h-1229v256z" />
<glyph unicode="&#x2582;" d="M0 102h1229v-512h-1229v512z" />
<glyph unicode="&#x2583;" d="M0 358h1229v-768h-1229v768z" />
<glyph unicode="&#x2584;" d="M0 -410v1024h1229v-1024h-1229z" />
<glyph unicode="&#x2585;" d="M0 -410v1280h1229v-1280h-1229z" />
<glyph unicode="&#x2586;" d="M0 -410v1536h1229v-1536h-1229z" />
<glyph unicode="&#x2587;" d="M0 -410v1792h1229v-1792h-1229z" />
<glyph unicode="&#x2588;" d="M0 -410v2048h1229v-2048h-1229z" />
<glyph unicode="&#x2589;" d="M0 -410v2048h1075v-2048h-1075z" />
<glyph unicode="&#x258a;" d="M0 -410v2048h922v-2048h-922z" />
<glyph unicode="&#x258b;" d="M0 -410v2048h768v-2048h-768z" />
<glyph unicode="&#x258c;" d="M0 -410v2048h614v-2048h-614z" />
<glyph unicode="&#x258d;" d="M0 -410v2048h461v-2048h-461z" />
<glyph unicode="&#x258e;" d="M0 -410v2048h307v-2048h-307z" />
<glyph unicode="&#x258f;" d="M0 -410v2048h154v-2048h-154z" />
<glyph unicode="&#x2590;" d="M614 -410v2048h615v-2048h-615z" />
<glyph unicode="&#x2591;" d="M0 0v102h102v-102h-102zM0 -307h102v-103h-102v103zM0 410v102h102v-102h-102zM0 819v103h102v-103h-102zM0 1229v102h102v-102h-102zM205 -102h102v-103h-102v103zM205 205v102h102v-102h-102zM205 614v103h102v-103h-102zM205 1024v102h102v-102h-102zM205 1434v102 h102v-102h-102zM410 0v102h102v-102h-102zM410 -307h102v-103h-102v103zM410 410v102h102v-102h-102zM410 819v103h102v-103h-102zM410 1229v102h102v-102h-102zM614 -102h103v-103h-103v103zM614 205v102h103v-102h-103zM614 614v103h103v-103h-103zM614 1024v102h103v-102 h-103zM614 1434v102h103v-102h-103zM819 0v102h103v-102h-103zM819 -307h103v-103h-103v103zM819 410v102h103v-102h-103zM819 819v103h103v-103h-103zM819 1229v102h103v-102h-103zM1024 -102h102v-103h-102v103zM1024 205v102h102v-102h-102zM1024 614v103h102v-103h-102z M1024 1024v102h102v-102h-102zM1024 1434v102h102v-102h-102z" />
<glyph unicode="&#x2592;" d="M0 0v102h102v-102h-102zM0 -307h102v-103h-102v103zM0 410v102h102v-102h-102zM0 819v103h102v-103h-102zM0 1229v102h102v-102h-102zM102 -102h103v-103h-103v103zM102 205v102h103v-102h-103zM102 614v103h103v-103h-103zM102 1024v102h103v-102h-103zM102 1434v102 h103v-102h-103zM205 0v102h102v-102h-102zM205 -307h102v-103h-102v103zM205 410v102h102v-102h-102zM205 819v103h102v-103h-102zM205 1229v102h102v-102h-102zM307 -102h103v-103h-103v103zM307 205v102h103v-102h-103zM307 614v103h103v-103h-103zM307 1024v102h103v-102 h-103zM307 1434v102h103v-102h-103zM410 0v102h102v-102h-102zM410 -307h102v-103h-102v103zM410 410v102h102v-102h-102zM410 819v103h102v-103h-102zM410 1229v102h102v-102h-102zM512 -102h102v-103h-102v103zM512 205v102h102v-102h-102zM512 614v103h102v-103h-102z M512 1024v102h102v-102h-102zM512 1434v102h102v-102h-102zM614 0v102h103v-102h-103zM614 -307h103v-103h-103v103zM614 410v102h103v-102h-103zM614 819v103h103v-103h-103zM614 1229v102h103v-102h-103zM717 -102h102v-103h-102v103zM717 205v102h102v-102h-102zM717 614 v103h102v-103h-102zM717 1024v102h102v-102h-102zM717 1434v102h102v-102h-102zM819 0v102h103v-102h-103zM819 -307h103v-103h-103v103zM819 410v102h103v-102h-103zM819 819v103h103v-103h-103zM819 1229v102h103v-102h-103zM922 -102h102v-103h-102v103zM922 205v102h102 v-102h-102zM922 614v103h102v-103h-102zM922 1024v102h102v-102h-102zM922 1434v102h102v-102h-102zM1024 0v102h102v-102h-102zM1024 -307h102v-103h-102v103zM1024 410v102h102v-102h-102zM1024 819v103h102v-103h-102zM1024 1229v102h102v-102h-102zM1126 -102h103v-103 h-103v103zM1126 205v102h103v-102h-103zM1126 614v103h103v-103h-103zM1126 1024v102h103v-102h-103zM1126 1434v102h103v-102h-103z" />
<glyph unicode="&#x2593;" d="M2 2v98h98v-98h-98zM2 -104h98v-99h-98v99zM2 207v98h98v-98h-98zM2 -309h98v-101h-98v101zM2 412v98h98v-98h-98zM2 616v99h98v-99h-98zM2 821v99h98v-99h-98zM2 1026v98h98v-98h-98zM2 1231v98h98v-98h-98zM2 1436v98h98v-98h-98zM104 -2h99v-98h-99v98zM104 104v99h99 v-99h-99zM104 -207h99v-98h-99v98zM104 309v99h99v-99h-99zM104 514v98h99v-98h-99zM104 719v98h99v-98h-99zM104 924v98h99v-98h-99zM104 1128v99h99v-99h-99zM104 1333v99h99v-99h-99zM104 1538v100h97v-100h-97zM207 2v98h98v-98h-98zM207 -104h98v-99h-98v99zM207 207 v98h98v-98h-98zM207 -309h98v-99h-98v99zM207 412v98h98v-98h-98zM207 616v99h98v-99h-98zM207 821v99h98v-99h-98zM207 1026v98h98v-98h-98zM207 1231v98h98v-98h-98zM207 1436v100h96v-100h-96zM309 -2h99v-98h-99v98zM309 104v99h99v-99h-99zM309 -207h99v-98h-99v98z M309 309v99h99v-99h-99zM309 514v98h99v-98h-99zM309 719v98h99v-98h-99zM309 924v98h99v-98h-99zM309 1128v99h99v-99h-99zM309 1333v99h99v-99h-99zM309 1538v100h97v-100h-97zM412 2v98h98v-98h-98zM412 -104h98v-99h-98v99zM412 207v98h98v-98h-98zM412 -309h98v-99h-98 v99zM412 412v98h98v-98h-98zM412 616v99h98v-99h-98zM412 821v99h98v-99h-98zM412 1026v98h98v-98h-98zM412 1231v98h98v-98h-98zM412 1436v100h96v-100h-96zM514 -2h98v-98h-98v98zM514 104v99h98v-99h-98zM514 -207h98v-98h-98v98zM514 309v99h98v-99h-98zM514 514v98h98 v-98h-98zM514 719v98h98v-98h-98zM514 924v98h98v-98h-98zM514 1128v99h98v-99h-98zM514 1333v99h98v-99h-98zM514 1538v100h96v-100h-96zM616 2v98h99v-98h-99zM616 -104h99v-99h-99v99zM616 207v98h99v-98h-99zM616 -309h99v-99h-99v99zM616 412v98h99v-98h-99zM616 616 v99h99v-99h-99zM616 821v99h99v-99h-99zM616 1026v98h99v-98h-99zM616 1231v98h99v-98h-99zM616 1436v100h97v-100h-97zM719 -2h98v-98h-98v98zM719 104v99h98v-99h-98zM719 -207h98v-98h-98v98zM719 309v99h98v-99h-98zM719 514v98h98v-98h-98zM719 719v98h98v-98h-98z M719 924v98h98v-98h-98zM719 1128v99h98v-99h-98zM719 1333v99h98v-99h-98zM719 1538v100h96v-100h-96zM821 2v98h99v-98h-99zM821 -104h99v-99h-99v99zM821 207v98h99v-98h-99zM821 -309h99v-99h-99v99zM821 412v98h99v-98h-99zM821 616v99h99v-99h-99zM821 821v99h99v-99 h-99zM821 1026v98h99v-98h-99zM821 1231v98h99v-98h-99zM821 1436v100h97v-100h-97zM926 -2h98v-98h-98v98zM926 104v99h98v-99h-98zM926 -207h98v-98h-98v98zM926 309v99h98v-99h-98zM926 514v98h98v-98h-98zM926 719v98h98v-98h-98zM926 924v98h98v-98h-98zM926 1128v99 h98v-99h-98zM926 1333v99h98v-99h-98zM926 1538v100h96v-100h-96zM1028 2v98h98v-98h-98zM1028 -104h98v-99h-98v99zM1028 207v98h98v-98h-98zM1028 -309h98v-99h-98v99zM1028 412v98h98v-98h-98zM1028 616v99h98v-99h-98zM1028 821v99h98v-99h-98zM1028 1026v98h98v-98h-98 zM1028 1231v98h98v-98h-98zM1028 1436v100h96v-100h-96zM1130 -2h99v-98h-99v98zM1130 104v99h99v-99h-99zM1130 -207h99v-98h-99v98zM1130 309v99h99v-99h-99zM1130 514v98h99v-98h-99zM1130 719v98h99v-98h-99zM1130 924v98h99v-98h-99zM1130 1128v99h99v-99h-99z M1130 1333v99h99v-99h-99zM1130 1538v100h97v-100h-97z" />
<glyph unicode="&#x2594;" d="M0 1382v256h1229v-256h-1229z" />
<glyph unicode="&#x2595;" d="M1075 -410v2048h154v-2048h-154z" />
<glyph unicode="&#x2596;" d="M0 -410v1024h614v-1024h-614z" />
<glyph unicode="&#x2597;" d="M614 -410v1024h615v-1024h-615z" />
<glyph unicode="&#x2598;" d="M0 614v1024h614v-1024h-614z" />
<glyph unicode="&#x2599;" d="M0 -410v2048h614v-1024h615v-1024h-1229z" />
<glyph unicode="&#x259a;" d="M0 618v1020h614v-1017zM614 -410v1018h615v-1018h-615z" />
<glyph unicode="&#x259b;" d="M0 -410v2048h1229v-1024h-615v-1024h-614z" />
<glyph unicode="&#x259c;" d="M0 614v1024h1229v-2048h-615v1024h-614z" />
<glyph unicode="&#x259d;" d="M614 614v1024h615v-1024h-615z" />
<glyph unicode="&#x259e;" d="M0 -410v1022h614v-1022h-614zM614 621v1017h615v-1017h-615z" />
<glyph unicode="&#x259f;" d="M0 -410v1024h614v1024h615v-2048h-1229z" />
<glyph unicode="&#x25a0;" d="M102 0v1024h1024v-1024h-1024z" />
<glyph unicode="&#x25a1;" d="M102 0v1024h1024v-1024h-1024zM184 82h860v860h-860v-860z" />
<glyph unicode="&#x25a2;" d="M102 246v534q0 41 8.5 76t22.5 58.5t32.5 42t39 29.5t40 19.5t39 11.5t33 5t23.5 2h8h533q115 0 180 -66q29 -29 45 -73.5t18 -75.5l2 -31v-532q0 -115 -65 -180q-29 -29 -74 -45.5t-76 -18.5l-30 -2h-533q-115 0 -180 66q-29 29 -45.5 73.5t-18.5 75.5zM184 246 q0 -82 41 -123q18 -18 49 -28.5t54 -12.5h20h533q82 0 123 41q18 18 28 49t12 53v21v532q-4 86 -40 123q-16 16 -47 26.5t-54 12.5l-22 2h-533q-86 -4 -123 -41q-16 -16 -26.5 -47t-12.5 -53l-2 -23v-532z" />
<glyph unicode="&#x25a3;" d="M102 0v1024h1024v-1024h-1024zM184 82h860v860h-860v-860zM358 256v512h512v-512h-512z" />
<glyph unicode="&#x25a4;" d="M102 0v1024h1024v-1024h-1024zM184 82h860v154h-860v-154zM184 317h860v154h-860v-154zM184 553h860v154h-860v-154zM184 788h860v154h-860v-154z" />
<glyph unicode="&#x25a5;" d="M102 0v1024h1024v-1024h-1024zM184 82h154v860h-154v-860zM420 82h153v860h-153v-860zM655 82h154v860h-154v-860zM891 82h153v860h-153v-860z" />
<glyph unicode="&#x25a6;" d="M102 0v1024h1024v-1024h-1024zM184 82h154v154h-154v-154zM184 317h154v154h-154v-154zM184 553h154v154h-154v-154zM184 788h154v154h-154v-154zM420 82h153v154h-153v-154zM420 317h153v154h-153v-154zM420 553h153v154h-153v-154zM420 788h153v154h-153v-154zM655 82 h154v154h-154v-154zM655 317h154v154h-154v-154zM655 553h154v154h-154v-154zM655 788h154v154h-154v-154zM891 82h153v154h-153v-154zM891 317h153v154h-153v-154zM891 553h153v154h-153v-154zM891 788h153v154h-153v-154z" />
<glyph unicode="&#x25a7;" d="M102 0v1024h1024v-1024h-1024zM184 82h338l-338 338v-338zM184 537l455 -455h348l-803 803v-348zM242 942l802 -803v348l-454 455h-348zM707 942l337 -338v338h-337z" />
<glyph unicode="&#x25a8;" d="M102 0v1024h1024v-1024h-1024zM184 139l803 803h-348l-455 -455v-348zM184 604l338 338h-338v-338zM242 82h348l454 455v348zM707 82h337v338z" />
<glyph unicode="&#x25a9;" d="M102 0v1024h1024v-1024h-1024zM184 139l140 140l-140 141v-281zM184 604l140 141l-140 140v-281zM209 512l174 -174l174 174l-174 174zM242 82h280l-141 139zM242 942l139 -139l141 139h-280zM440 281l174 -175l174 175l-174 174zM440 743l174 -174l174 174l-174 175z M672 512l174 -174l174 174l-174 174zM707 82h280l-139 139zM707 942l141 -139l139 139h-280zM905 279l139 -140v281zM905 745l139 -141v281z" />
<glyph unicode="&#x25aa;" d="M358 0v512h512v-512h-512z" />
<glyph unicode="&#x25ab;" d="M358 0v512h512v-512h-512zM440 82h348v348h-348v-348z" />
<glyph unicode="&#x25ac;" d="M102 0v614h1024v-614h-1024z" />
<glyph unicode="&#x25ad;" d="M102 0v614h1024v-614h-1024zM184 82h860v450h-860v-450z" />
<glyph unicode="&#x25ae;" d="M307 0v1024h615v-1024h-615z" />
<glyph unicode="&#x25af;" d="M307 0v1024h615v-1024h-615zM389 82h451v860h-451v-860z" />
<glyph unicode="&#x25b0;" d="M51 0l103 614h1024l-103 -614h-1024z" />
<glyph unicode="&#x25b1;" d="M51 0l103 614h1024l-103 -614h-1024zM145 82h861l77 450h-860z" />
<glyph unicode="&#x25b2;" d="M72 0l544 930l541 -930h-1085z" />
<glyph unicode="&#x25b3;" d="M72 0l542 930l543 -930h-1085zM201 82h827l-414 684z" />
<glyph unicode="&#x25b4;" d="M344 0l270 463l271 -463h-541z" />
<glyph unicode="&#x25b5;" d="M344 0l270 463l271 -463h-541zM481 82h267l-134 217z" />
<glyph unicode="&#x25b6;" d="M172 0v1085l940 -542z" />
<glyph unicode="&#x25b7;" d="M172 0v1085l940 -542zM254 133l702 410l-702 391v-801z" />
<glyph unicode="&#x25b8;" d="M408 0v545l469 -273z" />
<glyph unicode="&#x25b9;" d="M408 0v537l466 -265zM489 141l226 131l-226 121v-252z" />
<glyph unicode="&#x25ba;" d="M248 0v545l788 -273z" />
<glyph unicode="&#x25bb;" d="M248 0v537l786 -265zM340 125l424 147l-424 138v-285z" />
<glyph unicode="&#x25bc;" d="M72 930h1085l-541 -930z" />
<glyph unicode="&#x25bd;" d="M72 930h1085l-543 -930zM201 848l413 -684l414 684h-827z" />
<glyph unicode="&#x25be;" d="M344 463h541l-271 -463z" />
<glyph unicode="&#x25bf;" d="M344 463h541l-271 -463zM481 381l133 -217l134 217h-267z" />
<glyph unicode="&#x25c0;" d="M117 543l940 542v-1085z" />
<glyph unicode="&#x25c1;" d="M117 543l940 542v-1085zM272 543l703 -410v801z" />
<glyph unicode="&#x25c2;" d="M352 272l469 273v-545z" />
<glyph unicode="&#x25c3;" d="M354 272l467 265v-537zM514 272l225 -131v252z" />
<glyph unicode="&#x25c4;" d="M193 272l788 273v-545z" />
<glyph unicode="&#x25c5;" d="M195 272l786 265v-537zM465 272l424 -147v285z" />
<glyph unicode="&#x25c6;" d="M72 543l542 542l543 -542l-543 -543z" />
<glyph unicode="&#x25c7;" d="M72 543l542 542l543 -542l-543 -543zM186 543l428 -428l428 428l-428 428z" />
<glyph unicode="&#x25c8;" d="M72 543l542 542l543 -542l-543 -543zM186 543l428 -428l428 428l-428 428zM344 543l270 272l271 -272l-271 -273z" />
<glyph unicode="&#x25c9;" d="M72 547q0 223 161 380.5t390 157.5q219 0 376.5 -159.5t157.5 -383t-158.5 -383t-384 -159.5t-384 159.5t-158.5 387.5zM154 547q0 -195 134 -330t326 -135q190 0 325.5 135t135.5 326q0 188 -134 324.5t-320 136.5q-195 0 -331 -133.5t-136 -323.5zM414 547q0 84 59 141 t145 57q80 0 138.5 -59t58.5 -141t-59.5 -141.5t-141.5 -59.5q-84 0 -142 59.5t-58 143.5z" />
<glyph unicode="&#x25ca;" d="M182 580l430 598l435 -598l-435 -603zM293 580l319 -463l322 463l-322 462z" />
<glyph unicode="&#x25cb;" d="M72 547q0 223 161 380.5t390 157.5q219 0 376.5 -159.5t157.5 -383t-158.5 -383t-384 -159.5t-384 159.5t-158.5 387.5zM154 547q0 -195 134 -330t326 -135q190 0 325.5 135t135.5 326q0 188 -134 324.5t-320 136.5q-195 0 -331 -133.5t-136 -323.5z" />
<glyph unicode="&#x25cc;" d="M72 542.5q0 16.5 12 29t28.5 12.5t29 -12.5t12.5 -29t-12.5 -28.5t-29 -12t-28.5 12t-12 28.5zM139 293q0 16 11.5 27.5t28 11.5t29.5 -11.5t13 -28t-11.5 -28.5t-29.5 -12q-16 0 -28.5 11t-12.5 30zM139 793q0 18 12.5 29.5t28.5 11.5q18 0 29.5 -12.5t11.5 -29 t-13 -27.5t-29.5 -11t-28 12.5t-11.5 26.5zM324 109q0 18 12.5 29.5t28.5 11.5q39 0 38 -44q0 -39 -38 -38q-18 0 -29.5 12t-11.5 29zM324 977q0 16 12 28.5t28.5 12.5t27.5 -11.5t11 -29.5q0 -16 -11 -28.5t-27.5 -12.5t-28.5 11.5t-12 29.5zM573 41q0 16 12.5 28.5 t29 12.5t28.5 -12.5t12 -28.5t-12 -28.5t-28.5 -12.5t-29 12.5t-12.5 28.5zM573 1044.5q0 16.5 12.5 28.5t29 12t28.5 -12t12 -28.5t-12 -28.5t-28.5 -12t-29 12t-12.5 28.5zM825 109q0 16 11.5 28.5t28 12.5t28.5 -12.5t12 -29t-12 -28.5t-28.5 -12t-28 11.5t-11.5 29.5z M825 977q0 18 12.5 29.5t26.5 11.5q18 0 29.5 -12.5t11.5 -28.5q0 -18 -12 -29.5t-29 -11.5q-18 0 -28.5 12.5t-10.5 28.5zM1008 292.5q0 16.5 13 28t30 11.5q39 0 39 -39q0 -18 -12.5 -29.5t-28.5 -11.5q-18 0 -29.5 12t-11.5 28.5zM1008 792.5q0 16.5 12 29t28.5 12.5 t29 -12.5t12.5 -29t-11.5 -27.5t-28 -11t-29.5 11t-13 27.5zM1075 542.5q0 16.5 12.5 29t29 12.5t28.5 -12.5t12 -29t-12 -28.5t-28.5 -12t-29 12t-12.5 28.5z" />
<glyph unicode="&#x25cd;" d="M72 547q0 223 161 380.5t390 157.5q219 0 376.5 -159.5t157.5 -383t-158.5 -383t-384 -159.5t-384 159.5t-158.5 387.5zM154 547q0 -113 49 -211.5t135 -161.5v737q-184 -137 -184 -364zM420 125q73 -35 153 -41v917q-80 -8 -153 -40v-836zM655 84q80 6 154 41v836 q-72 34 -154 40v-917zM891 174q86 63 135 160.5t49 208t-50 208t-134 160.5v-737z" />
<glyph unicode="&#x25ce;" d="M72 547q0 223 161 380.5t390 157.5q219 0 376.5 -159.5t157.5 -383t-158.5 -383t-384 -159.5t-384 159.5t-158.5 387.5zM154 547q0 -195 134 -330t326 -135q190 0 325.5 135t135.5 326q0 188 -134 324.5t-320 136.5q-195 0 -331 -133.5t-136 -323.5zM358 544.5 q0 106.5 75.5 180.5t184.5 74q102 0 177 -76t75 -180q0 -106 -74.5 -181t-181 -75t-181.5 75.5t-75 182zM440 545q0 -74 51.5 -125t123 -51t122.5 51t51 122.5t-51 123t-121 51.5q-72 0 -124 -50.5t-52 -121.5z" />
<glyph unicode="&#x25cf;" d="M72 547q0 223 161 380.5t390 157.5q219 0 376.5 -159.5t157.5 -383t-158.5 -383t-384 -159.5t-384 159.5t-158.5 387.5z" />
<glyph unicode="&#x25d0;" d="M72 547q0 223 161 380.5t390 157.5q219 0 376.5 -159.5t157.5 -383t-158.5 -383t-384 -159.5t-384 159.5t-158.5 387.5zM616 82q190 0 324.5 135t134.5 326q0 188 -136.5 324.5t-322.5 136.5v-922z" />
<glyph unicode="&#x25d1;" d="M72 542.5q0 223.5 157.5 383t376.5 159.5q229 0 390 -157.5t161 -380.5q0 -227 -158.5 -387t-384 -160t-384 159.5t-158.5 383zM154 543q0 -190 134 -325.5t324 -135.5v922q-186 0 -322 -136.5t-136 -324.5z" />
<glyph unicode="&#x25d2;" d="M72 551q0 219 159.5 376.5t382.5 157.5q225 0 384 -159.5t159 -382.5q0 -225 -159.5 -384t-387.5 -159q-223 0 -380.5 161t-157.5 390zM154 545h921q0 190 -135 324.5t-326 134.5q-188 0 -324 -136.5t-136 -322.5z" />
<glyph unicode="&#x25d3;" d="M72 535q0 229 157.5 389.5t380.5 160.5q227 0 387 -158.5t160 -383.5q0 -223 -158.5 -383t-384.5 -160q-223 0 -382.5 158t-159.5 377zM154 541q0 -186 136 -322.5t324 -136.5q190 0 325.5 134t135.5 325h-921z" />
<glyph unicode="&#x25d4;" d="M72 547q0 223 161 380.5t390 157.5q219 0 376.5 -159.5t157.5 -383t-158.5 -383t-384 -159.5t-384 159.5t-158.5 387.5zM154 547q0 -195 134 -330t326 -135q190 0 324.5 135t136.5 326h-454v461q-195 0 -331 -133.5t-136 -323.5z" />
<glyph unicode="&#x25d5;" d="M72 551q0 219 159.5 376.5t382.5 157.5q225 0 384 -159.5t159 -382.5q0 -225 -159.5 -384t-387.5 -159q-223 0 -380.5 161t-157.5 390zM152 545h462v459q-193 0 -327.5 -134.5t-134.5 -324.5z" />
<glyph unicode="&#x25d6;" d="M72 547q0 225 157.5 381.5t384.5 156.5v-1085q-227 0 -384.5 159.5t-157.5 387.5z" />
<glyph unicode="&#x25d7;" d="M614 0v1085q227 0 385 -156.5t158 -381.5q0 -227 -158 -387t-385 -160z" />
<glyph unicode="&#x25d8;" d="M307 0v1229h615v-1229h-615zM414 491.5q0 -83.5 58 -143t142 -59.5q82 0 141.5 58.5t59.5 141.5q0 82 -58.5 141.5t-138.5 59.5q-86 0 -145 -57.5t-59 -141z" />
<glyph unicode="&#x25d9;" d="M0 0v1229h1229v-1229h-1229zM72 618q0 -227 158.5 -386.5t384 -159.5t384 158.5t158.5 383.5q0 223 -157.5 383t-376.5 160q-229 0 -390 -157.5t-161 -381.5zM174 618q0 182 130.5 309.5t316.5 127.5q176 0 305 -130t129 -310.5t-130 -310.5t-311 -130q-182 0 -311 130 t-129 314z" />
<glyph unicode="&#x25da;" d="M0 614v615h1229v-615h-72v21q-10 215 -166.5 367.5t-367.5 152.5q-223 0 -383 -150.5t-168 -369.5v-21h-72zM154 614v21q8 184 143 311t324 127q180 0 312 -128t142 -310v-21h-921z" />
<glyph unicode="&#x25db;" d="M0 0v614h72v-20q8 -219 167.5 -369.5t383.5 -150.5q211 0 367.5 152.5t166.5 367.5v20h72v-614h-1229zM154 594v20h921v-20q-10 -182 -142 -310t-312 -128q-188 0 -323.5 127t-143.5 311z" />
<glyph unicode="&#x25dc;" d="M72 545v20q8 211 158.5 360.5t363.5 159.5h29l-2 -81h-27q-180 -10 -306 -135.5t-134 -303.5v-20h-82z" />
<glyph unicode="&#x25dd;" d="M614 1085h29q213 -10 363.5 -159.5t158.5 -360.5v-20h-82v20q-8 178 -134 303t-306 136h-27z" />
<glyph unicode="&#x25de;" d="M614 0l2 82h27q180 10 306 135t134 303v21h82v-21q-8 -211 -158.5 -360.5t-363.5 -159.5h-29z" />
<glyph unicode="&#x25df;" d="M72 520v21h82v-21q8 -178 134 -303t306 -135h27l2 -82h-29q-213 10 -363.5 159.5t-158.5 360.5z" />
<glyph unicode="&#x25e0;" d="M72 545v20q8 219 167.5 369.5t383.5 150.5q211 0 367.5 -152.5t166.5 -367.5v-20h-82v20q-10 182 -142 310.5t-312 128.5q-188 0 -323.5 -127t-143.5 -312v-20h-82z" />
<glyph unicode="&#x25e1;" d="M72 520v21h82v-21q8 -184 143 -311t324 -127q180 0 312 128t142 310v21h82v-21q-10 -215 -166.5 -367.5t-367.5 -152.5q-223 0 -383 150.5t-168 369.5z" />
<glyph unicode="&#x25e2;" d="M102 0l1024 1024v-1024h-1024z" />
<glyph unicode="&#x25e3;" d="M102 0v1024l1024 -1024h-1024z" />
<glyph unicode="&#x25e4;" d="M102 0v1024h1024z" />
<glyph unicode="&#x25e5;" d="M102 1024h1024v-1024z" />
<glyph unicode="&#x25e6;" d="M414 491.5q0 83.5 59 141t145 57.5q80 0 138.5 -59.5t58.5 -141.5q0 -84 -59.5 -142t-141.5 -58q-84 0 -142 59.5t-58 143zM496 492q0 -51 34.5 -86t84 -35t84 34.5t34.5 83.5q0 47 -35 83t-82 36q-51 0 -85.5 -34.5t-34.5 -81.5z" />
<glyph unicode="&#x25e7;" d="M102 0v1024h1024v-1024h-1024zM614 82h430v860h-430v-860z" />
<glyph unicode="&#x25e8;" d="M102 0v1024h1024v-1024h-1024zM184 82h430v860h-430v-860z" />
<glyph unicode="&#x25e9;" d="M102 0v1024h1024v-1024h-1024zM184 82h860v860z" />
<glyph unicode="&#x25ea;" d="M102 0v1024h1024v-1024h-1024zM184 82l860 860h-860v-860z" />
<glyph unicode="&#x25eb;" d="M102 0v1024h1024v-1024h-1024zM184 82h389v860h-389v-860zM655 82h389v860h-389v-860z" />
<glyph unicode="&#x25ec;" d="M72 0l542 930l543 -930h-1085zM201 82h827l-414 684zM512 330q0 41 30.5 71.5t71.5 30.5q43 0 73 -30.5t30 -73.5q0 -41 -31 -71t-72 -30t-71.5 31t-30.5 72z" />
<glyph unicode="&#x25ed;" d="M72 0l542 930l543 -930h-1085zM614 82h414l-414 684v-684z" />
<glyph unicode="&#x25ee;" d="M72 0l542 930l543 -930h-1085zM201 82h413v684z" />
<glyph unicode="&#x25ef;" d="M0 618q0 254 182.5 432.5t442.5 178.5q246 0 425 -181.5t179 -433.5q0 -254 -180.5 -434t-434.5 -180t-434 181t-180 437zM82 618q0 -223 155.5 -379.5t376.5 -156.5q219 0 376 156.5t157 375.5q0 217 -155.5 375t-370.5 158q-223 0 -381 -153.5t-158 -375.5z" />
<glyph unicode="&#x25f0;" d="M102 0v1024h1024v-1024h-1024zM184 82h860v860h-389v-471h-471v-389zM184 553h389v389h-389v-389z" />
<glyph unicode="&#x25f1;" d="M102 0v1024h1024v-1024h-1024zM184 82h389v389h-389v-389zM184 553h471v-471h389v860h-860v-389z" />
<glyph unicode="&#x25f2;" d="M102 0v1024h1024v-1024h-1024zM184 82h389v471h471v389h-860v-860zM655 82h389v389h-389v-389z" />
<glyph unicode="&#x25f3;" d="M102 0v1024h1024v-1024h-1024zM184 82h860v389h-471v471h-389v-860zM655 553h389v389h-389v-389z" />
<glyph unicode="&#x25f4;" d="M72 542.5q0 223.5 157.5 383t376.5 159.5q229 0 390 -157.5t161 -380.5q0 -227 -158.5 -387t-384 -160t-384 159.5t-158.5 383zM156 502q16 -176 147 -298t311 -122q193 0 327 135t134 330q0 178 -121 308t-299 146v-499h-499zM156 584h417v417q-164 -12 -282.5 -131.5 t-134.5 -285.5z" />
<glyph unicode="&#x25f5;" d="M72 542.5q0 223.5 158.5 383t384 159.5t384 -159.5t158.5 -386.5q0 -223 -161 -381t-390 -158q-219 0 -376.5 159.5t-157.5 383zM156 502q16 -166 135 -286t282 -132v418h-417zM156 584h499v-500q178 16 299 146t121 309q0 195 -134 330t-327 135q-180 0 -311 -122 t-147 -298z" />
<glyph unicode="&#x25f6;" d="M72 539q0 227 158.5 386.5t384 159.5t384 -159.5t158.5 -383t-157.5 -383t-376.5 -159.5q-229 0 -390 157.5t-161 381.5zM154 539q0 -178 120.5 -308.5t298.5 -146.5v500h500q-16 176 -147 298t-312 122q-193 0 -326.5 -135.5t-133.5 -329.5zM655 84q164 12 283 132 t135 286h-418v-418z" />
<glyph unicode="&#x25f7;" d="M72 547q0 223 161 380.5t390 157.5q219 0 376.5 -159.5t157.5 -383t-158.5 -383t-384 -159.5t-384 159.5t-158.5 387.5zM154 547q0 -195 134 -330t326 -135q180 0 311.5 122t147.5 298h-500v499q-178 -16 -298.5 -146t-120.5 -308zM655 584h418q-16 166 -135 285.5 t-283 131.5v-417z" />
<glyph unicode="&#x25f8;" d="M102 0v1022l1024 2zM197 223l716 717h-716v-717z" />
<glyph unicode="&#x25f9;" d="M102 1024h1022l2 -1024zM326 930l716 -717v717h-716z" />
<glyph unicode="&#x25fa;" d="M102 1024l1024 -1024h-1022zM186 94h717l-717 717v-717z" />
<glyph unicode="&#x25fb;" d="M102 0v1024h1024v-1024h-1024zM188 82h856v860h-856v-860z" />
<glyph unicode="&#x25fc;" d="M102 0v1024h1024v-1024h-1024z" />
<glyph unicode="&#x25fd;" d="M256 154v716h717v-716h-717zM315 211h600v602h-600v-602z" />
<glyph unicode="&#x25fe;" d="M256 154v716h717v-716h-717z" />
<glyph unicode="&#x25ff;" d="M102 0l1024 1024v-1022zM315 84h717v717z" />
<glyph unicode="&#xe000;" horiz-adv-x="849" d="M0 0v850h850v-850h-850z" />
<glyph unicode="&#xfb01;" d="M158 43q0 41 55 41h170v686h-158q-55 0 -55 43q0 41 55 41h158v121q0 109 64.5 185.5t154.5 76.5q47 0 116.5 -17.5t69.5 -54.5q0 -16 -11 -28.5t-27 -12.5q-4 0 -56.5 14.5t-89.5 14.5q-57 0 -97 -51t-40 -127v-121h354v-770h154q55 0 55 -41q0 -43 -55 -43h-762 q-55 0 -55 43zM467 84h270v686h-270v-686z" />
<glyph unicode="&#xfb02;" d="M145 43q0 41 56 41h170v686h-158q-55 0 -55 43q0 41 55 41h158v121q0 109 64.5 185.5t154.5 76.5h264v-1153h158q55 0 55 -41q0 -43 -55 -43h-811q-55 0 -56 43zM455 84h315v1069h-180q-57 0 -96 -51t-39 -127v-121h147q55 0 55 -41q0 -43 -55 -43h-147v-686z" />
<glyph unicode="&#xfb03;" d="M39 43q0 41 55 41h135v686h-123q-55 0 -55 43q0 41 55 41h123v121q0 109 64.5 185.5t155.5 76.5q70 0 95 -8t25 -37q0 -16 -11 -28.5t-28 -12.5q-4 0 -23.5 1t-55.5 1q-57 0 -97.5 -51t-40.5 -127v-121h299v121q0 109 64.5 185.5t154.5 76.5q47 0 117 -17.5t70 -54.5 q0 -16 -11.5 -28.5t-27.5 -12.5q-4 0 -56.5 14.5t-88.5 14.5q-57 0 -97.5 -51t-40.5 -127v-121h355v-770h88q55 0 55 -41q0 -43 -55 -43h-1045q-55 0 -55 43zM313 84h299v686h-299v-686zM696 84h271v686h-271v-686z" />
<glyph unicode="&#xfb04;" d="M20 43q0 41 56 41h112v686h-100q-55 0 -55 43q0 41 55 41h100v121q0 109 64.5 185.5t155.5 76.5q70 0 95 -8t25 -37q0 -16 -11 -28.5t-28 -12.5q-4 0 -23.5 1t-55.5 1q-57 0 -97.5 -51t-40.5 -127v-121h299v121q0 109 64.5 185.5t155.5 76.5h264v-1153h98q55 0 55 -41 q0 -43 -55 -43h-1077q-55 0 -56 43zM272 84h299v686h-299v-686zM655 84h316v1069h-178q-57 0 -97.5 -51t-40.5 -127v-121h148q55 0 55 -41q0 -43 -55 -43h-148v-686z" />
</font>
</defs>
</svg>
