<?xml version="1.0" standalone="no"?>
<!DOCTYPE svg PUBLIC "-//W3C//DTD SVG 1.1//EN" "http://www.w3.org/Graphics/SVG/1.1/DTD/svg11.dtd" >
<svg xmlns="http://www.w3.org/2000/svg">
<metadata></metadata>
<defs>
<font id="FreeMonoOblique" horiz-adv-x="1228" >
<font-face units-per-em="2048" ascent="1638" descent="-410" />
<missing-glyph horiz-adv-x="500" />
<glyph horiz-adv-x="0" />
<glyph horiz-adv-x="2048" />
<glyph unicode=" " />
<glyph unicode="!" d="M504 49q0 51 40 88t93 37h25q41 0 66.5 -22.5t25.5 -59.5q0 -49 -41 -86t-95 -37h-24q-39 0 -64.5 22.5t-25.5 57.5zM672 459q0 14 2 26l104 668q18 113 105 113q29 0 47 -16.5t18 -43.5q0 -12 -10 -53l-180 -668q-14 -57 -56 -57q-12 0 -21 9t-9 22z" />
<glyph unicode="&#x22;" d="M426 698v21l41 518h262l-178 -518q-27 -74 -78 -74q-47 0 -47 53zM852 698v21l41 518h262l-178 -518q-27 -74 -78 -74q-47 0 -47 53z" />
<glyph unicode="#" d="M281 420q0 51 65 51h182l74 258h-160q-49 0 -49 33q0 51 68 51h164l131 461q14 51 53 51q14 0 23.5 -9t9.5 -22q0 -10 -4 -26l-129 -455h186l129 461q14 51 53 51q35 0 35 -31q0 -6 -6 -26l-129 -455h182q47 0 47 -33q0 -51 -65 -51h-187l-73 -258h163q49 0 50 -33 q0 -51 -68 -51h-168l-131 -461q-14 -53 -53 -53q-33 0 -33 33q0 14 4 26l129 455h-186l-129 -461q-14 -53 -56 -53q-33 0 -32 33q0 6 6 26l129 455h-178q-47 0 -47 33zM612 471h187l71 258h-186z" />
<glyph unicode="$" d="M268 164q0 8 4 24l33 162q14 57 55 58q16 0 33 -25l-6 -66q0 -12 27.5 -40.5t94 -58.5t146.5 -30q141 0 247 78.5t106 184.5q0 68 -56.5 104.5t-137.5 53t-161 33.5t-136 65.5t-56 130.5q0 123 107.5 224t256.5 118l23 106q12 55 53 55q33 0 33 -32q0 -20 -4 -42 t-11.5 -47.5t-9.5 -39.5q66 -6 106 -24.5t89 -61.5q16 59 55 59q14 0 23.5 -9t9.5 -22q0 -10 -4 -24l-27 -123q-10 -57 -51 -57q-20 0 -35 26l4 49q0 12 -24.5 37t-80.5 49.5t-122 24.5q-113 0 -209 -78t-96 -170q0 -63 56 -97t136 -49.5t161 -34t137.5 -67.5t56.5 -133 q0 -141 -116 -243.5t-296 -120.5l-53 -244q-12 -55 -54 -55q-33 0 -32 32q0 55 25.5 145.5t29.5 121.5q-72 4 -138.5 34.5t-97.5 75.5q-2 -4 -4 -14t-3 -15.5t-4 -14.5t-6 -14t-7 -11.5t-9 -10.5t-12.5 -6t-15.5 -2q-12 0 -22.5 9.5t-10.5 21.5z" />
<glyph unicode="%" d="M280.5 481.5q0.5 30.5 45.5 46.5l831 250q20 4 27 4q27 0 26 -30q0 -35 -45 -47l-831 -250q-8 -4 -25 -4q-29 0 -28.5 30.5zM442 946q0 117 95.5 211t214.5 94q90 0 147 -56t57 -146q0 -117 -96 -211.5t-217 -94.5q-88 0 -144.5 57.5t-56.5 145.5zM522 961 q0 -59 39 -99.5t98 -40.5q84 0 151 65.5t67 147.5q0 61 -39.5 100.5t-100.5 39.5q-82 0 -148.5 -66t-66.5 -147zM532 176q0 119 95.5 213t216.5 94q90 0 146.5 -56t56.5 -146q0 -117 -96.5 -211.5t-217.5 -94.5q-86 0 -143.5 57.5t-57.5 143.5zM612 193q0 -59 39 -99.5 t99 -40.5q84 0 150.5 65.5t66.5 149.5q0 59 -39.5 98.5t-102.5 39.5q-82 0 -147.5 -66t-65.5 -147z" />
<glyph unicode="&#x26;" d="M270 221q0 125 83 227.5t214 139.5q-57 145 -57 188q0 109 96 198t211 89q72 0 127 -41q39 23 60 22q12 0 21 -10t9 -22q0 -31 -45 -54l-71 -32q-51 53 -117 53q-76 0 -141.5 -62.5t-65.5 -136.5q0 -51 49 -170l152 -362q84 111 149 262h88q47 0 47 -33q0 -51 -65 -51 h-25q-82 -170 -164 -258l39 -84h78q47 0 47 -33q0 -23 -18.5 -37t-46.5 -14h-119l-43 98q-117 -131 -256 -131q-100 0 -168 73t-68 181zM356 238q0 -78 48.5 -132.5t117.5 -54.5q111 0 209 125l-143 338q-100 -23 -166 -100.5t-66 -175.5z" />
<glyph unicode="'" d="M705 698v21l40 518h263l-179 -518q-27 -74 -77 -74q-47 0 -47 53z" />
<glyph unicode="(" d="M686 283q0 201 76 389t248 413q68 88 98.5 120t50.5 32q35 0 35 -33q0 -14 -23 -43q-188 -248 -276 -466t-88 -441q0 -201 84 -444q4 -12 4 -17q0 -16 -16.5 -31.5t-36.5 -15.5q-41 0 -98.5 190.5t-57.5 346.5z" />
<glyph unicode=")" d="M254 -221q0 16 12 31q195 250 285 471t90 448q0 201 -84 445q-4 12 -4 16q0 16 16.5 31.5t36.5 15.5q41 0 98.5 -193.5t57.5 -343.5q0 -201 -76 -389t-248 -413q-63 -86 -96 -119t-53 -33q-35 0 -35 33z" />
<glyph unicode="*" d="M432 937.5q0 20.5 15.5 36t35.5 15.5q10 0 27 -6l252 -86l61 285q12 55 54 55q14 0 23 -9t9 -22q0 -63 -28.5 -168.5t-34.5 -140.5l293 88q16 6 30 6q12 0 21.5 -10t9.5 -23q0 -35 -53 -53l-293 -86l119 -229q8 -16 8 -31q0 -16 -16.5 -31.5t-35 -15.5t-34.5 29l-119 229 l-215 -229q-29 -29 -47 -29q-35 0 -35 33q0 20 25 45l215 229l-254 86q-33 12 -33 32.5z" />
<glyph unicode="+" d="M268 567q0 51 64 51h370l89 412q8 55 53 55q33 0 33 -32q-14 -88 -48 -238.5t-43 -196.5h369q49 0 49 -32q0 -23 -18.5 -37t-46.5 -14h-371l-88 -414q-12 -55 -53 -55q-14 0 -23.5 9t-9.5 21q12 88 47 242t43 197h-369q-47 0 -47 32z" />
<glyph unicode="," d="M225 -250q0 14 11 35l251 512h273l-412 -543q-41 -51 -76 -51q-20 0 -33.5 13.5t-13.5 33.5z" />
<glyph unicode="-" d="M268 561q0 51 66 51h823q47 0 47 -32q1 -52 -65 -52h-824q-47 0 -47 33z" />
<glyph unicode="." d="M481 76q0 63 52 112.5t120 49.5h23q51 0 83 -30t32 -77q0 -63 -52.5 -112.5t-120.5 -49.5h-22q-51 0 -83 30t-32 77z" />
<glyph unicode="/" d="M203 -133q0 14 16 39l975 1425q25 37 51 37q35 0 35 -33q0 -16 -16 -39l-975 -1425q-27 -37 -53 -37q-12 0 -22.5 9.5t-10.5 23.5z" />
<glyph unicode="0" d="M319 332q0 80 21 182l43 205q51 242 189.5 394.5t308.5 152.5q137 0 212.5 -95.5t75.5 -267.5q0 -68 -14 -170t-54 -238.5t-99.5 -251t-162 -194.5t-229.5 -80q-137 0 -214 95.5t-77 267.5zM410 365q0 -311 215 -312q127 0 239.5 130t159.5 343l39 183q16 78 16 161 q0 312 -215 312q-102 0 -186 -72t-132 -174t-81 -223t-44 -208t-11 -140z" />
<glyph unicode="1" d="M240 33q0 51 67 51h285l225 1059l-280 -232q-20 -16 -48 -16q-31 0 -30 35q0 27 33 53l327 270h105l-248 -1169h285q47 0 47 -31q0 -20 -15.5 -36.5t-50.5 -16.5h-653q-49 0 -49 33z" />
<glyph unicode="2" d="M172 0l27 123l579 455q195 158 251 228.5t56 158.5q0 90 -69.5 153.5t-167.5 63.5t-174 -40t-110 -88t-64.5 -88t-50.5 -40q-12 0 -22.5 9t-10.5 19q0 29 33.5 79t89 102.5t144.5 91.5t185 39q125 0 214 -84t89 -201q0 -80 -34.5 -147.5t-120.5 -149.5 q-59 -57 -349 -288.5t-397 -311.5h643q0 6 3.5 21.5t4.5 24.5t5 23.5t8 23.5t11 18.5t16.5 13.5t21.5 4q14 0 23.5 -9t9.5 -22q0 -8 -4 -24l-33 -158h-807z" />
<glyph unicode="3" d="M225 131q0 18 15.5 33.5t31.5 15.5q14 0 41 -19.5t57.5 -44t94 -44t143.5 -19.5q158 0 283 104.5t125 237.5q0 100 -90 172t-217 72q-49 0 -50 33q0 31 28 41t91 10q131 0 226.5 80t95.5 190q0 84 -64.5 136.5t-167.5 52.5q-86 0 -152.5 -21.5t-96 -48.5t-57 -48.5 t-44.5 -21.5q-33 0 -33 33q0 25 51.5 69t149.5 83t201 39q133 0 216 -71t83 -185q0 -109 -74 -198t-203 -140q193 -86 193 -269q0 -166 -159 -300t-355 -134q-113 0 -238 57.5t-125 104.5z" />
<glyph unicode="4" d="M289 346l20 96l635 795h172l-172 -807h70q47 0 47 -33q0 -51 -64 -51h-69l-58 -262h70q49 0 49 -33q0 -23 -18.5 -37t-46.5 -14h-310q-47 0 -47 33q0 51 66 51h155l56 262h-555zM387 430h473l154 723h-47z" />
<glyph unicode="5" d="M231 160q0 18 15.5 33.5t36.5 15.5q14 0 38.5 -24.5t54.5 -53.5t93 -53.5t143 -24.5q94 0 172 37t123 90t76 116.5t42 114t11 85.5q0 106 -62 167.5t-171 61.5q-98 0 -209 -42t-113 -42q-27 0 -30 31q0 10 2 14l116 551h578q49 0 49 -33q0 -51 -66 -51h-495l-86 -405 q164 61 280 61q133 0 213 -81t80 -216q0 -217 -156.5 -380t-367.5 -163q-100 0 -190.5 40t-133.5 84t-43 67z" />
<glyph unicode="6" d="M377 367q0 199 73.5 381t202.5 303q227 215 494 215q59 0 102 -18.5t43 -45.5q0 -18 -14.5 -33.5t-32.5 -15.5q-8 0 -39.5 14.5t-87.5 14.5q-94 0 -194.5 -43t-194.5 -123t-165.5 -216t-96.5 -304q180 250 393 249q119 0 194.5 -82.5t75.5 -213.5q0 -184 -138 -332 t-310 -148q-139 0 -222 107.5t-83 290.5zM455 385q2 -49 7 -89t21.5 -88t42 -80t70.5 -53.5t106 -21.5q133 0 237.5 117t104.5 264q0 96 -57 162t-143 66q-106 0 -196.5 -72t-192.5 -205z" />
<glyph unicode="7" d="M440 1055q0 6 4 26l33 156h764l-29 -133l-559 -1063q-23 -43 -51 -43q-14 0 -23.5 9t-9.5 21.5t13 37.5l551 1050l8 37h-598q-2 -8 -6.5 -30.5t-7.5 -36t-10 -30t-18.5 -24.5t-27.5 -8q-12 0 -22.5 9t-10.5 22z" />
<glyph unicode="8" d="M293 262q0 121 80 220.5t223 158.5q-82 47 -118 100.5t-36 126.5q0 150 137.5 274t305.5 124q127 0 211 -79t84 -198q0 -227 -277 -348q170 -86 170 -248t-144.5 -293t-322.5 -131q-137 0 -225 83t-88 210zM379 276q0 -98 68.5 -160.5t177.5 -62.5q139 0 250.5 99.5 t111.5 224.5q0 100 -67.5 161.5t-180.5 61.5q-143 0 -251.5 -97t-108.5 -227zM526 879q0 -84 65.5 -140.5t166.5 -56.5q133 0 234.5 86t101.5 201q0 96 -64 154.5t-166 58.5q-129 0 -233.5 -94.5t-104.5 -208.5z" />
<glyph unicode="9" d="M291 33q0 18 14.5 33.5t32.5 15.5q6 0 39 -14.5t88 -14.5q94 0 195.5 44t195.5 126t166 217t94 299q-176 -250 -393 -250q-119 0 -194.5 83t-75.5 214q0 184 138 332t310 148q139 0 222 -107.5t83 -290.5q0 -199 -73.5 -381t-202.5 -303q-227 -215 -494 -215 q-59 0 -102 18.5t-43 45.5zM539 801q0 -96 57 -162t143 -66q106 0 196.5 72t192.5 205q-2 51 -8 90t-21.5 87t-41 80t-70.5 53.5t-106 21.5q-133 0 -237.5 -117t-104.5 -264z" />
<glyph unicode=":" d="M481 76q0 63 52 112.5t120 49.5h23q51 0 83 -29t32 -76q0 -66 -52.5 -115t-120.5 -49h-22q-51 0 -83 30t-32 77zM612 690q0 63 52 113.5t120 50.5h23q51 0 83 -29.5t32 -76.5q0 -63 -52.5 -113.5t-119.5 -50.5h-23q-51 0 -83 29.5t-32 76.5z" />
<glyph unicode=";" d="M233 -250q0 14 11 35l252 512h272l-412 -543q-41 -51 -73 -51q-20 0 -35 13.5t-15 33.5zM563 690q0 63 52 113.5t120 50.5h23q51 0 82.5 -29.5t31.5 -76.5q0 -63 -52 -113.5t-120 -50.5h-22q-51 0 -83 29.5t-32 76.5z" />
<glyph unicode="&#x3c;" d="M268 575l957 476q20 10 26 10q33 0 33 -39q0 -25 -35 -43l-813 -404l641 -403q19 -13 19 -29q0 -12 -14.5 -32.5t-34.5 -20.5q-10 0 -27 10z" />
<glyph unicode="=" d="M195 422q0 51 65 51h909q47 0 48 -33q0 -51 -66 -51h-909q-47 0 -47 33zM258 717q0 51 66 51h909q47 0 47 -33q0 -51 -66 -51h-909q-47 0 -47 33z" />
<glyph unicode="&#x3e;" d="M188 129q0 25 35 43l813 403l-641 404q-18 13 -18 29q0 18 16.5 35.5t32.5 17.5q10 0 27 -10l751 -476l-956 -475q-20 -10 -27 -10q-33 0 -33 39z" />
<glyph unicode="?" d="M473 922q0 2 4 22l29 139q18 6 101 40t141.5 46.5t138.5 12.5q141 0 222 -66.5t81 -183.5q0 -135 -95.5 -229.5t-326.5 -196.5l-18 -84q-8 -55 -54 -55q-14 0 -23 9t-9 21q0 37 15 96.5t17 67.5q217 82 312.5 164t95.5 184q0 86 -66.5 137.5t-179.5 51.5q-125 0 -280 -70 q0 -2 -4.5 -30.5t-7.5 -40t-10 -32t-19.5 -28.5t-28.5 -8q-35 0 -35 33zM485 49q0 51 41.5 88t98.5 37h57q96 0 96 -82q0 -51 -41 -87t-98 -36h-57q-45 0 -71 21.5t-26 58.5z" />
<glyph unicode="@" d="M285 248q0 86 16 158l72 333q49 233 194.5 386t319.5 153q119 0 190.5 -70.5t71.5 -185.5q0 -41 -8 -74l-121 -567q33 -6 33 -33q0 -51 -66 -51h-67l2 10q-61 -6 -86 -6q-100 0 -164 56.5t-64 144.5q0 109 81 203t208 131q63 16 139 16q27 127 27 152q0 88 -52.5 139 t-140.5 51q-139 0 -255.5 -129t-159.5 -332l-70 -327q-14 -78 -14 -138q0 -55 10 -103t33.5 -98.5t76 -80t125.5 -29.5q90 0 146.5 21.5t83 42t43.5 20.5q14 0 23.5 -9t9.5 -22q0 -49 -107.5 -93t-228.5 -44q-86 0 -148.5 36t-93.5 95t-45 119.5t-14 124.5zM694 522 q0 -63 45 -100t121 -37q45 0 80 8l80 377q-135 0 -230.5 -72.5t-95.5 -175.5z" />
<glyph unicode="A" d="M27 35q0 49 65 49h64l575 985h-246q-47 0 -47 33q0 51 66 51h416l178 -1069h76q47 0 47 -33q0 -51 -66 -51h-319q-47 0 -48 33q0 51 66 51h156l-52 301h-542l-176 -301h161q47 0 48 -33q0 -23 -18.5 -37t-47.5 -14h-309q-47 0 -47 35zM465 469h481l-102 600h-31z" />
<glyph unicode="B" d="M96 35q0 49 66 49h110l209 985h-110q-47 0 -47 35q0 49 65 49h529q131 0 211.5 -66.5t80.5 -175.5q0 -188 -233 -301q205 -76 205 -239q0 -143 -126 -257t-284 -114h-629q-47 0 -47 35zM356 84h426q125 0 219.5 82.5t94.5 191.5q0 80 -72 139.5t-262 59.5h-305zM475 641 h301q145 0 246.5 74t101.5 180q0 74 -60 124t-163 50h-336z" />
<glyph unicode="C" d="M225 401q0 43 11 95l34 170q41 193 216.5 353.5t390.5 160.5q207 0 323 -142q2 4 6 28t7.5 33t10.5 25.5t17 22.5t25 6q34 0 34 -29q0 -6 -4 -26l-49 -230q-10 -57 -53 -57q-18 0 -35 25l8 77q0 14 -19.5 43t-55 62t-98 56.5t-136.5 23.5q-170 0 -318.5 -131t-187.5 -314 l-30 -145q-10 -51 -11 -92q0 -158 102.5 -261.5t258.5 -103.5q201 0 397 185q20 20 41 20q33 0 33 -28.5t-70 -90.5q-203 -170 -420 -170q-182 0 -305 125t-123 309z" />
<glyph unicode="D" d="M96 33q0 51 66 51h69l209 985h-69q-47 0 -47 33q0 51 65 51h451q168 0 270 -110.5t102 -288.5q0 -61 -12 -119l-24 -115q-47 -219 -215 -369.5t-367 -150.5h-451q-47 0 -47 33zM315 84h306q147 0 289.5 127t176.5 291l33 149q8 57 8 80q0 55 -14 109.5t-47 107.5 t-97.5 87t-152.5 34h-293z" />
<glyph unicode="E" d="M96 35q0 49 66 49h110l209 985h-110q-47 0 -47 35q0 49 65 49h879l-62 -285q-10 -55 -53 -55q-14 0 -23.5 9t-9.5 22q0 49 20.5 126t24.5 99h-600l-90 -428h297l19 92q12 55 53 55q35 0 35 -30q0 -8 -5 -25l-57 -268q-10 -55 -53 -55q-14 0 -23.5 9t-9.5 21q0 25 10.5 66 t12.5 51h-297l-101 -473h643l52 244q12 55 55 55q14 0 23.5 -9t9.5 -22q0 -4 -4 -24l-70 -328h-922q-47 0 -47 35z" />
<glyph unicode="F" d="M96 33q0 51 66 51h110l209 985h-110q-47 0 -47 33q0 51 65 51h922l-62 -285q-8 -55 -53 -55q-12 0 -22.5 9t-10.5 22q0 49 20.5 126t24.5 99h-643l-90 -428h297l19 92q12 55 53 55q35 0 35 -30q0 -8 -5 -25l-57 -268q-10 -55 -53 -55q-14 0 -23.5 9t-9.5 21q0 25 10.5 66 t12.5 51h-297l-101 -473h283q49 0 49 -33q0 -23 -18.5 -37t-46.5 -14h-480q-47 0 -47 33z" />
<glyph unicode="G" d="M221 367q0 70 15 133l32 151q47 223 227.5 376t397.5 153q201 0 315 -111q16 84 60 84q35 0 35 -31q0 -8 -5 -24l-38 -187q-12 -57 -56 -57q-14 0 -33 25l7 73q0 18 -31 51t-104.5 64t-165.5 31q-176 0 -331 -132t-194 -317q-4 -16 -18.5 -76.5t-20.5 -103.5t-6 -86 q0 -156 104.5 -244t286.5 -88q143 0 310 70l65 307h-285q-47 0 -47 33q0 51 66 51h397q49 0 49 -33q0 -51 -67 -51h-29l-76 -354q-207 -106 -405 -107q-211 0 -333 107.5t-122 292.5z" />
<glyph unicode="H" d="M117 33q0 51 65 51h94l209 985h-51q-47 0 -47 33q0 51 66 51h245q47 0 47 -33q0 -51 -65 -51h-111l-90 -428h553l90 428h-110q-47 0 -47 33q0 51 65 51h246q47 0 47 -33q0 -51 -66 -51h-51l-209 -985h93q49 0 49 -33q0 -23 -18.5 -37t-47.5 -14h-289q-47 0 -47 33 q0 51 66 51h110l101 473h-553l-101 -473h111q47 0 47 -33q0 -23 -18.5 -37t-46.5 -14h-287q-49 0 -49 33z" />
<glyph unicode="I" d="M240 33q0 51 63 51h287l209 985h-285q-47 0 -47 33q0 51 63 51h656q49 0 49 -33q0 -23 -18.5 -37t-47.5 -14h-286l-209 -985h284q49 0 50 -33q0 -23 -18.5 -37t-47.5 -14h-655q-47 0 -47 33z" />
<glyph unicode="J" d="M205 152l65 305q12 55 54 55q14 0 23 -9t9 -22q0 -61 -27.5 -161.5t-31.5 -129.5q125 -139 272 -139q125 0 229.5 83t131.5 204l155 731h-323q-49 0 -49 33q0 51 65 51h606q47 0 48 -33q0 -51 -66 -51h-197l-155 -731q-33 -152 -170 -261.5t-293 -109.5q-98 0 -178 42 t-168 143z" />
<glyph unicode="K" d="M96 35q0 49 66 49h110l209 985h-110q-47 0 -47 35q0 49 65 49h346q49 0 49 -33q0 -51 -65 -51h-154l-108 -510l682 510h-92q-49 0 -50 33q0 51 66 51h244q49 0 49 -33q0 -51 -66 -51h-35l-540 -405q135 -61 194.5 -173t110.5 -407h115q47 0 47 -33q0 -23 -18.5 -37 t-47.5 -14h-176q-47 311 -109.5 433t-197.5 169l-199 -149l-78 -369h152q49 0 49 -33q0 -23 -18.5 -37t-46.5 -14h-349q-47 0 -47 35z" />
<glyph unicode="L" d="M137 33q0 51 66 51h196l209 985h-196q-47 0 -47 35q0 49 63 49h479q47 0 47 -33q0 -51 -65 -51h-197l-209 -985h557l70 328q12 55 53 55q35 0 35 -29q0 -6 -4 -26l-86 -412h-924q-47 0 -47 33z" />
<glyph unicode="M" d="M31 35q0 49 65 49h70l209 985h-51q-47 0 -48 35q0 49 66 49h203l170 -713l467 713h204q47 0 48 -33q0 -51 -66 -51h-51l-209 -985h70q47 0 47 -33q0 -23 -18.5 -37t-47.5 -14h-305q-47 0 -47 35q0 49 63 49h154l209 985h-16l-476 -723h-94l-172 723h-16l-209 -985h151 q49 0 50 -33q0 -23 -18.5 -37t-47.5 -14h-307q-47 0 -47 35z" />
<glyph unicode="N" d="M94 35q0 49 66 49h69l209 985h-110q-47 0 -47 35q0 49 65 49h217l406 -1032l200 948h-151q-49 0 -49 33q0 51 65 51h307q47 0 48 -33q0 -51 -66 -51h-70l-227 -1069h-106l-406 1032l-201 -948h152q49 0 49 -33q0 -23 -18.5 -37t-46.5 -14h-308q-47 0 -47 35z" />
<glyph unicode="O" d="M209 424q0 190 93 365.5t245.5 283t316.5 107.5q176 0 287 -125t111 -324q0 -193 -92.5 -371t-245 -285.5t-318.5 -107.5q-176 0 -286.5 126t-110.5 331zM295 442q0 -170 92 -280.5t231 -110.5q213 0 385.5 202t172.5 454q0 168 -92.5 278.5t-233.5 110.5 q-211 0 -383 -202t-172 -452z" />
<glyph unicode="P" d="M96 35q0 49 66 49h110l209 985h-110q-47 0 -47 35q0 49 65 49h492q141 0 231 -76t90 -194q0 -164 -148.5 -287t-344.5 -123h-271l-82 -389h283q49 0 49 -33q0 -51 -67 -51h-478q-47 0 -47 35zM457 557h274q152 0 268.5 93t116.5 212q0 90 -69.5 148.5t-176.5 58.5h-305z " />
<glyph unicode="Q" d="M209 422q0 291 201.5 524.5t453.5 233.5q176 0 287 -126t111 -329q0 -289 -197 -519.5t-449 -238.5l-129 -82q88 16 142 17q84 0 150.5 -27t99.5 -27q47 0 109.5 32t70.5 32q33 0 33 -33q0 -43 -91.5 -79t-144.5 -36q-41 0 -109.5 27t-136.5 27q-96 0 -198.5 -25.5 t-118.5 -25.5q-33 0 -33 34q0 27 31 45l213 134q-131 31 -213 152.5t-82 289.5zM295 442q0 -170 92 -280.5t231 -110.5q213 0 385.5 202t172.5 456q0 168 -92.5 277.5t-233.5 109.5q-213 0 -384 -202t-171 -452z" />
<glyph unicode="R" d="M96 35q0 49 66 49h110l209 985h-110q-47 0 -47 35q0 49 63 49h510q129 0 217 -76t88 -188q0 -238 -354 -352q84 -68 132 -153t126 -300h61q49 0 50 -33q0 -23 -18.5 -37t-47.5 -14h-117q-82 250 -146.5 355.5t-168.5 158.5h-273l-90 -430h152q49 0 49 -33 q0 -23 -18.5 -37t-46.5 -14h-349q-47 0 -47 35zM465 598h233q164 0 291 83t127 189q0 82 -69.5 140.5t-167.5 58.5h-314z" />
<glyph unicode="S" d="M197 31q0 8 4 24l47 230q12 57 55 57q16 0 33 -25l-8 -94q0 -10 32.5 -53t51.5 -57q33 -27 94 -45.5t123 -18.5q158 0 276.5 94t118.5 219q0 80 -63.5 123t-153.5 58.5t-179 35t-152.5 74t-63.5 150.5q0 150 136 264.5t312 114.5q180 0 277 -123q6 31 10 45t17.5 31.5 t35.5 17.5q14 0 23.5 -9t9.5 -22q0 -10 -4 -24l-45 -211q-10 -57 -51 -58q-18 0 -35 25l6 86q0 8 -24.5 45t-39.5 51q-27 27 -81 44.5t-107 17.5q-137 0 -242.5 -85t-105.5 -196q0 -66 45 -104.5t113.5 -53t147.5 -33t147.5 -38t113.5 -72.5t45 -137q0 -94 -41 -170 t-100.5 -120t-132 -73.5t-129 -40t-97.5 -10.5q-221 0 -319 150q0 -4 -5 -28t-8 -33t-10.5 -25.5t-18.5 -22.5t-25.5 -6t-23.5 9t-9 22z" />
<glyph unicode="T" d="M311 35q0 49 66 49h215l209 985h-342l-31 -149q-12 -55 -55 -56q-14 0 -23.5 9.5t-9.5 21.5q0 55 24.5 142t28.5 116h934l-49 -233q-12 -57 -53 -58q-10 0 -20.5 9.5t-12.5 19.5q0 25 2 29l31 149h-340l-209 -985h215q47 0 47 -33q0 -23 -18.5 -37t-47.5 -14h-514 q-47 0 -47 35z" />
<glyph unicode="U" d="M279 287q0 41 10 92l145 690h-67q-49 0 -50 33q0 51 66 51h307q45 0 45 -33q0 -51 -63 -51h-154l-145 -690q-8 -33 -8 -70q0 -115 72.5 -186.5t187.5 -71.5q137 0 251.5 95.5t143.5 232.5l145 690h-151q-47 0 -47 35q0 49 65 49h305q47 0 47 -33q0 -51 -65 -51h-70 l-145 -690q-37 -174 -180.5 -293t-315.5 -119q-147 0 -238 88t-91 232z" />
<glyph unicode="V" d="M254 1102q0 51 65 51h308q49 0 49 -33q0 -51 -66 -51h-155l170 -985h4l608 985h-162q-47 0 -47 33q0 51 64 51h309q47 0 47 -33q0 -51 -66 -51h-63l-655 -1069h-115l-184 1069h-64q-47 0 -47 33z" />
<glyph unicode="W" d="M250 0l104 1069h-30q-47 0 -48 33q0 51 66 51h305q49 0 49 -33q0 -51 -65 -51h-193l-92 -975l399 803h127l54 -803l323 975h-196q-47 0 -47 33q0 51 65 51h307q47 0 47 -33q0 -51 -65 -51h-31l-354 -1069h-131l-56 819l-409 -819h-129z" />
<glyph unicode="X" d="M90 33q0 51 66 51h34l494 506l-266 479h-31q-47 0 -47 33q0 51 63 51h228q47 0 47 -33q0 -51 -66 -51h-88l230 -412l403 412h-94q-47 0 -47 33q0 51 65 51h228q47 0 47 -33q0 -51 -66 -51h-30l-469 -479l284 -506h35q47 0 47 -33q0 -23 -18.5 -37t-46.5 -14h-271 q-47 0 -47 33q0 51 66 51h127l-246 438l-430 -438h133q47 0 47 -33q0 -51 -65 -51h-269q-47 0 -47 33z" />
<glyph unicode="Y" d="M313 33q0 51 66 51h215l92 436l-250 549h-49q-47 0 -47 33q0 51 66 51h227q47 0 47 -33q0 -51 -66 -51h-77l213 -465l405 465h-84q-49 0 -49 33q0 51 68 51h225q47 0 47 -35q0 -23 -18.5 -36t-47.5 -13h-47l-479 -549l-92 -436h215q47 0 47 -33q0 -51 -66 -51h-514 q-47 0 -47 33z" />
<glyph unicode="Z" d="M211 0l27 121l870 942l2 6h-551l-51 -242q-12 -57 -55 -57q-33 0 -33 33q0 8 4 24l70 326h714l-24 -119l-875 -942l-2 -8h645l62 289q12 55 53 55q35 0 35 -31q0 -12 -4 -24l-80 -373h-807z" />
<glyph unicode="[" d="M520 -254l318 1491h282q47 0 47 -33q0 -51 -65 -51h-199l-280 -1323h198q47 0 47 -33q0 -51 -65 -51h-283z" />
<glyph unicode="\" d="M512 1319q0 18 15.5 33.5t35.5 15.5q14 0 21.5 -7t13.5 -30l369 -1425q4 -16 4 -23q0 -18 -15.5 -33.5t-35.5 -15.5q-14 0 -21.5 7t-13.5 30l-369 1425q-4 16 -4 23z" />
<glyph unicode="]" d="M272 -221q0 51 66 51h199l280 1323h-199q-47 0 -47 33q0 51 66 51h283l-318 -1491h-283q-47 0 -47 33z" />
<glyph unicode="^" d="M393 758q0 18 27 45l461 457l270 -457q10 -16 10 -29q0 -18 -16.5 -33.5t-34.5 -15.5q-20 0 -37 27l-219 378l-381 -378q-27 -27 -47 -27q-33 0 -33 33z" />
<glyph unicode="_" d="M-55 -256l22 102h1229l-22 -102h-1229z" />
<glyph unicode="`" d="M547 1257q0 20 16.5 36t36.5 16q15 -1 33 -19l188 -205q4 -2 11.5 -15t7.5 -17q0 -18 -17.5 -33.5t-36.5 -15.5q-14 0 -32 18l-191 205q-16 20 -16 30z" />
<glyph unicode="a" d="M190 178q0 150 144.5 250t357.5 100q119 0 271 -43l30 146q2 10 2 28q0 63 -59 101.5t-160 38.5q-92 0 -200.5 -33t-124.5 -33q-12 0 -21.5 9.5t-9.5 23.5q0 49 150.5 83t230.5 34q125 0 202.5 -57.5t77.5 -147.5q0 -31 -4 -47l-116 -547h110q47 0 47 -33q0 -51 -65 -51 h-195l29 137q-217 -170 -426 -170q-127 0 -199 56.5t-72 154.5zM276 197q0 -70 51.5 -108t145.5 -38q111 0 209 40t225 138l39 185q-115 30 -247 30h-9q-176 0 -295 -70.5t-119 -176.5z" />
<glyph unicode="b" d="M53 35q0 49 66 49h110l228 1069h-111q-47 0 -47 35q0 49 63 49h195l-119 -565q193 211 414 211q158 0 258 -99.5t100 -255.5q0 -217 -171 -389t-386 -172q-221 0 -319 213l-39 -180h-195q-47 0 -47 35zM377 342q0 -125 83 -208t208 -83q176 0 316 139.5t140 315.5 q0 127 -84 210t-213 83q-174 0 -312 -140.5t-138 -316.5z" />
<glyph unicode="c" d="M248 311q0 229 173 401.5t404 172.5q195 0 303 -115q6 29 10.5 41t16.5 27.5t33 15.5q14 0 23.5 -9t8.5 -22q0 -2 -3 -26l-39 -187q-12 -57 -54 -57q-20 0 -34 25l6 73q0 18 -29 51t-100.5 66t-161.5 33q-131 0 -230.5 -56.5t-147.5 -138.5t-70.5 -152.5t-22.5 -121.5 q0 -125 86 -204t219 -79q236 0 424 150q27 23 41 22q10 0 21.5 -11.5t11.5 -23.5q0 -20 -41 -56t-107.5 -73t-168 -64.5t-204.5 -27.5q-162 0 -265 97.5t-103 248.5z" />
<glyph unicode="d" d="M209 322q0 217 169 389t382 172q223 0 325 -213l103 483h-111q-47 0 -47 35q0 49 66 49h194l-246 -1153h113q45 0 45 -33q0 -51 -63 -51h-195l39 182q-190 -215 -422 -215q-152 0 -252 101.5t-100 253.5zM295 346q0 -131 82 -213t211 -82q178 0 316 139.5t138 317.5 q0 127 -81.5 209t-212.5 82q-176 0 -314.5 -138.5t-138.5 -314.5z" />
<glyph unicode="e" d="M213 350q0 211 172 372t399 161q168 0 275.5 -97.5t107.5 -248.5q0 -47 -16 -129h-852q-2 -20 -2 -46q0 -137 94 -224t244 -87q96 0 203.5 31t181.5 80q27 14 37 14q30 0 30 -33q0 -53 -160.5 -114.5t-312.5 -61.5q-178 0 -289.5 106.5t-111.5 276.5zM317 492h766 q2 10 2 24q0 125 -89 204t-228 79q-150 0 -272 -83t-179 -224z" />
<glyph unicode="f" d="M223 35q0 49 66 49h200l146 686h-180q-47 0 -47 35q0 49 65 49h180l27 125q23 113 127 185.5t242 72.5q94 0 201.5 -12.5t107.5 -44.5q0 -20 -15 -36t-38 -16q-6 0 -50.5 6.5t-108 12.5t-118.5 6q-102 0 -175 -48t-89 -126l-27 -125h387q47 0 47 -33q0 -51 -65 -51h-387 l-146 -686h363q49 0 49 -33q0 -23 -18.5 -37t-46.5 -14h-650q-47 0 -47 35z" />
<glyph unicode="g" d="M215 362q0 199 162 360t362 161q216 0 308 -199l36 170h195q47 0 47 -33q0 -51 -65 -51h-111l-176 -827q-8 -41 -37 -91.5t-77 -104.5t-125 -91t-167 -37h-235q-47 0 -47 33q0 51 65 51h238q104 0 192 73.5t111 178.5l57 264q-178 -199 -393 -199q-150 0 -245 96.5 t-95 245.5zM301 381q0 -123 77 -200t200 -77q168 0 298 129t130 295q0 121 -78 196t-203 75q-164 0 -294 -128t-130 -290z" />
<glyph unicode="h" d="M113 35q0 49 65 49h94l228 1069h-113q-45 0 -45 35q0 49 64 49h194l-111 -526q98 94 178.5 133t174.5 39q123 0 196.5 -62.5t73.5 -167.5q0 -27 -6 -57l-109 -512h93q49 0 49 -33q0 -23 -18.5 -37t-47.5 -14h-270q-47 0 -47 35q0 49 63 49h94l107 506q6 20 6 43 q0 66 -49 116t-166 50q-84 0 -148.5 -34t-168.5 -132l-27 -27l-111 -522h93q49 0 49 -33q0 -51 -68 -51h-270q-47 0 -47 35z" />
<glyph unicode="i" d="M197 33q0 51 63 51h330l145 686h-241q-47 0 -48 35q0 49 66 49h326l-164 -770h327q49 0 50 -33q0 -23 -18.5 -37t-47.5 -14h-741q-47 0 -47 33zM743 1065l45 213h121l-45 -213h-121z" />
<glyph unicode="j" d="M168 -348q0 51 65 51h263q102 0 183 67.5t101 172.5l176 827h-491q-49 0 -49 33q0 51 67 51h576l-195 -911q-29 -143 -137.5 -233.5t-247.5 -90.5h-264q-47 0 -47 33zM893 1065l45 213h121l-45 -213h-121z" />
<glyph unicode="k" d="M137 35q0 49 66 49h110l228 1069h-111q-47 0 -47 35q0 49 63 49h197l-164 -768l418 301h-45q-47 0 -47 35q0 49 65 49h265q49 0 49 -35q0 -23 -18.5 -36t-47.5 -13h-96l-379 -268l336 -418h92q47 0 47 -33q0 -23 -18.5 -37t-46.5 -14h-269q-47 0 -47 35q0 49 66 49h57 l-291 365l-112 -80l-78 -369h-195q-47 0 -47 35z" />
<glyph unicode="l" d="M197 33q0 51 63 51h330l227 1069h-239q-47 0 -48 33q0 51 66 51h324l-246 -1153h327q49 0 50 -33q0 -23 -18.5 -37t-47.5 -14h-741q-47 0 -47 33z" />
<glyph unicode="m" d="M31 33q0 51 65 51h70l145 686h-69q-47 0 -47 33q0 51 65 51h152l-23 -106q123 135 244 135q131 0 168 -146q143 145 262 146q76 0 124 -49.5t48 -126.5q0 -20 -6 -45l-121 -578h70q47 0 47 -33q0 -23 -18.5 -37t-47.5 -14h-151l139 653q2 10 2 29q0 49 -31 83t-76 34 q-104 0 -249 -168l-115 -547h70q47 0 47 -33q0 -51 -66 -51h-151l137 647q4 25 4 33q0 49 -31 84t-74 35q-104 0 -249 -168l-117 -547h69q47 0 48 -33q0 -23 -18.5 -37t-47.5 -14h-223q-45 0 -45 33z" />
<glyph unicode="n" d="M117 33q0 51 65 51h94l146 686h-70q-47 0 -47 33q0 51 66 51h153l-30 -141q111 98 185.5 134t168.5 36q121 0 194.5 -62.5t73.5 -167.5q0 -33 -4 -49l-111 -520h70q47 0 47 -33q0 -23 -18.5 -37t-46.5 -14h-224q-47 0 -47 33q0 51 66 51h70l106 506q4 14 4 41 q0 61 -46 114.5t-157 53.5q-98 0 -165.5 -38t-188.5 -159l-111 -518h93q47 0 47 -33q0 -51 -66 -51h-268q-49 0 -49 33z" />
<glyph unicode="o" d="M227 332q0 213 176.5 382t397.5 169q170 0 275.5 -102.5t105.5 -264.5q0 -213 -176.5 -381t-399.5 -168q-168 0 -273.5 102.5t-105.5 262.5zM313 350q0 -131 87 -215t225 -84q182 0 326.5 137.5t144.5 311.5q0 133 -87.5 216t-226.5 83q-182 0 -325.5 -137.5 t-143.5 -311.5z" />
<glyph unicode="p" d="M-27 -348q0 51 66 51h111l225 1067h-111q-47 0 -47 33q0 51 66 51h194l-35 -168q102 106 196.5 151.5t211.5 45.5q166 0 265 -93.5t99 -248.5q0 -205 -165.5 -363t-380.5 -158q-229 0 -326 197l-109 -514h199q49 0 49 -33q0 -51 -65 -51h-396q-47 0 -47 33zM385 383 q0 -123 83 -201t214 -78q174 0 310 127t136 291q0 123 -83 200t-216 77q-174 0 -309 -127t-135 -289z" />
<glyph unicode="q" d="M215 365q0 205 167 361.5t384 156.5q228 0 324 -197l36 168h195q47 0 47 -33q0 -51 -65 -51h-111l-227 -1067h110q49 0 49 -33q0 -23 -18.5 -37t-46.5 -14h-395q-49 0 -50 33q0 51 66 51h201l110 514q-182 -197 -409 -197q-164 0 -265.5 95.5t-101.5 249.5zM301 381 q0 -121 84 -199t215 -78q176 0 312.5 127t136.5 289q0 125 -84 202t-217 77q-176 0 -311.5 -127t-135.5 -291z" />
<glyph unicode="r" d="M180 35q0 23 18.5 36t47.5 13h196l146 686h-152q-47 0 -47 35q0 20 17.5 34.5t46.5 14.5h237l-45 -209q172 131 268.5 180t176.5 49q76 0 127 -46t51 -72q0 -18 -18 -34.5t-38 -16.5q-12 0 -53 43t-94 43q-70 0 -156 -49.5t-286 -204.5l-97 -453h367q47 0 47 -35 q0 -23 -18.5 -36t-47.5 -13h-647q-47 0 -47 35z" />
<glyph unicode="s" d="M221 30.5q0 12.5 4 24.5l35 170q12 55 55 56q14 0 23.5 -9.5t9.5 -21.5q0 -8 -3 -25.5t-3 -21.5q0 -66 80 -109t203 -43q147 0 251.5 63.5t104.5 151.5q0 127 -276 158q-57 6 -88 11t-81.5 18.5t-77 31t-48 50t-21.5 75.5q0 113 117 193t285 80q176 0 264 -95 q12 66 55 66q14 0 23.5 -9t9.5 -22q0 -6 -4 -26l-29 -142q-12 -57 -55 -57q-18 0 -33 25l6 63q0 33 -70.5 74t-175.5 41q-119 0 -210 -52.5t-91 -119.5q0 -55 61.5 -84t141.5 -34t176 -26.5t146 -62.5q70 -55 69 -139q0 -129 -136 -223.5t-325 -94.5q-197 0 -301 113 q-18 -63 -39 -74q-10 -4 -20 -4q-12 0 -22.5 9t-10.5 21.5z" />
<glyph unicode="t" d="M260 803q0 51 66 51h153l51 244q12 55 54 55q35 0 34 -31q0 -8 -4 -24l-51 -244h451q47 0 47 -33q0 -23 -18.5 -37t-47.5 -14h-450l-117 -547q-4 -29 -4 -37q0 -61 53 -98t144 -37q86 0 189 23.5t169 58.5q25 12 37 12q31 1 31 -34q0 -57 -167 -100.5t-274 -43.5 q-121 0 -194.5 53.5t-73.5 141.5q0 27 6 57l117 551h-152q-49 0 -49 33z" />
<glyph unicode="u" d="M260 803q0 51 66 51h194l-131 -618q-4 -12 -4 -37q0 -66 42 -107t108 -41q207 0 415 185l113 534h-152q-49 0 -49 33q0 51 68 51h235l-164 -770h70q47 0 47 -33q0 -51 -65 -51h-154l29 135q-201 -168 -410 -168q-102 0 -161.5 54.5t-59.5 146.5q0 23 8 68l113 534h-111 q-47 0 -47 33z" />
<glyph unicode="v" d="M233 803q0 51 66 51h309q49 0 49 -33q0 -51 -65 -51h-135l161 -686h39l449 686h-141q-47 0 -47 33q0 51 65 51h311q47 0 47 -33q0 -51 -65 -51h-84l-504 -770h-143l-180 770h-84q-47 0 -48 33z" />
<glyph unicode="w" d="M233 803q0 51 66 51h227q47 0 47 -33q0 -51 -65 -51h-109l9 -655l286 522h107l69 -522l281 655h-102q-47 0 -48 33q0 51 66 51h227q47 0 47 -33q0 -51 -65 -51h-39l-332 -770h-104l-72 530l-297 -530h-104l-9 770h-38q-47 0 -48 33z" />
<glyph unicode="x" d="M113 33q0 51 65 51h19l454 365l-266 321h-14q-47 0 -47 33q0 51 65 51h227q47 0 48 -33q0 -51 -66 -51h-94l217 -266l338 266h-98q-47 0 -48 33q0 51 66 51h225q47 0 47 -33q0 -51 -65 -51h-12l-406 -321l299 -365h20q47 0 48 -33q0 -23 -18.5 -37t-47.5 -14h-270 q-47 0 -47 33q0 51 65 51h131l-252 305l-385 -305h140q47 0 47 -33q0 -23 -18.5 -37t-47.5 -14h-272q-47 0 -47 33z" />
<glyph unicode="y" d="M45 -348q0 51 66 51h258l209 297l-220 770h-32q-49 0 -50 33q0 51 66 51h236q47 0 47 -33q0 -51 -66 -51h-106l192 -678l473 678h-110q-47 0 -47 35q0 49 65 49h225q47 0 47 -33q0 -51 -65 -51h-27l-751 -1067h131q49 0 49 -33q0 -23 -18.5 -37t-47.5 -14h-477 q-47 0 -47 33z" />
<glyph unicode="z" d="M236 0l16 74l766 696h-516l-25 -113q-12 -55 -53 -55q-12 0 -22.5 9.5t-10.5 21.5q0 47 20.5 122.5t24.5 98.5h717l-16 -74l-768 -696h567l25 115q12 55 55 55q14 0 23.5 -9t9.5 -22q0 -8 -5 -24l-43 -199h-765z" />
<glyph unicode="{" d="M424 481q0 20 15.5 37t37.5 17q74 0 153 44t97 130l64 301q23 106 92 166.5t176 60.5q37 0 37 -33q0 -18 -15.5 -33.5t-40.5 -15.5q-51 0 -100 -34t-66 -111l-63 -301q-35 -156 -207 -217q121 -41 121 -160q0 -27 -8 -58l-64 -303q-4 -20 -4 -41q0 -53 34 -77.5t77 -24.5 q16 0 25.5 -9t9.5 -24q0 -23 -17 -36t-35 -13q-90 0 -136 42t-46 118q0 31 8 65l64 303q4 18 4 37q0 70 -56.5 106t-119.5 36q-37 0 -37 28z" />
<glyph unicode="|" d="M526 -223q0 8 4 24l293 1381q12 55 54 55q14 0 23 -9t9 -22q0 -8 -4 -24l-293 -1381q-12 -55 -53 -55q-14 0 -23.5 9t-9.5 22z" />
<glyph unicode="}" d="M342 -223q0 18 15.5 34.5t37.5 16.5q53 0 102.5 34t65.5 109l64 303q37 168 207 218q-119 51 -119 165q0 25 6 52l63 301q4 23 4 41q0 55 -33.5 79.5t-76.5 24.5q-14 0 -24.5 9.5t-10.5 23.5q0 18 14.5 33.5t36.5 15.5q90 0 135 -42t45 -118q0 -33 -6 -67l-63 -301 q-4 -18 -4 -35q0 -70 56 -104.5t120 -34.5q37 0 37 -33q0 -18 -12.5 -33.5t-40.5 -15.5q-74 0 -152 -45.5t-98 -133.5l-64 -303q-23 -104 -92.5 -164.5t-175.5 -60.5q-37 0 -37 31z" />
<glyph unicode="~" d="M297 502q0 41 102.5 126t188.5 85q74 0 127 -51l86 -84q63 -60 100 -60q49 0 98.5 40t86 79t57.5 39q14 0 24.5 -9.5t10.5 -21.5q0 -39 -104.5 -125t-186.5 -86q-61 0 -117.5 49t-106 97.5t-94.5 48.5q-47 0 -96 -40t-86 -79t-57 -39q-14 0 -23.5 9t-9.5 22z" />
<glyph unicode="&#xa0;" />
<glyph unicode="&#xa1;" d="M455 -350q0 12 10 53l180 668q14 57 56 57q12 0 21 -9t9 -22q0 -14 -2 -26l-104 -668q-18 -113 -105 -113q-29 0 -47 16.5t-18 43.5zM649 764q0 49 41 86t95 37h24q39 0 64.5 -22.5t25.5 -57.5q0 -51 -40 -88t-93 -37h-25q-41 0 -66.5 22.5t-25.5 59.5z" />
<glyph unicode="&#xa2;" d="M358 559q0 147 106.5 278.5t323.5 178.5l48 219q12 55 53 55q35 0 35 -33q0 -6 -4 -22l-46 -217q129 0 197 -74q18 35 47 35q35 0 35 -35q0 -10 -2 -16l-27 -125q-12 -59 -53 -60q-8 0 -20.5 9.5t-12.5 15.5l4 59q0 6 -5 17.5t-20.5 28t-37 32t-60 25.5t-85.5 10 q-158 0 -275 -111.5t-117 -261.5q0 -98 73 -164.5t179 -66.5q98 0 165 26.5t101.5 53t55.5 26.5q10 0 21.5 -9t11.5 -19q0 -57 -127 -103.5t-209 -50.5l-49 -231q-12 -55 -56 -56q-12 0 -22.5 9.5t-10.5 21.5t5 25l49 231q-123 16 -197 97t-74 202z" />
<glyph unicode="&#xa3;" d="M184 35q0 20 15.5 33.5t40.5 13.5q90 2 180 157.5t96 319.5h-213q-47 0 -47 35q0 49 66 49h192q-12 96 -12 162q0 154 107.5 266.5t252.5 112.5q94 0 162 -56.5t68 -105.5q0 -16 -16.5 -31.5t-35.5 -15.5q-14 0 -33.5 30.5t-58.5 62.5t-102 32q-27 0 -64 -11.5t-84 -40 t-78.5 -90t-31.5 -147.5q0 -14 10 -168h203q47 0 47 -33q0 -51 -66 -51h-184q-4 -129 -61.5 -261t-145.5 -214h516q39 0 65.5 23.5t37 52t27 52.5t38.5 24q14 0 23.5 -9.5t9.5 -21.5q0 -49 -60.5 -127t-154.5 -78h-662q-47 0 -47 35z" />
<glyph unicode="&#xa4;" d="M260 227q0 20 31 49l139 115q-35 74 -35 139q0 70 34 146t89 131l-90 115q-14 16 -14 30q0 18 16 33.5t35 15.5q14 0 35 -22l90 -113q109 72 227 72q115 0 191 -72l137 113q25 23 43 22q35 0 35 -32q0 -25 -31 -47l-137 -115q35 -61 35 -137q0 -154 -125 -279l90 -115 q2 -2 12 -32q0 -16 -16.5 -32.5t-36.5 -16.5q-16 0 -33 22l-88 115q-106 -72 -225 -72q-109 0 -191 72l-139 -115q-29 -23 -43 -22q-35 0 -35 32zM481 547q0 -88 57.5 -145.5t145.5 -57.5q123 0 220 94t97 213q0 88 -58 145.5t-148 57.5q-121 0 -217.5 -94t-96.5 -213z" />
<glyph unicode="&#xa5;" d="M330 313q0 51 53 52h268l27 122h-268q-37 0 -37 25q0 51 53 51h238l-228 506h-49q-47 0 -47 33q0 51 66 51h225q47 0 47 -33q0 -51 -66 -51h-80l211 -465l408 465h-80q-47 0 -47 35q0 49 66 49h225q47 0 47 -35q0 -49 -66 -49h-49l-444 -506h241q39 0 39 -22 q0 -53 -53 -54h-268l-27 -122h269q37 0 36 -23q0 -53 -53 -53h-268l-43 -205h176q47 0 47 -33q0 -23 -18.5 -37t-46.5 -14h-437q-47 0 -47 33q0 51 66 51h176l43 205h-266q-39 0 -39 24z" />
<glyph unicode="&#xa6;" d="M526 -223q0 8 4 24l115 547q12 55 53 55q14 0 23.5 -9t9.5 -21q-18 -111 -61 -303.5t-58 -268.5q-12 -55 -53 -55q-14 0 -23.5 9t-9.5 22zM705 610q18 111 61 303.5t57 268.5q12 55 54 55q14 0 23 -9t9 -22q0 -8 -4 -24l-117 -547q-12 -55 -51 -55q-14 0 -23 9t-9 21z " />
<glyph unicode="&#xa7;" d="M186 -127l50 227q10 49 51 50q35 0 35 -31q0 -35 -15.5 -95.5t-17.5 -68.5h338q90 0 157.5 54t67.5 124q0 47 -51 99.5t-168 125.5l-117 74q-229 143 -229 275q0 76 71.5 132t178.5 64q-10 27 -11 55q0 104 98.5 190.5t219.5 86.5h434l-47 -223q-12 -51 -53 -51 q-35 0 -35 28q0 2 2 8.5t2 14.5l29 141h-345q-84 0 -152.5 -56.5t-68.5 -125.5q0 -47 53.5 -97.5t198.5 -140.5l101 -63q115 -70 165 -130t50 -126q0 -57 -29 -100.5t-76 -64t-78.5 -29.5t-66.5 -13q10 -27 10 -53q0 -113 -97.5 -197t-230.5 -84h-424zM377 717 q0 -88 207 -219l112 -72q138 -86 183 -141q2 2 38.5 6t72.5 12t66.5 31.5t30.5 58.5q0 43 -47 97.5t-129 103.5l-116 74q-152 94 -209 157q-8 -2 -23 -2h-14q-72 0 -122 -30.5t-50 -75.5z" />
<glyph unicode="&#xa8;" d="M528 1128q0 47 39 85t86 38q37 0 60.5 -23.5t23.5 -58.5q0 -47 -39 -84.5t-88 -37.5q-35 0 -58.5 23.5t-23.5 57.5zM981 1128q0 47 39 85t86 38q37 0 60.5 -23.5t23.5 -58.5q0 -47 -39 -84.5t-88 -37.5q-35 0 -58.5 23.5t-23.5 57.5z" />
<glyph unicode="&#xa9;" d="M117 451q0 285 231 509t524 224q211 0 348.5 -136.5t137.5 -345.5q0 -285 -231.5 -509t-524.5 -224q-211 0 -348 137.5t-137 344.5zM203 469q0 -180 118.5 -298t299.5 -118q254 0 452.5 193.5t198.5 437.5q0 180 -119 298t-301 118q-252 0 -450.5 -193.5t-198.5 -437.5z M422 475q0 49 17.5 116.5t56.5 145.5t117.5 131.5t183.5 53.5q86 0 168 -60q12 45 47 45q29 0 28 -28q0 -8 -2 -13l-26 -133q-12 -43 -45 -43q-18 0 -31 23l4 43q0 12 -17.5 32.5t-56.5 41t-86 20.5q-86 0 -162.5 -68.5t-97.5 -163.5l-16 -79q-6 -25 -6 -50q0 -82 53 -135 t133 -53q63 0 113.5 27.5t80 56.5t46.5 29q28 0 28 -27q0 -45 -98 -102.5t-186 -57.5q-104 0 -175 72t-71 176z" />
<glyph unicode="&#xaa;" d="M408 418q0 51 65 51h526q47 0 48 -33q0 -51 -66 -51h-526q-47 0 -47 33zM469 702q0 94 94 162t225 68q55 0 146 -19l18 91q2 8 2 20q0 33 -31.5 54.5t-82.5 21.5q-45 0 -115 -23.5t-80 -23.5q-12 0 -20.5 9t-8.5 19q0 39 85 67t159 28q78 0 125 -38t47 -102q0 -8 -4 -32 l-74 -351h54q39 0 39 -28q0 -47 -56 -47h-129l10 53q-121 -59 -231 -60q-80 0 -126 35t-46 96zM545 713q0 -29 29.5 -47.5t80.5 -18.5q117 0 236 70l27 121q-53 23 -142 22q-94 0 -162.5 -44t-68.5 -103z" />
<glyph unicode="&#xab;" d="M221 428l512 403q29 23 47 23q33 0 33 -33q0 -20 -31 -49l-366 -344l219 -346q14 -18 14 -31q0 -20 -15.5 -35.5t-35.5 -15.5q-18 0 -37 23zM690 428l510 403q31 23 49 23q33 0 33 -33q0 -20 -31 -49l-366 -344l219 -346q14 -18 14 -31q0 -20 -15.5 -35.5t-35.5 -15.5 q-18 0 -37 23z" />
<glyph unicode="&#xac;" d="M328 846q0 51 65 51h879l-107 -498q-10 -55 -55 -55q-12 0 -22.5 9.5t-10.5 21.5q0 2 2 12t2 12l88 414h-794q-47 0 -47 33z" />
<glyph unicode="&#xad;" d="M268 561q0 51 66 51h823q47 0 47 -32q1 -52 -65 -52h-824q-47 0 -47 33z" />
<glyph unicode="&#xae;" d="M117 451q0 285 231 509t524 224q211 0 348.5 -136.5t137.5 -345.5q0 -285 -231.5 -509t-524.5 -224q-211 0 -348 137.5t-137 344.5zM203 469q0 -180 118.5 -298t299.5 -118q254 0 452.5 193.5t198.5 437.5q0 180 -119 298t-301 118q-252 0 -450.5 -193.5t-198.5 -437.5z M373 274q0 18 14 31.5t35 13.5h51l109 515h-50q-35 0 -34 28q0 20 14 32.5t37 12.5h280q82 0 131.5 -41t49.5 -110.5t-50.5 -126t-132.5 -78.5q43 -43 63.5 -81t61.5 -151h31q33 0 33 -28q0 -18 -14.5 -31.5t-34.5 -13.5h-80q-63 246 -166 282h-131l-43 -209h71q35 0 35 -28 q0 -18 -14 -31.5t-35 -13.5h-196q-35 0 -35 28zM606 602h115q94 0 153.5 39t59.5 100q0 43 -33 68t-88 25h-158z" />
<glyph unicode="&#xaf;" d="M559 1130q0 49 66 50h483q47 0 47 -33q1 -49 -65 -49h-484q-47 0 -47 32z" />
<glyph unicode="&#xb0;" d="M526 946q0 137 113 247t256 110q102 0 170 -67t68 -169q0 -137 -113 -247.5t-252 -110.5q-106 0 -174 66.5t-68 170.5zM612 963q0 -76 48.5 -123t123.5 -47q102 0 182.5 78.5t80.5 179.5q0 72 -48 120t-122 48q-102 0 -183.5 -78t-81.5 -178z" />
<glyph unicode="&#xb1;" d="M156 33q-1 49 65 49h823q47 0 48 -33q0 -49 -66 -49h-823q-47 0 -47 33zM287 649q0 49 63 49h371l70 330q12 55 55 55q12 0 22.5 -9t10.5 -21.5t-5 -24.5l-69 -330h369q49 0 49 -32q0 -49 -66 -50h-371l-69 -331q-12 -55 -53 -56q-14 0 -24.5 9.5t-10.5 21.5q0 8 4 25 l69 331h-368q-47 0 -47 33z" />
<glyph unicode="&#xb2;" d="M512 780l18 88l324 252q104 86 134 122t30 79q0 45 -36 77t-85 32q-51 0 -90 -22t-57.5 -48.5t-38 -48t-33.5 -21.5q-10 0 -19.5 8.5t-9.5 18.5q0 43 80 114.5t186 71.5q74 0 126.5 -49t52.5 -119q0 -57 -31 -103t-119 -121t-326 -257h308q16 47 47 47q29 0 28 -29 q0 -20 -8 -49.5t-10 -42.5h-471z" />
<glyph unicode="&#xb3;" d="M543 877q0 16 13 29.5t30 13.5q10 0 31.5 -17.5t59.5 -35t93 -17.5q80 0 143.5 53t63.5 119q0 53 -44 87t-114 36q-37 2 -37 31q0 18 14.5 30.5t37.5 12.5h30q66 0 112 38.5t46 92.5q0 41 -32 66.5t-85 25.5q-55 0 -94 -18.5t-60.5 -38t-35.5 -19.5q-29 0 -29 29 q0 39 80 80t156 41q78 0 127 -42t49 -110q0 -115 -131 -188q86 -57 86 -144q0 -98 -92.5 -177t-206.5 -79q-72 0 -141.5 34t-69.5 67z" />
<glyph unicode="&#xb4;" d="M795 1036q0 23 34 49l277 205q27 18 43 19q33 0 33 -33q0 -24 -35 -49l-277 -205q-27 -18 -41 -18q-35 0 -34 32z" />
<glyph unicode="&#xb5;" d="M176 -379q0 4 4 25l240 1126h-113q-47 0 -47 33q0 49 66 49h194l-131 -618q-6 -25 -6 -43q0 -68 40 -106t109 -38q211 0 418 187l115 536h-154q-49 0 -49 33q0 49 68 49h235l-164 -772h70q47 0 47 -33q0 -49 -65 -49h-154l27 121q-197 -154 -406 -154q-111 0 -174 66 l-82 -387q-12 -55 -55 -56q-14 0 -23.5 9.5t-9.5 21.5z" />
<glyph unicode="&#xb6;" d="M311 -94q0 51 62 51h200l123 575q-166 10 -264 77t-98 182q0 20 6 40l20 97q29 137 171.5 223t342.5 86h410q43 0 43 -33q0 -51 -61 -51h-125l-254 -1196h127q45 0 45 -33q0 -51 -62 -51h-202q-43 0 -43 35q0 18 15 32.5t38 16.5l254 1196h-148l-254 -1196q35 -4 35 -33 q0 -51 -61 -51h-275q-45 0 -45 33zM481 811q0 -68 67.5 -120t168.5 -62l108 514q-102 -6 -174.5 -46t-106.5 -95.5t-48.5 -100.5t-14.5 -82v-8z" />
<glyph unicode="&#xb7;" d="M612 465q0 47 39 85t86 38q37 0 60.5 -23.5t23.5 -58.5q0 -47 -39 -85t-88 -38q-35 0 -58.5 23.5t-23.5 58.5z" />
<glyph unicode="&#xb8;" d="M371 -283q0 20 14.5 35t34.5 15q8 0 51 -21.5t78 -21.5q45 0 74.5 19t29.5 50q0 41 -84 41h-43l35 166h78l-21 -96q111 -2 111 -94q0 -70 -55.5 -117t-136.5 -47q-57 0 -111.5 23.5t-54.5 47.5z" />
<glyph unicode="&#xb9;" d="M551 805q0 45 74 45h123l116 549l-141 -43q-6 -2 -21 -2q-10 0 -18 9t-8 19q0 27 32.5 41.5t157.5 49.5q60 16 95 26l-140 -649h146q35 0 34 -29q0 -18 -14 -31.5t-35 -13.5h-366q-35 0 -35 29z" />
<glyph unicode="&#xba;" d="M408 418q0 51 65 51h526q47 0 48 -33q0 -51 -66 -51h-526q-47 0 -47 33zM498 819q0 139 113.5 251t256.5 112q109 0 176.5 -66.5t67.5 -173.5q0 -139 -114.5 -249.5t-260.5 -110.5q-102 0 -170.5 67.5t-68.5 169.5zM575 836q0 -78 51.5 -128.5t129.5 -50.5 q109 0 193.5 83t84.5 188q0 78 -51 128t-131 50q-106 0 -191.5 -83t-85.5 -187z" />
<glyph unicode="&#xbb;" d="M137 33q0 20 31 49l364 344l-217 346q-14 23 -14 31q0 20 15.5 35.5t35.5 15.5q18 0 37 -23l338 -405l-508 -403q-29 -23 -49 -23q-33 0 -33 33zM608 33q0 18 31 49l365 344l-218 346q-14 18 -14 31q0 20 15.5 35.5t35.5 15.5q18 0 37 -23l338 -405l-510 -403 q-29 -23 -47 -23q-33 0 -33 33z" />
<glyph unicode="&#xbc;" d="M152 559q0 47 71 47q78 0 125 -2l117 549l-141 -43q-8 -2 -21 -2q-10 0 -18.5 9t-8.5 20q0 27 36 41t249 75l-139 -649h145q37 0 37 -29q0 -18 -15.5 -31.5t-35.5 -13.5h-367q-35 0 -34 29zM240 137q0 18 26 43l899 848q27 25 41 25q33 0 33 -33q0 -20 -25 -43l-899 -848 q-25 -25 -43 -25q-33 0 -32 33zM778 190l17 70l356 447h117l-94 -443h26q37 0 37 -28q0 -45 -80 -46l-24 -116h28q35 0 35 -29q0 -18 -15.5 -31.5t-35.5 -13.5h-176q-35 0 -35 29q0 45 86 45h39l24 116h-305zM879 264h221l78 369z" />
<glyph unicode="&#xbd;" d="M168 559q0 47 72 47q78 0 125 -2l116 549l-141 -43q-8 -2 -21 -2q-10 0 -18 9t-8 20q0 27 35.5 41t246.5 75l-137 -649h146q35 0 34 -29q0 -18 -14 -31.5t-35 -13.5h-366q-35 0 -35 29zM227 137q0 18 27 43l897 848q29 25 43 25q33 0 33 -33q0 -18 -25 -43l-899 -848 q-25 -25 -43 -25q-33 0 -33 33zM702 0l21 88l321 252q104 86 134 122t30 79q0 45 -35.5 76.5t-85.5 31.5q-51 0 -90 -21.5t-57 -48t-37.5 -48t-34.5 -21.5q-10 0 -19 8.5t-9 18.5q0 41 80.5 113.5t185.5 72.5q74 0 126 -49t52 -119q0 -57 -30.5 -103t-118.5 -121t-326 -257 h307q16 47 47 47q29 0 29 -33v-8l-18 -80h-472z" />
<glyph unicode="&#xbe;" d="M143 614q0 16 13.5 29.5t29.5 13.5q10 0 32 -17t59.5 -34.5t93.5 -17.5q80 0 143.5 53t63.5 119q0 53 -44.5 87t-113.5 36q-37 2 -37 30q0 18 14.5 30.5t36.5 12.5h33q63 0 109.5 39t46.5 92q0 41 -32 67t-85 26q-55 0 -94 -18.5t-60.5 -38t-36.5 -19.5q-29 0 -28 29 q0 39 79.5 79.5t155.5 40.5q78 0 127 -42t49 -109q0 -111 -131 -189q86 -57 86 -143q0 -98 -92 -177t-207 -79q-72 0 -141.5 34t-69.5 66zM238 137q0 16 26 43l899 848q27 25 41 25q33 0 33 -33q0 -20 -25 -43l-899 -848q-25 -25 -43 -25q-33 0 -32 33zM780 190l15 70 l356 447h117l-94 -443h26q37 0 37 -28q0 -45 -80 -46l-24 -116h28q35 0 35 -29q0 -18 -15.5 -31.5t-35.5 -13.5h-176q-35 0 -35 29q0 45 86 45h39l26 116h-305zM879 264h221l78 369z" />
<glyph unicode="&#xbf;" d="M215 -109q0 135 95.5 229.5t326.5 196.5l18 84q8 55 54 55q14 0 23 -9t9 -21q0 -37 -15 -96.5t-17 -67.5q-217 -82 -312.5 -164t-95.5 -184q0 -86 66.5 -137.5t179.5 -51.5q125 0 280 70q0 2 4.5 30.5t7.5 40t10 32t19.5 28.5t28.5 8q35 0 35 -33q0 -2 -4 -22l-29 -139 q-18 -6 -101 -40t-141.5 -46.5t-138.5 -12.5q-141 0 -222 66.5t-81 183.5zM627 731q0 51 41 87t98 36h57q45 0 71 -21.5t26 -58.5q0 -51 -41.5 -88t-98.5 -37h-57q-96 0 -96 82z" />
<glyph unicode="&#xc0;" d="M27 35q0 49 65 49h64l575 985h-246q-47 0 -47 33q0 51 66 51h416l178 -1069h76q47 0 47 -33q0 -51 -66 -51h-319q-47 0 -48 33q0 51 66 51h156l-52 301h-542l-176 -301h161q47 0 48 -33q0 -23 -18.5 -37t-47.5 -14h-309q-47 0 -47 35zM465 469h481l-102 600h-31z M621 1529q0 20 16.5 36t36.5 16q15 -1 33 -19l188 -205q4 -2 11.5 -15t7.5 -17q0 -18 -17.5 -33.5t-36.5 -15.5q-14 0 -32 18l-191 205q-16 20 -16 30z" />
<glyph unicode="&#xc1;" d="M27 35q0 49 65 49h64l575 985h-246q-47 0 -47 33q0 51 66 51h416l178 -1069h76q47 0 47 -33q0 -51 -66 -51h-319q-47 0 -48 33q0 51 66 51h156l-52 301h-542l-176 -301h161q47 0 48 -33q0 -23 -18.5 -37t-47.5 -14h-309q-47 0 -47 35zM465 469h481l-102 600h-31z M740 1312q0 23 34 49l277 205q27 18 43 19q33 0 33 -33q0 -24 -35 -49l-277 -205q-27 -18 -41 -18q-35 0 -34 32z" />
<glyph unicode="&#xc2;" d="M27 35q0 49 65 49h64l575 985h-246q-47 0 -47 33q0 51 66 51h416l178 -1069h76q47 0 47 -33q0 -51 -66 -51h-319q-47 0 -48 33q0 51 66 51h156l-52 301h-542l-176 -301h161q47 0 48 -33q0 -23 -18.5 -37t-47.5 -14h-309q-47 0 -47 35zM465 469h481l-102 600h-31z M539 1251q0 20 36 49l318 224l223 -222q18 -20 19 -32q0 -20 -15.5 -35.5t-36.5 -15.5q-12 0 -32 16l-181 180l-260 -180q-23 -16 -39 -16q-33 0 -32 32z" />
<glyph unicode="&#xc3;" d="M27 35q0 49 65 49h64l575 985h-246q-47 0 -47 33q0 51 66 51h416l178 -1069h76q47 0 47 -33q0 -51 -66 -51h-319q-47 0 -48 33q0 51 66 51h156l-52 301h-542l-176 -301h161q47 0 48 -33q0 -23 -18.5 -37t-47.5 -14h-309q-47 0 -47 35zM465 469h481l-102 600h-31z M528 1296.5q0 30.5 77 88t145 57.5q45 0 126.5 -49t106.5 -49q39 0 95.5 47t72.5 47q14 0 24.5 -9t10.5 -24q0 -27 -76 -86t-141 -59q-51 0 -131 49t-103 49q-49 0 -100 -46t-74 -46q-33 0 -33 30.5z" />
<glyph unicode="&#xc4;" d="M27 35q0 49 65 49h64l575 985h-246q-47 0 -47 33q0 51 66 51h416l178 -1069h76q47 0 47 -33q0 -51 -66 -51h-319q-47 0 -48 33q0 51 66 51h156l-52 301h-542l-176 -301h161q47 0 48 -33q0 -23 -18.5 -37t-47.5 -14h-309q-47 0 -47 35zM465 469h481l-102 600h-31z M528 1339q0 47 39 85t86 38q37 0 60.5 -23.5t23.5 -58.5q0 -47 -39 -84.5t-88 -37.5q-35 0 -58.5 23.5t-23.5 57.5zM981 1339q0 47 39 85t86 38q37 0 60.5 -23.5t23.5 -58.5q0 -47 -39 -84.5t-88 -37.5q-35 0 -58.5 23.5t-23.5 57.5z" />
<glyph unicode="&#xc5;" d="M27 35q0 49 65 49h64l575 985h-246q-47 0 -47 33q0 51 66 51h416l178 -1069h76q47 0 47 -33q0 -51 -66 -51h-319q-47 0 -48 33q0 51 66 51h156l-52 301h-542l-176 -301h161q47 0 48 -33q0 -23 -18.5 -37t-47.5 -14h-309q-47 0 -47 35zM465 469h481l-102 600h-31z M688 1380q0 86 71.5 155t161.5 69q68 0 112 -42t44 -106q0 -86 -72 -154.5t-162 -68.5q-68 0 -111.5 42t-43.5 105zM757 1395q0 -41 29 -67.5t72 -26.5q59 0 104 43t45 98q0 41 -28.5 67.5t-71.5 26.5q-57 0 -103.5 -44t-46.5 -97z" />
<glyph unicode="&#xc6;" d="M29 33q0 51 65 51h76l481 985h-129q-47 0 -47 33q0 51 66 51h872l-65 -311q-12 -55 -56 -56q-14 0 -23 9.5t-9 21.5q0 8 4 25l47 227h-391l-91 -426h160q2 6 6 27.5t7.5 32t10.5 25.5t17 21.5t24.5 6.5t23.5 -9.5t9 -21.5q0 -8 -4 -25l-41 -196q-12 -55 -53 -55 q-33 0 -33 32q0 10 2.5 23.5t6.5 30t6 24.5h-160l-100 -475h432l41 190q6 53 53 54q33 0 33 -33q0 -61 -28 -161.5t-34 -133.5h-706q-47 0 -47 35q0 49 65 49h107l63 303h-289l-147 -303h53q47 0 47 -33q0 -51 -65 -51h-213q-47 0 -47 33zM442 471h267l127 598h-103z" />
<glyph unicode="&#xc7;" d="M225 401q0 43 11 95l34 170q41 193 216.5 353.5t390.5 160.5q207 0 323 -142q2 4 6 28t7.5 33t10.5 25.5t17 22.5t25 6q35 0 34 -31q0 -4 -4 -24l-49 -230q-10 -57 -53 -57q-18 0 -35 25l8 77q0 14 -19.5 43t-55 62t-98 56.5t-136.5 23.5q-170 0 -318.5 -131t-187.5 -314 l-30 -145q-10 -51 -11 -92q0 -158 102.5 -261.5t258.5 -103.5q201 0 397 185q20 20 41 20q33 0 33 -29q0 -31 -71 -92t-186.5 -114.5t-215.5 -53.5h-27l-14 -63q111 -2 110 -94q0 -70 -55 -117t-137 -47q-57 0 -111.5 23.5t-54.5 47.5q0 20 15.5 35t33.5 15q8 0 51 -21.5 t78 -21.5q45 0 75 19t30 50q0 41 -84 41h-43l30 141q-176 47 -259 166t-83 260z" />
<glyph unicode="&#xc8;" d="M96 35q0 49 66 49h110l209 985h-110q-47 0 -47 35q0 49 65 49h879l-62 -285q-10 -55 -53 -55q-14 0 -23.5 9t-9.5 22q0 49 20.5 126t24.5 99h-600l-90 -428h297l19 92q12 55 53 55q35 0 35 -30q0 -8 -5 -25l-57 -268q-10 -55 -53 -55q-14 0 -23.5 9t-9.5 21q0 25 10.5 66 t12.5 51h-297l-101 -473h643l52 244q12 55 55 55q14 0 23.5 -9t9.5 -22q0 -4 -4 -24l-70 -328h-922q-47 0 -47 35zM621 1529q0 20 16.5 36t36.5 16q15 -1 33 -19l188 -205q4 -2 11.5 -15t7.5 -17q0 -18 -17.5 -33.5t-36.5 -15.5q-14 0 -32 18l-191 205q-16 20 -16 30z" />
<glyph unicode="&#xc9;" d="M96 35q0 49 66 49h110l209 985h-110q-47 0 -47 35q0 49 65 49h879l-62 -285q-10 -55 -53 -55q-14 0 -23.5 9t-9.5 22q0 49 20.5 126t24.5 99h-600l-90 -428h297l19 92q12 55 53 55q35 0 35 -30q0 -8 -5 -25l-57 -268q-10 -55 -53 -55q-14 0 -23.5 9t-9.5 21q0 25 10.5 66 t12.5 51h-297l-101 -473h643l52 244q12 55 55 55q14 0 23.5 -9t9.5 -22q0 -4 -4 -24l-70 -328h-922q-47 0 -47 35zM740 1312q0 23 34 49l277 205q27 18 43 19q33 0 33 -33q0 -24 -35 -49l-277 -205q-27 -18 -41 -18q-35 0 -34 32z" />
<glyph unicode="&#xca;" d="M96 35q0 49 66 49h110l209 985h-110q-47 0 -47 35q0 49 65 49h879l-62 -285q-10 -55 -53 -55q-14 0 -23.5 9t-9.5 22q0 49 20.5 126t24.5 99h-600l-90 -428h297l19 92q12 55 53 55q35 0 35 -30q0 -8 -5 -25l-57 -268q-10 -55 -53 -55q-14 0 -23.5 9t-9.5 21q0 25 10.5 66 t12.5 51h-297l-101 -473h643l52 244q12 55 55 55q14 0 23.5 -9t9.5 -22q0 -4 -4 -24l-70 -328h-922q-47 0 -47 35zM539 1251q0 20 36 49l318 224l223 -222q18 -20 19 -32q0 -20 -15.5 -35.5t-36.5 -15.5q-12 0 -32 16l-181 180l-260 -180q-23 -16 -39 -16q-33 0 -32 32z" />
<glyph unicode="&#xcb;" d="M96 35q0 49 66 49h110l209 985h-110q-47 0 -47 35q0 49 65 49h879l-62 -285q-10 -55 -53 -55q-14 0 -23.5 9t-9.5 22q0 49 20.5 126t24.5 99h-600l-90 -428h297l19 92q12 55 53 55q35 0 35 -30q0 -8 -5 -25l-57 -268q-10 -55 -53 -55q-14 0 -23.5 9t-9.5 21q0 25 10.5 66 t12.5 51h-297l-101 -473h643l52 244q12 55 55 55q14 0 23.5 -9t9.5 -22q0 -4 -4 -24l-70 -328h-922q-47 0 -47 35zM528 1339q0 47 39 85t86 38q37 0 60.5 -23.5t23.5 -58.5q0 -47 -39 -84.5t-88 -37.5q-35 0 -58.5 23.5t-23.5 57.5zM981 1339q0 47 39 85t86 38 q37 0 60.5 -23.5t23.5 -58.5q0 -47 -39 -84.5t-88 -37.5q-35 0 -58.5 23.5t-23.5 57.5z" />
<glyph unicode="&#xcc;" d="M240 33q0 51 63 51h287l209 985h-285q-47 0 -47 33q0 51 63 51h656q49 0 49 -33q0 -23 -18.5 -37t-47.5 -14h-286l-209 -985h284q49 0 50 -33q0 -23 -18.5 -37t-47.5 -14h-655q-47 0 -47 33zM621 1529q0 20 16.5 36t36.5 16q15 -1 33 -19l188 -205q4 -2 11.5 -15t7.5 -17 q0 -18 -17.5 -33.5t-36.5 -15.5q-14 0 -32 18l-191 205q-16 20 -16 30z" />
<glyph unicode="&#xcd;" d="M240 33q0 51 63 51h287l209 985h-285q-47 0 -47 33q0 51 63 51h656q49 0 49 -33q0 -23 -18.5 -37t-47.5 -14h-286l-209 -985h284q49 0 50 -33q0 -23 -18.5 -37t-47.5 -14h-655q-47 0 -47 33zM740 1312q0 23 34 49l277 205q27 18 43 19q33 0 33 -33q0 -24 -35 -49 l-277 -205q-27 -18 -41 -18q-35 0 -34 32z" />
<glyph unicode="&#xce;" d="M240 33q0 51 63 51h287l209 985h-285q-47 0 -47 33q0 51 63 51h656q49 0 49 -33q0 -23 -18.5 -37t-47.5 -14h-286l-209 -985h284q49 0 50 -33q0 -23 -18.5 -37t-47.5 -14h-655q-47 0 -47 33zM605 1251q0 20 36 49l318 224l223 -222q18 -20 19 -32q0 -20 -15.5 -35.5 t-36.5 -15.5q-12 0 -32 16l-181 180l-260 -180q-23 -16 -39 -16q-33 0 -32 32z" />
<glyph unicode="&#xcf;" d="M240 33q0 51 63 51h287l209 985h-285q-47 0 -47 33q0 51 63 51h656q49 0 49 -33q0 -23 -18.5 -37t-47.5 -14h-286l-209 -985h284q49 0 50 -33q0 -23 -18.5 -37t-47.5 -14h-655q-47 0 -47 33zM577 1339q0 47 39 85t86 38q37 0 60.5 -23.5t23.5 -58.5q0 -47 -39 -84.5 t-88 -37.5q-35 0 -58.5 23.5t-23.5 57.5zM1030 1339q0 47 39 85t86 38q37 0 60.5 -23.5t23.5 -58.5q0 -47 -39 -84.5t-88 -37.5q-35 0 -58.5 23.5t-23.5 57.5z" />
<glyph unicode="&#xd0;" d="M96 33q0 51 66 51h69l101 473h-158q-47 0 -47 33q0 51 66 51h157l90 428h-69q-47 0 -47 33q0 51 65 51h451q164 0 268 -113.5t104 -289.5q0 -57 -12 -115l-24 -115q-47 -213 -218.5 -366.5t-363.5 -153.5h-451q-47 0 -47 33zM315 84h306q145 0 289.5 128t176.5 290 l33 151q8 33 8 78q0 55 -14 109.5t-47 107.5t-97.5 87t-152.5 34h-293l-90 -428h332q47 0 47 -33q0 -51 -65 -51h-332z" />
<glyph unicode="&#xd1;" d="M94 35q0 49 66 49h69l209 985h-110q-47 0 -47 35q0 49 65 49h217l406 -1032l200 948h-151q-49 0 -49 33q0 51 65 51h307q47 0 48 -33q0 -51 -66 -51h-70l-227 -1069h-106l-406 1032l-201 -948h152q49 0 49 -33q0 -23 -18.5 -37t-46.5 -14h-308q-47 0 -47 35zM528 1296.5 q0 30.5 77 88t145 57.5q45 0 126.5 -49t106.5 -49q39 0 95.5 47t72.5 47q14 0 24.5 -9t10.5 -24q0 -27 -76 -86t-141 -59q-51 0 -131 49t-103 49q-49 0 -100 -46t-74 -46q-33 0 -33 30.5z" />
<glyph unicode="&#xd2;" d="M209 424q0 190 93 365.5t245.5 283t316.5 107.5q176 0 287 -125t111 -324q0 -193 -92.5 -371t-245 -285.5t-318.5 -107.5q-176 0 -286.5 126t-110.5 331zM295 442q0 -170 92 -280.5t231 -110.5q213 0 385.5 202t172.5 454q0 168 -92.5 278.5t-233.5 110.5 q-211 0 -383 -202t-172 -452zM621 1529q0 20 16.5 36t36.5 16q15 -1 33 -19l188 -205q4 -2 11.5 -15t7.5 -17q0 -18 -17.5 -33.5t-36.5 -15.5q-14 0 -32 18l-191 205q-16 20 -16 30z" />
<glyph unicode="&#xd3;" d="M209 424q0 190 93 365.5t245.5 283t316.5 107.5q176 0 287 -125t111 -324q0 -193 -92.5 -371t-245 -285.5t-318.5 -107.5q-176 0 -286.5 126t-110.5 331zM295 442q0 -170 92 -280.5t231 -110.5q213 0 385.5 202t172.5 454q0 168 -92.5 278.5t-233.5 110.5 q-211 0 -383 -202t-172 -452zM740 1312q0 23 34 49l277 205q27 18 43 19q33 0 33 -33q0 -24 -35 -49l-277 -205q-27 -18 -41 -18q-35 0 -34 32z" />
<glyph unicode="&#xd4;" d="M209 424q0 190 93 365.5t245.5 283t316.5 107.5q176 0 287 -125t111 -324q0 -193 -92.5 -371t-245 -285.5t-318.5 -107.5q-176 0 -286.5 126t-110.5 331zM295 442q0 -170 92 -280.5t231 -110.5q213 0 385.5 202t172.5 454q0 168 -92.5 278.5t-233.5 110.5 q-211 0 -383 -202t-172 -452zM576 1251q0 20 36 49l318 224l223 -222q18 -20 19 -32q0 -20 -15.5 -35.5t-36.5 -15.5q-12 0 -32 16l-181 180l-260 -180q-23 -16 -39 -16q-33 0 -32 32z" />
<glyph unicode="&#xd5;" d="M209 424q0 190 93 365.5t245.5 283t316.5 107.5q176 0 287 -125t111 -324q0 -193 -92.5 -371t-245 -285.5t-318.5 -107.5q-176 0 -286.5 126t-110.5 331zM295 442q0 -170 92 -280.5t231 -110.5q213 0 385.5 202t172.5 454q0 168 -92.5 278.5t-233.5 110.5 q-211 0 -383 -202t-172 -452zM583 1296.5q0 30.5 77 88t145 57.5q45 0 126.5 -49t106.5 -49q39 0 95.5 47t72.5 47q14 0 24.5 -9t10.5 -24q0 -27 -76 -86t-141 -59q-51 0 -131 49t-103 49q-49 0 -100 -46t-74 -46q-33 0 -33 30.5z" />
<glyph unicode="&#xd6;" d="M209 424q0 190 93 365.5t245.5 283t316.5 107.5q176 0 287 -125t111 -324q0 -193 -92.5 -371t-245 -285.5t-318.5 -107.5q-176 0 -286.5 126t-110.5 331zM295 442q0 -170 92 -280.5t231 -110.5q213 0 385.5 202t172.5 454q0 168 -92.5 278.5t-233.5 110.5 q-211 0 -383 -202t-172 -452zM602 1339q0 47 39 85t86 38q37 0 60.5 -23.5t23.5 -58.5q0 -47 -39 -84.5t-88 -37.5q-35 0 -58.5 23.5t-23.5 57.5zM1055 1339q0 47 39 85t86 38q37 0 60.5 -23.5t23.5 -58.5q0 -47 -39 -84.5t-88 -37.5q-35 0 -58.5 23.5t-23.5 57.5z" />
<glyph unicode="&#xd7;" d="M293 238q0 20 31 47l354 293l-229 290q-14 18 -15 33q0 18 16.5 33.5t36.5 15.5q16 0 33 -22l230 -291l354 291q29 23 43 22q35 0 35 -35q0 -23 -31 -47l-354 -290l229 -293q14 -18 14 -31q0 -18 -16 -33.5t-37 -15.5q-14 0 -33 20l-229 293l-354 -293q-27 -20 -45 -20 q-33 0 -33 33z" />
<glyph unicode="&#xd8;" d="M70 -59q0 16 24 41l180 178q-66 119 -65 264q0 291 202.5 523.5t454.5 232.5q176 0 293 -136l172 170q25 25 41 25q31 0 31 -29q0 -16 -25 -41l-180 -180q63 -115 64 -264q0 -291 -202 -524.5t-454 -233.5q-186 0 -295 137l-170 -167q-25 -25 -43 -25q-29 0 -28 29z M295 444q0 -119 47 -215l750 746q-96 121 -240 121q-211 0 -384 -202t-173 -450zM379 172q96 -121 239 -121q213 0 385.5 202t172.5 452q-1 117 -48 215z" />
<glyph unicode="&#xd9;" d="M279 287q0 41 10 92l145 690h-67q-49 0 -50 33q0 51 66 51h307q45 0 45 -33q0 -51 -63 -51h-154l-145 -690q-8 -33 -8 -70q0 -115 72.5 -186.5t187.5 -71.5q137 0 251.5 95.5t143.5 232.5l145 690h-151q-47 0 -47 35q0 49 65 49h305q47 0 47 -33q0 -51 -65 -51h-70 l-145 -690q-37 -174 -180.5 -293t-315.5 -119q-147 0 -238 88t-91 232zM621 1529q0 20 16.5 36t36.5 16q15 -1 33 -19l188 -205q4 -2 11.5 -15t7.5 -17q0 -18 -17.5 -33.5t-36.5 -15.5q-14 0 -32 18l-191 205q-16 20 -16 30z" />
<glyph unicode="&#xda;" d="M279 287q0 41 10 92l145 690h-67q-49 0 -50 33q0 51 66 51h307q45 0 45 -33q0 -51 -63 -51h-154l-145 -690q-8 -33 -8 -70q0 -115 72.5 -186.5t187.5 -71.5q137 0 251.5 95.5t143.5 232.5l145 690h-151q-47 0 -47 35q0 49 65 49h305q47 0 47 -33q0 -51 -65 -51h-70 l-145 -690q-37 -174 -180.5 -293t-315.5 -119q-147 0 -238 88t-91 232zM740 1312q0 23 34 49l277 205q27 18 43 19q33 0 33 -33q0 -24 -35 -49l-277 -205q-27 -18 -41 -18q-35 0 -34 32z" />
<glyph unicode="&#xdb;" d="M279 287q0 41 10 92l145 690h-67q-49 0 -50 33q0 51 66 51h307q45 0 45 -33q0 -51 -63 -51h-154l-145 -690q-8 -33 -8 -70q0 -115 72.5 -186.5t187.5 -71.5q137 0 251.5 95.5t143.5 232.5l145 690h-151q-47 0 -47 35q0 49 65 49h305q47 0 47 -33q0 -51 -65 -51h-70 l-145 -690q-37 -174 -180.5 -293t-315.5 -119q-147 0 -238 88t-91 232zM539 1251q0 20 36 49l318 224l223 -222q18 -20 19 -32q0 -20 -15.5 -35.5t-36.5 -15.5q-12 0 -32 16l-181 180l-260 -180q-23 -16 -39 -16q-33 0 -32 32z" />
<glyph unicode="&#xdc;" d="M279 287q0 41 10 92l145 690h-67q-49 0 -50 33q0 51 66 51h307q45 0 45 -33q0 -51 -63 -51h-154l-145 -690q-8 -33 -8 -70q0 -115 72.5 -186.5t187.5 -71.5q137 0 251.5 95.5t143.5 232.5l145 690h-151q-47 0 -47 35q0 49 65 49h305q47 0 47 -33q0 -51 -65 -51h-70 l-145 -690q-37 -174 -180.5 -293t-315.5 -119q-147 0 -238 88t-91 232zM528 1339q0 47 39 85t86 38q37 0 60.5 -23.5t23.5 -58.5q0 -47 -39 -84.5t-88 -37.5q-35 0 -58.5 23.5t-23.5 57.5zM981 1339q0 47 39 85t86 38q37 0 60.5 -23.5t23.5 -58.5q0 -47 -39 -84.5t-88 -37.5 q-35 0 -58.5 23.5t-23.5 57.5z" />
<glyph unicode="&#xdd;" d="M313 33q0 51 66 51h215l92 436l-250 549h-49q-47 0 -47 33q0 51 66 51h227q47 0 47 -33q0 -51 -66 -51h-77l213 -465l405 465h-84q-49 0 -49 33q0 51 68 51h225q47 0 47 -35q0 -23 -18.5 -36t-47.5 -13h-47l-479 -549l-92 -436h215q47 0 47 -33q0 -51 -66 -51h-514 q-47 0 -47 33zM740 1312q0 23 34 49l277 205q27 18 43 19q33 0 33 -33q0 -24 -35 -49l-277 -205q-27 -18 -41 -18q-35 0 -34 32z" />
<glyph unicode="&#xde;" d="M96 35q0 49 66 49h110l209 985h-110q-47 0 -47 35q0 49 65 49h477q49 0 49 -33q0 -51 -65 -51h-285l-26 -121h297q141 0 232 -75.5t91 -194.5q0 -164 -148.5 -287t-346.5 -123h-269l-39 -184h283q49 0 49 -33q0 -23 -18.5 -37t-46.5 -14h-480q-47 0 -47 35zM414 352h274 q152 0 268.5 93.5t116.5 211.5q0 90 -69.5 148.5t-176.5 58.5h-305z" />
<glyph unicode="&#xdf;" d="M96 33q0 51 66 51h110l189 891q23 109 126 185.5t224 76.5q106 0 173 -66.5t67 -173.5q0 -164 -168 -262q221 -100 221 -313q0 -156 -105.5 -305.5t-259.5 -149.5q-82 0 -126 50.5t-44 144.5q0 92 58 92q33 0 32 -31q0 -6 -2 -24.5t-2 -28.5q0 -119 105 -119 q96 0 177 112.5t81 246.5q0 113 -88 193.5t-213 80.5h-8q-49 0 -50 33q0 23 16.5 37t41.5 14h10q35 0 85 16.5t101.5 68.5t51.5 130q0 74 -49.5 122t-124.5 48q-88 0 -159 -51t-85 -127l-191 -891h31q47 0 47 -33q0 -23 -18.5 -37t-46.5 -14h-226q-47 0 -47 33z" />
<glyph unicode="&#xe0;" d="M190 178q0 150 144.5 250t357.5 100q119 0 271 -43l30 146q2 10 2 28q0 63 -59 101.5t-160 38.5q-92 0 -200.5 -33t-124.5 -33q-12 0 -21.5 9.5t-9.5 23.5q0 49 150.5 83t230.5 34q125 0 202.5 -57.5t77.5 -147.5q0 -31 -4 -47l-116 -547h110q47 0 47 -33q0 -51 -65 -51 h-195l29 137q-217 -170 -426 -170q-127 0 -199 56.5t-72 154.5zM276 197q0 -70 51.5 -108t145.5 -38q111 0 209 40t225 138l39 185q-119 31 -256 30q-176 0 -295 -70.5t-119 -176.5zM621 1280q0 20 16.5 36t36.5 16q15 -1 33 -19l188 -205q4 -2 11.5 -15t7.5 -17 q0 -18 -17.5 -33.5t-36.5 -15.5q-14 0 -32 18l-191 205q-16 20 -16 30z" />
<glyph unicode="&#xe1;" d="M190 178q0 150 144.5 250t357.5 100q119 0 271 -43l30 146q2 10 2 28q0 63 -59 101.5t-160 38.5q-92 0 -200.5 -33t-124.5 -33q-12 0 -21.5 9.5t-9.5 23.5q0 49 150.5 83t230.5 34q125 0 202.5 -57.5t77.5 -147.5q0 -31 -4 -47l-116 -547h110q47 0 47 -33q0 -51 -65 -51 h-195l29 137q-217 -170 -426 -170q-127 0 -199 56.5t-72 154.5zM276 197q0 -70 51.5 -108t145.5 -38q111 0 209 40t225 138l39 185q-119 31 -256 30q-176 0 -295 -70.5t-119 -176.5zM689 1016q0 23 34 49l277 205q27 18 43 19q33 0 33 -33q0 -24 -35 -49l-277 -205 q-27 -18 -41 -18q-35 0 -34 32z" />
<glyph unicode="&#xe2;" d="M190 178q0 150 144.5 250t357.5 100q119 0 271 -43l30 146q2 10 2 28q0 63 -59 101.5t-160 38.5q-92 0 -200.5 -33t-124.5 -33q-12 0 -21.5 9.5t-9.5 23.5q0 49 150.5 83t230.5 34q125 0 202.5 -57.5t77.5 -147.5q0 -31 -4 -47l-116 -547h110q47 0 47 -33q0 -51 -65 -51 h-195l29 137q-217 -170 -426 -170q-127 0 -199 56.5t-72 154.5zM276 197q0 -70 51.5 -108t145.5 -38q111 0 209 40t225 138l39 185q-119 31 -256 30q-176 0 -295 -70.5t-119 -176.5zM539 1003q0 20 36 49l318 224l223 -222q18 -20 19 -32q0 -20 -15.5 -35.5t-36.5 -15.5 q-12 0 -32 16l-181 180l-260 -180q-23 -16 -39 -16q-33 0 -32 32z" />
<glyph unicode="&#xe3;" d="M190 178q0 150 144.5 250t357.5 100q119 0 271 -43l30 146q2 10 2 28q0 63 -59 101.5t-160 38.5q-92 0 -200.5 -33t-124.5 -33q-12 0 -21.5 9.5t-9.5 23.5q0 49 150.5 83t230.5 34q125 0 202.5 -57.5t77.5 -147.5q0 -31 -4 -47l-116 -547h110q47 0 47 -33q0 -51 -65 -51 h-195l29 137q-217 -170 -426 -170q-127 0 -199 56.5t-72 154.5zM276 197q0 -70 51.5 -108t145.5 -38q111 0 209 40t225 138l39 185q-119 31 -256 30q-176 0 -295 -70.5t-119 -176.5zM528 1093.5q0 30.5 77 88t145 57.5q45 0 126.5 -49t106.5 -49q39 0 95.5 47t72.5 47 q14 0 24.5 -9t10.5 -24q0 -27 -76 -86t-141 -59q-51 0 -131 49t-103 49q-49 0 -100 -46t-74 -46q-33 0 -33 30.5z" />
<glyph unicode="&#xe4;" d="M190 178q0 150 144.5 250t357.5 100q119 0 271 -43l30 146q2 10 2 28q0 63 -59 101.5t-160 38.5q-92 0 -200.5 -33t-124.5 -33q-12 0 -21.5 9.5t-9.5 23.5q0 49 150.5 83t230.5 34q125 0 202.5 -57.5t77.5 -147.5q0 -31 -4 -47l-116 -547h110q47 0 47 -33q0 -51 -65 -51 h-195l29 137q-217 -170 -426 -170q-127 0 -199 56.5t-72 154.5zM276 197q0 -70 51.5 -108t145.5 -38q111 0 209 40t225 138l39 185q-119 31 -256 30q-176 0 -295 -70.5t-119 -176.5zM503 1081q0 47 39 85t86 38q37 0 60.5 -23.5t23.5 -58.5q0 -47 -39 -84.5t-88 -37.5 q-35 0 -58.5 23.5t-23.5 57.5zM956 1081q0 47 39 85t86 38q37 0 60.5 -23.5t23.5 -58.5q0 -47 -39 -84.5t-88 -37.5q-35 0 -58.5 23.5t-23.5 57.5z" />
<glyph unicode="&#xe5;" d="M190 178q0 150 144.5 250t357.5 100q119 0 271 -43l30 146q2 10 2 28q0 63 -59 101.5t-160 38.5q-92 0 -200.5 -33t-124.5 -33q-12 0 -21.5 9.5t-9.5 23.5q0 49 150.5 83t230.5 34q125 0 202.5 -57.5t77.5 -147.5q0 -31 -4 -47l-116 -547h110q47 0 47 -33q0 -51 -65 -51 h-195l29 137q-217 -170 -426 -170q-127 0 -199 56.5t-72 154.5zM276 197q0 -70 51.5 -108t145.5 -38q111 0 209 40t225 138l39 185q-119 31 -256 30q-176 0 -295 -70.5t-119 -176.5zM668 1128q0 86 71.5 155t161.5 69q68 0 112 -42t44 -106q0 -86 -72 -154.5t-162 -68.5 q-68 0 -111.5 42t-43.5 105zM737 1143q0 -41 29 -67.5t72 -26.5q59 0 104 43t45 98q0 41 -28.5 67.5t-71.5 26.5q-57 0 -103.5 -44t-46.5 -97z" />
<glyph unicode="&#xe6;" d="M74 203q0 139 128 231t308 92q88 0 170 -24l27 123q4 25 4 34q0 61 -41 100.5t-107 39.5q-76 0 -145.5 -33t-79.5 -33t-20.5 10.5t-10.5 22.5q0 49 111.5 83t175.5 34q76 0 130 -47.5t64 -124.5q55 80 130 126t149 46q106 0 164.5 -74t58.5 -203q0 -84 -22 -198h-529 q-6 -55 -6 -93q0 -115 53.5 -189.5t137.5 -74.5q68 0 155.5 63.5t102.5 63.5q33 0 32.5 -34.5t-113 -105.5t-198.5 -71q-150 0 -221 158q-2 -6 -6 -27.5t-7 -35t-10.5 -30t-18.5 -24.5t-25.5 -8t-23.5 9t-9 22q0 18 14 75q-145 -139 -277 -139q-113 0 -179 64.5t-66 171.5z M164 205q0 -70 48 -112t126 -42q111 0 283 174l41 191q-86 27 -158 26q-86 0 -176 -34.5t-127 -81.5q-37 -51 -37 -121zM758 492h442q6 68 6 98q0 209 -157 209q-185 0 -291 -307z" />
<glyph unicode="&#xe7;" d="M250 315q0 229 173 398.5t408 169.5q188 0 297 -113q6 29 10.5 41t16.5 27.5t33 15.5q14 0 23.5 -9t9.5 -22q0 -2 -4 -26l-39 -187q-12 -57 -54 -57q-20 0 -34 25l6 73q0 18 -30 52t-100.5 66t-160.5 32q-106 0 -191.5 -39t-135.5 -94.5t-84 -123t-46 -120.5t-12 -92 q0 -125 86 -204t219 -79q233 0 422 150q27 23 41 22q10 0 21.5 -11t11.5 -24q0 -27 -58.5 -73.5t-180.5 -92t-261 -53.5l-12 -63q111 -4 110 -94q0 -70 -55 -117t-137 -47q-57 0 -111.5 23.5t-54.5 47.5q0 20 15.5 35t33.5 15q8 0 51 -21.5t78 -21.5q45 0 74.5 19t29.5 50 q0 41 -86 41h-41l29 137q-311 49 -311 344z" />
<glyph unicode="&#xe8;" d="M213 350q0 211 172 372t399 161q168 0 275.5 -97.5t107.5 -248.5q0 -47 -16 -129h-852q-2 -20 -2 -46q0 -137 94 -224t244 -87q96 0 203.5 31t181.5 80q27 14 37 14q30 0 30 -33q0 -53 -160.5 -114.5t-312.5 -61.5q-178 0 -289.5 106.5t-111.5 276.5zM317 492h766 q2 10 2 24q0 125 -89 204t-228 79q-150 0 -272 -83t-179 -224zM621 1269q0 20 16.5 36t36.5 16q15 -1 33 -19l188 -205q4 -2 11.5 -15t7.5 -17q0 -18 -17.5 -33.5t-36.5 -15.5q-14 0 -32 18l-191 205q-16 20 -16 30z" />
<glyph unicode="&#xe9;" d="M213 350q0 211 172 372t399 161q168 0 275.5 -97.5t107.5 -248.5q0 -47 -16 -129h-852q-2 -20 -2 -46q0 -137 94 -224t244 -87q96 0 203.5 31t181.5 80q27 14 37 14q30 0 30 -33q0 -53 -160.5 -114.5t-312.5 -61.5q-178 0 -289.5 106.5t-111.5 276.5zM317 492h766 q2 10 2 24q0 125 -89 204t-228 79q-150 0 -272 -83t-179 -224zM689 1016q0 23 34 49l277 205q27 18 43 19q33 0 33 -33q0 -24 -35 -49l-277 -205q-27 -18 -41 -18q-35 0 -34 32z" />
<glyph unicode="&#xea;" d="M213 350q0 211 172 372t399 161q168 0 275.5 -97.5t107.5 -248.5q0 -47 -16 -129h-852q-2 -20 -2 -46q0 -137 94 -224t244 -87q96 0 203.5 31t181.5 80q27 14 37 14q30 0 30 -33q0 -53 -160.5 -114.5t-312.5 -61.5q-178 0 -289.5 106.5t-111.5 276.5zM317 492h766 q2 10 2 24q0 125 -89 204t-228 79q-150 0 -272 -83t-179 -224zM539 1001q0 20 36 49l318 224l223 -222q18 -20 19 -32q0 -20 -15.5 -35.5t-36.5 -15.5q-12 0 -32 16l-181 180l-260 -180q-23 -16 -39 -16q-33 0 -32 32z" />
<glyph unicode="&#xeb;" d="M213 350q0 211 172 372t399 161q168 0 275.5 -97.5t107.5 -248.5q0 -47 -16 -129h-852q-2 -20 -2 -46q0 -137 94 -224t244 -87q96 0 203.5 31t181.5 80q27 14 37 14q30 0 30 -33q0 -53 -160.5 -114.5t-312.5 -61.5q-178 0 -289.5 106.5t-111.5 276.5zM317 492h766 q2 10 2 24q0 125 -89 204t-228 79q-150 0 -272 -83t-179 -224zM503 1081q0 47 39 85t86 38q37 0 60.5 -23.5t23.5 -58.5q0 -47 -39 -84.5t-88 -37.5q-35 0 -58.5 23.5t-23.5 57.5zM956 1081q0 47 39 85t86 38q37 0 60.5 -23.5t23.5 -58.5q0 -47 -39 -84.5t-88 -37.5 q-35 0 -58.5 23.5t-23.5 57.5z" />
<glyph unicode="&#xec;" d="M197 33q0 51 63 51h330l145 686h-241q-47 0 -48 35q0 49 66 49h326l-164 -770h327q49 0 50 -33q0 -23 -18.5 -37t-47.5 -14h-741q-47 0 -47 33zM600 1259q0 20 16.5 36t36.5 16q15 -1 33 -19l188 -205q4 -2 11.5 -15t7.5 -17q0 -18 -17.5 -33.5t-36.5 -15.5q-14 0 -32 18 l-191 205q-16 20 -16 30z" />
<glyph unicode="&#xed;" d="M197 33q0 51 63 51h330l145 686h-241q-47 0 -48 35q0 49 66 49h326l-164 -770h327q49 0 50 -33q0 -23 -18.5 -37t-47.5 -14h-741q-47 0 -47 33zM689 1016q0 23 34 49l277 205q27 18 43 19q33 0 33 -33q0 -24 -35 -49l-277 -205q-27 -18 -41 -18q-35 0 -34 32z" />
<glyph unicode="&#xee;" d="M197 33q0 51 63 51h330l145 686h-241q-47 0 -48 35q0 49 66 49h326l-164 -770h327q49 0 50 -33q0 -23 -18.5 -37t-47.5 -14h-741q-47 0 -47 33zM496 1003q0 20 36 49l318 224l223 -222q18 -20 19 -32q0 -20 -15.5 -35.5t-36.5 -15.5q-12 0 -32 16l-181 180l-260 -180 q-23 -16 -39 -16q-33 0 -32 32z" />
<glyph unicode="&#xef;" d="M197 33q0 51 63 51h330l145 686h-241q-47 0 -48 35q0 49 66 49h326l-164 -770h327q49 0 50 -33q0 -23 -18.5 -37t-47.5 -14h-741q-47 0 -47 33zM503 1081q0 47 39 85t86 38q37 0 60.5 -23.5t23.5 -58.5q0 -47 -39 -84.5t-88 -37.5q-35 0 -58.5 23.5t-23.5 57.5zM956 1081 q0 47 39 85t86 38q37 0 60.5 -23.5t23.5 -58.5q0 -47 -39 -84.5t-88 -37.5q-35 0 -58.5 23.5t-23.5 57.5z" />
<glyph unicode="&#xf0;" d="M227 330q0 213 175.5 382t396.5 169q82 0 142 -25t132 -84q-68 205 -184 303l-203 -86l-14 -2q-33 0 -33 37q0 33 25 43l141 57q-41 20 -81 35t-63.5 20t-42 9t-25.5 10t-7 19q0 20 16 36.5t37 16.5q96 0 283 -99l211 86l14 3q12 0 21.5 -9.5t9.5 -23.5q0 -35 -27 -45 l-168 -70q209 -221 209 -526q0 -141 -48 -254t-118 -179.5t-155 -110.5t-151.5 -60.5t-113.5 -16.5q-168 0 -273.5 102.5t-105.5 262.5zM315 350q0 -131 87 -215t225 -84q182 0 326.5 137.5t144.5 311.5q0 133 -87.5 216t-226.5 83q-182 0 -325.5 -137.5t-143.5 -311.5z" />
<glyph unicode="&#xf1;" d="M117 33q0 51 65 51h94l146 686h-70q-47 0 -47 33q0 51 66 51h153l-30 -141q111 98 185.5 134t168.5 36q121 0 194.5 -62.5t73.5 -167.5q0 -33 -4 -49l-111 -520h70q47 0 47 -33q0 -23 -18.5 -37t-46.5 -14h-224q-47 0 -47 33q0 51 66 51h70l106 506q4 14 4 41 q0 61 -46 114.5t-157 53.5q-98 0 -165.5 -38t-188.5 -159l-111 -518h93q47 0 47 -33q0 -51 -66 -51h-268q-49 0 -49 33zM528 1091.5q0 30.5 77 88t145 57.5q45 0 126.5 -49t106.5 -49q39 0 95.5 47t72.5 47q14 0 24.5 -9t10.5 -24q0 -27 -76 -86t-141 -59q-51 0 -131 49 t-103 49q-49 0 -100 -46t-74 -46q-33 0 -33 30.5z" />
<glyph unicode="&#xf2;" d="M227 332q0 213 176.5 382t397.5 169q170 0 275.5 -102.5t105.5 -264.5q0 -213 -176.5 -381t-399.5 -168q-168 0 -273.5 102.5t-105.5 262.5zM313 350q0 -131 87 -215t225 -84q182 0 326.5 137.5t144.5 311.5q0 133 -87.5 216t-226.5 83q-182 0 -325.5 -137.5 t-143.5 -311.5zM621 1265q0 20 16.5 36t36.5 16q15 -1 33 -19l188 -205q4 -2 11.5 -15t7.5 -17q0 -18 -17.5 -33.5t-36.5 -15.5q-14 0 -32 18l-191 205q-16 20 -16 30z" />
<glyph unicode="&#xf3;" d="M227 332q0 213 176.5 382t397.5 169q170 0 275.5 -102.5t105.5 -264.5q0 -213 -176.5 -381t-399.5 -168q-168 0 -273.5 102.5t-105.5 262.5zM313 350q0 -131 87 -215t225 -84q182 0 326.5 137.5t144.5 311.5q0 133 -87.5 216t-226.5 83q-182 0 -325.5 -137.5 t-143.5 -311.5zM689 1016q0 23 34 49l277 205q27 18 43 19q33 0 33 -33q0 -24 -35 -49l-277 -205q-27 -18 -41 -18q-35 0 -34 32z" />
<glyph unicode="&#xf4;" d="M227 332q0 213 176.5 382t397.5 169q170 0 275.5 -102.5t105.5 -264.5q0 -213 -176.5 -381t-399.5 -168q-168 0 -273.5 102.5t-105.5 262.5zM313 350q0 -131 87 -215t225 -84q182 0 326.5 137.5t144.5 311.5q0 133 -87.5 216t-226.5 83q-182 0 -325.5 -137.5 t-143.5 -311.5zM527 1003q0 20 36 49l318 224l223 -222q18 -20 19 -32q0 -20 -15.5 -35.5t-36.5 -15.5q-12 0 -32 16l-181 180l-260 -180q-23 -16 -39 -16q-33 0 -32 32z" />
<glyph unicode="&#xf5;" d="M227 332q0 213 176.5 382t397.5 169q170 0 275.5 -102.5t105.5 -264.5q0 -213 -176.5 -381t-399.5 -168q-168 0 -273.5 102.5t-105.5 262.5zM313 350q0 -131 87 -215t225 -84q182 0 326.5 137.5t144.5 311.5q0 133 -87.5 216t-226.5 83q-182 0 -325.5 -137.5 t-143.5 -311.5zM528 1036.5q0 30.5 77 88t145 57.5q45 0 126.5 -49t106.5 -49q39 0 95.5 47t72.5 47q14 0 24.5 -9t10.5 -24q0 -27 -76 -86t-141 -59q-51 0 -131 49t-103 49q-49 0 -100 -46t-74 -46q-33 0 -33 30.5z" />
<glyph unicode="&#xf6;" d="M227 332q0 213 176.5 382t397.5 169q170 0 275.5 -102.5t105.5 -264.5q0 -213 -176.5 -381t-399.5 -168q-168 0 -273.5 102.5t-105.5 262.5zM313 350q0 -131 87 -215t225 -84q182 0 326.5 137.5t144.5 311.5q0 133 -87.5 216t-226.5 83q-182 0 -325.5 -137.5 t-143.5 -311.5zM503 1081q0 47 39 85t86 38q37 0 60.5 -23.5t23.5 -58.5q0 -47 -39 -84.5t-88 -37.5q-35 0 -58.5 23.5t-23.5 57.5zM956 1081q0 47 39 85t86 38q37 0 60.5 -23.5t23.5 -58.5q0 -47 -39 -84.5t-88 -37.5q-35 0 -58.5 23.5t-23.5 57.5z" />
<glyph unicode="&#xf7;" d="M268 569q0 49 66 49h823q47 0 47 -32q1 -49 -65 -49h-824q-47 0 -47 32zM543 131q0 47 39 85t86 38q37 0 60.5 -22.5t23.5 -59.5q0 -47 -39 -84t-88 -37q-35 0 -58.5 22.5t-23.5 57.5zM725 983q0 47 39 85t86 38q35 0 58.5 -22.5t23.5 -59.5q0 -47 -39 -84t-88 -37 q-35 0 -57.5 23.5t-22.5 56.5z" />
<glyph unicode="&#xf8;" d="M96 -59q0 16 29 43l164 137q-61 96 -62 211q0 215 175.5 383t400.5 168q166 0 272 -101l160 136q27 20 41 20q29 0 29 -29q0 -16 -29 -43l-160 -133q66 -96 66 -213q0 -217 -175.5 -385t-400.5 -168q-165 1 -276 105l-166 -140q-23 -20 -39 -20q-29 0 -29 29zM313 350 q0 -92 47 -168l644 539q-86 78 -220 78q-184 0 -327.5 -136.5t-143.5 -312.5zM403 133q86 -82 222 -82q184 0 327.5 137.5t143.5 313.5q0 96 -49 172z" />
<glyph unicode="&#xf9;" d="M260 803q0 51 66 51h194l-131 -618q-4 -12 -4 -37q0 -66 42 -107t108 -41q207 0 415 185l113 534h-152q-49 0 -49 33q0 51 68 51h235l-164 -770h70q47 0 47 -33q0 -51 -65 -51h-154l29 135q-201 -168 -410 -168q-102 0 -161.5 54.5t-59.5 146.5q0 23 8 68l113 534h-111 q-47 0 -47 33zM621 1265q0 20 16.5 36t36.5 16q15 -1 33 -19l188 -205q4 -2 11.5 -15t7.5 -17q0 -18 -17.5 -33.5t-36.5 -15.5q-14 0 -32 18l-191 205q-16 20 -16 30z" />
<glyph unicode="&#xfa;" d="M260 803q0 51 66 51h194l-131 -618q-4 -12 -4 -37q0 -66 42 -107t108 -41q207 0 415 185l113 534h-152q-49 0 -49 33q0 51 68 51h235l-164 -770h70q47 0 47 -33q0 -51 -65 -51h-154l29 135q-201 -168 -410 -168q-102 0 -161.5 54.5t-59.5 146.5q0 23 8 68l113 534h-111 q-47 0 -47 33zM689 1016q0 23 34 49l277 205q27 18 43 19q33 0 33 -33q0 -24 -35 -49l-277 -205q-27 -18 -41 -18q-35 0 -34 32z" />
<glyph unicode="&#xfb;" d="M260 803q0 51 66 51h194l-131 -618q-4 -12 -4 -37q0 -66 42 -107t108 -41q207 0 415 185l113 534h-152q-49 0 -49 33q0 51 68 51h235l-164 -770h70q47 0 47 -33q0 -51 -65 -51h-154l29 135q-201 -168 -410 -168q-102 0 -161.5 54.5t-59.5 146.5q0 23 8 68l113 534h-111 q-47 0 -47 33zM516 1009q0 20 36 49l318 224l223 -222q18 -20 19 -32q0 -20 -15.5 -35.5t-36.5 -15.5q-12 0 -32 16l-181 180l-260 -180q-23 -16 -39 -16q-33 0 -32 32z" />
<glyph unicode="&#xfc;" d="M260 803q0 51 66 51h194l-131 -618q-4 -12 -4 -37q0 -66 42 -107t108 -41q207 0 415 185l113 534h-152q-49 0 -49 33q0 51 68 51h235l-164 -770h70q47 0 47 -33q0 -51 -65 -51h-154l29 135q-201 -168 -410 -168q-102 0 -161.5 54.5t-59.5 146.5q0 23 8 68l113 534h-111 q-47 0 -47 33zM503 1081q0 47 39 85t86 38q37 0 60.5 -23.5t23.5 -58.5q0 -47 -39 -84.5t-88 -37.5q-35 0 -58.5 23.5t-23.5 57.5zM956 1081q0 47 39 85t86 38q37 0 60.5 -23.5t23.5 -58.5q0 -47 -39 -84.5t-88 -37.5q-35 0 -58.5 23.5t-23.5 57.5z" />
<glyph unicode="&#xfd;" d="M45 -348q0 51 66 51h258l209 297l-220 770h-32q-49 0 -50 33q0 51 66 51h236q47 0 47 -33q0 -51 -66 -51h-106l192 -678l473 678h-110q-47 0 -47 35q0 49 65 49h225q47 0 47 -33q0 -51 -65 -51h-27l-751 -1067h131q49 0 49 -33q0 -23 -18.5 -37t-47.5 -14h-477 q-47 0 -47 33zM689 1016q0 23 34 49l277 205q27 18 43 19q33 0 33 -33q0 -24 -35 -49l-277 -205q-27 -18 -41 -18q-35 0 -34 32z" />
<glyph unicode="&#xfe;" d="M-27 -348q0 51 66 51h111l301 1421h-111q-47 0 -47 33q0 51 65 51h195l-111 -522q102 106 196.5 151.5t211.5 45.5q166 0 265 -93.5t99 -248.5q0 -205 -165.5 -363t-380.5 -158q-229 0 -326 197l-109 -514h199q49 0 49 -33q0 -51 -65 -51h-396q-47 0 -47 33zM385 383 q0 -123 83 -201t214 -78q174 0 310 127t136 291q0 123 -83 200t-216 77q-174 0 -309 -127t-135 -289z" />
<glyph unicode="&#xff;" d="M45 -348q0 51 66 51h258l209 297l-220 770h-32q-49 0 -50 33q0 51 66 51h236q47 0 47 -33q0 -51 -66 -51h-106l192 -678l473 678h-110q-47 0 -47 35q0 49 65 49h225q47 0 47 -33q0 -51 -65 -51h-27l-751 -1067h131q49 0 49 -33q0 -23 -18.5 -37t-47.5 -14h-477 q-47 0 -47 33zM503 1081q0 47 39 85t86 38q37 0 60.5 -23.5t23.5 -58.5q0 -47 -39 -84.5t-88 -37.5q-35 0 -58.5 23.5t-23.5 57.5zM956 1081q0 47 39 85t86 38q37 0 60.5 -23.5t23.5 -58.5q0 -47 -39 -84.5t-88 -37.5q-35 0 -58.5 23.5t-23.5 57.5z" />
<glyph unicode="&#x152;" d="M127 416q0 303 189.5 520t453.5 217h643l-67 -315q-12 -55 -54 -56q-14 0 -23 9.5t-9 21.5q0 55 23.5 143t27.5 113h-391l-91 -428h160q2 4 6 26.5t7.5 32t10.5 24.5t17 21.5t25 6.5q35 0 35 -31q0 -8 -5 -25l-43 -196q-12 -55 -53 -56q-14 0 -23.5 9.5t-9.5 21.5 q0 20 15 82h-160l-100 -473h432l41 188q8 55 53 56q33 0 33 -33q0 -61 -28 -161.5t-34 -133.5h-667q-119 0 -204 39t-128 104.5t-62.5 133t-19.5 139.5zM213 430q0 -47 7 -90t30.5 -91t60.5 -83t101.5 -58.5t148.5 -23.5h66l209 985h-66q-240 0 -398.5 -185.5t-158.5 -453.5 z" />
<glyph unicode="&#x153;" d="M102 297q0 219 133.5 402.5t292.5 183.5q82 0 142.5 -63.5t81.5 -170.5q139 234 315 234q37 0 72 -11.5t71.5 -38t58 -86t21.5 -143.5q0 -82 -22 -196h-527q-6 -49 -6 -74q0 -125 52.5 -204t136.5 -79q49 0 104 32t95 63.5t57 31.5q33 0 32.5 -34.5t-113 -105.5 t-198.5 -71q-90 0 -156.5 65.5t-87.5 178.5q-147 -244 -325 -244q-100 0 -165 93.5t-65 236.5zM186 307q0 -106 47.5 -181t114.5 -75q121 0 224.5 158t103.5 338q0 113 -49 182.5t-123 69.5q-100 0 -209 -149.5t-109 -342.5zM760 492h440q6 68 6 96q0 211 -157 211 q-185 0 -289 -307z" />
<glyph unicode="&#x178;" d="M313 33q0 51 66 51h215l92 436l-250 549h-49q-47 0 -47 33q0 51 66 51h227q47 0 47 -33q0 -51 -66 -51h-77l213 -465l405 465h-84q-49 0 -49 33q0 51 68 51h225q47 0 47 -35q0 -23 -18.5 -36t-47.5 -13h-47l-479 -549l-92 -436h215q47 0 47 -33q0 -51 -66 -51h-514 q-47 0 -47 33zM553 1355q0 47 39 85t86 38q37 0 60.5 -23.5t23.5 -58.5q0 -47 -39 -84.5t-88 -37.5q-35 0 -58.5 23.5t-23.5 57.5zM1006 1355q0 47 39 85t86 38q37 0 60.5 -23.5t23.5 -58.5q0 -47 -39 -84.5t-88 -37.5q-35 0 -58.5 23.5t-23.5 57.5z" />
<glyph unicode="&#x2c6;" d="M539 1036q0 20 36 49l318 224l223 -222q18 -20 19 -32q0 -20 -15.5 -35.5t-36.5 -15.5q-12 0 -32 16l-181 180l-260 -180q-23 -16 -39 -16q-33 0 -32 32z" />
<glyph unicode="&#x2dc;" d="M528 1093.5q0 30.5 77 88t145 57.5q45 0 126.5 -49t106.5 -49q39 0 95.5 47t72.5 47q14 0 24.5 -9t10.5 -24q0 -27 -76 -86t-141 -59q-51 0 -131 49t-103 49q-49 0 -100 -46t-74 -46q-33 0 -33 30.5z" />
<glyph unicode="&#x2000;" horiz-adv-x="802" />
<glyph unicode="&#x2001;" horiz-adv-x="1604" />
<glyph unicode="&#x2002;" horiz-adv-x="802" />
<glyph unicode="&#x2003;" horiz-adv-x="1604" />
<glyph unicode="&#x2004;" horiz-adv-x="534" />
<glyph unicode="&#x2005;" horiz-adv-x="401" />
<glyph unicode="&#x2006;" horiz-adv-x="267" />
<glyph unicode="&#x2007;" horiz-adv-x="267" />
<glyph unicode="&#x2008;" horiz-adv-x="200" />
<glyph unicode="&#x2009;" horiz-adv-x="320" />
<glyph unicode="&#x200a;" horiz-adv-x="89" />
<glyph unicode="&#x2010;" d="M268 561q0 51 66 51h823q47 0 47 -32q1 -52 -65 -52h-824q-47 0 -47 33z" />
<glyph unicode="&#x2011;" d="M268 561q0 51 66 51h823q47 0 47 -32q1 -52 -65 -52h-824q-47 0 -47 33z" />
<glyph unicode="&#x2012;" d="M268 561q0 51 66 51h823q47 0 47 -32q1 -52 -65 -52h-824q-47 0 -47 33z" />
<glyph unicode="&#x2013;" d="M268 567q0 51 66 51h823q47 0 47 -32q1 -51 -65 -51h-824q-47 0 -47 32z" />
<glyph unicode="&#x2014;" d="M123 567q0 51 65 51h1115q47 0 47 -32q0 -51 -66 -51h-1114q-47 0 -47 32z" />
<glyph unicode="&#x2018;" d="M745 745v199l230 291q33 45 74 45q20 0 34.5 -12.5t14.5 -30.5q0 -2 -1 -5t-1 -5q0 -8 -9 -21l-141 -268l55 -193h-256z" />
<glyph unicode="&#x2019;" d="M598 745q0 2 1 5.5t1 5.5q0 8 8 20l142 268l-56 193h256v-199l-229 -290q-33 -45 -74 -46q-20 0 -34.5 12.5t-14.5 30.5z" />
<glyph unicode="&#x201a;" d="M313 -328q0 2 1 5.5t1 5.5q0 8 9 20l141 268l-55 193h256v-199l-230 -291q-35 -45 -74 -45q-20 0 -34.5 12.5t-14.5 30.5z" />
<glyph unicode="&#x201c;" d="M401 745v199l230 291q33 45 74 45q20 0 34.5 -12.5t14.5 -30.5q0 -2 -1 -5t-1 -5q0 -8 -9 -21l-141 -268l55 -193h-256zM847 745v199l230 291q33 45 74 45q20 0 34.5 -12.5t14.5 -30.5q0 -2 -1 -5t-1 -5q0 -8 -9 -21l-141 -268l55 -193h-256z" />
<glyph unicode="&#x201d;" d="M399 745q0 2 1 5.5t1 5.5q0 8 8 20l142 268l-56 193h256v-199l-229 -290q-33 -45 -74 -46q-20 0 -34.5 12.5t-14.5 30.5zM834 745q0 2 1 5.5t1 5.5q0 8 8 20l142 268l-56 193h256v-199l-229 -290q-33 -45 -74 -46q-20 0 -34.5 12.5t-14.5 30.5z" />
<glyph unicode="&#x201e;" d="M166 -328q0 2 1 5.5t1 5.5q0 8 9 20l141 268l-55 193h256v-199l-230 -291q-35 -45 -74 -45q-20 0 -34.5 12.5t-14.5 30.5zM600 -328q0 2 1 5.5t1 5.5q0 8 9 20l141 268l-55 193h256v-199l-230 -291q-35 -45 -74 -45q-20 0 -34.5 12.5t-14.5 30.5z" />
<glyph unicode="&#x2022;" d="M518 491.5q0 83.5 59.5 141t145.5 57.5q80 0 138.5 -59.5t58.5 -141.5q0 -84 -58.5 -142t-142.5 -58t-142.5 59.5t-58.5 143z" />
<glyph unicode="&#x2026;" d="M117 49q0 47 39 85t86 38q35 0 58.5 -22.5t23.5 -57.5q0 -47 -39 -85t-88 -38q-33 0 -56.5 23.5t-23.5 56.5zM524 49q0 47 39 85t86 38q35 0 58.5 -22.5t23.5 -57.5q0 -47 -39 -85t-88 -38q-35 0 -57.5 23.5t-22.5 56.5zM934 51q0 45 39 83t86 38q35 0 58.5 -22.5 t23.5 -57.5q0 -47 -39 -85t-88 -38q-35 0 -57.5 23.5t-22.5 58.5z" />
<glyph unicode="&#x202f;" horiz-adv-x="320" />
<glyph unicode="&#x2039;" d="M221 428l510 403q31 23 49 23q33 0 33 -33q0 -20 -31 -49l-366 -344l219 -346q14 -18 14 -31q0 -20 -15.5 -35.5t-35.5 -15.5q-18 0 -37 23z" />
<glyph unicode="&#x203a;" d="M608 33q0 20 31 49l365 344l-218 346q-14 18 -14 31q0 20 15.5 35.5t35.5 15.5q18 0 37 -23l338 -405l-508 -403q-29 -23 -49 -23q-33 0 -33 33z" />
<glyph unicode="&#x205f;" horiz-adv-x="401" />
<glyph unicode="&#x20ac;" d="M166 469q0 51 55 51h62l26 123h-61q-39 0 -39 25q0 51 55 51h66q63 199 231 330t357 131q109 0 198.5 -32t112.5 -87l18 43q20 45 53 45q35 0 35 -31q0 -14 -10 -35l-88 -192q-20 -45 -51 -45q-35 0 -35 31q0 12 8 34.5t8 42.5q0 63 -74.5 102.5t-191.5 39.5 q-154 0 -290 -104.5t-197 -272.5h614q37 0 37 -23q0 -53 -53 -53h-619l-26 -123h559q37 1 37 -22q0 -53 -54 -54h-555q0 -170 99.5 -281.5t259.5 -111.5q92 0 164.5 25.5t108.5 57.5t68.5 57.5t51.5 25.5q33 0 33 -31q0 -20 -35 -56t-92.5 -73t-143.5 -63.5t-172 -26.5 q-182 0 -305 125t-123 307q0 23 2 45h-65q-39 0 -39 25z" />
<glyph unicode="&#x2122;" d="M184 524q0 16 13.5 28.5t33.5 12.5h111l111 520h-146l-33 -149q-6 -39 -41 -39q-23 0 -26 27v12l47 217h496l-45 -217q-10 -39 -46 -39q-27 0 -26 29q0 6 2 10l31 149h-146l-110 -520h110q33 0 33 -26q0 -16 -13.5 -28.5t-33.5 -12.5h-289q-33 0 -33 26zM662 524 q0 16 13 28.5t34 12.5h28l111 520h-21q-33 0 -32 27q0 16 13 28.5t34 12.5h123l88 -377l247 377h121q33 0 33 -27q0 -16 -13.5 -28.5t-33.5 -12.5h-21l-110 -520h31q33 0 32 -26q0 -16 -13 -28.5t-34 -12.5h-174q-33 0 -33 26q0 16 13.5 28.5t34.5 12.5h75l107 500 l-248 -377h-66l-90 377l-106 -500h76q33 0 32 -26q0 -16 -13 -28.5t-34 -12.5h-174q-31 0 -30 26z" />
<glyph unicode="&#x2190;" d="M84 575l451 224q20 10 26 10q18 0 29 -21q0 -6 2 -13t2 -11q-6 -23 -35 -37l-219 -109h694q49 1 49 -30q0 -53 -65 -53h-701l177 -111q20 -12 20 -28.5t-17.5 -35t-33.5 -18.5q-10 0 -25 10z" />
<glyph unicode="&#x2191;" d="M395 641q0 14 19 31l307 401l139 -401q2 -7 2 -19q0 -25 -19.5 -36t-33.5 -11q-18 0 -31 25l-65 196l-148 -696q-12 -53 -53 -53q-35 0 -35 33q0 12 2 20l150 700l-154 -200q-18 -25 -39 -25q-23 0 -32 12.5t-9 22.5z" />
<glyph unicode="&#x2192;" d="M109 567q0 18 15 34.5t50 16.5h696l-172 109q-20 14 -20 29l2 2v6q0 14 17.5 29.5t31.5 15.5q8 0 23 -10l356 -224l-449 -223q-20 -10 -28 -10q-31 0 -31 29q0 39 33 53l223 111h-698q-49 -1 -49 32z" />
<glyph unicode="&#x2193;" d="M365 500q0 14 17 29.5t42 15.5q20 0 27 -25l67 -201l150 701q12 53 57 53q31 0 31 -33q0 -12 -2 -20l-148 -696l148 196q25 25 43 25q16 0 26.5 -11.5t10.5 -25.5q0 -4 -5 -8q-6 -10 -10 -21l-311 -401l-135 401q-8 9 -8 21z" />
<glyph unicode="&#x2194;" d="M51 575l451 224q20 10 26 10q18 0 29 -21q0 -6 2 -13t2 -11q-6 -23 -35 -37l-221 -109h635l-172 109q-20 14 -20 29l2 2v6q0 14 17 29.5t32 15.5q8 0 22 -10l357 -224l-449 -223q-20 -10 -29 -10q-31 0 -30 29q0 39 32 53l224 111h-641l176 -111q20 -12 20 -28.5 t-17.5 -35t-33.5 -18.5q-10 0 -24 10z" />
<glyph unicode="&#x2195;" d="M352 434q0 20 21.5 33.5t34.5 13.5q20 0 28 -26l70 -201l135 643l-152 -201q-20 -27 -40 -26q-12 0 -25.5 9t-13.5 21q0 16 16 37l307 402l139 -404q4 -12 5 -20q0 -20 -20.5 -32.5t-33.5 -12.5q-23 0 -30 26l-68 197l-135 -635l149 197q20 27 43 26q33 0 33 -30 q0 -20 -12 -35l-307 -404l-140 402q-4 16 -4 20z" />
<glyph unicode="&#x2196;" d="M305 928l418 -127q29 -6 29 -29q0 -20 -14.5 -36.5t-37.5 -16.5q-6 0 -18 4l-203 61l387 -491q17 -21 17 -35q0 -18 -19.5 -32.5t-32.5 -14.5q-18 0 -36 22l-389 494l18 -219q0 -31 -18.5 -44t-38.5 -13q-29 0 -29 36z" />
<glyph unicode="&#x2197;" d="M182 246q0 20 29 45l602 495l-233 -65q-4 0 -8.5 -1t-6.5 -1q-35 0 -35 26v9q0 18 13.5 32.5t31.5 14.5l467 127l-219 -445q-25 -33 -41 -32q-8 0 -14 2h-6q-18 6 -19 28q0 6 5 27l110 213l-598 -492q-27 -20 -45 -20q-12 0 -22.5 12t-10.5 25z" />
<glyph unicode="&#x2198;" d="M313 895q0 18 16.5 32.5t30.5 14.5q20 0 37 -22l389 -492l-18 215v8q0 23 16.5 35t36.5 12q18 0 27 -8q4 -4 4 -24l35 -443l-416 125q-31 10 -31 27q0 12 9 22v6q14 29 43 29q6 0 18 -4l205 -63l-389 495q-13 19 -13 35z" />
<glyph unicode="&#x2199;" d="M186 223l222 441q6 36 41 36q12 0 20 -4q18 0 18 -26q0 -10 -6 -27l-110 -219l600 496q25 18 43 18q16 0 26.5 -11.5t10.5 -23.5q0 -20 -31 -45l-596 -493l225 65h10q39 0 39 -27v-6q0 -14 -5 -23t-11 -13.5t-14.5 -8.5t-10.5 -4z" />
<glyph unicode="&#x21a4;" d="M209 575l448 226q17 8 27 8q12 0 23.5 -13.5t7.5 -31.5q-4 -23 -33 -37l-219 -106h741l43 198q12 55 53 55q35 0 35 -34q0 -10 -2 -21l-104 -487q-10 -55 -55 -56q-33 0 -33 35q0 10 2 21l43 203h-746l178 -111q23 -14 19 -33q-4 -18 -15.5 -28.5t-19.5 -13.5t-16 -3 q-10 0 -23 8z" />
<glyph unicode="&#x21a5;" d="M324 31q0 53 65 53h203l158 747l-154 -200q-18 -25 -37 -25q-23 0 -32 12.5t-9 24.5q0 6 19 29l305 401l141 -401q2 -8 2 -23q0 -12 -17.5 -27.5t-36 -15.5t-32.5 25l-63 196l-158 -743h199q47 0 47 -31q0 -53 -66 -53h-487q-47 0 -47 31z" />
<glyph unicode="&#x21a6;" d="M-90 311q0 10 2 21l104 487q10 55 55 56q33 0 33 -35q0 -10 -2 -21l-43 -203h746l-178 111q-23 14 -19 33q4 18 15.5 28.5t19.5 13.5t16 3q10 0 23 -8l354 -221l-448 -226q-17 -8 -27 -8q-12 0 -23.5 13.5t-7.5 31.5q4 23 33 37l219 106h-741l-43 -198q-12 -55 -53 -55 q-35 0 -35 34z" />
<glyph unicode="&#x21a7;" d="M244 424q0 12 17.5 27.5t36 15.5t32.5 -25l63 -196l158 743h-199q-47 0 -47 31q0 53 66 53h487q47 0 47 -31q0 -53 -65 -53h-203l-158 -747l154 200q18 25 37 25q23 0 32 -12.5t9 -24.5q0 -6 -19 -29l-305 -401l-141 401q-2 8 -2 23z" />
<glyph unicode="&#x21a8;" d="M190 -74q0 53 66 54h487q49 0 50 -31q0 -20 -16.5 -36.5t-51.5 -16.5h-487q-48 -1 -48 30zM365 434q0 20 21.5 33.5t33.5 13.5q18 0 31 -26l67 -201l135 643l-151 -201q-20 -27 -41 -26q-12 0 -25.5 10t-13.5 22q0 10 16 35l310 402l137 -404q4 -16 4 -20 q0 -18 -19.5 -31.5t-33.5 -13.5q-23 0 -31 26l-68 197l-135 -635l152 197q18 27 41 26q35 0 34 -32q0 -18 -14 -33l-307 -404l-139 402q-4 16 -4 20z" />
<glyph unicode="&#x21a9;" d="M166 575l450 224q12 6 27 6q10 0 21.5 -11.5t11.5 -23.5q0 -27 -37 -43l-219 -109h551q164 0 164 123q0 80 -121 80h-78q-14 0 -23.5 9.5t-9.5 23.5q0 20 16.5 35.5t34.5 15.5h78q88 0 137.5 -40t49.5 -103q0 -106 -66 -166.5t-201 -60.5h-555l178 -111q20 -12 21 -29 q0 -23 -14.5 -38t-38.5 -15q-8 0 -23 10z" />
<glyph unicode="&#x21aa;" d="M229 674q0 102 76 166.5t191 64.5h77q14 0 23.5 -9t9.5 -24q0 -20 -16.5 -35.5t-34.5 -15.5h-78q-80 0 -121 -32.5t-41 -94.5q0 -37 27 -56.5t92 -19.5h551l-174 109q-18 12 -18 35q0 18 15 31.5t30 13.5q16 0 28 -8l357 -224l-449 -223q-16 -8 -31 -8q-14 0 -22 12.5 t-8 28.5q0 23 35 39l223 111h-555q-92 0 -139.5 37.5t-47.5 101.5z" />
<glyph unicode="&#x21b4;" d="M299 997q0 6 2 11q2 16 17.5 28.5t31.5 12.5h754l-160 -746l150 197q23 29 43 28q12 0 24.5 -11t12.5 -25q0 -8 -15 -29l-311 -406l-135 402q-8 18 -6 28q2 16 23.5 28.5t33.5 12.5q20 0 27 -28l67 -201l141 668h-667q-33 0 -33 30z" />
<glyph unicode="&#x21b5;" d="M147 295l449 223q19 10 29 10q14 0 23 -16t7 -31q-4 -20 -34 -35l-224 -110h666l141 668q4 16 18.5 28t32 12t26.5 -12t5 -28l-160 -752h-743l174 -109q23 -14 18 -37q-2 -14 -18 -29.5t-33 -15.5q-6 0 -22 11z" />
<glyph unicode="&#x21bc;" d="M184 549q0 14 23 26l450 224q14 8 27 8q12 0 22.5 -11.5t10.5 -23.5q0 -27 -37 -45l-219 -109h696q47 0 47 -30q0 -53 -65 -53h-930q-25 0 -25 14z" />
<glyph unicode="&#x21bd;" d="M195 598q0 23 32 23h930q49 0 49 -31q0 -53 -65 -53h-697l172 -109q20 -12 21 -29q0 -18 -17.5 -35.5t-33.5 -17.5q-8 0 -23 10l-356 224q-12 8 -12 18z" />
<glyph unicode="&#x21be;" d="M600 111q0 10 2 24l199 930q4 27 22 27q15 -1 21 -15l135 -405q2 -10 2 -23q0 -16 -14.5 -29.5t-32.5 -13.5q-23 0 -33 29l-70 196l-147 -696q-12 -57 -53 -57q-31 0 -31 33z" />
<glyph unicode="&#x21bf;" d="M520 641q0 10 17 31l309 403q12 16 24 17q14 0 15 -19q0 -4 -2 -10l-197 -930q-12 -55 -55 -55q-31 0 -31 35q0 8 2 20l148 696l-150 -196q-20 -27 -43 -27q-12 0 -24.5 11.5t-12.5 23.5z" />
<glyph unicode="&#x21c0;" d="M168 520q0 53 65 53h697l-172 109q-20 12 -21 29q0 18 17.5 35.5t33.5 17.5q8 0 23 -10l356 -224q12 -8 12 -18q0 -23 -32 -23h-930q-49 0 -49 31z" />
<glyph unicode="&#x21c1;" d="M191 530q0 53 65 53h930q25 0 25 -14t-23 -26l-450 -224q-14 -8 -27 -8q-12 0 -22.5 11.5t-10.5 23.5q0 27 37 45l219 109h-696q-47 0 -47 30z" />
<glyph unicode="&#x21c2;" d="M520 96q0 4 2 10l197 930q12 55 55 55q31 0 31 -35q0 -8 -2 -20l-148 -696l150 196q20 27 43 27q12 0 24.5 -11.5t12.5 -23.5q0 -10 -17 -31l-309 -403q-12 -16 -24 -17q-14 0 -15 19z" />
<glyph unicode="&#x21c3;" d="M539 520q0 16 14.5 29.5t32.5 13.5q23 0 33 -29l70 -196l147 696q12 57 53 57q31 0 31 -33q0 -10 -2 -24l-199 -930q-4 -27 -22 -27q-15 1 -21 15l-135 405q-2 10 -2 23z" />
<glyph unicode="&#x21c4;" d="M84 206l451 224q20 10 26 10q18 0 29 -21q0 -6 2 -13t2 -11q-6 -23 -35 -37l-219 -109h694q49 1 49 -30q0 -53 -65 -53h-701l177 -111q20 -12 20 -28.5t-17.5 -35t-33.5 -18.5q-10 0 -25 10zM252 649q0 18 15 34.5t50 16.5h696l-172 109q-20 14 -20 29l2 2v6 q0 14 17.5 29.5t31.5 15.5q8 0 23 -10l356 -224l-449 -223q-20 -10 -28 -10q-31 0 -31 29q0 39 33 53l223 111h-698q-49 -1 -49 32z" />
<glyph unicode="&#x21c6;" d="M109 198q0 18 15 34.5t50 16.5h696l-172 109q-20 14 -20 29l2 2v6q0 14 17.5 29.5t31.5 15.5q8 0 23 -10l356 -224l-449 -223q-20 -10 -28 -10q-31 0 -31 29q0 39 33 53l223 111h-698q-49 -1 -49 32zM166 657l451 224q20 10 26 10q18 0 29 -21q0 -6 2 -13t2 -11 q-6 -23 -35 -37l-219 -109h694q49 1 49 -30q0 -53 -65 -53h-701l177 -111q20 -12 20 -28.5t-17.5 -35t-33.5 -18.5q-10 0 -25 10z" />
<glyph unicode="&#x21cb;" d="M150 243q0 53 65 53h930q25 0 25 -14t-23 -26l-450 -224q-14 -8 -27 -8q-12 0 -22.5 11.5t-10.5 23.5q0 27 37 45l219 109h-696q-47 0 -47 30zM184 549q0 14 23 26l450 224q14 8 27 8q12 0 22.5 -11.5t10.5 -23.5q0 -27 -37 -45l-219 -109h696q47 0 47 -30q0 -53 -65 -53 h-930q-25 0 -25 14z" />
<glyph unicode="&#x21cc;" d="M154 270q0 23 32 23h930q49 0 49 -31q0 -53 -65 -53h-697l172 -109q20 -12 21 -29q0 -18 -17.5 -35.5t-33.5 -17.5q-8 0 -23 10l-356 224q-12 8 -12 18zM168 581q0 53 65 53h697l-172 109q-20 12 -21 29q0 18 17.5 35.5t33.5 17.5q8 0 23 -10l356 -224q12 -8 12 -18 q0 -23 -32 -23h-930q-49 0 -49 31z" />
<glyph unicode="&#x21d0;" d="M217 575l338 265q14 10 29 10q14 0 22 -10.5t8 -24.5q0 -8 -2 -13t-6 -10.5t-7 -7.5t-11 -8t-10 -8l-74 -55h696q49 0 49 -31q0 -27 -18.5 -41t-48.5 -14h-774l-60 -49l33 -54h778q51 0 51 -30q0 -53 -67 -54h-701l54 -57q18 -20 18 -35q0 -20 -16.5 -33.5t-38.5 -13.5 q-10 0 -21 10z" />
<glyph unicode="&#x21d1;" d="M471 -6q0 10 4 22l244 1155l-55 -49q-27 -25 -41 -26q-16 0 -26.5 11t-10.5 23v7q57 66 180 169t160 136l207 -279q6 -8 6 -22q0 -18 -16.5 -31.5t-37.5 -13.5q-18 0 -36 26l-33 54l-246 -1160q-12 -53 -55 -53q-31 0 -31 31q0 10 4 22l262 1237l-53 60l-74 -62 l-262 -1235q-14 -53 -59 -53q-31 0 -31 31z" />
<glyph unicode="&#x21d2;" d="M217 469q0 27 18.5 41t48.5 14h774l60 49l-33 54h-778q-51 0 -51 30q0 53 67 54h701l-54 57q-18 20 -18 35q0 20 16.5 33.5t38.5 13.5q10 0 21 -10l221 -264l-338 -265q-14 -10 -29 -10q-14 0 -22 10.5t-8 24.5q0 8 2 13t6 10.5t7 7.5t11 8t10 8l74 55h-696q-49 0 -49 31 z" />
<glyph unicode="&#x21d3;" d="M409 266q0 18 16.5 31.5t37.5 13.5q18 0 36 -26l33 -54l246 1160q12 53 55 53q31 0 31 -31q0 -10 -4 -22l-262 -1237l53 -60l74 62l262 1235q14 53 59 53q31 0 31 -31q0 -10 -4 -22l-244 -1155l55 49q27 25 41 26q16 0 26.5 -11t10.5 -23v-7q-57 -66 -180 -169t-160 -136 l-207 279q-6 8 -6 22z" />
<glyph unicode="&#x21d4;" d="M156 575l338 265q10 8 26 8q12 0 22.5 -9.5t10.5 -25.5q0 -12 -21 -29l-90 -71h641l-43 55q-20 27 -20 39q0 16 13.5 31.5t23.5 15.5q25 0 45 -25l217 -254l-336 -264q-10 -6 -27 -6q-35 0 -34 37q0 10 36 41l70 57h-647l53 -57q20 -23 21 -35q0 -20 -15.5 -33.5 t-33.5 -13.5q-20 0 -29 10zM287 578l32 -54h803l66 54l-41 49h-801z" />
<glyph unicode="&#x21d5;" d="M403 170q0 16 14.5 31.5t37.5 15.5q16 0 34 -24l33 -48l234 1098l-54 -47q-29 -25 -43 -25t-25 11.5t-11 23.5q0 16 16 31l324 279l204 -279q4 -6 4 -16q0 -49 -53 -50q-16 0 -31 25l-32 53l-234 -1102l53 46q27 23 48 22q33 0 32 -29q0 -20 -28 -47l-312 -266l-206 279 q-4 8 -5 18zM590 63l49 -63l82 70l266 1257l-53 62l-76 -62z" />
<glyph unicode="&#x21dc;" d="M172 576l449 223q21 10 31 10q14 0 23 -16.5t7 -30.5q-4 -20 -34 -35l-224 -111l146 3l172 -113l246 203q14 8 26 8q16 0 23 -8l67 -93h70q47 0 47 -30q0 -53 -66 -53h-90l-71 90l-244 -201q-6 -6 -21 -6q-14 0 -24 6l-168 111h-127l174 -109q23 -14 19 -37 q-4 -14 -20.5 -29.5t-31.5 -15.5q-8 0 -22 10z" />
<glyph unicode="&#x21dd;" d="M170 565q0 53 66 53h90l71 -90l244 201q6 6 21 6q14 0 24 -6l168 -111h127l-174 109q-23 14 -19 37q4 14 20.5 29.5t31.5 15.5q8 0 22 -10l357 -224l-449 -223q-21 -10 -31 -10q-14 0 -23 16.5t-7 30.5q4 20 34 35l224 111l-146 -3l-172 113l-246 -203q-14 -8 -26 -8 q-16 0 -23 8l-67 93h-70q-47 0 -47 30z" />
<glyph unicode="&#x25ca;" d="M244 580l430 598l434 -598l-434 -603zM354 580l320 -463l321 463l-321 462z" />
<glyph unicode="&#x25cb;" d="M133 547q0 223 161 380.5t390 157.5q219 0 377 -159.5t158 -383t-159 -383t-384 -159.5t-384 159.5t-159 387.5zM215 547q0 -195 134 -330t327 -135q190 0 325.5 135t135.5 326q0 188 -134.5 324.5t-320.5 136.5q-195 0 -331 -133.5t-136 -323.5z" />
<glyph unicode="&#x25ef;" d="M88 618q0 254 182.5 432.5t442.5 178.5q246 0 425 -181.5t179 -433.5q0 -254 -180.5 -434t-434 -180t-434 181t-180.5 437zM170 618q0 -223 155.5 -379.5t376.5 -156.5q219 0 376 156.5t157 375.5q0 217 -155.5 375t-370.5 158q-223 0 -381 -153.5t-158 -375.5z" />
<glyph unicode="&#xe000;" horiz-adv-x="849" d="M0 0v850h850v-850h-850z" />
<glyph unicode="&#xfb01;" d="M172 33q0 51 66 51h170l145 686h-158q-47 0 -47 35q0 49 64 49h159l25 121q25 111 104.5 186.5t173.5 75.5q45 0 107.5 -15.5t62.5 -47.5q0 -18 -14 -34t-33 -16q-6 0 -54 14.5t-87 14.5q-59 0 -110.5 -51t-65.5 -127l-25 -121h373l-164 -770h154q47 0 47 -33 q0 -23 -18.5 -37t-47.5 -14h-780q-47 0 -47 33zM492 84h288l146 686h-289z" />
<glyph unicode="&#xfb02;" d="M178 33q0 51 66 51h170l145 686h-158q-47 0 -47 35q0 49 64 49h160l24 121q23 109 103.5 185.5t173.5 76.5h254l-246 -1153h160q45 0 45 -33q0 -51 -64 -51h-803q-47 0 -47 33zM498 84h305l227 1069h-170q-57 0 -108.5 -51t-65.5 -127l-24 -121h145q49 0 49 -33 q0 -51 -68 -51h-145z" />
</font>
</defs>
</svg>
