<?xml version="1.0" standalone="no"?>
<!DOCTYPE svg PUBLIC "-//W3C//DTD SVG 1.1//EN" "http://www.w3.org/Graphics/SVG/1.1/DTD/svg11.dtd" >
<svg xmlns="http://www.w3.org/2000/svg">
<metadata></metadata>
<defs>
<font id="FreeMonoBold" horiz-adv-x="1228" >
<font-face units-per-em="2048" ascent="1638" descent="-410" />
<missing-glyph horiz-adv-x="500" />
<glyph horiz-adv-x="0" />
<glyph horiz-adv-x="2048" />
<glyph unicode=" " />
<glyph unicode="!" d="M451 1143q0 72 47 118t118.5 46t117.5 -47.5t46 -116.5q0 -15 -4 -68l-59 -608q-10 -100 -101 -100q-43 0 -70.5 26.5t-31.5 73.5l-59 608q-4 49 -4 68zM461 104.5q0 55.5 40 95.5t97 40h35q57 0 96 -39t39 -96.5t-39 -96.5t-96 -39h-35q-57 0 -97 40t-40 95.5z" />
<glyph unicode="&#x22;" d="M279 1233h262l-64 -520q-6 -41 -20.5 -57.5t-44.5 -16.5q-55 0 -64 72zM688 1233h262l-63 -520q-6 -41 -20.5 -57.5t-45.5 -16.5q-55 0 -63 72z" />
<glyph unicode="#" d="M127 387q0 57 35 78.5t100 21.5h68l14 218h-39q-137 0 -137 102q0 61 36 81.5t101 20.5h53l25 344q4 129 104 129q43 0 73 -30.5t30 -71.5q0 -14 -1 -37.5t-4 -54.5t-8.5 -107.5t-11.5 -171.5h146l24 344q4 129 105 129q39 0 70.5 -28.5t31.5 -63.5v-6l-27 -375h52 q135 0 135 -102t-135 -102h-66l-16 -218h39q137 0 137 -102q0 -100 -135 -100h-56l-22 -344q-10 -129 -107 -129q-39 0 -69.5 29.5t-30.5 68.5q27 373 27 375h-148l-24 -344q0 -129 -103 -129q-45 0 -73.5 29.5t-28.5 76.5q0 4 1 16.5t1 20.5l22 330h-53q-135 0 -135 102z M535 487h147l14 218h-145z" />
<glyph unicode="$" d="M170 207v125q0 137 102 137q16 0 29.5 -4t23 -8t17.5 -13.5t13 -15.5t9.5 -17.5t6.5 -16.5t4 -15l2 -10q12 -47 82.5 -81t154.5 -34q100 0 166 45t66 111q0 53 -39 84.5t-125 48.5l-152 30q-311 63 -311 318q0 121 83 210t214 111v54q0 66 21.5 100.5t80.5 34.5 q100 0 101 -135v-54q70 -14 90 -20l29 -10q2 -2 18 -6q31 14 57 14q102 0 103 -135v-66q0 -66 -21.5 -100.5t-81.5 -34.5q-88 0 -106 86q-4 29 -56.5 51.5t-115.5 22.5q-92 0 -147.5 -35t-55.5 -92q0 -84 154 -115l133 -29q47 -10 73.5 -17t85 -32.5t91 -57.5t61.5 -92.5 t29 -135.5q0 -133 -90 -227.5t-250 -125.5v-170q0 -66 -21.5 -101.5t-79.5 -35.5q-61 0 -81.5 36t-20.5 101v170q-88 18 -162 51q-43 -37 -80 -36q-104 0 -104 137z" />
<glyph unicode="%" d="M164 494q0 43 61 63l742 242q25 8 41 8q23 0 41 -19.5t18 -46.5q0 -43 -61 -63l-742 -242q-29 -8 -41 -8q-23 0 -41 19.5t-18 46.5zM182 979q0 117 84 201t201 84q121 0 204 -84t83 -205q0 -115 -84 -199t-201 -84q-119 0 -203 84t-84 203zM315 979q0 -63 45.5 -108.5 t106.5 -45.5q63 0 108.5 45t45.5 107q0 63 -44 108t-110 45q-61 0 -106.5 -45t-45.5 -106zM469 256q0 117 84 201t201 84q121 0 203.5 -84t82.5 -205q0 -115 -84 -199t-202 -84q-117 0 -201 84t-84 203zM602 256q0 -63 45 -108.5t109 -45.5q61 0 106 45.5t45 106.5 q0 66 -43.5 110t-109.5 44q-61 0 -106.5 -45.5t-45.5 -106.5z" />
<glyph unicode="&#x26;" d="M154 295q0 211 196 326q-70 119 -69 196q0 125 93 217t218 92q68 0 143 -34q43 14 58 14q39 0 68.5 -32t29.5 -70q0 -35 -17.5 -56.5t-66.5 -50.5l-84 -45q-78 70 -129 70q-45 0 -77 -30t-32 -73q0 -35 58 -117l205 -296l47 167h108q135 0 135 -104q0 -39 -25.5 -67.5 t-62.5 -32.5q-29 -106 -61 -164h16q135 0 135 -102.5t-135 -102.5h-125l-22 31q-84 -59 -232 -60q-170 0 -271 88t-101 236zM358 295q0 -119 168 -119q64 0 113 29l-172 246q-109 -49 -109 -156z" />
<glyph unicode="'" d="M483 1233h262l-63 -520q-6 -41 -20.5 -57.5t-45.5 -16.5q-55 0 -63 72z" />
<glyph unicode="(" d="M541 498q0 141 59 331.5t144 327.5t151 137q45 0 74.5 -29.5t29.5 -70.5q0 -31 -35.5 -95.5t-79.5 -136t-80 -199.5t-36 -271q0 -299 207 -635q25 -39 24 -70q0 -41 -29.5 -70.5t-74.5 -29.5q-66 0 -149.5 131t-144 325.5t-60.5 354.5z" />
<glyph unicode=")" d="M240 -213q0 31 35.5 95.5t79.5 136t80 199.5t36 271q0 299 -207 635q-25 39 -24 70q0 41 29.5 70.5t74.5 29.5q66 0 150 -131t144 -325.5t60 -354.5q0 -141 -58 -330.5t-143 -327.5t-153 -138q-45 0 -74.5 29.5t-29.5 70.5z" />
<glyph unicode="*" d="M170 926q0 41 28.5 71.5t67.5 30.5q20 0 70 -14l176 -58v183q0 135 102.5 135t102.5 -135v-183l176 58q49 14 68 14q39 0 68.5 -30.5t29.5 -71.5q0 -76 -103 -107l-176 -57l107 -146q39 -55 39 -88q0 -41 -31 -71.5t-72 -30.5q-33 0 -51 13.5t-51 56.5l-107 147 l-106 -147q-31 -43 -51.5 -56.5t-50.5 -13.5q-41 0 -72 30.5t-31 71.5q0 37 39 88l107 146l-177 57q-57 16 -79.5 41t-22.5 66z" />
<glyph unicode="+" d="M86 573q0 59 35 81t100 22h291v336q0 135 102 135q59 0 81 -35t22 -100v-336h289q137 0 137 -102.5t-137 -102.5h-289v-336q0 -135 -102.5 -135t-102.5 135v336h-291q-135 0 -135 102z" />
<glyph unicode="," d="M301 -266q0 16 6 39l142 501h270l-289 -548q-25 -49 -65 -50q-27 0 -45.5 17.5t-18.5 40.5z" />
<glyph unicode="-" d="M86 571.5q0 102.5 135 102.5h787q68 0 101.5 -22t33.5 -81q0 -102 -135 -102h-787q-135 0 -135 102.5z" />
<glyph unicode="." d="M461 104.5q0 55.5 40 95.5t95 40h37q57 0 96 -39t39 -96.5t-39 -96.5t-96 -39h-37q-55 0 -95 40t-40 95.5z" />
<glyph unicode="/" d="M170 -133q0 29 25 78l657 1388q23 51 45.5 70.5t58.5 19.5q41 0 72 -29.5t31 -68.5q0 -27 -25 -76l-655 -1390q-23 -51 -46.5 -70.5t-60.5 -19.5q-41 0 -71.5 29.5t-30.5 68.5z" />
<glyph unicode="0" d="M170 541v194q0 154 46 280t149.5 209t248.5 83q217 0 331 -166t114 -406v-194q0 -154 -46 -280t-149.5 -209t-249.5 -83q-217 0 -330.5 166t-113.5 406zM375 526q0 -160 65.5 -256t174 -96t174 96.5t65.5 255.5v224q0 160 -65.5 256t-174 96t-174 -96t-65.5 -256v-224z " />
<glyph unicode="1" d="M170 102q0 59 35 81t100 22h207v876l-168 -118q-31 -27 -84 -27q-35 0 -60.5 22.5t-25.5 59.5q0 33 14.5 54.5t49.5 45.5l276 189h203v-1102h207q135 0 135 -102.5t-135 -102.5h-619q-135 0 -135 102z" />
<glyph unicode="2" d="M111 0v215q39 33 140 115t147 120.5t128 109.5t123 112t89 92t67.5 88t19.5 66q0 78 -67.5 131t-167.5 53q-76 0 -126 -24.5t-70.5 -59.5t-36 -70t-40 -59.5t-63.5 -24.5q-41 0 -71.5 30t-30.5 69q0 119 128 231.5t314 112.5t311 -114t125 -284q0 -90 -38 -156.5 t-150.5 -176t-417.5 -371.5h412q8 111 102 110q102 0 102 -135v-180h-929z" />
<glyph unicode="3" d="M135 143q0 43 30 73t73 30q20 0 41.5 -11.5t42 -24.5t80 -24.5t147.5 -11.5q330 0 330 201q0 90 -82 147.5t-232 65.5q-106 6 -106 94q0 45 29.5 73.5t76.5 28.5h82q76 0 131.5 48.5t55.5 113.5q0 72 -61.5 114t-168.5 42q-80 0 -133 -19.5t-71.5 -43t-44 -43 t-60.5 -19.5q-41 0 -70.5 30.5t-29.5 71.5q0 88 129 158t292 70q186 0 304 -102.5t118 -254.5q0 -84 -43 -146.5t-143 -121.5q231 -113 231 -309q0 -74 -24.5 -139.5t-79.5 -128t-164.5 -99.5t-259.5 -37q-188 0 -304 48.5t-116 125.5z" />
<glyph unicode="4" d="M154 283v170l493 821h268v-787q125 0 125 -102q0 -98 -125 -102v-78q125 0 125 -102.5t-137 -102.5h-270q-135 0 -135 102.5t135 102.5h78v78h-557zM403 487h308v496z" />
<glyph unicode="5" d="M135 172q0 41 31 70.5t72 29.5q27 0 50 -15t44.5 -33.5t82 -34t152.5 -15.5q160 0 236 58.5t76 179.5q0 113 -63.5 182.5t-166.5 69.5q-84 0 -186.5 -43t-116.5 -43q-45 0 -73.5 32.5t-28.5 81.5v582h618q66 0 100.5 -22t34.5 -81q0 -102 -135 -102h-413v-235 q115 35 202 34q186 0 309 -129t123 -325q0 -57 -11 -112.5t-45 -118t-88 -107.5t-149.5 -76t-220.5 -31q-184 0 -309 58.5t-125 144.5z" />
<glyph unicode="6" d="M215 584q0 270 158 469q207 254 493 254q109 0 174.5 -37t65.5 -96q0 -43 -31 -74t-74 -31q-12 0 -58 13.5t-64 13.5q-162 0 -290 -122t-163 -310q74 78 138.5 110.5t142.5 32.5q162 0 275.5 -123t113.5 -297q0 -186 -110.5 -302t-307.5 -116q-106 0 -189 40 t-133.5 101.5t-83 145.5t-45 164t-12.5 164zM446 428q23 -133 80.5 -193.5t157.5 -60.5q96 0 151.5 57.5t55.5 157.5q0 88 -57.5 150.5t-141.5 62.5q-66 0 -135.5 -49t-110.5 -125z" />
<glyph unicode="7" d="M154 1094v180h886v-203l-325 -973q-20 -55 -44 -77.5t-63 -22.5q-41 0 -72.5 29.5t-31.5 68.5q0 29 14 70l307 903h-467q-10 -111 -102 -111q-102 0 -102 136z" />
<glyph unicode="8" d="M170 338q0 190 199 315q-180 121 -180.5 279t123.5 266.5t302 108.5q176 0 301 -108.5t125 -262.5q0 -162 -180 -283q199 -125 199 -315q0 -164 -124 -266.5t-323 -102.5q-197 0 -319.5 102.5t-122.5 266.5zM375 354q0 -78 67.5 -129t172 -51t172 50t67.5 128t-70 132.5 t-170 54.5q-98 0 -168.5 -54.5t-70.5 -130.5zM393 923.5q0 -77.5 62.5 -128t159 -50.5t159 49.5t62.5 127.5q0 80 -61.5 130t-160 50t-160 -50.5t-61.5 -128z" />
<glyph unicode="9" d="M217 102q0 43 31 74t74 31q12 0 58 -13.5t64 -13.5q162 0 290 122t163 310q-135 -143 -279 -143q-162 0 -276.5 123t-114.5 297q0 186 110.5 302t307.5 116q131 0 227.5 -57.5t144.5 -154t69.5 -195.5t21.5 -208q0 -270 -158 -469q-207 -254 -493 -254q-109 0 -174.5 37 t-65.5 96zM432 887q0 -88 57.5 -150.5t141.5 -62.5q66 0 135.5 49t110.5 125q-23 133 -80.5 193.5t-157.5 60.5q-96 0 -151.5 -57.5t-55.5 -157.5z" />
<glyph unicode=":" d="M461 104.5q0 55.5 40 95.5t95 40h37q57 0 96 -39t39 -96.5t-39 -96.5t-96 -39h-37q-55 0 -95 40t-40 95.5zM461 758q0 57 40 97t95 40h37q57 0 96 -40t39 -97.5t-39 -96t-96 -38.5h-37q-55 0 -95 39.5t-40 95.5z" />
<glyph unicode=";" d="M301 -266q0 16 6 39l142 501h270l-289 -548q-25 -49 -65 -50q-27 0 -45.5 17.5t-18.5 40.5zM412 760q0 59 42 97t111.5 38t111.5 -37t42 -100q0 -61 -42 -98t-111.5 -37t-111.5 37.5t-42 99.5z" />
<glyph unicode="&#x3c;" d="M86 573l881 435q36 18 61 18q35 0 60.5 -31.5t25.5 -62.5q0 -53 -65 -88l-535 -273l535 -278q66 -35 65 -88q0 -31 -25.5 -62.5t-60.5 -31.5q-29 0 -61 18z" />
<glyph unicode="=" d="M86 385q0 59 35 80.5t100 21.5h787q135 0 135 -102t-135 -102h-787q-135 0 -135 102zM86 762q0 59 35 80.5t100 21.5h787q135 0 135 -102.5t-135 -102.5h-787q-135 1 -135 103z" />
<glyph unicode="&#x3e;" d="M115 205q0 51 65 86l535 272l-535 281q-66 31 -65 84q0 33 25.5 64.5t60.5 31.5q29 0 61 -18l881 -445l-881 -434q-36 -18 -61 -18q-35 0 -60.5 31.5t-25.5 64.5z" />
<glyph unicode="?" d="M213 942v162q147 72 233 96.5t185 24.5q190 0 309 -107.5t119 -279.5q0 -125 -75 -207t-261 -164q-12 -111 -102 -111q-102 0 -103 136v114q197 76 266.5 126t69.5 116q0 76 -61.5 124t-159.5 48q-113 0 -215 -49v-29q0 -135 -102.5 -135t-102.5 135zM465 104.5 q0 55.5 40 95.5t97 40h35q57 0 96 -39t39 -96.5t-39 -96.5t-96 -39h-35q-57 0 -97 40t-40 95.5z" />
<glyph unicode="@" d="M156 315v347q0 264 130 436t330 172q166 0 272.5 -110.5t106.5 -280.5v-576q47 -20 47 -72q0 -84 -112 -84h-96v7q-47 -6 -68 -7q-131 0 -225.5 94.5t-94.5 221.5q0 143 108 240.5t280 109.5v66q0 102 -60.5 165.5t-155.5 63.5q-129 0 -215 -131t-86 -328v-319 q0 -78 14.5 -155t46.5 -154.5t95.5 -125t151.5 -47.5q70 0 120 15.5t70.5 35t42 35t41.5 15.5q35 0 58.5 -24.5t23.5 -59.5q0 -72 -108 -124t-255 -52q-106 0 -190 43t-133 108.5t-82 152.5t-45 166t-12 156zM608 461q0 -63 49.5 -105.5t122.5 -42.5q25 0 54 4v330 q-102 -10 -164 -60t-62 -126z" />
<glyph unicode="A" d="M-43 102q0 61 36 82t101 21l318 784h-129q-137 0 -138 103q0 61 36 81.5t102 20.5h442l408 -989q139 0 139 -102.5t-135 -102.5h-285q-135 0 -135 102q0 59 34.5 81t100.5 22h47l-47 119h-487l-48 -119h48q135 0 135 -102.5t-135 -102.5h-273q-135 0 -135 102zM446 528 h322l-160 394z" />
<glyph unicode="B" d="M27 102.5q0 102.5 135 102.5h31v784h-31q-135 0 -135 103q0 59 35.5 80.5t99.5 21.5h518q174 0 287.5 -96.5t113.5 -241.5q0 -131 -129 -231q217 -109 217 -297q0 -147 -110.5 -237.5t-292.5 -90.5h-604q-135 0 -135 102.5zM397 205h359h4q205 0 205 110q0 82 -80 131.5 t-211 49.5h-277v-291zM397 700h232q111 0 179.5 44t68.5 114q0 61 -55.5 96t-151.5 35h-273v-289z" />
<glyph unicode="C" d="M68 510v135q0 246 159.5 412t397.5 166q143 0 290 -70l21 -8q35 49 86 49q59 0 80.5 -35t21.5 -100v-172q0 -135 -102 -135q-37 0 -60.5 20.5t-28.5 37.5t-11 50q-12 61 -75 99t-116 48.5t-98 10.5q-156 0 -258.5 -105.5t-102.5 -267.5v-131q0 -154 110 -246t294 -92 q96 0 164.5 23.5t97.5 51.5t58.5 51.5t56.5 23.5q41 0 71.5 -31t30.5 -72q0 -88 -140.5 -170t-344.5 -82q-260 0 -431 152.5t-171 386.5z" />
<glyph unicode="D" d="M27 102q0 49 32.5 76t92.5 27v784q-125 0 -125 103q0 61 35.5 81.5t101.5 20.5h434q223 0 375.5 -164t152.5 -405v-97q0 -240 -148.5 -384t-395.5 -144h-418q-137 0 -137 102zM356 205h228q102 0 172.5 30.5t104.5 84t47.5 104.5t13.5 111v94q0 154 -93.5 257t-246.5 103 h-226v-784z" />
<glyph unicode="E" d="M27 102.5q0 102.5 135 102.5h31v784h-31q-135 0 -135 103q0 59 34.5 80.5t100.5 21.5h919v-307q0 -137 -102 -137t-102 137v102h-480v-289h174v15q0 137 101 137q102 0 102 -137v-232q0 -135 -100 -135q-102 0 -103 135v15h-174v-293h525v106q0 138 102 138t102 -138 v-311h-964q-135 0 -135 102.5z" />
<glyph unicode="F" d="M27 102.5q0 102.5 135 102.5h31v784h-31q-135 0 -135 103q0 59 34.5 80.5t100.5 21.5h964v-309q0 -135 -102 -135t-102 135v104h-525v-289h174v15q0 135 103 135q100 0 100 -135v-232q0 -137 -100 -137q-102 0 -103 137v15h-174v-293h205q135 0 135 -102.5t-135 -102.5 h-440q-135 0 -135 102.5z" />
<glyph unicode="G" d="M68 504v145q0 240 162.5 407t418.5 167q166 0 297 -66q33 66 84 66q55 0 75.5 -34t20.5 -102v-159q0 -66 -21.5 -100.5t-80.5 -34.5q-14 0 -27.5 3t-21.5 8t-15.5 13t-12.5 15.5t-9 18.5t-6 17t-5 17.5t-3 15.5q-16 53 -88 85t-185 32q-172 0 -275.5 -101.5 t-103.5 -267.5v-131q0 -342 394 -342q141 0 256 51v142h-205q-135 0 -135 102q0 59 34.5 80.5t100.5 21.5h358q137 0 137 -102q0 -78 -86 -102v-271q-137 -72 -233 -99.5t-215 -27.5q-139 0 -250 34t-176.5 87t-108.5 126t-59 142.5t-16 143.5z" />
<glyph unicode="H" d="M47 102q0 59 35 81t100 22h13v784q-106 10 -107 103q0 59 35 80.5t100 21.5h207q135 0 135 -102.5t-135 -102.5h-31v-291h439v291h-31q-135 0 -135 103q0 59 34.5 80.5t100.5 21.5h207q135 0 135 -102q0 -92 -107 -103v-784h13q135 0 135 -102.5t-135 -102.5h-248 q-135 0 -135 102.5t135 102.5h31v289h-439v-289h31q135 0 135 -102.5t-135 -102.5h-248q-135 0 -135 102z" />
<glyph unicode="I" d="M170 102q0 59 35 81t100 22h207v784h-207q-135 0 -135 103q0 59 35 80.5t100 21.5h619q66 0 100.5 -21.5t34.5 -80.5q0 -102 -135 -103h-207v-784h207q66 0 100.5 -21.5t34.5 -81.5q0 -102 -135 -102h-619q-135 0 -135 102z" />
<glyph unicode="J" d="M111 104v332q0 137 102 137q61 0 81.5 -35.5t20.5 -101.5v-196q141 -63 240 -64q117 0 195 74q33 33 41 59.5t8 96.5v583h-244q-135 0 -135 103q0 59 34.5 80.5t100.5 21.5h565q135 0 135 -102.5t-135 -102.5h-116v-606q0 -184 -130.5 -298t-322.5 -114q-172 0 -440 133z " />
<glyph unicode="K" d="M27 102.5q0 102.5 135 102.5h31v784h-31q-135 0 -135 103q0 59 34.5 80.5t100.5 21.5h307q135 0 135 -102.5t-135 -102.5h-72v-305l365 313q-63 25 -64 93q0 104 136 104h204q136 0 136 -103q0 -102 -127 -102l-361 -313q199 -104 346 -471h66q135 0 135 -102.5 t-135 -102.5h-226q-72 219 -165 360.5t-187 169.5l-123 -104v-221h72q135 0 135 -102.5t-135 -102.5h-307q-135 0 -135 102.5z" />
<glyph unicode="L" d="M68 102q0 59 34.5 81t100.5 22h116v784h-116q-135 0 -135 103q0 59 34.5 80.5t100.5 21.5h438q135 0 135 -102.5t-135 -102.5h-117v-784h441v188q0 137 102 137q59 0 80.5 -34.5t21.5 -102.5v-393h-966q-135 0 -135 102z" />
<glyph unicode="M" d="M-39 102.5q0 102.5 125 102.5v782q-106 10 -106 105q0 41 28.5 71.5t97.5 30.5h232l283 -610l276 610h225q135 0 135 -102q0 -92 -106 -103v-784q125 0 125 -102.5t-135 -102.5h-267q-135 0 -135 102q0 59 35 81t100 22h72v592l-227 -516h-187l-241 514v-590h71 q68 0 102 -21.5t34 -81.5q0 -102 -136 -102h-264q-137 0 -137 102.5z" />
<glyph unicode="N" d="M-16 1092q0 59 34.5 80.5t100.5 21.5h235l529 -803v598h-72q-135 0 -135 103q0 59 34.5 80.5t100.5 21.5h266q135 0 135 -102.5t-125 -102.5v-989h-202l-531 807v-602h72q66 0 100.5 -21.5t34.5 -81.5q0 -102 -135 -102h-264q-137 0 -137 102.5t125 102.5v784h-31 q-135 0 -135 103z" />
<glyph unicode="O" d="M43 598q0 258 167.5 441.5t403.5 183.5q45 0 106.5 -13.5t146.5 -56.5t154 -108.5t117 -185.5t48 -271q0 -252 -169 -434.5t-403 -182.5q-238 0 -404.5 183.5t-166.5 443.5zM248 598q0 -174 107.5 -298t258.5 -124q150 0 258.5 123t108.5 293q0 176 -107.5 301 t-259.5 125q-150 0 -258 -124t-108 -296z" />
<glyph unicode="P" d="M27 102.5q0 102.5 135 102.5h31v784h-31q-135 0 -135 103q0 59 34.5 80.5t100.5 21.5h477q195 0 319.5 -108.5t124.5 -278.5q0 -55 -12 -106.5t-47 -105.5t-87 -94t-139 -65.5t-200 -25.5h-201v-205h203q135 0 135 -102.5t-135 -102.5h-438q-135 0 -135 102.5zM397 614 h242q106 0 166.5 50.5t60.5 136.5q0 88 -60.5 138t-166.5 50h-242v-375z" />
<glyph unicode="Q" d="M43 598q0 258 168 441.5t403.5 183.5t403.5 -182.5t168 -438.5q0 -250 -165 -433t-429 -183q-20 0 -37 2l-8 -49q61 10 104 10q61 0 148.5 -20.5t107.5 -20.5q43 0 92.5 32.5t77.5 32.5q45 0 75 -29.5t30 -72.5q0 -63 -92.5 -115.5t-180.5 -52.5q-55 0 -126.5 28.5 t-129.5 28.5q-72 0 -183.5 -26.5t-131.5 -26.5q-39 0 -68.5 32t-29.5 75q0 39 41 77l127 123q-51 29 -80 47.5t-91.5 72.5t-98.5 110.5t-65.5 150.5t-29.5 203zM248 596q0 -172 108.5 -297t258 -125t258 123t108.5 293q0 178 -107.5 303t-259 125t-259 -124t-107.5 -298z " />
<glyph unicode="R" d="M6 102.5q0 102.5 135 102.5h31v784h-31q-135 0 -135 103q0 59 35 80.5t100 21.5h457q199 0 325 -101.5t126 -263.5q0 -188 -222 -309q133 -117 258 -315h27q135 0 135 -102.5t-135 -102.5h-162q-76 147 -193.5 289.5t-183.5 165.5h-196v-250h72q135 0 135 -102.5 t-135 -102.5h-308q-135 0 -135 102.5zM377 659h155q129 0 214 50.5t85 126.5q0 66 -63 109.5t-162 43.5h-229v-330z" />
<glyph unicode="S" d="M127 137v135q0 68 22.5 102t79.5 34q18 0 34 -4.5t26 -12.5t17 -15t12.5 -19.5t7.5 -18.5t5 -16.5t3 -12.5q14 -55 98 -94t186 -39q115 0 193 45t78 111q0 61 -60.5 98t-139.5 49.5t-184.5 37t-168.5 58.5q-78 45 -123 121t-45 164q0 156 127 259.5t317 103.5 q158 0 267 -68q16 39 32 53.5t47 14.5q61 0 81 -35t20 -101v-180q0 -137 -101 -137q-16 0 -29.5 3t-22.5 8t-17 14.5t-12.5 15.5t-8.5 18.5t-5 17.5t-4 18.5t-3 15.5q-14 61 -80.5 99t-163 38t-164 -45t-67.5 -111q0 -70 67.5 -107.5t157.5 -49t201 -41t174 -80.5 q121 -96 121 -256t-129 -258.5t-340 -98.5q-170 0 -320 80q-41 -49 -82 -49q-104 0 -104 135z" />
<glyph unicode="T" d="M86 799v395h1057v-395q0 -66 -21.5 -100.5t-81.5 -34.5q-102 0 -102 135v190h-223v-784h135q135 0 135 -102.5t-135 -102.5h-473q-135 0 -135 102q0 59 34.5 81t100.5 22h133v784h-219v-190q0 -135 -102.5 -135t-102.5 135z" />
<glyph unicode="U" d="M20 1092q0 59 35 80.5t101 21.5h266q66 0 100.5 -20.5t34.5 -81.5q0 -102 -135 -103h-72v-588q0 -94 78 -159.5t186.5 -65.5t186.5 65.5t78 159.5v588h-72q-135 0 -135 103q0 59 34.5 80.5t100.5 21.5h266q68 0 101.5 -21.5t33.5 -80.5q0 -102 -125 -103v-569 q0 -199 -139 -324t-329.5 -125t-330 127t-139.5 322v569q-125 4 -125 103z" />
<glyph unicode="V" d="M-43 1092q0 59 35 80.5t100 21.5h273q66 0 100.5 -21.5t34.5 -80.5q0 -102 -135 -103h-39l295 -694l294 694h-49q-66 0 -100.5 21.5t-34.5 81t35 81t100 21.5h271q135 0 135 -102.5t-139 -102.5l-420 -989h-203l-414 989q-139 0 -139 103z" />
<glyph unicode="W" d="M-20 1087q0 61 33.5 84t101.5 23h268q137 0 137 -102.5t-137 -102.5h-98l73 -557l156 463h213l156 -463l71 557h-108q-135 0 -135 103q0 59 34.5 80.5t100.5 21.5h268q135 0 135 -102q0 -86 -96 -103l-123 -989h-225l-191 567l-186 -567h-227l-127 989q-94 12 -94 98z " />
<glyph unicode="X" d="M20 102q0 47 32 75t89 28l340 405l-323 379q-119 6 -119 103q0 102 135 102h186q137 0 138 -102q0 -63 -78 -101l194 -223l191 223q-78 39 -78 101q0 102 137 102h185q66 0 100.5 -21.5t34.5 -80.5q0 -98 -117 -103l-322 -381l342 -403q121 -4 121 -103q0 -102 -135 -102 h-227q-135 0 -135 102q0 96 112 103l-207 246l-208 -246q111 -6 110 -103q0 -102 -135 -102h-227q-135 0 -136 102z" />
<glyph unicode="Y" d="M43 1091.5q0 102.5 137 102.5h182q135 0 136 -102q0 -68 -78 -101l194 -278l193 278q-82 31 -82 101q0 61 36 81.5t101 20.5h189q66 0 100.5 -21.5t34.5 -80.5q0 -102 -133 -103l-336 -487v-297h133q137 0 137 -102.5t-137 -102.5h-471q-137 0 -137 102q0 61 35.5 82 t101.5 21h133v297l-338 487q-131 0 -131 102.5z" />
<glyph unicode="Z" d="M150 0v205l618 784h-367v-143q0 -135 -102 -135t-102 135v348h835v-199l-620 -790h462v147q0 66 22 100.5t81 34.5t80.5 -34.5t21.5 -100.5v-352h-929z" />
<glyph unicode="[" d="M512 -303v1579h324q68 0 101.5 -21.5t33.5 -80.5q0 -102 -135 -103h-119v-1169h121q135 0 135 -102.5t-135 -102.5h-326z" />
<glyph unicode="\" d="M170 1325q0 39 30.5 68.5t71.5 29.5q35 0 57.5 -19.5t47.5 -70.5l657 -1388q25 -49 25 -78q0 -39 -31 -68.5t-72 -29.5q-37 0 -59.5 19t-46.5 71l-655 1390q-25 49 -25 76z" />
<glyph unicode="]" d="M256 1173.5q0 102.5 135 102.5h326v-1579h-324q-68 0 -101.5 21.5t-33.5 80.5q0 102 135 103h119v1169h-121q-135 0 -135 102.5z" />
<glyph unicode="^" d="M170 768q0 37 45 90l397 477l402 -477q45 -53 45 -90q0 -41 -31 -71.5t-72 -30.5q-29 0 -48 11t-52 50l-244 285l-239 -283q-35 -41 -52.5 -52t-48.5 -11q-41 0 -71.5 30.5t-30.5 71.5z" />
<glyph unicode="_" d="M0 -205h1229v-205h-1229v205z" />
<glyph unicode="`" d="M334 1290q0 31 21.5 52.5t54.5 21.5q24 0 65 -33l195 -166q47 -41 47 -75q0 -29 -22.5 -51.5t-53.5 -22.5q-27 0 -66 33l-194 168q-47 37 -47 73z" />
<glyph unicode="a" d="M86 244q0 139 137 242.5t359 103.5q92 0 213 -21v47q0 100 -191 101q-84 0 -190.5 -23.5t-128.5 -23.5q-43 0 -72 29.5t-29 74.5q0 66 62 86q174 61 352 62q188 0 295.5 -80t107.5 -224v-413h33q135 0 135 -102.5t-135 -102.5h-239v47q-154 -80 -340 -80 q-152 0 -260.5 81t-108.5 196zM303 252q0 -35 45 -57.5t111 -22.5q168 0 338 104v103q-124 22 -220 22h-8q-104 0 -185 -45t-81 -104z" />
<glyph unicode="b" d="M-16 102q0 59 34.5 81t100.5 22h33v866h-33q-66 0 -100.5 22t-34.5 81q0 102 135 102h237v-455q129 102 308 103q231 0 368 -136.5t137 -341t-139 -340t-364 -135.5q-164 0 -310 101v-72h-237q-135 0 -135 102zM356 451q0 -121 85 -198t221 -77q133 0 218 77t85 196 q0 115 -84 192.5t-219 77.5q-139 0 -222.5 -77t-83.5 -191z" />
<glyph unicode="c" d="M111 424q0 219 146 358.5t378 139.5q176 0 295 -62q18 61 78 62q98 0 98 -136v-157q0 -135 -102 -135q-55 0 -77 30.5t-34 75.5t-41 66q-84 51 -217 51q-145 0 -232.5 -81t-87.5 -212q0 -252 361 -252q109 0 180.5 18.5t97 39t51 39t50.5 17.5q41 0 71.5 -30.5 t30.5 -73.5q0 -88 -136 -151.5t-359 -63.5q-127 0 -226.5 29t-159 75t-98.5 107.5t-53 121.5t-14 124z" />
<glyph unicode="d" d="M68 448.5q0 202.5 138 339t369 136.5q178 0 308 -103v252h-33q-66 0 -100.5 21.5t-34.5 81.5q0 57 34.5 78.5t100.5 21.5h237v-1071h33q135 0 135 -102.5t-135 -102.5h-237v72q-147 -100 -310 -101q-229 0 -367 137.5t-138 340zM272 449q0 -117 85 -195t220.5 -78 t220.5 76.5t85 191.5q0 123 -84 199t-224 76q-137 0 -220 -79t-83 -191z" />
<glyph unicode="e" d="M68 442q0 203 152.5 341.5t375.5 138.5q229 0 379.5 -139.5t150.5 -350.5v-80h-835q70 -180 336 -180q109 0 241.5 34t159.5 34q41 0 69.5 -30t28.5 -73q0 -66 -118.5 -107.5t-222 -52t-177.5 -10.5q-238 0 -389 133t-151 342zM297 532h602q-25 84 -106.5 134.5 t-194.5 50.5t-195.5 -51.5t-105.5 -133.5z" />
<glyph unicode="f" d="M154 102q0 59 34.5 81t100.5 22h119v485h-97q-135 0 -135 103q0 61 36 81.5t101 20.5h95v76q0 141 106.5 223t288.5 82q366 0 366 -128q0 -46 -27.5 -76t-68.5 -30q-10 0 -111.5 14.5t-177.5 14.5q-172 0 -172 -100v-76h310q135 0 135 -102.5t-135 -102.5h-310v-485h285 q135 0 135 -102.5t-135 -102.5h-608q-135 0 -135 102z" />
<glyph unicode="g" d="M68 446q0 205 138 341.5t345 136.5q168 0 289 -103v74h237q135 0 135 -102.5t-135 -102.5h-33v-731q0 -162 -111.5 -265.5t-279.5 -103.5h-229q-135 1 -135 103q0 59 34.5 80.5t100.5 21.5h223q90 0 141.5 43t51.5 121v113q-135 -100 -289 -101q-207 0 -345 136.5 t-138 338.5zM272 448.5q0 -112.5 83 -192.5t200 -80t201 79t84 189q0 115 -83 195t-202 80q-117 0 -200 -79t-83 -191.5z" />
<glyph unicode="h" d="M27 1174q0 102 135 102h237v-479q123 125 281 125q164 0 263 -93.5t99 -246.5v-377h13q135 0 135 -102.5t-135 -102.5h-230q-137 0 -137 102.5t137 102.5h13v350q0 78 -36 120t-145 42q-72 0 -121 -26.5t-137 -110.5v-375h13q137 0 137 -102.5t-137 -102.5h-230 q-135 0 -135 102.5t135 102.5h13v866h-33q-66 0 -100.5 22t-34.5 81z" />
<glyph unicode="i" d="M127 102q0 59 35 81t100 22h250v485h-160q-137 0 -137 103q0 61 36 81.5t101 20.5h365v-690h250q135 0 135 -102.5t-135 -102.5h-705q-135 0 -135 102zM446 1061v215h242v-215h-242z" />
<glyph unicode="j" d="M178 -307q0 59 36 80.5t99 21.5h228q90 0 141 43t51 121v731h-414q-135 0 -135 103q0 59 35 80.5t100 21.5h619v-936q0 -160 -111.5 -264.5t-279.5 -104.5h-234q-135 1 -135 103zM575 1061v215h244v-215h-244z" />
<glyph unicode="k" d="M68 102q0 59 34.5 81t100.5 22h33v866h-33q-66 0 -100.5 21.5t-34.5 81.5q0 102 135 102h237v-688l162 129q-33 39 -33 76q0 102 138 102h229q68 0 101.5 -22.5t33.5 -79.5q0 -102 -135 -103h-57l-242 -196l328 -289h67q137 0 137 -102.5t-137 -102.5h-241 q-135 0 -136 102q0 41 33 76l-211 187l-37 -29v-336h-237q-135 0 -135 102z" />
<glyph unicode="l" d="M127 102q0 59 35 81t100 22h250v866h-160q-137 1 -137 103q0 59 35 80.5t102 21.5h365v-1071h250q135 0 135 -102.5t-135 -102.5h-705q-135 0 -135 102z" />
<glyph unicode="m" d="M-39 102.5q0 102.5 123 102.5v485q-123 4 -123 103q0 102 137 102h191v-49q94 76 174 76q117 0 209 -101q92 100 213 101q115 0 191.5 -77t76.5 -192v-448q123 0 123 -102.5t-135 -102.5h-193v637q0 45 -15 62.5t-56 17.5t-73 -18.5t-83 -73.5v-420q57 0 90 -27.5 t33 -75.5q0 -102 -135 -102h-193v637q0 43 -16.5 61.5t-55.5 18.5q-74 0 -155 -92v-420q125 0 125 -102.5t-135 -102.5h-181q-137 0 -137 102.5z" />
<glyph unicode="n" d="M47 102.5q0 102.5 135 102.5h13v485q-125 4 -125 103q0 102 137 102h192v-98q74 70 135.5 97.5t145.5 27.5q160 0 262 -90.5t102 -253.5v-373q125 0 125 -102.5t-135 -102.5h-182q-137 0 -137 102.5t125 102.5v364q0 147 -185 148q-72 0 -128 -31t-128 -108v-373h13 q135 0 135 -102.5t-135 -102.5h-230q-135 0 -135 102.5z" />
<glyph unicode="o" d="M86 444q0 203 154 340.5t381 137.5q217 0 369.5 -139.5t152.5 -338.5q0 -201 -153.5 -339t-375 -138t-375 138.5t-153.5 338.5zM291 444q0 -115 93 -193.5t230.5 -78.5t230.5 79t93 193.5t-93.5 193.5t-226.5 79q-139 0 -233 -78t-94 -195z" />
<glyph unicode="p" d="M0 -307.5q0 102.5 135 102.5h33v895h-33q-66 0 -100.5 22t-34.5 81q0 102 135 102h238v-92q139 119 313 119q215 0 357.5 -132.5t142.5 -330.5q0 -188 -141.5 -313.5t-354.5 -125.5q-168 0 -317 115v-340h119q68 0 101.5 -21.5t33.5 -80.5q0 -102 -135 -103h-357 q-135 0 -135 102.5zM373 473q0 -109 85 -178.5t220 -69.5q133 0 218 70t85 176.5t-84 176t-219 69.5q-137 0 -221 -69.5t-84 -174.5z" />
<glyph unicode="q" d="M41 459q0 199 142.5 331t357.5 132q96 0 167.5 -27t147.5 -92v92h238q135 0 135 -102.5t-135 -102.5h-33v-895h33q135 0 135 -102.5t-135 -102.5h-357q-135 0 -135 102.5t135 102.5h119v340q-150 -115 -319 -115q-213 0 -354.5 125t-141.5 314zM246 471q0 -106 85 -176 t220 -70t220 70t85 174q0 109 -85 178.5t-222 69.5q-133 0 -218 -71t-85 -175z" />
<glyph unicode="r" d="M111 102q0 59 34.5 81t100.5 22h119v485h-72q-135 0 -135 102.5t135 102.5h276v-133q123 92 194.5 125t147.5 33q86 0 172 -53.5t86 -121.5q0 -43 -30.5 -73.5t-71.5 -30.5q-35 0 -80 37t-80 37q-49 0 -119.5 -44t-218.5 -165v-301h285q137 0 137 -102.5t-137 -102.5 h-608q-135 0 -135 102z" />
<glyph unicode="s" d="M150 137v68q0 137 104 137q78 0 104 -90q88 -80 256 -80q98 0 169 26.5t71 61.5q0 80 -258 107q-215 23 -311.5 88t-96.5 186q0 123 119 202t303 79q150 0 264 -54q23 53 66 54q96 0 96 -136v-75q0 -66 -21.5 -101t-80.5 -35q-37 0 -61.5 23t-40 48.5t-69.5 48t-147 22.5 q-78 0 -140 -21.5t-62 -50.5q0 -41 90 -58.5t225 -38t207 -61.5q68 -37 105.5 -98t37.5 -133q0 -125 -129 -207t-327 -82q-178 0 -304 60q-31 -25 -65 -25q-104 0 -104 135z" />
<glyph unicode="t" d="M27 793q0 59 34.5 80.5t100.5 21.5h71v180q0 135 103 135q59 0 80.5 -34.5t21.5 -100.5v-180h371q66 0 100.5 -21.5t34.5 -80.5q0 -102 -135 -103h-371v-401q0 -63 35 -90t141 -27q80 0 146.5 14.5t100.5 32t68 31.5t56 14q41 0 69.5 -30.5t28.5 -73.5q0 -57 -87 -103.5 t-192.5 -68t-191.5 -21.5q-174 0 -276.5 76t-102.5 207v440h-71q-135 0 -135 103z" />
<glyph unicode="u" d="M27 793q0 59 34.5 80.5t100.5 21.5h237v-569q0 -147 181 -148q78 0 129 27.5t131 111.5v373h-72h-20q-61 0 -88 32t-27 71q0 102 135 102h276v-690q125 0 125 -102.5t-135 -102.5h-194v98q-76 -72 -136.5 -98.5t-144.5 -26.5q-162 0 -263 91.5t-101 254.5v371h-56 q-51 0 -81.5 29t-30.5 74z" />
<glyph unicode="v" d="M0 792.5q0 102.5 135 102.5h271q66 0 100.5 -21.5t34.5 -80.5q0 -102 -135 -103h-11l223 -440l220 440h-21q-135 0 -135 102.5t135 102.5h277q66 0 100.5 -21.5t34.5 -80.5q0 -102 -135 -103h-33l-342 -690h-213l-342 690h-29q-135 0 -135 102.5z" />
<glyph unicode="w" d="M0 793q0 102 135 102h189q66 0 100.5 -21.5t34.5 -80.5q0 -100 -131 -101l80 -313l122 323h181l125 -323l82 313h-15q-135 0 -135 101q0 102 135 102h191q135 0 135 -102q0 -94 -107 -101l-172 -692h-188l-146 371l-139 -371h-192l-174 692q-53 4 -82 30t-29 71z" />
<glyph unicode="x" d="M43 102q0 96 111 103l297 262l-263 223q-106 10 -106 103q0 102 135 102h189q135 0 135 -100q0 -59 -54 -95l125 -100l125 102q-53 37 -53 89q0 104 135 104h187q137 0 137 -102q0 -92 -109 -103l-270 -225l311 -260q111 -6 111 -103q0 -102 -135 -102h-230 q-137 0 -137 104q0 78 82 101l-154 125l-149 -125q78 -33 78 -101q0 -104 -135 -104h-228q-135 0 -135 102z" />
<glyph unicode="y" d="M43 -307q0 102 135 102h205l113 211l-353 684q-100 12 -100 103q0 102 135 102h184q66 0 101 -21.5t35 -80.5q0 -98 -121 -103l233 -457l246 457q-131 0 -131 102.5t137 102.5h189q66 0 100.5 -21.5t34.5 -80.5q0 -92 -107 -103l-471 -895h10q66 0 101 -21.5t35 -80.5 q0 -102 -136 -103h-440h-20q-61 0 -88 32t-27 71z" />
<glyph unicode="z" d="M174 0v170l535 520h-306v-18q0 -135 -102 -135t-102 135v223h837v-166l-536 -524h358q6 110 101 110h2q59 0 80.5 -34.5t21.5 -100.5v-180h-889z" />
<glyph unicode="{" d="M270 471q0 45 32 74.5t79 29.5q53 0 90 37t37 82v273q0 125 85 217t212 92q51 0 87 -28.5t36 -73.5q0 -43 -33 -72t-78 -33q-43 -2 -73.5 -38t-30.5 -79v-239q0 -74 -38 -143.5t-83 -98.5q45 -31 83 -94.5t38 -124.5v-242q0 -43 31.5 -78.5t72.5 -37.5q45 -4 78 -33 t33 -72q0 -45 -36 -73.5t-89 -28.5q-131 0 -213 87t-82 222v256q0 43 -38 80t-89 37q-49 0 -80 28.5t-31 73.5z" />
<glyph unicode="|" d="M512 -178v1319q0 66 21.5 100.5t80.5 34.5q102 0 103 -135v-1319q0 -135 -102.5 -135t-102.5 135z" />
<glyph unicode="}" d="M301 -211q0 43 33 71.5t78 33.5q41 2 72.5 37.5t31.5 78.5v242q0 61 38 124.5t83 94.5q-45 29 -83 98.5t-38 143.5v239q0 43 -30.5 79t-73.5 38q-45 4 -78 32.5t-33 72.5q0 45 36 73.5t87 28.5q127 0 212 -92t85 -217v-273q0 -45 37 -82t90 -37q47 0 78.5 -29.5 t31.5 -74.5t-30.5 -73.5t-79.5 -28.5q-51 0 -89 -37t-38 -80v-256q0 -135 -82 -222t-213 -87q-53 0 -89 28.5t-36 73.5z" />
<glyph unicode="~" d="M127 516q0 61 97.5 166.5t211.5 105.5q78 0 152 -52t127 -103t82 -51q23 0 46 25.5t41.5 56t48.5 56t66 25.5q41 0 72 -30.5t31 -71.5q0 -57 -98.5 -166.5t-202.5 -109.5q-72 0 -150 52t-135 104t-82 52q-23 0 -56.5 -40.5t-72.5 -81.5t-74 -41q-41 0 -72.5 31.5 t-31.5 72.5z" />
<glyph unicode="&#xa0;" />
<glyph unicode="&#xa1;" d="M451 -246q0 15 4 68l59 608q10 100 101 100q43 0 70.5 -26.5t31.5 -73.5l59 -608q4 -49 4 -68q0 -72 -47 -118t-118.5 -46t-117.5 47.5t-46 116.5zM463 792.5q0 57.5 39 96.5t96 39h35q57 0 97 -40t40 -95.5t-40 -95.5t-97 -40h-35q-57 0 -96 39t-39 96.5z" />
<glyph unicode="&#xa2;" d="M170 639q0 150 96 266.5t248 153.5v158q0 137 102 137q61 0 82 -36t21 -101v-138q92 -14 149 -49q25 8 41 8q104 0 105 -135v-86q0 -135 -103 -135q-51 0 -73.5 29.5t-26.5 66.5t-41 66.5t-115 29.5q-121 0 -200.5 -68.5t-79.5 -170.5q0 -96 74.5 -164t185.5 -68 q92 0 177 49.5t108 49.5q41 0 71.5 -32t30.5 -73q0 -63 -84 -117.5t-219 -76.5v-158q0 -135 -102.5 -135t-102.5 135v166q-158 39 -251 154.5t-93 273.5z" />
<glyph unicode="&#xa3;" d="M68 600q0 59 34.5 80.5t100.5 21.5h90q-35 104 -35 183q0 150 99.5 245t254.5 95q121 0 222.5 -66.5t101.5 -144.5q0 -43 -29.5 -74t-70.5 -31q-39 0 -66 28t-62.5 55.5t-97.5 27.5q-63 0 -105 -36t-42 -89q0 -47 41 -193h139q137 0 137 -102t-137 -102h-92q2 -25 2 -56 q0 -121 -47 -237h416q12 94 100 94q47 0 75.5 -30.5t28.5 -84.5q0 -90 -57 -137t-164 -47h-657q-135 0 -135 104q0 51 38.5 74t89 40.5t66.5 51.5q39 76 39 189q0 23 -2 39h-141q-135 0 -135 102z" />
<glyph unicode="&#xa4;" d="M150 236q0 41 53 96l65 69q-51 100 -51 197q0 101 51 197q-6 6 -27.5 26.5t-32.5 32.5t-27.5 31.5t-23.5 38t-7 37.5q0 41 30.5 71.5t73.5 30.5q41 0 96 -53l66 -64q98 53 198 53q96 0 199 -55l64 62q53 53 96 53t73.5 -31t30.5 -74q0 -27 -9 -43t-44 -51l-63 -65 q51 -100 51 -197q0 -98 -54 -197l68 -69q53 -53 53 -94q0 -43 -31.5 -75t-74.5 -32q-27 0 -43.5 9.5t-50.5 43.5l-70 66q-96 -51 -194.5 -51t-196.5 53l-68 -66q-35 -35 -52 -45t-44 -10q-43 0 -73.5 31t-30.5 74zM422 600q0 -80 57.5 -138.5t135 -58.5t135 58.5t57.5 136.5 q0 84 -55.5 140.5t-137.5 56.5q-80 0 -136 -56.5t-56 -138.5z" />
<glyph unicode="&#xa5;" d="M43 1085q0 59 35 81t100 22h189q68 0 102.5 -21.5t34.5 -81.5q0 -37 -22.5 -64.5t-57.5 -33.5l192 -274l195 272q-84 23 -84 100q0 61 36 82t101 21h187q135 0 135 -102.5t-133 -102.5l-285 -408h147q63 0 63.5 -57t-63.5 -57h-198v-70h198q63 0 63.5 -57.5t-63.5 -57.5 h-198v-71h96q66 0 100.5 -21.5t34.5 -81.5q0 -102 -135 -102h-397q-135 0 -135 102q0 61 35.5 82t101.5 21h94v71h-199q-63 0 -63 57.5t63 57.5h199v70h-199q-63 0 -63 57t63 57h148l-283 410q-4 -2 -10 -2h-12q-47 0 -80 28.5t-33 73.5z" />
<glyph unicode="&#xa6;" d="M512 -178v416q0 66 21.5 100.5t80.5 34.5q102 0 103 -135v-416q0 -135 -102.5 -135t-102.5 135zM512 723v416q0 135 102.5 135t102.5 -135v-416q0 -135 -102.5 -135t-102.5 135z" />
<glyph unicode="&#xa7;" d="M74 580q0 186 207 243q-10 31 -11 62q0 129 92.5 219t239.5 90h461v-260q0 -113 -90 -113t-90 113v76h-295q-59 0 -101.5 -32t-42.5 -77q0 -76 220 -201l188 -104q178 -100 240.5 -168t62.5 -164q0 -94 -54 -157.5t-155 -86.5q10 -43 10 -77q0 -125 -88 -208t-229 -83 h-473v260q0 113 90 113t90 -113v-80h297q55 0 96 33t41 76q0 80 -215 200l-217 125q-154 88 -214 157t-60 157zM270 598q0 -76 176 -178l211 -119q133 -82 177 -121h34q39 2 64.5 20.5t25.5 47.5q1 75 -198 190l-203 117q-78 43 -164 113q-123 0 -123 -70z" />
<glyph unicode="&#xa8;" d="M279 1216.5q0 51.5 35.5 87t87 35.5t87 -35.5t35.5 -89.5q0 -49 -35.5 -84.5t-87 -35.5t-87 35.5t-35.5 87zM705 1216.5q0 51.5 35.5 87t87 35.5t87 -35.5t35.5 -89.5q0 -49 -35.5 -84.5t-87 -35.5t-87 35.5t-35.5 87z" />
<glyph unicode="&#xa9;" d="M-14 598q0 260 183 443.5t443 183.5t444.5 -183.5t184.5 -443.5q0 -262 -184.5 -445.5t-450.5 -183.5q-254 0 -437 185.5t-183 443.5zM135 598q0 -197 139.5 -338t333.5 -141q203 0 343.5 139t140.5 340q0 199 -140.5 338t-337.5 139q-199 0 -339 -139t-140 -338z M276 551v74q0 141 91.5 235t228.5 94q84 0 162 -39q16 39 57 39q31 0 49.5 -21.5t18.5 -55.5v-123q0 -90 -72 -90q-31 0 -48.5 22.5t-25.5 50t-43 50t-94 22.5q-78 0 -128 -52t-50 -134v-70q0 -76 54.5 -121t144.5 -45q55 0 89.5 13.5t46 27.5t28 27.5t40.5 13.5 q29 0 51.5 -22.5t22.5 -51.5q0 -59 -86 -106t-195 -47q-147 0 -244.5 88t-97.5 221z" />
<glyph unicode="&#xaa;" d="M242 756q0 102 99 171.5t257 69.5q53 0 127 -10v17q0 55 -119 55q-63 0 -135 -16.5t-84 -16.5q-33 0 -55.5 23.5t-22.5 58.5q0 59 91.5 85t197.5 26q137 0 212 -56.5t75 -158.5v-263h12q104 0 104 -79.5t-102 -79.5h-174v22q-113 -45 -221.5 -45t-185 57.5t-76.5 139.5z M254 424q0 39 21.5 52t84.5 13h523q106 0 106 -77q0 -80 -104 -80h-525q-68 0 -87 16.5t-19 75.5zM428 766q0 -20 24.5 -32.5t63.5 -12.5q117 0 209 63v56q-76 14 -135 14q-66 0 -114 -26.5t-48 -61.5z" />
<glyph unicode="&#xab;" d="M68 446l507 377q35 27 60 27q27 0 46 -18.5t19 -43.5q0 -23 -32 -55l-310 -287l310 -288q33 -31 32.5 -55.5t-21 -43t-46.5 -18.5q-23 0 -58 27zM537 446l507 377q35 27 60 27q27 0 46 -18.5t19 -43.5q0 -23 -32 -55l-310 -287l310 -288q33 -31 32.5 -55.5t-21 -43 t-46.5 -18.5q-23 0 -58 27z" />
<glyph unicode="&#xac;" d="M86 809q0 59 35 80.5t100 21.5h731v-540q0 -135 -102 -135t-102 135v336h-527q-135 0 -135 102z" />
<glyph unicode="&#xad;" d="M86 571.5q0 102.5 135 102.5h787q68 0 101.5 -22t33.5 -81q0 -102 -135 -102h-787q-135 0 -135 102.5z" />
<glyph unicode="&#xae;" d="M-14 598q0 258 184 442.5t444 184.5q258 0 442.5 -183.5t184.5 -443.5q0 -262 -184.5 -445.5t-450.5 -183.5q-254 0 -437 185.5t-183 443.5zM135 598q0 -197 139.5 -338t333.5 -141q203 0 343.5 139t140.5 340q0 197 -140.5 337t-337.5 140q-199 0 -339 -140t-140 -337z M315 332q0 72 88 71v390q-88 4 -88 73q0 72 93 72h190q115 0 187.5 -59.5t72.5 -153.5q0 -57 -33.5 -105.5t-91.5 -74.5q57 -51 109 -142q74 -6 73 -71q0 -74 -90 -74h-82q-18 74 -68 149.5t-93 96.5h-31v-101q86 0 86 -71q0 -74 -90 -74h-139q-92 0 -93 74zM551 647h51 q47 0 79 22.5t32 57.5q0 29 -30 47.5t-81 18.5h-51v-146z" />
<glyph unicode="&#xaf;" d="M256 1200q0 82 109 82h499q109 0 109 -82t-109 -82h-499q-109 0 -109 82z" />
<glyph unicode="&#xb0;" d="M256 860.5q0 149.5 104.5 255t254 105.5t254 -105.5t104.5 -255.5q0 -152 -105.5 -257t-257.5 -105q-145 0 -249.5 106.5t-104.5 256zM381 860q0 -96 68.5 -166.5t162.5 -70.5q98 0 167 69.5t69 167.5q0 96 -68.5 166t-165 70t-165 -70t-68.5 -166z" />
<glyph unicode="&#xb1;" d="M86 102.5q0 102.5 135 102.5h787q135 0 135 -102.5t-135 -102.5h-787q-135 0 -135 102.5zM86 778.5q0 102.5 135 102.5h291v262q0 135 102 135q59 0 81 -35t22 -100v-262h289q137 0 137 -102.5t-137 -102.5h-289v-205q0 -135 -102.5 -135t-102.5 135v205h-291 q-135 0 -135 102.5z" />
<glyph unicode="&#xb2;" d="M305 758v139q285 236 356.5 306.5t71.5 113.5t-38 72.5t-95 29.5q-55 0 -87 -22.5t-40 -49t-25.5 -49t-48.5 -22.5q-29 0 -49 19t-20 48q0 72 78.5 142.5t193.5 70.5t191.5 -69.5t76.5 -175.5q0 -78 -61 -151t-291 -265h223q10 66 68 66q70 0 70 -89v-114h-574z" />
<glyph unicode="&#xb3;" d="M322 868q0 29 19 49.5t48 20.5q8 0 53 -21.5t138 -21.5q188 0 188 106q0 57 -39 85t-87 31t-87 20.5t-39 56.5q0 29 20.5 48.5t49.5 19.5h51q41 0 72.5 27.5t31.5 62.5q0 39 -34.5 62.5t-94.5 23.5q-47 0 -77.5 -12.5t-42 -26t-27.5 -25.5t-39 -12q-27 0 -47.5 20.5 t-20.5 49.5q0 57 79 100t181 43q113 0 187 -62.5t74 -158.5q0 -37 -13.5 -68t-29 -45t-37 -31.5t-25.5 -21.5q131 -68 131 -191q0 -94 -73.5 -166.5t-247.5 -72.5q-121 0 -191.5 29.5t-70.5 80.5z" />
<glyph unicode="&#xb4;" d="M512 1090q0 35 47 75l174 154q41 33 66 33q33 0 54 -21.5t21 -54.5q0 -31 -47 -72l-174 -155q-37 -33 -65 -33q-31 0 -53.5 22.5t-22.5 51.5z" />
<glyph unicode="&#xb5;" d="M27 793q0 59 34.5 80.5t100.5 21.5h237v-600q0 -66 31 -94.5t102 -28.5q125 0 308 111v407h-72q-135 0 -135 102.5t135 102.5h276v-690q125 0 125 -102.5t-135 -102.5h-194v45q-162 -78 -322 -78q-57 0 -119 19v-164q0 -135 -102 -135t-102 135v868h-33q-135 0 -135 103z " />
<glyph unicode="&#xb6;" d="M100 739v95q0 150 154 255t371 105h403q111 0 111 -80t-111 -80h-70v-1231h74q111 0 111 -79.5t-111 -79.5h-190q-57 0 -82 69q-16 -43 -33.5 -56t-54.5 -13h-281q-108 0 -108 79.5t108 79.5h162v576q-199 20 -326 121.5t-127 238.5zM332 739q0 -70 59.5 -120.5 t161.5 -73.5v479q-102 -23 -161.5 -74t-59.5 -121v-90zM713 -197q35 -16 47 -57q10 39 43 57v1231h-90v-1231z" />
<glyph unicode="&#xb7;" d="M492 475q0 51 35.5 87t87 36t87 -36t35.5 -89q0 -49 -35.5 -85t-87 -36t-87 36t-35.5 87z" />
<glyph unicode="&#xb8;" d="M369 -279q0 29 21 50.5t50 21.5q14 0 71.5 -28.5t104.5 -28.5q74 0 74 51q0 70 -108 70q-18 0 -45 -4v149h143v-25q154 -33 154 -186q0 -88 -61.5 -143.5t-158.5 -55.5q-76 0 -160.5 35t-84.5 94z" />
<glyph unicode="&#xb9;" d="M340 827q0 68 90 68h117v485l-98 -24q-31 -8 -41 -8q-27 0 -45.5 21.5t-18.5 50t15.5 44t54.5 25.5l270 70v-664h117q88 0 88 -68q0 -70 -88 -69h-371q-90 0 -90 69z" />
<glyph unicode="&#xba;" d="M250 412q0 78 106 77h521q106 0 106 -77q0 -80 -106 -80h-521q-106 0 -106 80zM268 881q0 139 102.5 238.5t245.5 99.5q145 0 247 -99.5t102 -242.5q0 -131 -102.5 -224.5t-246.5 -93.5q-145 0 -246.5 94.5t-101.5 227.5zM430 881q0 -63 56.5 -112.5t130 -49.5t130 49 t56.5 113q0 72 -55.5 125t-131 53t-131 -53.5t-55.5 -124.5z" />
<glyph unicode="&#xbb;" d="M67.5 788.5q0.5 24.5 21 43t46.5 18.5q23 0 58 -27l505 -379l-505 -376q-35 -27 -60 -27q-27 0 -46 18.5t-19 42.5q0 23 32 56l310 286l-310 289q-33 31 -32.5 55.5zM538.5 788.5q0.5 24.5 21 43t46.5 18.5q23 0 58 -27l505 -379l-505 -376q-35 -27 -60 -27 q-27 0 -46 18.5t-19 42.5q0 23 32 56l310 286l-310 289q-33 31 -32.5 55.5z" />
<glyph unicode="&#xbc;" d="M-70 575q0 68 90 68h117v485l-98 -24q-31 -8 -41 -8q-27 0 -45.5 21.5t-18.5 50t15.5 44t54.5 25.5l270 70v-664h117q88 0 88 -68q0 -70 -88 -69h-371q-90 0 -90 69zM297 172q0 20 20 53l533 924q33 53 72 53q27 0 48 -20.5t21 -44.5q1 -19 -22 -56l-533 -923 q-31 -53 -69 -54q-27 0 -48.5 20.5t-21.5 47.5zM741 170v113l299 495h172v-471q76 -4 76 -67q0 -66 -76 -70v-33q76 -4 76 -67q0 -70 -90 -70h-162q-88 0 -88 70q0 68 88 67h39v33h-334zM913 307h162v264z" />
<glyph unicode="&#xbd;" d="M-70 575q0 68 90 68h117v485l-98 -24q-31 -8 -41 -8q-27 0 -45.5 21.5t-18.5 50t15.5 44t54.5 25.5l270 70v-664h117q88 0 88 -68q0 -70 -88 -69h-371q-90 0 -90 69zM297 172q0 20 20 53l533 924q33 53 72 53q27 0 48 -20.5t21 -44.5q1 -19 -22 -56l-533 -923 q-31 -53 -69 -54q-27 0 -48.5 20.5t-21.5 47.5zM715 0v139q285 236 356.5 306.5t71.5 113.5t-38 73t-95 30q-55 0 -87 -23t-40.5 -49.5t-25.5 -49t-48 -22.5q-29 0 -49.5 19.5t-20.5 48.5q0 72 79 142.5t193.5 70.5t191.5 -70t77 -176q0 -78 -61.5 -150.5t-290.5 -265.5h223 q10 66 68 66q70 0 69 -88v-115h-573z" />
<glyph unicode="&#xbe;" d="M-88 598q0 29 19.5 49.5t48.5 20.5q8 0 53 -21.5t137 -21.5q188 0 188 106q0 57 -38.5 85t-87 31t-87.5 20.5t-39 56.5q0 29 20.5 48t49.5 19h51q41 0 73 28t32 62q0 39 -35 62.5t-94 23.5q-47 0 -78 -12t-42 -25.5t-27.5 -25.5t-39.5 -12q-27 0 -47 20.5t-20 48.5 q0 57 78.5 100.5t181.5 43.5q113 0 186.5 -62.5t73.5 -159.5q0 -37 -13.5 -67.5t-28.5 -45t-36.5 -31.5t-25.5 -21q131 -68 131 -191q0 -94 -74 -167t-248 -73q-121 0 -191.5 30t-70.5 81zM297 172q0 20 20 53l535 924q29 53 70 53q27 0 48 -20.5t21 -44.5q0 -19 -20 -56 l-535 -923q-31 -53 -69 -54q-29 0 -49.5 20.5t-20.5 47.5zM741 170v113l301 495h172v-471q76 -4 76 -67q0 -66 -76 -70v-33q76 -4 76 -67q0 -70 -90 -70h-162q-90 0 -90 70q0 68 90 67h39v33h-336zM913 307h164v264z" />
<glyph unicode="&#xbf;" d="M170 -23q0 125 75 207t261 164q12 111 102 111q102 0 103 -136v-114q-197 -76 -266.5 -126t-69.5 -116q0 -76 61.5 -124t159.5 -48q113 0 215 49v29q0 135 102.5 135t102.5 -135v-162q-147 -72 -233 -96.5t-185 -24.5q-190 0 -309 107.5t-119 279.5zM457 710.5 q0 57.5 39 96.5t96 39h35q57 0 97 -40t40 -95.5t-40 -95.5t-97 -40h-35q-57 0 -96 39t-39 96.5z" />
<glyph unicode="&#xc0;" d="M-43 102q0 61 36 82t101 21l318 784h-129q-137 0 -138 103q0 61 36 81.5t102 20.5h442l408 -989q139 0 139 -102.5t-135 -102.5h-285q-135 0 -135 102q0 59 34.5 81t100.5 22h47l-47 119h-487l-48 -119h48q135 0 135 -102.5t-135 -102.5h-273q-135 0 -135 102zM367 1560 q0 31 21.5 52.5t54.5 21.5q24 0 65 -33l195 -166q47 -41 47 -75q0 -29 -22.5 -51.5t-53.5 -22.5q-27 0 -66 33l-194 168q-47 37 -47 73zM446 528h322l-160 394z" />
<glyph unicode="&#xc1;" d="M-43 102q0 61 36 82t101 21l318 784h-129q-137 0 -138 103q0 61 36 81.5t102 20.5h442l408 -989q139 0 139 -102.5t-135 -102.5h-285q-135 0 -135 102q0 59 34.5 81t100.5 22h47l-47 119h-487l-48 -119h48q135 0 135 -102.5t-135 -102.5h-273q-135 0 -135 102zM422 1377 q0 35 47 75l174 154q41 33 66 33q33 0 54 -21.5t21 -54.5q0 -31 -47 -72l-174 -155q-37 -33 -65 -33q-31 0 -53.5 22.5t-22.5 51.5zM446 528h322l-160 394z" />
<glyph unicode="&#xc2;" d="M-43 102q0 61 36 82t101 21l318 784h-129q-137 0 -138 103q0 61 36 81.5t102 20.5h442l408 -989q139 0 139 -102.5t-135 -102.5h-285q-135 0 -135 102q0 59 34.5 81t100.5 22h47l-47 119h-487l-48 -119h48q135 0 135 -102.5t-135 -102.5h-273q-135 0 -135 102zM223 1354 q0 25 8 38t41 33l311 193l328 -207q31 -25 31 -57q0 -29 -21.5 -50.5t-48.5 -21.5q-12 0 -59 26l-230 127l-231 -127q-49 -27 -57 -26q-29 0 -50.5 21.5t-21.5 50.5zM446 528h322l-160 394z" />
<glyph unicode="&#xc3;" d="M-43 102q0 61 36 82t101 21l318 784h-129q-137 0 -138 103q0 61 36 81.5t102 20.5h442l408 -989q139 0 139 -102.5t-135 -102.5h-285q-135 0 -135 102q0 59 34.5 81t100.5 22h47l-47 119h-487l-48 -119h48q135 0 135 -102.5t-135 -102.5h-273q-135 0 -135 102zM207 1380 q0 47 67.5 109.5t157.5 62.5q57 0 164.5 -49t138.5 -49q35 0 82 49t82 49q27 0 46 -17.5t19 -39.5q0 -43 -68.5 -113t-154.5 -70q-57 0 -165.5 49.5t-139.5 49.5q-43 0 -88 -46t-78 -46q-27 0 -45 18t-18 43zM446 528h322l-160 394z" />
<glyph unicode="&#xc4;" d="M-43 102q0 61 36 82t101 21l318 784h-129q-137 0 -138 103q0 61 36 81.5t102 20.5h442l408 -989q139 0 139 -102.5t-135 -102.5h-285q-135 0 -135 102q0 59 34.5 81t100.5 22h47l-47 119h-487l-48 -119h48q135 0 135 -102.5t-135 -102.5h-273q-135 0 -135 102z M273 1445.5q0 51.5 35.5 87t87 35.5t87 -35.5t35.5 -89.5q0 -49 -35.5 -84.5t-87 -35.5t-87 35.5t-35.5 87zM446 528h322l-160 394zM699 1445.5q0 51.5 35.5 87t87 35.5t87 -35.5t35.5 -89.5q0 -49 -35.5 -84.5t-87 -35.5t-87 35.5t-35.5 87z" />
<glyph unicode="&#xc5;" d="M-43 102q0 61 36 82t101 21l318 784h-129q-137 0 -138 103q0 61 36 81.5t102 20.5h442l408 -989q139 0 139 -102.5t-135 -102.5h-285q-135 0 -135 102q0 59 34.5 81t100.5 22h47l-47 119h-487l-48 -119h48q135 0 135 -102.5t-135 -102.5h-273q-135 0 -135 102zM410 1454 q0 76 56 130t134 54q80 0 135.5 -54t55.5 -134q0 -74 -56.5 -128t-134 -54t-134 55t-56.5 131zM446 528h322l-160 394zM539 1454q0 -25 18.5 -42t43 -17t43 17.5t18.5 39.5q0 25 -18.5 42.5t-43 17.5t-43 -17.5t-18.5 -40.5z" />
<glyph unicode="&#xc6;" d="M-41 102.5q0 102.5 135 102.5h15l235 784h-29q-135 0 -135 103q0 59 35 80.5t100 21.5h899v-338q0 -135 -102 -135t-102 135v133h-258v-289h39q6 113 102 113q59 0 80.5 -35t21.5 -100v-160q0 -135 -102 -135q-47 0 -73.5 30.5t-28.5 84.5h-39v-293h301v47q0 135 102 135 q59 0 80.5 -35t21.5 -100v-252h-714q-53 0 -84 28.5t-31 77.5q0 41 29.5 70t72.5 29h17v119h-191l-34 -119q84 -12 84 -96q0 -109 -117 -109h-195q-135 0 -135 102.5zM416 530h131v435z" />
<glyph unicode="&#xc7;" d="M68 510v135q0 246 159.5 412t397.5 166q143 0 290 -70l21 -8q35 49 86 49q59 0 80.5 -35t21.5 -100v-172q0 -135 -102 -135q-49 0 -70.5 23.5t-24.5 55t-25.5 72.5t-70.5 66q-88 49 -198 49q-158 0 -259.5 -105.5t-101.5 -267.5v-131q0 -154 110 -246t292 -92 q98 0 167.5 23.5t97.5 51.5t56.5 51.5t57.5 23.5q41 0 71.5 -31t30.5 -74q0 -18 -11 -43.5t-43 -59.5t-81 -62.5t-135 -51t-195 -29.5q154 -31 154 -186q0 -86 -61.5 -142.5t-153.5 -56.5q-80 0 -165 34t-85 95q0 29 21.5 50.5t50.5 21.5q12 0 70.5 -28.5t105.5 -28.5 q74 0 73 51q0 70 -102 70q-16 0 -51 -5v132q-127 27 -222.5 83t-142.5 114.5t-74.5 131t-33.5 115.5t-6 84z" />
<glyph unicode="&#xc8;" d="M27 102.5q0 102.5 135 102.5h31v784h-31q-135 0 -135 103q0 59 34.5 80.5t100.5 21.5h919v-307q0 -137 -102 -137t-102 137v102h-480v-289h174v15q0 137 101 137q102 0 102 -137v-232q0 -135 -100 -135q-102 0 -103 135v15h-174v-293h525v106q0 138 102 138t102 -138 v-311h-964q-135 0 -135 102.5zM371 1564q0 31 21.5 52.5t54.5 21.5q24 0 65 -33l195 -166q47 -41 47 -75q0 -29 -22.5 -51.5t-53.5 -22.5q-27 0 -66 33l-194 168q-47 37 -47 73z" />
<glyph unicode="&#xc9;" d="M27 102.5q0 102.5 135 102.5h31v784h-31q-135 0 -135 103q0 59 34.5 80.5t100.5 21.5h919v-307q0 -137 -102 -137t-102 137v102h-480v-289h174v15q0 137 101 137q102 0 102 -137v-232q0 -135 -100 -135q-102 0 -103 135v15h-174v-293h525v106q0 138 102 138t102 -138 v-311h-964q-135 0 -135 102.5zM442 1377q0 35 47 75l174 154q41 33 66 33q33 0 54 -21.5t21 -54.5q0 -31 -47 -72l-174 -155q-37 -33 -65 -33q-31 0 -53.5 22.5t-22.5 51.5z" />
<glyph unicode="&#xca;" d="M27 100.5q0 102.5 135 102.5h31v784h-31q-135 0 -135 103q0 59 34.5 80.5t100.5 21.5h919v-307q0 -137 -102 -137t-102 137v102h-480v-289h174v15q0 137 101 137q102 0 102 -137v-232q0 -135 -100 -135q-102 0 -103 135v15h-174v-293h525v106q0 138 102 138t102 -138 v-311h-964q-135 0 -135 102.5zM236 1350q0 25 8 38t41 33l311 193l328 -207q31 -25 31 -57q0 -29 -21.5 -50.5t-48.5 -21.5q-12 0 -59 26l-230 127l-231 -127q-49 -27 -57 -26q-29 0 -50.5 21.5t-21.5 50.5z" />
<glyph unicode="&#xcb;" d="M27 102.5q0 102.5 135 102.5h31v784h-31q-135 0 -135 103q0 59 34.5 80.5t100.5 21.5h919v-307q0 -137 -102 -137t-102 137v102h-480v-289h174v15q0 137 101 137q102 0 102 -137v-232q0 -135 -100 -135q-102 0 -103 135v15h-174v-293h525v106q0 138 102 138t102 -138 v-311h-964q-135 0 -135 102.5zM287 1443.5q0 51.5 35.5 87t87 35.5t87 -35.5t35.5 -89.5q0 -49 -35.5 -84.5t-87 -35.5t-87 35.5t-35.5 87zM713 1443.5q0 51.5 35.5 87t87 35.5t87 -35.5t35.5 -89.5q0 -49 -35.5 -84.5t-87 -35.5t-87 35.5t-35.5 87z" />
<glyph unicode="&#xcc;" d="M170 102q0 59 35 81t100 22h207v784h-207q-135 0 -135 103q0 59 35 80.5t100 21.5h619q66 0 100.5 -21.5t34.5 -80.5q0 -102 -135 -103h-207v-784h207q66 0 100.5 -21.5t34.5 -81.5q0 -102 -135 -102h-619q-135 0 -135 102zM389 1564q0 31 21.5 52.5t54.5 21.5 q24 0 65 -33l195 -166q47 -41 47 -75q0 -29 -22.5 -51.5t-53.5 -22.5q-27 0 -66 33l-194 168q-47 37 -47 73z" />
<glyph unicode="&#xcd;" d="M170 102q0 59 35 81t100 22h207v784h-207q-135 0 -135 103q0 59 35 80.5t100 21.5h619q66 0 100.5 -21.5t34.5 -80.5q0 -102 -135 -103h-207v-784h207q66 0 100.5 -21.5t34.5 -81.5q0 -102 -135 -102h-619q-135 0 -135 102zM518 1377q0 35 47 75l174 154q41 33 66 33 q33 0 54 -21.5t21 -54.5q0 -31 -47 -72l-174 -155q-37 -33 -65 -33q-31 0 -53.5 22.5t-22.5 51.5z" />
<glyph unicode="&#xce;" d="M170 102q0 59 35 81t100 22h207v784h-207q-135 0 -135 103q0 59 35 80.5t100 21.5h619q66 0 100.5 -21.5t34.5 -80.5q0 -102 -135 -103h-207v-784h207q66 0 100.5 -21.5t34.5 -81.5q0 -102 -135 -102h-619q-135 0 -135 102zM252 1356q0 25 8 38t41 33l311 193l328 -207 q31 -25 31 -57q0 -29 -21.5 -50.5t-48.5 -21.5q-12 0 -59 26l-230 127l-231 -127q-49 -27 -57 -26q-29 0 -50.5 21.5t-21.5 50.5z" />
<glyph unicode="&#xcf;" d="M170 102q0 59 35 81t100 22h207v784h-207q-135 0 -135 103q0 59 35 80.5t100 21.5h619q66 0 100.5 -21.5t34.5 -80.5q0 -102 -135 -103h-207v-784h207q66 0 100.5 -21.5t34.5 -81.5q0 -102 -135 -102h-619q-135 0 -135 102zM279 1441.5q0 51.5 35.5 87t87 35.5t87 -35.5 t35.5 -89.5q0 -49 -35.5 -84.5t-87 -35.5t-87 35.5t-35.5 87zM705 1441.5q0 51.5 35.5 87t87 35.5t87 -35.5t35.5 -89.5q0 -49 -35.5 -84.5t-87 -35.5t-87 35.5t-35.5 87z" />
<glyph unicode="&#xd0;" d="M0 600q0 61 36 81.5t101 20.5h15v287q-125 0 -125 103q0 61 35.5 81.5t101.5 20.5h434q223 0 375.5 -164t152.5 -405v-97q0 -240 -148.5 -384t-395.5 -144h-420q-135 0 -135 102q0 49 32.5 76t92.5 27v293h-17q-135 0 -135 102zM356 205h228q102 0 172.5 30.5t104.5 84 t47.5 104.5t13.5 111v94q0 154 -93.5 257t-246.5 103h-226v-287h152q66 0 100.5 -21.5t34.5 -80.5q0 -102 -135 -102h-152v-293z" />
<glyph unicode="&#xd1;" d="M-16 1092q0 59 34.5 80.5t100.5 21.5h235l529 -803v598h-72q-135 0 -135 103q0 59 34.5 80.5t100.5 21.5h266q135 0 135 -102.5t-125 -102.5v-989h-202l-531 807v-602h72q66 0 100.5 -21.5t34.5 -81.5q0 -102 -135 -102h-264q-137 0 -137 102.5t125 102.5v784h-31 q-135 0 -135 103zM220 1374q0 47 67.5 109.5t157.5 62.5q57 0 164.5 -49t138.5 -49q35 0 82 49t82 49q27 0 46 -17.5t19 -39.5q0 -43 -68.5 -113t-154.5 -70q-57 0 -165.5 49.5t-139.5 49.5q-43 0 -88 -46t-78 -46q-27 0 -45 18t-18 43z" />
<glyph unicode="&#xd2;" d="M43 598q0 258 167.5 441.5t403.5 183.5q45 0 106.5 -13.5t146.5 -56.5t154 -108.5t117 -185.5t48 -271q0 -252 -169 -434.5t-403 -182.5q-238 0 -404.5 183.5t-166.5 443.5zM248 598q0 -174 107.5 -298t258.5 -124q150 0 258.5 123t108.5 293q0 176 -107.5 301 t-259.5 125q-150 0 -258 -124t-108 -296zM389 1564q0 31 21.5 52.5t54.5 21.5q24 0 65 -33l195 -166q47 -41 47 -75q0 -29 -22.5 -51.5t-53.5 -22.5q-27 0 -66 33l-194 168q-47 37 -47 73z" />
<glyph unicode="&#xd3;" d="M43 598q0 258 167.5 441.5t403.5 183.5q45 0 106.5 -13.5t146.5 -56.5t154 -108.5t117 -185.5t48 -271q0 -252 -169 -434.5t-403 -182.5q-238 0 -404.5 183.5t-166.5 443.5zM248 598q0 -174 107.5 -298t258.5 -124q150 0 258.5 123t108.5 293q0 176 -107.5 301 t-259.5 125q-150 0 -258 -124t-108 -296zM457 1377q0 35 47 75l174 154q41 33 66 33q33 0 54 -21.5t21 -54.5q0 -31 -47 -72l-174 -155q-37 -33 -65 -33q-31 0 -53.5 22.5t-22.5 51.5z" />
<glyph unicode="&#xd4;" d="M43 598q0 258 167.5 441.5t403.5 183.5q45 0 106.5 -13.5t146.5 -56.5t154 -108.5t117 -185.5t48 -271q0 -252 -169 -434.5t-403 -182.5q-238 0 -404.5 183.5t-166.5 443.5zM248 598q0 -174 107.5 -298t258.5 -124q150 0 258.5 123t108.5 293q0 176 -107.5 301 t-259.5 125q-150 0 -258 -124t-108 -296zM256 1350q0 25 8 38t41 33l311 193l328 -207q31 -25 31 -57q0 -29 -21.5 -50.5t-48.5 -21.5q-12 0 -59 26l-230 127l-231 -127q-49 -27 -57 -26q-29 0 -50.5 21.5t-21.5 50.5z" />
<glyph unicode="&#xd5;" d="M43 598q0 258 167.5 441.5t403.5 183.5q45 0 106.5 -13.5t146.5 -56.5t154 -108.5t117 -185.5t48 -271q0 -252 -169 -434.5t-403 -182.5q-238 0 -404.5 183.5t-166.5 443.5zM236 1382q0 47 67.5 109.5t157.5 62.5q57 0 164.5 -49t138.5 -49q35 0 82 49t82 49 q27 0 46 -17.5t19 -39.5q0 -43 -68.5 -113t-154.5 -70q-57 0 -165.5 49.5t-139.5 49.5q-43 0 -88 -46t-78 -46q-27 0 -45 18t-18 43zM248 598q0 -174 107.5 -298t258.5 -124q150 0 258.5 123t108.5 293q0 176 -107.5 301t-259.5 125q-150 0 -258 -124t-108 -296z" />
<glyph unicode="&#xd6;" d="M43 598q0 258 167.5 441.5t403.5 183.5q45 0 106.5 -13.5t146.5 -56.5t154 -108.5t117 -185.5t48 -271q0 -252 -169 -434.5t-403 -182.5q-238 0 -404.5 183.5t-166.5 443.5zM248 598q0 -174 107.5 -298t258.5 -124q150 0 258.5 123t108.5 293q0 176 -107.5 301 t-259.5 125q-150 0 -258 -124t-108 -296zM279 1447.5q0 51.5 35.5 87t87 35.5t87 -35.5t35.5 -89.5q0 -49 -35.5 -84.5t-87 -35.5t-87 35.5t-35.5 87zM705 1447.5q0 51.5 35.5 87t87 35.5t87 -35.5t35.5 -89.5q0 -49 -35.5 -84.5t-87 -35.5t-87 35.5t-35.5 87z" />
<glyph unicode="&#xd7;" d="M205 268q0 41 53 94l211 211l-211 211q-53 55 -53 96.5t30.5 72t71.5 30.5t96 -53l211 -211l211 211q55 53 96.5 53t72 -30.5t30.5 -71.5t-53 -97l-211 -211l211 -211q53 -53 53 -96q0 -41 -30.5 -71.5t-71.5 -30.5q-43 0 -97 53l-211 211l-211 -211q-55 -53 -96 -53 t-71.5 30.5t-30.5 73.5z" />
<glyph unicode="&#xd8;" d="M18 -47q0 33 43 86l117 149q-137 180 -137 410q0 258 168 441.5t405 183.5q158 0 306 -99l94 119q29 39 48 51.5t48 12.5q41 0 69.5 -29t28.5 -70q0 -33 -41 -86l-106 -133q125 -164 125 -393q0 -258 -168 -441.5t-404 -183.5q-151 0 -288 86l-111 -139 q-31 -39 -49.5 -50t-46.5 -11q-41 0 -71 28.5t-30 67.5zM246 598q-1 -131 65 -242l482 609q-90 53 -181 53q-150 0 -258 -124t-108 -296zM453 219q76 -43 161 -43q150 0 258.5 124t108.5 294q0 125 -55 225z" />
<glyph unicode="&#xd9;" d="M20 1092q0 59 35 80.5t101 21.5h266q66 0 100.5 -20.5t34.5 -81.5q0 -102 -135 -103h-72v-588q0 -94 78 -159.5t186.5 -65.5t186.5 65.5t78 159.5v588h-72q-135 0 -135 103q0 59 34.5 80.5t100.5 21.5h266q68 0 101.5 -21.5t33.5 -80.5q0 -102 -125 -103v-569 q0 -199 -139 -324t-329.5 -125t-330 127t-139.5 322v569q-125 4 -125 103zM389 1564q0 31 21.5 52.5t54.5 21.5q24 0 65 -33l195 -166q47 -41 47 -75q0 -29 -22.5 -51.5t-53.5 -22.5q-27 0 -66 33l-194 168q-47 37 -47 73z" />
<glyph unicode="&#xda;" d="M20 1092q0 59 35 80.5t101 21.5h266q66 0 100.5 -20.5t34.5 -81.5q0 -102 -135 -103h-72v-588q0 -94 78 -159.5t186.5 -65.5t186.5 65.5t78 159.5v588h-72q-135 0 -135 103q0 59 34.5 80.5t100.5 21.5h266q68 0 101.5 -21.5t33.5 -80.5q0 -102 -125 -103v-569 q0 -199 -139 -324t-329.5 -125t-330 127t-139.5 322v569q-125 4 -125 103zM457 1377q0 35 47 75l174 154q41 33 66 33q33 0 54 -21.5t21 -54.5q0 -31 -47 -72l-174 -155q-37 -33 -65 -33q-31 0 -53.5 22.5t-22.5 51.5z" />
<glyph unicode="&#xdb;" d="M20 1092q0 59 35 80.5t101 21.5h266q66 0 100.5 -20.5t34.5 -81.5q0 -102 -135 -103h-72v-588q0 -94 78 -159.5t186.5 -65.5t186.5 65.5t78 159.5v588h-72q-135 0 -135 103q0 59 34.5 80.5t100.5 21.5h266q68 0 101.5 -21.5t33.5 -80.5q0 -102 -125 -103v-569 q0 -199 -139 -324t-329.5 -125t-330 127t-139.5 322v569q-125 4 -125 103zM256 1358q0 25 8 38t41 33l311 193l328 -207q31 -25 31 -57q0 -29 -21.5 -50.5t-48.5 -21.5q-12 0 -59 26l-230 127l-231 -127q-49 -27 -57 -26q-29 0 -50.5 21.5t-21.5 50.5z" />
<glyph unicode="&#xdc;" d="M20 1092q0 59 35 80.5t101 21.5h266q66 0 100.5 -20.5t34.5 -81.5q0 -102 -135 -103h-72v-588q0 -94 78 -159.5t186.5 -65.5t186.5 65.5t78 159.5v588h-72q-135 0 -135 103q0 59 34.5 80.5t100.5 21.5h266q68 0 101.5 -21.5t33.5 -80.5q0 -102 -125 -103v-569 q0 -199 -139 -324t-329.5 -125t-330 127t-139.5 322v569q-125 4 -125 103zM279 1441.5q0 51.5 35.5 87t87 35.5t87 -35.5t35.5 -89.5q0 -49 -35.5 -84.5t-87 -35.5t-87 35.5t-35.5 87zM705 1441.5q0 51.5 35.5 87t87 35.5t87 -35.5t35.5 -89.5q0 -49 -35.5 -84.5t-87 -35.5 t-87 35.5t-35.5 87z" />
<glyph unicode="&#xdd;" d="M43 1091.5q0 102.5 137 102.5h182q135 0 136 -102q0 -68 -78 -101l194 -278l193 278q-82 31 -82 101q0 61 36 81.5t101 20.5h189q66 0 100.5 -21.5t34.5 -80.5q0 -102 -133 -103l-336 -487v-297h133q137 0 137 -102.5t-137 -102.5h-471q-137 0 -137 102q0 61 35.5 82 t101.5 21h133v297l-338 487q-131 0 -131 102.5zM463 1356q0 35 47 75l174 154q41 33 66 33q33 0 54 -21.5t21 -54.5q0 -31 -47 -72l-174 -155q-37 -33 -65 -33q-31 0 -53.5 22.5t-22.5 51.5z" />
<glyph unicode="&#xde;" d="M29 102.5q0 102.5 135 102.5h31v784h-31q-135 0 -135 102.5t135 102.5h438q135 0 135 -102.5t-135 -102.5h-203v-82h201q141 0 240.5 -28.5t146.5 -77.5t65.5 -97.5t18.5 -105.5t-18.5 -106.5t-65.5 -98.5t-146.5 -77.5t-240.5 -28.5h-201v-82h203q135 0 135 -102.5 t-135 -102.5h-438q-135 0 -135 102.5zM399 492h269q102 0 148 24.5t46 79.5q0 57 -46 81.5t-148 24.5h-269v-210z" />
<glyph unicode="&#xdf;" d="M27 102.5q0 102.5 135 102.5h33v774q0 131 99 214t255 83t260 -98.5t104 -243.5q0 -102 -71 -186q242 -141 241 -410q0 -166 -87 -268.5t-230 -102.5q-106 0 -175 65.5t-69 166.5q0 57 28 88.5t75 31.5q45 0 66.5 -22.5t24.5 -51t18.5 -51t47.5 -22.5q43 0 70 45t27 119 q0 84 -37 143.5t-97.5 88t-97.5 37.5t-78 16q-113 12 -112 102q0 55 39 78.5t87 24.5t87 28t39 86q0 57 -45.5 94t-114.5 37q-150 0 -150 -127v-739q88 -16 88 -101q0 -104 -135 -104h-190q-135 0 -135 102.5z" />
<glyph unicode="&#xe0;" d="M86 244q0 139 137 242.5t359 103.5q92 0 213 -21v47q0 100 -191 101q-84 0 -190.5 -23.5t-128.5 -23.5q-43 0 -72 29.5t-29 74.5q0 66 62 86q174 61 352 62q188 0 295.5 -80t107.5 -224v-413h33q135 0 135 -102.5t-135 -102.5h-239v47q-154 -80 -340 -80 q-152 0 -260.5 81t-108.5 196zM303 252q0 -35 45 -57.5t111 -22.5q168 0 338 104v103q-129 23 -228 22q-104 0 -185 -45t-81 -104zM358 1290q0 31 21.5 52.5t54.5 21.5q24 0 65 -33l195 -166q47 -41 47 -75q0 -29 -22.5 -51.5t-53.5 -22.5q-27 0 -66 33l-194 168 q-47 37 -47 73z" />
<glyph unicode="&#xe1;" d="M86 244q0 139 137 242.5t359 103.5q92 0 213 -21v47q0 100 -191 101q-84 0 -190.5 -23.5t-128.5 -23.5q-43 0 -72 29.5t-29 74.5q0 66 62 86q174 61 352 62q188 0 295.5 -80t107.5 -224v-413h33q135 0 135 -102.5t-135 -102.5h-239v47q-154 -80 -340 -80 q-152 0 -260.5 81t-108.5 196zM303 252q0 -35 45 -57.5t111 -22.5q168 0 338 104v103q-129 23 -228 22q-104 0 -185 -45t-81 -104zM444 1090q0 35 47 75l174 154q41 33 66 33q33 0 54 -21.5t21 -54.5q0 -31 -47 -72l-174 -155q-37 -33 -65 -33q-31 0 -53.5 22.5t-22.5 51.5z " />
<glyph unicode="&#xe2;" d="M86 244q0 139 137 242.5t359 103.5q92 0 213 -21v47q0 100 -191 101q-84 0 -190.5 -23.5t-128.5 -23.5q-43 0 -72 29.5t-29 74.5q0 66 62 86q174 61 352 62q188 0 295.5 -80t107.5 -224v-413h33q135 0 135 -102.5t-135 -102.5h-239v47q-154 -80 -340 -80 q-152 0 -260.5 81t-108.5 196zM231 1088q0 25 8 38t41 33l311 193l328 -207q31 -25 31 -57q0 -29 -21.5 -50.5t-48.5 -21.5q-12 0 -59 26l-230 127l-231 -127q-49 -27 -57 -26q-29 0 -50.5 21.5t-21.5 50.5zM303 252q0 -35 45 -57.5t111 -22.5q168 0 338 104v103 q-129 23 -228 22q-104 0 -185 -45t-81 -104z" />
<glyph unicode="&#xe3;" d="M86 244q0 139 137 242.5t359 103.5q92 0 213 -21v47q0 100 -191 101q-84 0 -190.5 -23.5t-128.5 -23.5q-43 0 -72 29.5t-29 74.5q0 66 62 86q174 61 352 62q188 0 295.5 -80t107.5 -224v-413h33q135 0 135 -102.5t-135 -102.5h-239v47q-154 -80 -340 -80 q-152 0 -260.5 81t-108.5 196zM220 1100q0 47 67.5 109.5t157.5 62.5q57 0 164.5 -49t138.5 -49q35 0 82 49t82 49q27 0 46 -17.5t19 -39.5q0 -43 -68.5 -113t-154.5 -70q-57 0 -165.5 49.5t-139.5 49.5q-43 0 -88 -46t-78 -46q-27 0 -45 18t-18 43zM303 252q0 -35 45 -57.5 t111 -22.5q168 0 338 104v103q-129 23 -228 22q-104 0 -185 -45t-81 -104z" />
<glyph unicode="&#xe4;" d="M86 244q0 139 137 242.5t359 103.5q92 0 213 -21v47q0 100 -191 101q-84 0 -190.5 -23.5t-128.5 -23.5q-43 0 -72 29.5t-29 74.5q0 66 62 86q174 61 352 62q188 0 295.5 -80t107.5 -224v-413h33q135 0 135 -102.5t-135 -102.5h-239v47q-154 -80 -340 -80 q-152 0 -260.5 81t-108.5 196zM263 1159.5q0 51.5 35.5 87t87 35.5t87 -35.5t35.5 -89.5q0 -49 -35.5 -84.5t-87 -35.5t-87 35.5t-35.5 87zM303 252q0 -35 45 -57.5t111 -22.5q168 0 338 104v103q-129 23 -228 22q-104 0 -185 -45t-81 -104zM689 1159.5q0 51.5 35.5 87 t87 35.5t87 -35.5t35.5 -89.5q0 -49 -35.5 -84.5t-87 -35.5t-87 35.5t-35.5 87z" />
<glyph unicode="&#xe5;" d="M86 244q0 139 137 242.5t359 103.5q92 0 213 -21v47q0 100 -191 101q-84 0 -190.5 -23.5t-128.5 -23.5q-43 0 -72 29.5t-29 74.5q0 66 62 86q174 61 352 62q188 0 295.5 -80t107.5 -224v-413h33q135 0 135 -102.5t-135 -102.5h-239v47q-154 -80 -340 -80 q-152 0 -260.5 81t-108.5 196zM303 252q0 -35 45 -57.5t111 -22.5q168 0 338 104v103q-129 23 -228 22q-104 0 -185 -45t-81 -104zM401 1161q0 76 56 130t134 54q80 0 135.5 -54t55.5 -134q0 -74 -56.5 -128t-134 -54t-134 55t-56.5 131zM530 1161q0 -25 18.5 -42t43 -17 t43 17.5t18.5 39.5q0 25 -18.5 42.5t-43 17.5t-43 -17.5t-18.5 -40.5z" />
<glyph unicode="&#xe6;" d="M-27 297q0 80 51.5 141.5t126 91t138 43t110.5 13.5q35 0 123 -11v41q0 43 -27.5 72t-70.5 29q-41 0 -125 -25.5t-106 -25.5q-41 0 -70 30.5t-29 73.5q0 45 42 78t104.5 47t107.5 20.5t76 6.5q135 0 238 -115q106 115 229 115q152 0 256 -132.5t104 -343.5v-94h-514 q27 -96 65 -138t101 -42q53 0 142.5 35t113.5 35q41 0 67.5 -31t26.5 -76q0 -47 -43 -83t-104.5 -52t-112.5 -24.5t-88 -8.5q-109 0 -205 66q-29 -35 -75 -35q-43 0 -74 35q-104 -66 -225 -66q-160 0 -256.5 90t-96.5 240zM180 291q0 -53 39 -86t105 -33q88 0 198 94v121 q-63 16 -114 16q-100 0 -164 -30.5t-64 -81.5zM741 528h287q-29 188 -143 189q-113 0 -144 -189z" />
<glyph unicode="&#xe7;" d="M111 422q0 221 146 360.5t380 139.5q174 0 293 -62q18 61 76 62q63 0 81.5 -34t18.5 -102v-157q0 -135 -102 -135q-55 0 -76 29.5t-33 75.5t-41 67q-84 51 -217 51q-145 0 -233.5 -80t-88.5 -213q0 -252 361 -252q106 0 179 18.5t99.5 39t52 39t48.5 18.5q41 0 71.5 -31 t30.5 -74q0 -59 -55 -104t-138 -66.5t-147.5 -32t-116.5 -12.5q80 -16 117 -58t37 -122q0 -84 -61.5 -140.5t-153.5 -56.5q-80 0 -165 34t-85 95q0 29 21.5 50.5t50.5 21.5q14 0 71.5 -28.5t104.5 -28.5q74 0 74 51q0 70 -115 70q-2 0 -39 -5v121q-41 4 -84 13.5t-112.5 40 t-121 75.5t-90 129t-38.5 193z" />
<glyph unicode="&#xe8;" d="M68 442q0 203 152.5 341.5t375.5 138.5q229 0 379.5 -139.5t150.5 -350.5v-80h-835q70 -180 336 -180q109 0 241.5 34t159.5 34q41 0 69.5 -30t28.5 -73q0 -66 -118.5 -107.5t-222 -52t-177.5 -10.5q-238 0 -389 133t-151 342zM297 532h602q-25 84 -106.5 134.5 t-194.5 50.5t-195.5 -51.5t-105.5 -133.5zM383 1290q0 31 21.5 52.5t54.5 21.5q24 0 65 -33l195 -166q47 -41 47 -75q0 -29 -22.5 -51.5t-53.5 -22.5q-27 0 -66 33l-194 168q-47 37 -47 73z" />
<glyph unicode="&#xe9;" d="M68 442q0 203 152.5 341.5t375.5 138.5q229 0 379.5 -139.5t150.5 -350.5v-80h-835q70 -180 336 -180q109 0 241.5 34t159.5 34q41 0 69.5 -30t28.5 -73q0 -66 -118.5 -107.5t-222 -52t-177.5 -10.5q-238 0 -389 133t-151 342zM297 532h602q-25 84 -106.5 134.5 t-194.5 50.5t-195.5 -51.5t-105.5 -133.5zM469 1088q0 35 47 75l174 154q41 33 66 33q33 0 54 -21.5t21 -54.5q0 -31 -47 -72l-174 -155q-37 -33 -65 -33q-31 0 -53.5 22.5t-22.5 51.5z" />
<glyph unicode="&#xea;" d="M68 442q0 203 152.5 341.5t375.5 138.5q229 0 379.5 -139.5t150.5 -350.5v-80h-835q70 -180 336 -180q109 0 241.5 34t159.5 34q41 0 69.5 -30t28.5 -73q0 -66 -118.5 -107.5t-222 -52t-177.5 -10.5q-238 0 -389 133t-151 342zM231 1088q0 25 8 38t41 33l311 193 l328 -207q31 -25 31 -57q0 -29 -21.5 -50.5t-48.5 -21.5q-12 0 -59 26l-230 127l-231 -127q-49 -27 -57 -26q-29 0 -50.5 21.5t-21.5 50.5zM297 532h602q-25 84 -106.5 134.5t-194.5 50.5t-195.5 -51.5t-105.5 -133.5z" />
<glyph unicode="&#xeb;" d="M68 442q0 203 152.5 341.5t375.5 138.5q229 0 379.5 -139.5t150.5 -350.5v-80h-835q70 -180 336 -180q109 0 241.5 34t159.5 34q41 0 69.5 -30t28.5 -73q0 -66 -118.5 -107.5t-222 -52t-177.5 -10.5q-238 0 -389 133t-151 342zM261 1155.5q0 51.5 35.5 87t87 35.5 t87 -35.5t35.5 -89.5q0 -49 -35.5 -84.5t-87 -35.5t-87 35.5t-35.5 87zM297 532h602q-25 84 -106.5 134.5t-194.5 50.5t-195.5 -51.5t-105.5 -133.5zM687 1155.5q0 51.5 35.5 87t87 35.5t87 -35.5t35.5 -89.5q0 -49 -35.5 -84.5t-87 -35.5t-87 35.5t-35.5 87z" />
<glyph unicode="&#xec;" d="M127 102q0 59 35 81t100 22h250v485h-160q-137 1 -137 103q0 61 36 81.5t101 20.5h365v-690h250q135 0 135 -102.5t-135 -102.5h-705q-135 0 -135 102zM358 1290q0 31 21.5 52.5t54.5 21.5q24 0 65 -33l195 -166q47 -41 47 -75q0 -29 -22.5 -51.5t-53.5 -22.5 q-27 0 -66 33l-194 168q-47 37 -47 73z" />
<glyph unicode="&#xed;" d="M127 102q0 59 35 81t100 22h250v485h-160q-137 1 -137 103q0 61 36 81.5t101 20.5h365v-690h250q135 0 135 -102.5t-135 -102.5h-705q-135 0 -135 102zM424 1092q0 35 47 75l174 154q41 33 66 33q33 0 54 -21.5t21 -54.5q0 -31 -47 -72l-174 -155q-37 -33 -65 -33 q-31 0 -53.5 22.5t-22.5 51.5z" />
<glyph unicode="&#xee;" d="M127 102q0 59 35 81t100 22h250v485h-160q-137 1 -137 103q0 61 36 81.5t101 20.5h365v-690h250q135 0 135 -102.5t-135 -102.5h-705q-135 0 -135 102zM231 1088q0 25 8 38t41 33l311 193l328 -207q31 -25 31 -57q0 -29 -21.5 -50.5t-48.5 -21.5q-12 0 -59 26l-230 127 l-231 -127q-49 -27 -57 -26q-29 0 -50.5 21.5t-21.5 50.5z" />
<glyph unicode="&#xef;" d="M127 102q0 59 35 81t100 22h250v485h-160q-137 1 -137 103q0 61 36 81.5t101 20.5h365v-690h250q135 0 135 -102.5t-135 -102.5h-705q-135 0 -135 102zM279 1161.5q0 51.5 35.5 87t87 35.5t87 -35.5t35.5 -89.5q0 -49 -35.5 -84.5t-87 -35.5t-87 35.5t-35.5 87z M705 1161.5q0 51.5 35.5 87t87 35.5t87 -35.5t35.5 -89.5q0 -49 -35.5 -84.5t-87 -35.5t-87 35.5t-35.5 87z" />
<glyph unicode="&#xf0;" d="M86 432q0 197 146.5 336t353.5 139q78 0 138 -19.5t157 -76.5q-129 162 -281 250l-188 -103q-43 -25 -66 -24q-27 0 -44 21.5t-17 54.5q0 20 8 30.5t41 28.5l102 59q-16 8 -43.5 19.5t-36.5 15.5l-32 11q-53 18 -54 63q0 29 24.5 51.5t57.5 22.5q70 0 203 -64l57 -26 l158 84q37 18 68 18q27 0 45 -19.5t18 -48.5q0 -35 -47 -61l-92 -51q199 -137 290 -298t91 -368q0 -117 -37 -209t-93.5 -147t-130 -91t-139 -49.5t-129.5 -13.5q-219 0 -373.5 136.5t-154.5 328.5zM295 434q0 -109 93 -185.5t226 -76.5q131 0 225.5 76t94.5 182 q0 121 -92.5 204t-227.5 83q-133 0 -226 -82t-93 -201z" />
<glyph unicode="&#xf1;" d="M47 102.5q0 102.5 135 102.5h13v485q-125 4 -125 103q0 102 137 102h192v-98q74 70 135.5 97.5t145.5 27.5q160 0 262 -90.5t102 -253.5v-373q125 0 125 -102.5t-135 -102.5h-182q-137 0 -137 102.5t125 102.5v364q0 147 -185 148q-72 0 -128 -31t-128 -108v-373h13 q135 0 135 -102.5t-135 -102.5h-230q-135 0 -135 102.5zM230 1128q0 47 67.5 109.5t157.5 62.5q57 0 164.5 -49t138.5 -49q35 0 82 49t82 49q27 0 46 -17.5t19 -39.5q0 -43 -68.5 -113t-154.5 -70q-57 0 -165.5 49.5t-139.5 49.5q-43 0 -88 -46t-78 -46q-27 0 -45 18t-18 43 z" />
<glyph unicode="&#xf2;" d="M86 444q0 203 154 340.5t381 137.5q217 0 369.5 -139.5t152.5 -338.5q0 -201 -153.5 -339t-375 -138t-375 138.5t-153.5 338.5zM291 444q0 -115 93 -193.5t230.5 -78.5t230.5 79t93 193.5t-93.5 193.5t-226.5 79q-139 0 -233 -78t-94 -195zM379 1290q0 31 21.5 52.5 t54.5 21.5q24 0 65 -33l195 -166q47 -41 47 -75q0 -29 -22.5 -51.5t-53.5 -22.5q-27 0 -66 33l-194 168q-47 37 -47 73z" />
<glyph unicode="&#xf3;" d="M86 444q0 203 154 340.5t381 137.5q217 0 369.5 -139.5t152.5 -338.5q0 -201 -153.5 -339t-375 -138t-375 138.5t-153.5 338.5zM291 444q0 -115 93 -193.5t230.5 -78.5t230.5 79t93 193.5t-93.5 193.5t-226.5 79q-139 0 -233 -78t-94 -195zM467 1090q0 35 47 75l174 154 q41 33 66 33q33 0 54 -21.5t21 -54.5q0 -31 -47 -72l-174 -155q-37 -33 -65 -33q-31 0 -53.5 22.5t-22.5 51.5z" />
<glyph unicode="&#xf4;" d="M86 444q0 203 154 340.5t381 137.5q217 0 369.5 -139.5t152.5 -338.5q0 -201 -153.5 -339t-375 -138t-375 138.5t-153.5 338.5zM231 1088q0 25 8 38t41 33l311 193l328 -207q31 -25 31 -57q0 -29 -21.5 -50.5t-48.5 -21.5q-12 0 -59 26l-230 127l-231 -127 q-49 -27 -57 -26q-29 0 -50.5 21.5t-21.5 50.5zM291 444q0 -115 93 -193.5t230.5 -78.5t230.5 79t93 193.5t-93.5 193.5t-226.5 79q-139 0 -233 -78t-94 -195z" />
<glyph unicode="&#xf5;" d="M86 444q0 203 154 340.5t381 137.5q217 0 369.5 -139.5t152.5 -338.5q0 -201 -153.5 -339t-375 -138t-375 138.5t-153.5 338.5zM224 1132q0 47 67.5 109.5t157.5 62.5q57 0 164.5 -49t138.5 -49q35 0 82 49t82 49q27 0 46 -17.5t19 -39.5q0 -43 -68.5 -113t-154.5 -70 q-57 0 -165.5 49.5t-139.5 49.5q-43 0 -88 -46t-78 -46q-27 0 -45 18t-18 43zM291 444q0 -115 93 -193.5t230.5 -78.5t230.5 79t93 193.5t-93.5 193.5t-226.5 79q-139 0 -233 -78t-94 -195z" />
<glyph unicode="&#xf6;" d="M86 444q0 203 154 340.5t381 137.5q217 0 369.5 -139.5t152.5 -338.5q0 -201 -153.5 -339t-375 -138t-375 138.5t-153.5 338.5zM285 1155.5q0 51.5 35.5 87t87 35.5t87 -35.5t35.5 -89.5q0 -49 -35.5 -84.5t-87 -35.5t-87 35.5t-35.5 87zM291 444q0 -115 93 -193.5 t230.5 -78.5t230.5 79t93 193.5t-93.5 193.5t-226.5 79q-139 0 -233 -78t-94 -195zM711 1155.5q0 51.5 35.5 87t87 35.5t87 -35.5t35.5 -89.5q0 -49 -35.5 -84.5t-87 -35.5t-87 35.5t-35.5 87z" />
<glyph unicode="&#xf7;" d="M86 573.5q0 102.5 135 102.5h787q135 0 135 -102.5t-135 -102.5h-787q-135 0 -135 102.5zM461 192.5q0 59.5 42 97.5t111.5 38t111.5 -37t42 -101q0 -59 -42 -96t-111.5 -37t-111.5 38t-42 97.5zM461 954.5q0 59.5 42 97.5t111.5 38t111.5 -37t42 -101q0 -59 -42 -96 t-111.5 -37t-111.5 38t-42 97.5z" />
<glyph unicode="&#xf8;" d="M47 -45q0 39 51 90l99 102q-111 137 -111 297q0 199 152.5 338.5t371.5 139.5q154 0 275 -64l98 100q53 53 94 53.5t69 -28.5t27.5 -68t-51.5 -92l-86 -88q106 -135 107 -291q0 -201 -153.5 -339t-375.5 -138q-135 0 -262 62l-114 -119q-53 -53 -93 -53q-41 0 -69.5 28.5 t-28.5 69.5zM291 444q0 -77 51 -147l389 403q-70 16 -117 17q-137 0 -230 -79t-93 -194zM506 186q51 -14 106 -14q137 0 231.5 79t94.5 193q0 70 -45 142z" />
<glyph unicode="&#xf9;" d="M27 793q0 59 34.5 80.5t100.5 21.5h237v-569q0 -147 181 -148q78 0 129 27.5t131 111.5v373h-72h-20q-61 0 -88 32t-27 71q0 102 135 102h276v-690q125 0 125 -102.5t-135 -102.5h-194v98q-76 -72 -136.5 -98.5t-144.5 -26.5q-162 0 -263 91.5t-101 254.5v371h-56 q-51 0 -81.5 29t-30.5 74zM375 1290q0 31 21.5 52.5t54.5 21.5q24 0 65 -33l195 -166q47 -41 47 -75q0 -29 -22.5 -51.5t-53.5 -22.5q-27 0 -66 33l-194 168q-47 37 -47 73z" />
<glyph unicode="&#xfa;" d="M27 793q0 59 34.5 80.5t100.5 21.5h237v-569q0 -147 181 -148q78 0 129 27.5t131 111.5v373h-72h-20q-61 0 -88 32t-27 71q0 102 135 102h276v-690q125 0 125 -102.5t-135 -102.5h-194v98q-76 -72 -136.5 -98.5t-144.5 -26.5q-162 0 -263 91.5t-101 254.5v371h-56 q-51 0 -81.5 29t-30.5 74zM438 1092q0 35 47 75l174 154q41 33 66 33q33 0 54 -21.5t21 -54.5q0 -31 -47 -72l-174 -155q-37 -33 -65 -33q-31 0 -53.5 22.5t-22.5 51.5z" />
<glyph unicode="&#xfb;" d="M27 793q0 59 34.5 80.5t100.5 21.5h237v-569q0 -147 181 -148q78 0 129 27.5t131 111.5v373h-72h-20q-61 0 -88 32t-27 71q0 102 135 102h276v-690q125 0 125 -102.5t-135 -102.5h-194v98q-76 -72 -136.5 -98.5t-144.5 -26.5q-162 0 -263 91.5t-101 254.5v371h-56 q-51 0 -81.5 29t-30.5 74zM231 1088q0 25 8 38t41 33l311 193l328 -207q31 -25 31 -57q0 -29 -21.5 -50.5t-48.5 -21.5q-12 0 -59 26l-230 127l-231 -127q-49 -27 -57 -26q-29 0 -50.5 21.5t-21.5 50.5z" />
<glyph unicode="&#xfc;" d="M27 793q0 59 34.5 80.5t100.5 21.5h237v-569q0 -147 181 -148q78 0 129 27.5t131 111.5v373h-72h-20q-61 0 -88 32t-27 71q0 102 135 102h276v-690q125 0 125 -102.5t-135 -102.5h-194v98q-76 -72 -136.5 -98.5t-144.5 -26.5q-162 0 -263 91.5t-101 254.5v371h-56 q-51 0 -81.5 29t-30.5 74zM267 1161.5q0 51.5 35.5 87t87 35.5t87 -35.5t35.5 -89.5q0 -49 -35.5 -84.5t-87 -35.5t-87 35.5t-35.5 87zM693 1161.5q0 51.5 35.5 87t87 35.5t87 -35.5t35.5 -89.5q0 -49 -35.5 -84.5t-87 -35.5t-87 35.5t-35.5 87z" />
<glyph unicode="&#xfd;" d="M43 -307q0 102 135 102h205l113 211l-353 684q-100 12 -100 103q0 102 135 102h184q66 0 101 -21.5t35 -80.5q0 -98 -121 -103l233 -457l246 457q-131 0 -131 102.5t137 102.5h189q66 0 100.5 -21.5t34.5 -80.5q0 -92 -107 -103l-471 -895h10q66 0 101 -21.5t35 -80.5 q0 -102 -136 -103h-440h-20q-61 0 -88 32t-27 71zM538 1119q0 35 47 75l174 154q41 33 66 33q33 0 54 -21.5t21 -54.5q0 -31 -47 -72l-174 -155q-37 -33 -65 -33q-31 0 -53.5 22.5t-22.5 51.5z" />
<glyph unicode="&#xfe;" d="M-16 -307.5q0 102.5 135 102.5h33v1278h-33q-66 0 -100.5 22t-34.5 81q0 102 135 102h237v-475q76 66 147.5 92.5t168.5 26.5q213 0 355 -132.5t142 -330.5q0 -188 -141 -313.5t-354 -125.5q-168 0 -318 115v-340h119q68 0 101.5 -21.5t33.5 -80.5q0 -102 -135 -103h-356 q-135 0 -135 102.5zM356 473q0 -109 85 -178.5t221 -69.5q133 0 218 70t85 176.5t-84 176t-219 69.5q-137 0 -221.5 -69.5t-84.5 -174.5z" />
<glyph unicode="&#xff;" d="M43 -307q0 102 135 102h205l113 211l-353 684q-100 12 -100 103q0 102 135 102h184q66 0 101 -21.5t35 -80.5q0 -98 -121 -103l233 -457l246 457q-131 0 -131 102.5t137 102.5h189q66 0 100.5 -21.5t34.5 -80.5q0 -92 -107 -103l-471 -895h10q66 0 101 -21.5t35 -80.5 q0 -102 -136 -103h-440h-20q-61 0 -88 32t-27 71zM279 1157.5q0 51.5 35.5 87t87 35.5t87 -35.5t35.5 -89.5q0 -49 -35.5 -84.5t-87 -35.5t-87 35.5t-35.5 87zM705 1157.5q0 51.5 35.5 87t87 35.5t87 -35.5t35.5 -89.5q0 -49 -35.5 -84.5t-87 -35.5t-87 35.5t-35.5 87z" />
<glyph unicode="&#x152;" d="M-41 598q0 260 161 428t410 168h684v-338q0 -135 -102 -135t-102 135v133h-260v-289h38q6 113 101 113q59 0 80.5 -35t21.5 -100v-160q0 -135 -102 -135q-45 0 -71.5 30.5t-29.5 84.5h-38v-293h301v45q0 135 102 135q59 0 79.5 -35t20.5 -100v-250h-723 q-250 0 -410.5 169t-160.5 429zM164 596q0 -49 11 -100.5t40 -104.5t70 -94t108.5 -66.5t151.5 -25.5v784q-111 -2 -191 -43t-118.5 -104.5t-55 -124t-16.5 -121.5z" />
<glyph unicode="&#x153;" d="M-23 434q0 205 108 346.5t263 141.5q158 0 273 -164q108 164 272 164q152 0 256 -132.5t104 -347.5v-92h-516q41 -178 172 -178q59 0 142.5 34t103.5 34q41 0 70.5 -31t29.5 -76q0 -49 -45 -85t-111.5 -51t-117.5 -22.5t-84 -7.5q-170 0 -276 152q-111 -152 -271 -152 q-156 0 -264.5 136.5t-108.5 330.5zM182 442q0 -111 50.5 -190.5t119.5 -79.5q72 0 122 79t50 189q0 115 -50 195t-122 80q-70 0 -120 -80t-50 -193zM743 526h289q-37 188 -143 189q-43 0 -75 -33t-45.5 -67t-25.5 -89z" />
<glyph unicode="&#x178;" d="M43 1091.5q0 102.5 137 102.5h182q135 0 136 -102q0 -68 -78 -101l194 -278l193 278q-82 31 -82 101q0 61 36 81.5t101 20.5h189q66 0 100.5 -21.5t34.5 -80.5q0 -102 -133 -103l-336 -487v-297h133q137 0 137 -102.5t-137 -102.5h-471q-137 0 -137 102q0 61 35.5 82 t101.5 21h133v297l-338 487q-131 0 -131 102.5zM279 1404.5q0 51.5 35.5 87t87 35.5t87 -35.5t35.5 -89.5q0 -49 -35.5 -84.5t-87 -35.5t-87 35.5t-35.5 87zM705 1404.5q0 51.5 35.5 87t87 35.5t87 -35.5t35.5 -89.5q0 -49 -35.5 -84.5t-87 -35.5t-87 35.5t-35.5 87z" />
<glyph unicode="&#x2c6;" d="M256 1090q0 25 8 38t41 33l311 193l328 -207q31 -25 31 -57q0 -29 -21.5 -50.5t-48.5 -21.5q-12 0 -59 26l-230 127l-231 -127q-49 -27 -57 -26q-29 0 -50.5 21.5t-21.5 50.5z" />
<glyph unicode="&#x2dc;" d="M236 1155q0 47 67.5 109.5t157.5 62.5q57 0 164.5 -49t138.5 -49q35 0 82 49t82 49q27 0 46 -17.5t19 -39.5q0 -43 -68.5 -113t-154.5 -70q-57 0 -165.5 49.5t-139.5 49.5q-43 0 -88 -46t-78 -46q-27 0 -45 18t-18 43z" />
<glyph unicode="&#x2000;" horiz-adv-x="819" />
<glyph unicode="&#x2001;" horiz-adv-x="1639" />
<glyph unicode="&#x2002;" horiz-adv-x="819" />
<glyph unicode="&#x2003;" horiz-adv-x="1639" />
<glyph unicode="&#x2004;" horiz-adv-x="546" />
<glyph unicode="&#x2005;" horiz-adv-x="409" />
<glyph unicode="&#x2006;" horiz-adv-x="273" />
<glyph unicode="&#x2007;" horiz-adv-x="273" />
<glyph unicode="&#x2008;" horiz-adv-x="204" />
<glyph unicode="&#x2009;" horiz-adv-x="327" />
<glyph unicode="&#x200a;" horiz-adv-x="91" />
<glyph unicode="&#x2010;" d="M86 571.5q0 102.5 135 102.5h787q68 0 101.5 -22t33.5 -81q0 -102 -135 -102h-787q-135 0 -135 102.5z" />
<glyph unicode="&#x2011;" d="M86 571.5q0 102.5 135 102.5h787q68 0 101.5 -22t33.5 -81q0 -102 -135 -102h-787q-135 0 -135 102.5z" />
<glyph unicode="&#x2012;" d="M86 571.5q0 102.5 135 102.5h787q68 0 101.5 -22t33.5 -81q0 -102 -135 -102h-787q-135 0 -135 102.5z" />
<glyph unicode="&#x2013;" d="M86 571.5q0 102.5 135 102.5h787q68 0 101.5 -22t33.5 -81q0 -102 -135 -102h-787q-135 0 -135 102.5z" />
<glyph unicode="&#x2014;" d="M0 571q0 59 35 81t100 22h959q66 0 100.5 -22t34.5 -81q0 -102 -135 -102h-959q-135 0 -135 102z" />
<glyph unicode="&#x2018;" d="M614 899l187 354q25 49 65 50q27 0 45.5 -17.5t18.5 -40.5q0 -16 -6 -39l-86 -307l49 -194h-271z" />
<glyph unicode="&#x2019;" d="M301 735q0 16 6 39l86 307l-49 195h270l2 -195l-186 -354q-25 -49 -65 -49q-27 0 -45.5 17.5t-18.5 39.5z" />
<glyph unicode="&#x201a;" d="M395 -293q0 16 6 39l86 307l-49 195h271l2 -195l-187 -354q-25 -49 -65 -49q-27 0 -45.5 17.5t-18.5 39.5z" />
<glyph unicode="&#x201c;" d="M311 899l187 354q25 49 65 50q27 0 45.5 -17.5t18.5 -40.5q0 -16 -6 -39l-86 -307l49 -194h-271zM731 899l187 354q25 49 65 50q27 0 45.5 -17.5t18.5 -40.5q0 -16 -6 -39l-86 -307l49 -194h-271z" />
<glyph unicode="&#x201d;" d="M184 756q0 16 6 39l86 307l-49 194h271l2 -194l-187 -354q-25 -49 -65 -50q-27 0 -45.5 17.5t-18.5 40.5zM604 756q0 16 6 39l86 307l-49 194h271l2 -194l-187 -354q-25 -49 -65 -50q-27 0 -45.5 17.5t-18.5 40.5z" />
<glyph unicode="&#x201e;" d="M188 -293q0 16 6 39l86 307l-49 195h271l2 -195l-187 -354q-25 -49 -65 -49q-27 0 -45.5 17.5t-18.5 39.5zM608 -293q0 16 6 39l86 307l-49 195h271l2 -195l-187 -354q-25 -49 -65 -49q-27 0 -45.5 17.5t-18.5 39.5z" />
<glyph unicode="&#x2022;" d="M307 623q0 127 90 216t215 89q129 0 218.5 -89t89.5 -221q0 -125 -90.5 -214t-217.5 -89t-216 90.5t-89 217.5z" />
<glyph unicode="&#x2026;" d="M51 104.5q0 55.5 40 95.5t95 40h37q57 0 96 -39t39 -96.5t-39 -96.5t-96 -39h-37q-55 0 -95 40t-40 95.5zM461 104.5q0 55.5 40 95.5t95 40h37q57 0 96 -39t39 -96.5t-39 -96.5t-96 -39h-37q-55 0 -95 40t-40 95.5zM870 104.5q0 55.5 40 95.5t96 40h36q57 0 96.5 -39 t39.5 -96.5t-39.5 -96.5t-96.5 -39h-36q-55 0 -95.5 40t-40.5 95.5z" />
<glyph unicode="&#x202f;" horiz-adv-x="327" />
<glyph unicode="&#x2039;" d="M68 446l507 377q35 27 60 27q27 0 46 -18.5t19 -43.5q0 -23 -32 -55l-310 -287l310 -288q33 -31 32.5 -55.5t-21 -43t-46.5 -18.5q-23 0 -58 27z" />
<glyph unicode="&#x203a;" d="M538.5 788.5q0.5 24.5 21 43t46.5 18.5q23 0 58 -27l505 -379l-505 -376q-35 -27 -60 -27q-27 0 -46 18.5t-19 42.5q0 23 32 56l310 286l-310 289q-33 31 -32.5 55.5z" />
<glyph unicode="&#x205f;" horiz-adv-x="409" />
<glyph unicode="&#x20ac;" d="M35 477.5q0 57.5 55 57.5h57v86h-57q-55 0 -55 57t55 57h64q25 209 188.5 348.5t362.5 139.5q174 0 313 -72q35 49 78 49q47 0 71.5 -26.5t24.5 -73.5q0 -16 -4 -35l-66 -178q-18 -49 -26.5 -68.5t-34 -43t-62.5 -23.5t-58 34.5t-21 96.5q0 47 -9.5 63.5t-42.5 34.5 q-66 37 -155 37q-115 0 -222.5 -80t-130.5 -203h420q57 0 57.5 -57t-57.5 -57h-428v-86h373q55 0 55 -57.5t-55 -57.5h-363q23 -111 139.5 -177.5t252.5 -66.5q86 0 149.5 20.5t91 44t56 44t53.5 20.5q39 0 66.5 -30.5t27.5 -71.5q0 -86 -134 -159t-319 -73q-217 0 -388 125 t-203 324h-64q-55 0 -55 57.5z" />
<glyph unicode="&#x2122;" d="M-68 944v250h594v-250q0 -94 -75.5 -94t-75.5 94v100h-72v-444h45q96 0 96 -74q0 -76 -96 -75h-242q-94 0 -94 75q0 74 94 74h48v444h-72v-100q0 -94 -76 -94q-74 0 -74 94zM545 526q0 68 73 74v447q-63 10 -63 73q0 74 94 74h150l108 -264l107 264h151q94 0 95 -74 q0 -63 -64 -73v-447q33 -2 53.5 -22.5t20.5 -51.5q0 -76 -94 -75h-129q-96 0 -97 75q0 74 97 74v279l-115 -258h-39l-125 262v-283q96 0 96 -74q0 -76 -96 -75h-129q-94 0 -94 75z" />
<glyph unicode="&#x2190;" d="M61 575l431 281q16 10 32 10q68 0 68 -75q0 -35 -62 -72l-116 -74h680q31 0 52 -18.5t21 -48.5q0 -68 -73 -68h-686l122 -78q62 -39 62 -72q0 -35 -18.5 -55t-51.5 -20q-14 0 -30 10z" />
<glyph unicode="&#x2191;" d="M324 668q0 14 10 30l280 431l281 -431q10 -16 10 -32q0 -68 -75 -68q-35 0 -72 62l-74 116v-680q0 -31 -18.5 -52t-48.5 -21q-68 0 -68 73v686l-78 -122q-39 -62 -72 -62q-35 0 -55 18.5t-20 51.5z" />
<glyph unicode="&#x2192;" d="M62 573q0 68 73 68h686l-122 78q-62 39 -62 72q0 35 18.5 55t51.5 20q14 0 30 -10l431 -280l-431 -281q-16 -10 -32 -10q-68 0 -68 75q0 35 62 72l116 74h-680q-31 0 -52 18.5t-21 48.5z" />
<glyph unicode="&#x2193;" d="M324 485q0 68 75 68q35 0 72 -62l74 -116v680q0 31 18.5 52t48.5 21q68 0 68 -73v-686l78 122q39 62 72 62q35 0 55 -18.5t20 -51.5q0 -14 -10 -30l-280 -431l-281 431q-10 16 -10 32z" />
<glyph unicode="&#x2194;" d="M20 575l431 281q16 10 30 10q70 0 70 -75q0 -33 -62 -72l-118 -74h489l-121 74q-61 37 -61 71.5t19.5 55t52.5 20.5q16 0 28 -10l430 -281l-430 -280q-16 -10 -30 -10q-70 0 -70 77q0 33 61 70l117 74l-489 4l122 -78q62 -39 62 -72q0 -35 -19.5 -55t-52.5 -20 q-12 0 -28 10z" />
<glyph unicode="&#x2195;" d="M324 442q0 70 75 70q33 0 72 -62l74 -118v489l-74 -121q-37 -61 -71.5 -61t-55 19.5t-20.5 52.5q0 16 10 28l281 430l280 -430q10 -16 10 -30q0 -70 -77 -70q-33 0 -70 61l-74 117l-4 -489l78 122q39 62 72 62q35 0 55 -19.5t20 -52.5q0 -12 -10 -28l-280 -431l-281 431 q-10 16 -10 30z" />
<glyph unicode="&#x2196;" d="M223 967l502 -107q23 -4 38 -22.5t15 -38.5q0 -25 -21.5 -47.5t-49.5 -22.5q-20 0 -52 8l-133 29l479 -479q25 -25 25 -56q0 -25 -20.5 -46t-44.5 -21q-29 0 -54 26l-485 486l31 -141q8 -33 8 -52q0 -31 -21.5 -50t-48.5 -19q-23 0 -40 14t-21 37z" />
<glyph unicode="&#x2197;" d="M223 229q0 29 26 54l486 485l-141 -31q-33 -8 -52 -8q-31 0 -50 21.5t-19 48.5q0 23 14 40t37 21l502 107l-107 -502q-4 -23 -22.5 -38t-38.5 -15q-25 0 -47.5 21.5t-22.5 49.5q0 20 8 52l29 133l-479 -479q-25 -25 -56 -25q-25 0 -46 20.5t-21 44.5z" />
<glyph unicode="&#x2198;" d="M223 899q0 25 20.5 46t44.5 21q29 0 54 -26l485 -486l-31 141q-8 33 -8 52q0 31 21.5 50t48.5 19q23 0 40 -14t21 -37l107 -502l-502 107q-23 4 -38 22.5t-15 38.5q0 25 21.5 47.5t49.5 22.5q20 0 52 -8l133 -29l-479 479q-25 25 -25 56z" />
<glyph unicode="&#x2199;" d="M223 164l107 502q4 23 22.5 38t38.5 15q25 0 47.5 -21.5t22.5 -49.5q0 -20 -8 -52l-29 -133l479 479q25 25 56 25q25 0 46 -20.5t21 -44.5q0 -29 -26 -54l-486 -485l141 31q33 8 52 8q31 0 50 -21.5t19 -48.5q0 -23 -14 -40t-37 -21z" />
<glyph unicode="&#x21a4;" d="M61 575l431 281q16 10 30 10q70 0 70 -75q0 -35 -62 -72l-116 -74h618v146q0 31 18.5 52t49.5 21q68 0 67 -73v-433q0 -31 -18.5 -52t-48.5 -21q-68 0 -68 73v152h-624l122 -78q61 -39 62 -72q0 -35 -19.5 -55t-52.5 -20q-12 0 -28 10z" />
<glyph unicode="&#x21a5;" d="M324 90q0 68 73 68h152v624l-78 -122q-39 -61 -72 -62q-35 0 -55 19.5t-20 52.5q0 12 10 28l280 431l281 -431q10 -16 10 -30q0 -70 -75 -70q-35 0 -72 62l-74 116v-618h146q31 0 52 -18.5t21 -49.5q0 -68 -73 -67h-433q-31 0 -52 18.5t-21 48.5z" />
<glyph unicode="&#x21a6;" d="M62 360v433q0 31 18.5 52t48.5 21q68 0 68 -73v-152h624l-122 78q-61 39 -62 72q0 35 19.5 55t52.5 20q12 0 28 -10l431 -280l-431 -281q-16 -10 -30 -10q-70 0 -70 75q0 35 62 72l116 74h-618v-146q0 -31 -18.5 -52t-49.5 -21q-68 0 -67 73z" />
<glyph unicode="&#x21a7;" d="M324 483q0 70 75 70q35 0 72 -62l74 -116v618h-146q-31 0 -52 18.5t-21 49.5q0 68 73 67h433q31 0 52 -18.5t21 -48.5q0 -68 -73 -68h-152v-624l78 122q39 61 72 62q35 0 55 -19.5t20 -52.5q0 -12 -10 -28l-280 -431l-281 431q-10 16 -10 30z" />
<glyph unicode="&#x21b9;" d="M61 841l431 281q16 10 30 10q70 0 70 -75q0 -35 -62 -72l-116 -74h618v146q0 31 18.5 52t49.5 21q68 0 67 -73v-433q0 -31 -18.5 -52t-48.5 -21q-68 0 -68 73v152h-624l122 -78q61 -39 62 -72q0 -35 -19.5 -55t-52.5 -20q-12 0 -28 10zM62 36v433q0 31 18.5 52t48.5 21 q68 0 68 -73v-152h624l-122 78q-61 39 -62 72q0 35 19.5 55t52.5 20q12 0 28 -10l431 -280l-431 -281q-16 -10 -30 -10q-70 0 -70 75q0 35 62 72l116 74h-618v-146q0 -31 -18.5 -52t-49.5 -21q-68 0 -67 73z" />
<glyph unicode="&#x21bc;" d="M61 455l523 346q16 10 30 10q70 0 70 -76q0 -35 -61 -71l-117 -74h588q31 0 52 -18.5t21 -49.5q0 -68 -73 -67h-1033z" />
<glyph unicode="&#x21bd;" d="M61 461h1033q74 0 73 -68q0 -31 -21.5 -49t-51.5 -18h-588l117 -74q61 -37 61 -72q0 -76 -70 -76q-14 0 -30 11z" />
<glyph unicode="&#x21be;" d="M621 75v1033l346 -523q10 -16 10 -30q0 -70 -76 -70q-35 0 -71 61l-74 117v-588q0 -31 -18.5 -52t-49.5 -21q-68 0 -67 73z" />
<glyph unicode="&#x21bf;" d="M251 555q0 14 11 30l346 523v-1033q0 -74 -68 -73q-31 0 -49 21.5t-18 51.5v588l-74 -117q-37 -61 -72 -61q-76 0 -76 70z" />
<glyph unicode="&#x21c0;" d="M62 541q0 31 21.5 49t51.5 18h588l-117 74q-61 37 -61 72q0 76 70 76q14 0 30 -11l523 -346h-1033q-74 0 -73 68z" />
<glyph unicode="&#x21c1;" d="M62 396q0 68 73 67h1033l-523 -346q-16 -10 -30 -10q-70 0 -70 76q0 35 61 71l117 74h-588q-31 0 -52 18.5t-21 49.5z" />
<glyph unicode="&#x21c2;" d="M614 2v1033q0 74 68 73q31 0 49 -21.5t18 -51.5v-588l74 117q37 61 72 61q76 0 76 -70q0 -14 -11 -30z" />
<glyph unicode="&#x21c3;" d="M258 555q0 70 76 70q35 0 71 -61l74 -117v588q0 31 18.5 52t49.5 21q68 0 67 -73v-1033l-346 523q-10 16 -10 30z" />
<glyph unicode="&#x21c4;" d="M61 303l431 281q16 10 32 10q68 0 68 -75q0 -35 -62 -72l-116 -74h680q31 0 52 -18.5t21 -48.5q0 -68 -73 -68h-686l122 -78q62 -39 62 -72q0 -35 -18.5 -55t-51.5 -20q-14 0 -30 10zM62 882q0 68 73 68h686l-122 78q-62 39 -62 72q0 35 18.5 55t51.5 20q14 0 30 -10 l431 -280l-431 -281q-16 -10 -32 -10q-68 0 -68 75q0 35 62 72l116 74h-680q-31 0 -52 18.5t-21 48.5z" />
<glyph unicode="&#x21c5;" d="M33 686q0 14 10 30l280 431l281 -431q10 -16 10 -32q0 -68 -75 -68q-35 0 -72 62l-74 116v-680q0 -31 -18.5 -52t-48.5 -21q-68 0 -68 73v686l-78 -122q-39 -62 -72 -62q-35 0 -55 18.5t-20 51.5zM615 503q0 68 75 68q35 0 72 -62l74 -116v680q0 31 18.5 52t48.5 21 q68 0 68 -73v-686l78 122q39 62 72 62q35 0 55 -18.5t20 -51.5q0 -14 -10 -30l-280 -431l-281 431q-10 16 -10 32z" />
<glyph unicode="&#x21c6;" d="M61 888l431 281q16 10 32 10q68 0 68 -75q0 -35 -62 -72l-116 -74h680q31 0 52 -18.5t21 -48.5q0 -68 -73 -68h-686l122 -78q62 -39 62 -72q0 -35 -18.5 -55t-51.5 -20q-14 0 -30 10zM62 305q0 68 73 68h686l-122 78q-62 39 -62 72q0 35 18.5 55t51.5 20q14 0 30 -10 l431 -280l-431 -281q-16 -10 -32 -10q-68 0 -68 75q0 35 62 72l116 74h-680q-31 0 -52 18.5t-21 48.5z" />
<glyph unicode="&#x21c7;" d="M61 288l431 281q16 10 32 10q68 0 68 -75q0 -35 -62 -72l-116 -74h680q31 0 52 -18.5t21 -48.5q0 -68 -73 -68h-686l122 -78q62 -39 62 -72q0 -35 -18.5 -55t-51.5 -20q-14 0 -30 10zM61 903l431 281q16 10 32 10q68 0 68 -75q0 -35 -62 -72l-116 -74h680q31 0 52 -18.5 t21 -48.5q0 -68 -73 -68h-686l122 -78q62 -39 62 -72q0 -35 -18.5 -55t-51.5 -20q-14 0 -30 10z" />
<glyph unicode="&#x21c8;" d="M16 688q0 14 10 30l280 431l281 -431q10 -16 10 -32q0 -68 -75 -68q-35 0 -72 62l-74 116v-680q0 -31 -18.5 -52t-48.5 -21q-68 0 -68 73v686l-78 -122q-39 -62 -72 -62q-35 0 -55 18.5t-20 51.5zM631 688q0 14 10 30l280 431l281 -431q10 -16 10 -32q0 -68 -75 -68 q-35 0 -72 62l-74 116v-680q0 -31 -18.5 -52t-48.5 -21q-68 0 -68 73v686l-78 -122q-39 -62 -72 -62q-35 0 -55 18.5t-20 51.5z" />
<glyph unicode="&#x21c9;" d="M62 286q0 68 73 68h686l-122 78q-62 39 -62 72q0 35 18.5 55t51.5 20q14 0 30 -10l431 -280l-431 -281q-16 -10 -32 -10q-68 0 -68 75q0 35 62 72l116 74h-680q-31 0 -52 18.5t-21 48.5zM62 901q0 68 73 68h686l-122 78q-62 39 -62 72q0 35 18.5 55t51.5 20q14 0 30 -10 l431 -280l-431 -281q-16 -10 -32 -10q-68 0 -68 75q0 35 62 72l116 74h-680q-31 0 -52 18.5t-21 48.5z" />
<glyph unicode="&#x21ca;" d="M16 506q0 68 75 68q35 0 72 -62l74 -116v680q0 31 18.5 52t48.5 21q68 0 68 -73v-686l78 122q39 62 72 62q35 0 55 -18.5t20 -51.5q0 -14 -10 -30l-280 -431l-281 431q-10 16 -10 32zM631 506q0 68 75 68q35 0 72 -62l74 -116v680q0 31 18.5 52t48.5 21q68 0 68 -73v-686 l78 122q39 62 72 62q35 0 55 -18.5t20 -51.5q0 -14 -10 -30l-280 -431l-281 431q-10 16 -10 32z" />
<glyph unicode="&#x21cb;" d="M61 557l523 346q16 10 30 10q70 0 70 -76q0 -35 -61 -71l-117 -74h588q31 0 52 -18.5t21 -49.5q0 -68 -73 -67h-1033zM62 334q0 68 73 67h1033l-523 -346q-16 -10 -30 -10q-70 0 -70 76q0 35 61 71l117 74h-588q-31 0 -52 18.5t-21 49.5z" />
<glyph unicode="&#x21cc;" d="M61 398h1033q74 0 73 -68q0 -31 -21.5 -49t-51.5 -18h-588l117 -74q61 -37 61 -72q0 -76 -70 -76q-14 0 -30 11zM62 635q0 31 21.5 49t51.5 18h588l-117 74q-61 37 -61 72q0 76 70 76q14 0 30 -11l523 -346h-1033q-74 0 -73 68z" />
<glyph unicode="&#x21d0;" d="M31 506l428 395q39 35 67 35q25 0 46.5 -17.5t21.5 -37.5q0 -39 -16 -52l-123 -116h635q29 0 53 -20.5t24 -45.5q0 -29 -24.5 -50.5t-52.5 -21.5h-756l-70 -69l74 -70h752q29 0 53 -21.5t24 -49.5q0 -25 -24.5 -45.5t-52.5 -20.5h-635l123 -117q16 -12 16 -51 q0 -20 -25.5 -37.5t-50.5 -17.5q-20 0 -59 35z" />
<glyph unicode="&#x21d1;" d="M184 913q0 20 37 62l393 426l398 -426q33 -37 32 -70q0 -25 -16 -45t-37 -20q-41 0 -53 16l-115 123v-983q0 -29 -20.5 -53.5t-44.5 -24.5q-31 0 -52.5 24.5t-21.5 53.5v1102l-70 69q-26 -28 -69 -71v-1100q0 -29 -20.5 -53.5t-49.5 -24.5q-25 0 -45 24.5t-20 53.5v983 l-119 -123q-12 -16 -49 -16q-20 0 -39 24.5t-19 48.5z" />
<glyph unicode="&#x21d2;" d="M31 365q0 29 24.5 50.5t52.5 21.5h756l70 69l-74 70h-752q-29 0 -53 21.5t-24 49.5q0 25 24.5 45.5t52.5 20.5h635l-123 117q-16 12 -16 51q0 20 25.5 37.5t50.5 17.5q20 0 59 -35l428 -395l-428 -395q-39 -35 -67 -35q-25 0 -46.5 17.5t-21.5 37.5q0 39 16 52l123 116 h-635q-29 0 -53 20.5t-24 45.5z" />
<glyph unicode="&#x21d3;" d="M185 352q0 25 16 45t37 20q41 0 53 -16l115 -123v983q0 29 20.5 53.5t44.5 24.5q31 0 52.5 -24.5t21.5 -53.5v-1102l70 -69q26 28 69 71v1100q0 29 20.5 53.5t49.5 24.5q25 0 45 -24.5t20 -53.5v-983l119 123q12 16 49 16q20 0 39 -24.5t19 -48.5q0 -20 -37 -62 l-393 -426l-398 426q-33 37 -32 70z" />
<glyph unicode="&#x21d4;" d="M0 506l428 395q39 35 68 35q25 0 46 -17.5t21 -37.5q0 -39 -16 -52l-123 -116h381l-123 116q-16 12 -16 52q0 20 25.5 37.5t49.5 17.5q20 0 60 -35l428 -395l-428 -395q-39 -35 -68 -35q-25 0 -46 17.5t-21 37.5q0 39 16 51l123 117h-381l123 -117q16 -12 16 -51 q0 -20 -25.5 -37.5t-50.5 -17.5q-20 0 -59 35zM233 506l74 -70h619l69 70l-73 69h-619z" />
<glyph unicode="&#x21d5;" d="M184 188q0 25 16.5 45.5t37.5 20.5q41 0 53 -16l115 -123l4 864l-119 -123q-12 -16 -49 -16q-20 0 -39 24.5t-19 48.5q0 20 37 62l393 426l398 -426q33 -37 32 -70q0 -25 -16 -45t-37 -20q-41 0 -53 16l-115 123l-4 -864l119 123q12 16 49 16q20 0 38.5 -24.5t18.5 -49.5 q0 -20 -36 -61l-394 -426l-397 426q-33 37 -33 69zM545 -4l69 -70l70 72v1100l-70 69l-69 -71v-1100z" />
<glyph unicode="&#x2500;" d="M0 512v205h1229v-205h-1229z" />
<glyph unicode="&#x2501;" d="M0 410v409h1229v-409h-1229z" />
<glyph unicode="&#x2502;" d="M512 -410v2048h205v-2048h-205z" />
<glyph unicode="&#x2503;" d="M410 -410v2048h409v-2048h-409z" />
<glyph unicode="&#x2504;" d="M0 512v205h205v-205h-205zM410 512v205h409v-205h-409zM1024 512v205h205v-205h-205z" />
<glyph unicode="&#x2505;" d="M0 410v409h205v-409h-205zM410 410v409h409v-409h-409zM1024 410v409h205v-409h-205z" />
<glyph unicode="&#x2506;" d="M512 0h205v-410h-205v410zM512 205v819h205v-819h-205zM512 1229v409h205v-409h-205z" />
<glyph unicode="&#x2507;" d="M410 0h409v-410h-409v410zM410 205v819h409v-819h-409zM410 1229v409h409v-409h-409z" />
<glyph unicode="&#x2508;" d="M0 512v205h133v-205h-133zM276 512v205h267v-205h-267zM686 512v205h266v-205h-266zM1096 512v205h133v-205h-133z" />
<glyph unicode="&#x2509;" d="M0 410v409h133v-409h-133zM276 410v409h267v-409h-267zM686 410v409h266v-409h-266zM1096 410v409h133v-409h-133z" />
<glyph unicode="&#x250a;" d="M512 61v424h205v-424h-205zM512 -199h205v-211h-205v211zM512 745v424h205v-424h-205zM512 1427v211h205v-211h-205z" />
<glyph unicode="&#x250b;" d="M410 61v424h409v-424h-409zM410 -199h409v-211h-409v211zM410 745v424h409v-424h-409zM410 1427v211h409v-211h-409z" />
<glyph unicode="&#x250c;" d="M512 -410v1127h717v-205h-512v-922h-205z" />
<glyph unicode="&#x250d;" d="M512 -410v1229h717v-409h-512v-820h-205z" />
<glyph unicode="&#x250e;" d="M410 -410v1127h819v-205h-410v-922h-409z" />
<glyph unicode="&#x250f;" d="M410 -410v1229h819v-409h-410v-820h-409z" />
<glyph unicode="&#x2510;" d="M0 512v205h717v-1127h-205v922h-512z" />
<glyph unicode="&#x2511;" d="M0 410v409h717v-1229h-205v820h-512z" />
<glyph unicode="&#x2512;" d="M0 512v205h819v-1127h-409v922h-410z" />
<glyph unicode="&#x2513;" d="M0 410v409h819v-1229h-409v820h-410z" />
<glyph unicode="&#x2514;" d="M512 512v1126h205v-921h512v-205h-717z" />
<glyph unicode="&#x2515;" d="M512 410v1228h205v-819h512v-409h-717z" />
<glyph unicode="&#x2516;" d="M410 512v1126h409v-921h410v-205h-819z" />
<glyph unicode="&#x2517;" d="M410 410v1228h409v-819h410v-409h-819z" />
<glyph unicode="&#x2518;" d="M0 512v205h512v921h205v-1126h-717z" />
<glyph unicode="&#x2519;" d="M0 410v409h512v819h205v-1228h-717z" />
<glyph unicode="&#x251a;" d="M0 512v205h410v921h409v-1126h-819z" />
<glyph unicode="&#x251b;" d="M0 410v409h410v819h409v-1228h-819z" />
<glyph unicode="&#x251c;" d="M512 -410v2048h205v-921h512v-205h-512v-922h-205z" />
<glyph unicode="&#x251d;" d="M512 -410v2048h205v-819h512v-409h-512v-820h-205z" />
<glyph unicode="&#x251e;" d="M410 512v1126h409v-921h410v-205h-512v-922h-205v922h-102z" />
<glyph unicode="&#x251f;" d="M410 -410v1127h102v921h205v-921h512v-205h-410v-922h-409z" />
<glyph unicode="&#x2520;" d="M410 -410v2048h409v-921h410v-205h-410v-922h-409z" />
<glyph unicode="&#x2521;" d="M410 410v1228h409v-819h410v-409h-512v-820h-205v820h-102z" />
<glyph unicode="&#x2522;" d="M410 -410v1229h102v819h205v-819h512v-409h-410v-820h-409z" />
<glyph unicode="&#x2523;" d="M410 -410v2048h409v-819h410v-409h-410v-820h-409z" />
<glyph unicode="&#x2524;" d="M0 512v205h512v921h205v-2048h-205v922h-512z" />
<glyph unicode="&#x2525;" d="M0 410v409h512v819h205v-2048h-205v820h-512z" />
<glyph unicode="&#x2526;" d="M0 512v205h410v921h409v-1126h-102v-922h-205v922h-512z" />
<glyph unicode="&#x2527;" d="M0 512v205h512v921h205v-921h102v-1127h-409v922h-410z" />
<glyph unicode="&#x2528;" d="M0 512v205h410v921h409v-2048h-409v922h-410z" />
<glyph unicode="&#x2529;" d="M0 410v409h410v819h409v-1228h-102v-820h-205v820h-512z" />
<glyph unicode="&#x252a;" d="M0 410v409h512v819h205v-819h102v-1229h-409v820h-410z" />
<glyph unicode="&#x252b;" d="M0 410v409h410v819h409v-2048h-409v820h-410z" />
<glyph unicode="&#x252c;" d="M0 512v205h1229v-205h-512v-922h-205v922h-512z" />
<glyph unicode="&#x252d;" d="M0 410v409h717v-102h512v-205h-512v-922h-205v820h-512z" />
<glyph unicode="&#x252e;" d="M0 512v205h512v102h717v-409h-512v-820h-205v922h-512z" />
<glyph unicode="&#x252f;" d="M0 410v409h1229v-409h-512v-820h-205v820h-512z" />
<glyph unicode="&#x2530;" d="M0 512v205h1229v-205h-410v-922h-409v922h-410z" />
<glyph unicode="&#x2531;" d="M0 410v409h819v-102h410v-205h-410v-922h-409v820h-410z" />
<glyph unicode="&#x2532;" d="M0 512v205h410v102h819v-409h-410v-820h-409v922h-410z" />
<glyph unicode="&#x2533;" d="M0 410v409h1229v-409h-410v-820h-409v820h-410z" />
<glyph unicode="&#x2534;" d="M0 512v205h512v921h205v-921h512v-205h-1229z" />
<glyph unicode="&#x2535;" d="M0 410v409h512v819h205v-921h512v-205h-512v-102h-717z" />
<glyph unicode="&#x2536;" d="M0 512v205h512v921h205v-819h512v-409h-717v102h-512z" />
<glyph unicode="&#x2537;" d="M0 410v409h512v819h205v-819h512v-409h-1229z" />
<glyph unicode="&#x2538;" d="M0 512v205h410v921h409v-921h410v-205h-1229z" />
<glyph unicode="&#x2539;" d="M0 410v409h410v819h409v-921h410v-205h-410v-102h-819z" />
<glyph unicode="&#x253a;" d="M0 512v205h410v921h409v-819h410v-409h-819v102h-410z" />
<glyph unicode="&#x253b;" d="M0 410v409h410v819h409v-819h410v-409h-1229z" />
<glyph unicode="&#x253c;" d="M0 512v205h512v921h205v-921h512v-205h-512v-922h-205v922h-512z" />
<glyph unicode="&#x253d;" d="M0 410v409h512v819h205v-921h512v-205h-512v-922h-205v820h-512z" />
<glyph unicode="&#x253e;" d="M0 512v205h512v921h205v-819h512v-409h-512v-820h-205v922h-512z" />
<glyph unicode="&#x253f;" d="M0 410v409h512v819h205v-819h512v-409h-512v-820h-205v820h-512z" />
<glyph unicode="&#x2540;" d="M0 512v205h410v921h409v-921h410v-205h-512v-922h-205v922h-512z" />
<glyph unicode="&#x2541;" d="M0 512v205h512v921h205v-921h512v-205h-410v-922h-409v922h-410z" />
<glyph unicode="&#x2542;" d="M0 512v205h410v921h409v-921h410v-205h-410v-922h-409v922h-410z" />
<glyph unicode="&#x2543;" d="M0 410v409h410v819h409v-921h410v-205h-410v-102h-102v-820h-205v820h-512z" />
<glyph unicode="&#x2544;" d="M0 512v205h410v921h409v-819h410v-409h-512v-820h-205v820h-102v102h-410z" />
<glyph unicode="&#x2545;" d="M0 410v409h512v819h205v-819h102v-102h410v-205h-410v-922h-409v820h-410z" />
<glyph unicode="&#x2546;" d="M0 512v205h410v102h102v819h205v-819h512v-409h-410v-820h-409v922h-410z" />
<glyph unicode="&#x2547;" d="M0 410v409h410v819h409v-819h410v-409h-512v-820h-205v820h-512z" />
<glyph unicode="&#x2548;" d="M0 410v409h512v819h205v-819h512v-409h-410v-820h-409v820h-410z" />
<glyph unicode="&#x2549;" d="M0 410v409h410v819h409v-921h410v-205h-410v-922h-409v820h-410z" />
<glyph unicode="&#x254a;" d="M0 512v205h410v921h409v-819h410v-409h-410v-820h-409v922h-410z" />
<glyph unicode="&#x254b;" d="M0 410v409h410v819h409v-819h410v-409h-410v-820h-409v820h-410z" />
<glyph unicode="&#x254c;" d="M0 512v205h512v-205h-512zM717 512v205h512v-205h-512z" />
<glyph unicode="&#x254d;" d="M0 410v409h512v-409h-512zM717 410v409h512v-409h-512z" />
<glyph unicode="&#x254e;" d="M471 -410v922h287v-922h-287zM471 717v921h287v-921h-287z" />
<glyph unicode="&#x254f;" d="M369 -410v922h491v-922h-491zM369 717v921h491v-921h-491z" />
<glyph unicode="&#x2550;" d="M0 307v205h1229v-205h-1229zM0 717v205h1229v-205h-1229z" />
<glyph unicode="&#x2551;" d="M307 -410v2048h205v-2048h-205zM717 -410v2048h205v-2048h-205z" />
<glyph unicode="&#x2552;" d="M512 -410v1332h717v-205h-512v-205h512v-205h-512v-717h-205z" />
<glyph unicode="&#x2553;" d="M307 -410v1127h922v-205h-307v-922h-205v922h-205v-922h-205z" />
<glyph unicode="&#x2554;" d="M307 -410v1332h922v-205h-717v-1127h-205zM717 -410v922h512v-205h-307v-717h-205z" />
<glyph unicode="&#x2555;" d="M0 307v205h512v205h-512v205h717v-1332h-205v717h-512z" />
<glyph unicode="&#x2556;" d="M0 512v205h922v-1127h-205v922h-205v-922h-205v922h-307z" />
<glyph unicode="&#x2557;" d="M0 307v205h512v-922h-205v717h-307zM0 717v205h922v-1332h-205v1127h-717z" />
<glyph unicode="&#x2558;" d="M512 307v1331h205v-716h512v-205h-512v-205h512v-205h-717z" />
<glyph unicode="&#x2559;" d="M307 512v1126h205v-921h205v921h205v-921h307v-205h-922z" />
<glyph unicode="&#x255a;" d="M307 307v1331h205v-1126h717v-205h-922zM717 717v921h205v-716h307v-205h-512z" />
<glyph unicode="&#x255b;" d="M0 307v205h512v205h-512v205h512v716h205v-1331h-717z" />
<glyph unicode="&#x255c;" d="M0 512v205h307v921h205v-921h205v921h205v-1126h-922z" />
<glyph unicode="&#x255d;" d="M0 307v205h717v1126h205v-1331h-922zM0 717v205h307v716h205v-921h-512z" />
<glyph unicode="&#x255e;" d="M512 -410v2048h205v-716h512v-205h-512v-205h512v-205h-512v-717h-205z" />
<glyph unicode="&#x255f;" d="M307 -410v2048h205v-2048h-205zM717 -410v2048h205v-921h307v-205h-307v-922h-205z" />
<glyph unicode="&#x2560;" d="M307 -410v2048h205v-2048h-205zM717 -410v922h512v-205h-307v-717h-205zM717 717v921h205v-716h307v-205h-512z" />
<glyph unicode="&#x2561;" d="M0 307v205h512v205h-512v205h512v716h205v-2048h-205v717h-512z" />
<glyph unicode="&#x2562;" d="M0 512v205h307v921h205v-2048h-205v922h-307zM717 -410v2048h205v-2048h-205z" />
<glyph unicode="&#x2563;" d="M0 307v205h512v-922h-205v717h-307zM0 717v205h307v716h205v-921h-512zM717 -410v2048h205v-2048h-205z" />
<glyph unicode="&#x2564;" d="M0 307v205h1229v-205h-512v-717h-205v717h-512zM0 717v205h1229v-205h-1229z" />
<glyph unicode="&#x2565;" d="M0 512v205h1229v-205h-307v-922h-205v922h-205v-922h-205v922h-307z" />
<glyph unicode="&#x2566;" d="M0 307v205h512v-922h-205v717h-307zM0 717v205h1229v-205h-1229zM717 -410v922h512v-205h-307v-717h-205z" />
<glyph unicode="&#x2567;" d="M0 307v205h1229v-205h-1229zM0 717v205h512v716h205v-716h512v-205h-1229z" />
<glyph unicode="&#x2568;" d="M0 512v205h307v921h205v-921h205v921h205v-921h307v-205h-1229z" />
<glyph unicode="&#x2569;" d="M0 307v205h1229v-205h-1229zM0 717v205h307v716h205v-921h-512zM717 717v921h205v-716h307v-205h-512z" />
<glyph unicode="&#x256a;" d="M0 307v205h512v205h-512v205h512v716h205v-716h512v-205h-512v-205h512v-205h-512v-717h-205v717h-512z" />
<glyph unicode="&#x256b;" d="M0 512v205h307v921h205v-2048h-205v922h-307zM717 -410v2048h205v-921h307v-205h-307v-922h-205z" />
<glyph unicode="&#x256c;" d="M0 307v205h512v-922h-205v717h-307zM0 717v205h307v716h205v-921h-512zM717 -410v922h512v-205h-307v-717h-205zM717 717v921h205v-716h307v-205h-512z" />
<glyph unicode="&#x256d;" d="M512 205q0 246 133 379t379 133h205v-205h-205q-164 0 -235.5 -71.5t-71.5 -235.5v-615h-205v615z" />
<glyph unicode="&#x256e;" d="M0 512v205h205q246 0 379 -133t133 -379v-615h-205v615q0 164 -71.5 235.5t-235.5 71.5h-205z" />
<glyph unicode="&#x256f;" d="M0 512v205h205q164 0 235.5 71.5t71.5 235.5v615h205v-615q0 -246 -133 -379t-379 -133h-205z" />
<glyph unicode="&#x2570;" d="M512 1024v614h205v-614q0 -164 71.5 -235.5t235.5 -71.5h205v-205h-205q-246 0 -379 133t-133 379z" />
<glyph unicode="&#x2571;" d="M0 -303l1053 1933l176 -106l-1053 -1934z" />
<glyph unicode="&#x2572;" d="M0 1532l176 106l1053 -1941l-176 -107z" />
<glyph unicode="&#x2573;" d="M0 -303l494 917l-494 918l176 106l438 -823l439 823l176 -106l-494 -918l494 -917l-176 -107l-439 824l-438 -824z" />
<glyph unicode="&#x2574;" d="M0 512v205h614v-205h-614z" />
<glyph unicode="&#x2575;" d="M512 614v1024h205v-1024h-205z" />
<glyph unicode="&#x2576;" d="M614 512v205h614v-205h-614z" />
<glyph unicode="&#x2577;" d="M512 -410v1024h205v-1024h-205z" />
<glyph unicode="&#x2578;" d="M0 410v409h614v-409h-614z" />
<glyph unicode="&#x2579;" d="M410 614v1024h409v-1024h-409z" />
<glyph unicode="&#x257a;" d="M614 410v409h614v-409h-614z" />
<glyph unicode="&#x257b;" d="M410 -410v1024h409v-1024h-409z" />
<glyph unicode="&#x257c;" d="M0 512v205h614v102h615v-409h-615v102h-614z" />
<glyph unicode="&#x257d;" d="M410 -410v1024h102v1024h205v-1024h102v-1024h-409z" />
<glyph unicode="&#x257e;" d="M0 410v409h614v-102h615v-205h-615v-102h-614z" />
<glyph unicode="&#x257f;" d="M410 614v1024h409v-1024h-102v-1024h-205v1024h-102z" />
<glyph unicode="&#x2580;" d="M0 614v1024h1229v-1024h-1229z" />
<glyph unicode="&#x2581;" d="M0 -154h1229v-256h-1229v256z" />
<glyph unicode="&#x2582;" d="M0 102h1229v-512h-1229v512z" />
<glyph unicode="&#x2583;" d="M0 358h1229v-768h-1229v768z" />
<glyph unicode="&#x2584;" d="M0 -410v1024h1229v-1024h-1229z" />
<glyph unicode="&#x2585;" d="M0 -410v1280h1229v-1280h-1229z" />
<glyph unicode="&#x2586;" d="M0 -410v1536h1229v-1536h-1229z" />
<glyph unicode="&#x2587;" d="M0 -410v1792h1229v-1792h-1229z" />
<glyph unicode="&#x2588;" d="M0 -410v2048h1229v-2048h-1229z" />
<glyph unicode="&#x2589;" d="M0 -410v2048h1075v-2048h-1075z" />
<glyph unicode="&#x258a;" d="M0 -410v2048h922v-2048h-922z" />
<glyph unicode="&#x258b;" d="M0 -410v2048h768v-2048h-768z" />
<glyph unicode="&#x258c;" d="M0 -410v2048h614v-2048h-614z" />
<glyph unicode="&#x258d;" d="M0 -410v2048h461v-2048h-461z" />
<glyph unicode="&#x258e;" d="M0 -410v2048h307v-2048h-307z" />
<glyph unicode="&#x258f;" d="M0 -410v2048h154v-2048h-154z" />
<glyph unicode="&#x2590;" d="M614 -410v2048h615v-2048h-615z" />
<glyph unicode="&#x2591;" d="M0 0v102h102v-102h-102zM0 -307h102v-103h-102v103zM0 410v102h102v-102h-102zM0 819v103h102v-103h-102zM0 1229v102h102v-102h-102zM205 -102h102v-103h-102v103zM205 205v102h102v-102h-102zM205 614v103h102v-103h-102zM205 1024v102h102v-102h-102zM205 1434v102 h102v-102h-102zM410 0v102h102v-102h-102zM410 -307h102v-103h-102v103zM410 410v102h102v-102h-102zM410 819v103h102v-103h-102zM410 1229v102h102v-102h-102zM614 -102h103v-103h-103v103zM614 205v102h103v-102h-103zM614 614v103h103v-103h-103zM614 1024v102h103v-102 h-103zM614 1434v102h103v-102h-103zM819 0v102h103v-102h-103zM819 -307h103v-103h-103v103zM819 410v102h103v-102h-103zM819 819v103h103v-103h-103zM819 1229v102h103v-102h-103zM1024 -102h102v-103h-102v103zM1024 205v102h102v-102h-102zM1024 614v103h102v-103h-102z M1024 1024v102h102v-102h-102zM1024 1434v102h102v-102h-102z" />
<glyph unicode="&#x2592;" d="M0 0v102h102v-102h-102zM0 -307h102v-103h-102v103zM0 410v102h102v-102h-102zM0 819v103h102v-103h-102zM0 1229v102h102v-102h-102zM102 -102h103v-103h-103v103zM102 205v102h103v-102h-103zM102 614v103h103v-103h-103zM102 1024v102h103v-102h-103zM102 1434v102 h103v-102h-103zM205 0v102h102v-102h-102zM205 -307h102v-103h-102v103zM205 410v102h102v-102h-102zM205 819v103h102v-103h-102zM205 1229v102h102v-102h-102zM307 -102h103v-103h-103v103zM307 205v102h103v-102h-103zM307 614v103h103v-103h-103zM307 1024v102h103v-102 h-103zM307 1434v102h103v-102h-103zM410 0v102h102v-102h-102zM410 -307h102v-103h-102v103zM410 410v102h102v-102h-102zM410 819v103h102v-103h-102zM410 1229v102h102v-102h-102zM512 -102h102v-103h-102v103zM512 205v102h102v-102h-102zM512 614v103h102v-103h-102z M512 1024v102h102v-102h-102zM512 1434v102h102v-102h-102zM614 0v102h103v-102h-103zM614 -307h103v-103h-103v103zM614 410v102h103v-102h-103zM614 819v103h103v-103h-103zM614 1229v102h103v-102h-103zM717 -102h102v-103h-102v103zM717 205v102h102v-102h-102zM717 614 v103h102v-103h-102zM717 1024v102h102v-102h-102zM717 1434v102h102v-102h-102zM819 0v102h103v-102h-103zM819 -307h103v-103h-103v103zM819 410v102h103v-102h-103zM819 819v103h103v-103h-103zM819 1229v102h103v-102h-103zM922 -102h102v-103h-102v103zM922 205v102h102 v-102h-102zM922 614v103h102v-103h-102zM922 1024v102h102v-102h-102zM922 1434v102h102v-102h-102zM1024 0v102h102v-102h-102zM1024 -307h102v-103h-102v103zM1024 410v102h102v-102h-102zM1024 819v103h102v-103h-102zM1024 1229v102h102v-102h-102zM1126 -102h103v-103 h-103v103zM1126 205v102h103v-102h-103zM1126 614v103h103v-103h-103zM1126 1024v102h103v-102h-103zM1126 1434v102h103v-102h-103z" />
<glyph unicode="&#x2593;" />
<glyph unicode="&#x2594;" d="M0 1382v256h1229v-256h-1229z" />
<glyph unicode="&#x2595;" d="M1075 -410v2048h154v-2048h-154z" />
<glyph unicode="&#x25a0;" d="M102 0v1024h1024v-1024h-1024z" />
<glyph unicode="&#x25a1;" d="M102 0v1024h1024v-1024h-1024zM283 180h663v664h-663v-664z" />
<glyph unicode="&#x25a3;" d="M102 0v1024h1024v-1024h-1024zM283 180h663v664h-663v-664zM422 319v386h385v-386h-385z" />
<glyph unicode="&#x25a4;" d="M102 0v1024h1024v-1024h-1024zM283 180h663v105h-663v-105zM283 465h663v98h-663v-98zM283 743h663v101h-663v-101z" />
<glyph unicode="&#x25a5;" d="M102 0v1024h1024v-1024h-1024zM283 180h100v664h-100v-664zM563 180h99v664h-99v-664zM842 180h104v664h-104v-664z" />
<glyph unicode="&#x25a6;" d="M102 0v1024h1024v-1024h-1024zM283 180h100v105h-100v-105zM283 465h100v98h-100v-98zM283 743h100v101h-100v-101zM563 180h103v105h-103v-105zM563 465h103v98h-103v-98zM563 743h103v101h-103v-101zM846 180h100v105h-100v-105zM846 465h100v98h-100v-98zM846 743h100 v101h-100v-101z" />
<glyph unicode="&#x25a7;" d="M102 0v1024h1024v-1024h-1024zM283 180h258l-258 258v-258zM283 692l512 -512h151v152l-512 512h-151v-152zM688 844l258 -258v258h-258z" />
<glyph unicode="&#x25a8;" d="M102 0v1024h1024v-1024h-1024zM283 180h151l512 512v152h-151l-512 -512v-152zM283 586l258 258h-258v-258zM688 180h258v258z" />
<glyph unicode="&#x25a9;" d="M102 0v1024h1024v-1024h-1024zM283 180h151l53 53l-151 152l-53 -53v-152zM283 692l53 -53l151 152l-53 53h-151v-152zM463 512l151 -152l152 152l-152 152zM741 233l54 -53h151v152l-53 53zM741 791l152 -152l53 53v152h-151z" />
<glyph unicode="&#x25aa;" d="M358 0v512h512v-512h-512z" />
<glyph unicode="&#x25ab;" d="M358 0v512h512v-512h-512zM518 160h193v192h-193v-192z" />
<glyph unicode="&#x25ac;" d="M102 0v614h1024v-614h-1024z" />
<glyph unicode="&#x25ad;" d="M102 0v614h1024v-614h-1024zM274 180h672v254h-672v-254z" />
<glyph unicode="&#x25ae;" d="M307 0v1024h615v-1024h-615z" />
<glyph unicode="&#x25af;" d="M307 0v1024h615v-1024h-615zM487 172h254v672h-254v-672z" />
<glyph unicode="&#x25b0;" d="M51 0l103 614h1024l-103 -614h-1024z" />
<glyph unicode="&#x25b1;" d="M51 0l103 614h1024l-103 -614h-1024zM254 180h672l41 254h-672z" />
<glyph unicode="&#x25b2;" d="M72 0l544 930l541 -930h-1085z" />
<glyph unicode="&#x25b3;" d="M72 0l544 930l541 -930h-1085zM387 180h455l-228 389z" />
<glyph unicode="&#x25b4;" d="M344 0l270 463l271 -463h-541z" />
<glyph unicode="&#x25b5;" d="M344 0l270 463l271 -463h-541zM559 123h111l-56 94z" />
<glyph unicode="&#x25b6;" d="M172 0v1085l940 -542z" />
<glyph unicode="&#x25b7;" d="M172 0v1085l940 -542zM354 315l396 228l-396 227v-455z" />
<glyph unicode="&#x25b8;" d="M408 0v545l469 -273z" />
<glyph unicode="&#x25b9;" d="M408 0v545l469 -273zM532 217l97 55l-97 56v-111z" />
<glyph unicode="&#x25ba;" d="M248 0v545l788 -273z" />
<glyph unicode="&#x25bc;" d="M72 930h1085l-541 -930z" />
<glyph unicode="&#x25bd;" d="M72 930h1085l-541 -930zM387 750l227 -390l228 390h-455z" />
<glyph unicode="&#x25be;" d="M344 463h541l-271 -463z" />
<glyph unicode="&#x25bf;" d="M344 463h541l-271 -463zM559 340l55 -94l56 94h-111z" />
<glyph unicode="&#x25c0;" d="M172 543l940 542v-1085z" />
<glyph unicode="&#x25c1;" d="M172 543l940 542v-1085zM535 543l395 -228v455z" />
<glyph unicode="&#x25c2;" d="M408 272l469 273v-545z" />
<glyph unicode="&#x25c3;" d="M408 272l469 273v-545zM655 272l97 -55v111z" />
<glyph unicode="&#x25c4;" d="M193 272l788 273v-545z" />
<glyph unicode="&#x25c5;" />
<glyph unicode="&#x25c6;" d="M72 543l542 542l543 -542l-543 -543z" />
<glyph unicode="&#x25c7;" d="M72 543l542 542l543 -542l-543 -543zM328 543l286 -287l287 287l-287 286z" />
<glyph unicode="&#x25c9;" d="M68 547q0 227 163 385t390 158q223 0 381.5 -161t158.5 -386.5t-160.5 -386t-386.5 -160.5q-227 0 -386.5 160.5t-159.5 390.5zM240 547q0 -158 109.5 -268.5t265 -110.5t265 109.5t109.5 265.5q0 154 -109 264.5t-259 110.5q-160 0 -270.5 -109t-110.5 -262zM414 547 q0 84 59 141t145 57q80 0 138.5 -59t58.5 -141t-59.5 -141.5t-141.5 -59.5q-84 0 -142 59.5t-58 143.5z" />
<glyph unicode="&#x25ca;" d="M147 592l465 622l471 -624l-471 -629zM362 590l252 -367l252 367l-254 368z" />
<glyph unicode="&#x25cb;" d="M68 547q0 227 163 385t390 158q223 0 381.5 -161t158.5 -386.5t-160.5 -386t-386.5 -160.5q-227 0 -386.5 160.5t-159.5 390.5zM240 547q0 -158 109.5 -268.5t265 -110.5t265 109.5t109.5 265.5q0 154 -109 264.5t-259 110.5q-160 0 -270.5 -109t-110.5 -262z" />
<glyph unicode="&#x25cd;" d="M68 547q0 227 163 385t390 158q223 0 381.5 -161t158.5 -386.5t-160.5 -386t-386.5 -160.5q-227 0 -386.5 160.5t-159.5 390.5zM240 547q0 -180 137 -295v582q-137 -115 -137 -287zM557 172q37 -4 57.5 -4t57.5 4v741q-33 4 -51 5q-23 0 -64 -5v-741zM852 254 q137 111 137 288.5t-137 288.5v-577z" />
<glyph unicode="&#x25cf;" d="M68 547q0 227 163 385t390 158q223 0 381.5 -161t158.5 -386.5t-160.5 -386t-386.5 -160.5q-227 0 -386.5 160.5t-159.5 390.5z" />
<glyph unicode="&#x25d0;" d="M68 547q0 227 163 385t390 158q223 0 381.5 -161t158.5 -386.5t-160.5 -386t-386.5 -160.5q-227 0 -386.5 160.5t-159.5 390.5zM614 168q156 0 265.5 109.5t109.5 265.5q0 154 -109.5 264.5t-258.5 110.5h-7v-750z" />
<glyph unicode="&#x25d1;" d="M68 542.5q0 225.5 158.5 386.5t381.5 161q227 0 390 -158t163 -385q0 -229 -159.5 -390t-387.5 -161q-225 0 -385.5 160.5t-160.5 386zM240 543q0 -156 109.5 -265.5t264.5 -109.5v750h-6q-150 0 -259 -111t-109 -264z" />
<glyph unicode="&#x25d2;" d="M68 543q0 227 160.5 386.5t390.5 159.5q227 0 385 -163t158 -390q0 -223 -161 -381.5t-386.5 -158.5t-386 160.5t-160.5 386.5zM240 543q0 -156 109.5 -265.5t265.5 -109.5q154 0 264.5 109.5t110.5 258.5v7h-750z" />
<glyph unicode="&#x25d3;" d="M67 549q0 223 161 381.5t386.5 158.5t386 -160.5t160.5 -386.5q0 -227 -160.5 -386.5t-390.5 -159.5q-227 0 -385 163t-158 390zM239 542h750q0 156 -109.5 265.5t-265.5 109.5q-154 0 -264.5 -109.5t-110.5 -258.5v-7z" />
<glyph unicode="&#x25d4;" d="M68 542.5q0 225.5 158.5 386.5t381.5 161q227 0 390 -158t163 -385q0 -229 -159.5 -390t-387.5 -161q-225 0 -385.5 160.5t-160.5 386zM240 543q0 -156 109.5 -265.5t265 -109.5t264 109.5t110.5 267.5h-383v373q-150 -2 -258 -112t-108 -263z" />
<glyph unicode="&#x25d5;" d="M68 547q0 227 163 385t390 158q223 0 381.5 -161t158.5 -386.5t-160.5 -386t-386.5 -160.5q-227 0 -386.5 160.5t-159.5 390.5zM240 549h374v369q-156 -2 -264 -109.5t-110 -259.5z" />
<glyph unicode="&#x25d6;" d="M72 547q0 225 157.5 381.5t384.5 156.5v-1085q-227 0 -384.5 159.5t-157.5 387.5z" />
<glyph unicode="&#x25d7;" d="M618 0v1085q227 0 385 -156.5t158 -381.5q0 -227 -158 -387t-385 -160z" />
<glyph unicode="&#x25d8;" d="M0 -410v2048h1229v-2048h-1229zM414 547q0 -84 58 -143.5t142 -59.5q82 0 141.5 59.5t59.5 141.5t-58.5 141t-138.5 59q-86 0 -145 -57t-59 -141z" />
<glyph unicode="&#x25d9;" d="M0 0v1229h1229v-1229h-1229zM68 614q0 -229 159.5 -390t386.5 -161q225 0 386 161t161 386.5t-158.5 386t-381.5 160.5q-227 0 -390 -157.5t-163 -385.5zM240 614q0 154 110.5 262.5t270.5 108.5q150 0 259 -110.5t109 -264.5q0 -156 -109.5 -265t-265 -109t-265 110.5 t-109.5 267.5z" />
<glyph unicode="&#x25e2;" d="M102 0l1024 1024v-1024h-1024z" />
<glyph unicode="&#x25e3;" d="M102 0v1024l1024 -1024h-1024z" />
<glyph unicode="&#x25e4;" d="M103 0v1024h1024z" />
<glyph unicode="&#x25e5;" d="M102 1024h1024v-1024z" />
<glyph unicode="&#x25e6;" d="M352 546.5q0 108.5 77.5 184.5t188.5 76q106 -2 182.5 -78t76.5 -184.5t-77 -185t-185.5 -76.5t-185.5 77.5t-77 186zM475 547q0 -59 41 -100t98.5 -41t98.5 40.5t41 98.5q0 53 -40 96t-91 43h-5q-61 0 -102 -40t-41 -97z" />
<glyph unicode="&#x25e7;" d="M102 0v1024h1024v-1024h-1024zM614 180h332v664h-332v-664z" />
<glyph unicode="&#x25e8;" d="M103 0v1024h1024v-1024h-1024zM283 180h332v664h-332v-664z" />
<glyph unicode="&#x25e9;" d="M102 0v1024h1024v-1024h-1024zM283 180h663v664z" />
<glyph unicode="&#x25ea;" d="M103 0v1024h1024v-1024h-1024zM283 180l663 664h-663v-664z" />
<glyph unicode="&#x25eb;" d="M102 0v1024h1024v-1024h-1024zM283 180h241v664h-241v-664zM705 180h241v664h-241v-664z" />
<glyph unicode="&#x25ec;" d="M72 0l544 930l541 -930h-1085zM387 180h455l-228 389zM524 315q0 39 26.5 65t65.5 26q35 0 62 -28t27 -63q0 -37 -27 -63.5t-63.5 -26.5t-63.5 27t-27 63z" />
<glyph unicode="&#x25ed;" d="M72 0l544 930l541 -930h-1085zM614 180h228l-228 389v-389z" />
<glyph unicode="&#x25ee;" d="M72 0l540 930l545 -930h-1085zM387 180h227v389z" />
<glyph unicode="&#x25ef;" d="M0 618q0 254 182.5 432.5t442.5 178.5q246 0 425 -181.5t179 -433.5q0 -254 -180.5 -434t-434.5 -180t-434 181t-180 437zM123 618q0 -201 146.5 -348t344.5 -147q201 0 346.5 145.5t145.5 346t-143 346t-342 145.5q-201 0 -349.5 -144.5t-148.5 -343.5z" />
<glyph unicode="&#x25f0;" d="M102 0v1024h1024v-1024h-1024zM283 180h663v664h-241v-422h-422v-242zM283 602h241v242h-241v-242z" />
<glyph unicode="&#x25f1;" d="M102 0v1024h1024v-1024h-1024zM283 180h241v242h-241v-242zM283 602h422v-422h241v664h-663v-242z" />
<glyph unicode="&#x25f2;" d="M103 0v1024h1024v-1024h-1024zM283 180h241v422h422v242h-663v-664zM705 180h241v242h-241v-242z" />
<glyph unicode="&#x25f3;" d="M102 0v1024h1024v-1024h-1024zM283 180h663v242h-422v422h-241v-664zM705 602h241v242h-241v-242z" />
<glyph unicode="&#x25f4;" d="M68 547q0 227 163 385t390 158q223 0 381.5 -161t158.5 -386.5t-160.5 -386t-386.5 -160.5q-227 0 -386.5 160.5t-159.5 390.5zM250 459q29 -127 130 -209t234 -82q156 0 265.5 109.5t109.5 265.5q0 131 -82 233.5t-202 130.5v-448h-455zM252 639h272v266 q-100 -25 -173.5 -96.5t-98.5 -169.5z" />
<glyph unicode="&#x25f5;" d="M68 539q0 229 159.5 390t386.5 161q225 0 386 -161t161 -386.5t-158.5 -386t-381.5 -160.5q-227 0 -390 157.5t-163 385.5zM250 627h455v-449q121 29 202.5 131.5t81.5 233.5q0 156 -109.5 265.5t-265.5 109.5q-133 0 -234 -82t-130 -209zM252 446q25 -98 98.5 -169.5 t173.5 -96.5v266h-272z" />
<glyph unicode="&#x25f6;" d="M68 542.5q0 225.5 160.5 386t386.5 160.5q227 0 386.5 -160.5t159.5 -390.5q0 -227 -163 -385t-390 -158q-223 0 -381.5 161t-158.5 386.5zM240 542q0 -131 82 -233.5t202 -130.5v448h455q-29 127 -130 209t-234 82q-156 0 -265.5 -109.5t-109.5 -265.5zM705 180 q100 25 173.5 96.5t98.5 169.5h-272v-266z" />
<glyph unicode="&#x25f7;" d="M68 542.5q0 225.5 158.5 386.5t381.5 161q227 0 390 -158t163 -385q0 -229 -159.5 -390t-387.5 -161q-225 0 -385.5 160.5t-160.5 386zM240 543q0 -156 109.5 -265.5t264.5 -109.5q133 0 234.5 82t130.5 209h-455v448q-121 -29 -202.5 -131t-81.5 -233zM705 639h272 q-25 98 -98.5 170t-173.5 96v-266z" />
<glyph unicode="&#xe000;" horiz-adv-x="890" d="M0 0v891h891v-891h-891z" />
<glyph unicode="&#xfb01;" d="M125 102q0 61 36 82t101 21h86v485h-78q-137 0 -137 103q0 61 36 81.5t101 20.5h78v80q0 127 81 214t198 87q102 0 174.5 -37t72.5 -94q0 -43 -29.5 -74t-70.5 -31q-16 0 -71.5 16.5t-69.5 16.5q-33 0 -56.5 -29.5t-23.5 -68.5v-80h367v-690h73q66 0 100.5 -21.5 t34.5 -81.5q0 -102 -135 -102h-731q-137 0 -137 102zM553 205h162v485h-162v-485z" />
<glyph unicode="&#xfb02;" d="M16 102q0 59 35 81t101 22h88v485h-76q-137 0 -137 103q0 61 35.5 81.5t101.5 20.5h76v78q0 125 79.5 214t192.5 89h485v-1071h76q137 0 137 -102.5t-137 -102.5h-921q-135 0 -136 102zM444 205h349v866h-267q-82 0 -82 -98v-78h68q135 0 135 -102.5t-135 -102.5h-68 v-485z" />
</font>
</defs>
</svg>
